<svg width="80" height="80" viewBox="0 0 80 80" fill="none" xmlns="http://www.w3.org/2000/svg">
<path d="M25.0687 48.2027C18.4723 48.2027 14.665 43.9749 14.665 38.7288C14.665 34.0582 17.7197 30.5829 21.7262 29.4098C22.4567 21.1975 29.3187 14.6676 37.6416 14.6676C44.0387 14.6676 49.1742 18.1871 51.9411 23.6546C59.445 23.6546 65.2002 28.8121 65.2002 35.8733C65.2002 42.691 59.7992 48.2027 52.5387 48.2027H25.0687ZM25.0244 44.6611H52.7601C57.807 44.6611 61.6585 40.7874 61.6585 35.9618C61.6585 31.247 57.9619 27.3069 51.4098 27.3069C50.1038 27.3069 49.4398 26.9306 48.9307 25.846C46.54 20.954 42.6221 18.2092 37.6416 18.2092C31.2223 18.2092 25.7992 23.4111 25.29 30.6493C25.1794 31.8889 24.7367 32.4645 23.5192 32.7965C19.7562 33.7926 18.2067 36.1832 18.2067 38.8395C18.2067 42.1155 20.4867 44.6611 25.0244 44.6611ZM43.264 58.54C42.8877 59.1819 42.0908 59.4254 41.4268 59.0491C40.7406 58.6506 40.5635 57.8759 40.9398 57.2561L43.8395 52.2092C44.238 51.523 44.9906 51.3238 45.6546 51.7001C46.3187 52.0986 46.54 52.8733 46.1416 53.5374L43.264 58.54ZM48.3994 64.8486C48.0231 65.5126 47.2705 65.7118 46.6286 65.3355C45.9867 64.9371 45.7874 64.1624 46.1637 63.4983L52.6715 52.2092C53.07 51.523 53.8669 51.3238 54.4867 51.7223C55.1286 52.0986 55.3278 52.8512 54.9515 53.5152L48.3994 64.8486ZM25.6442 58.5621C25.2679 59.204 24.471 59.4475 23.8291 59.0712C23.1429 58.6728 22.9437 57.898 23.32 57.2783L26.2197 52.2314C26.6403 51.5452 27.3929 51.346 28.057 51.7223C28.721 52.1207 28.9424 52.8954 28.5218 53.5595L25.6442 58.5621ZM30.8018 64.8707C30.4255 65.5126 29.6729 65.734 29.0309 65.3577C28.3669 64.9592 28.1898 64.1845 28.5661 63.5204L35.0518 52.2314C35.4281 51.5452 36.2471 51.346 36.889 51.7444C37.5309 52.1207 37.708 52.8733 37.3317 53.5374L30.8018 64.8707Z" fill="white"/>
</svg>
