<svg width="80" height="80" viewBox="0 0 80 80" fill="none" xmlns="http://www.w3.org/2000/svg">
<path d="M37.1894 59.047C36.149 59.047 35.2857 58.6264 34.2896 57.6525L24.8378 48.7098C24.705 48.5769 24.5058 48.5105 24.2844 48.5105H17.9537C14.9433 48.5105 13.3274 46.8725 13.3274 43.6629V35.4285C13.3274 32.241 14.9433 30.5809 17.9537 30.5809H24.2844C24.5058 30.5809 24.705 30.5144 24.8378 30.3816L34.2896 21.5275C35.3964 20.4428 36.1047 20.0001 37.1451 20.0001C38.6503 20.0001 39.6907 21.1733 39.6907 22.6121V56.5678C39.6907 58.0066 38.6503 59.047 37.1894 59.047ZM46.7519 39.5014C46.7519 38.3947 47.5266 37.6199 48.6555 37.6199H55.1633V31.1121C55.1633 29.9832 55.9159 29.2085 57.0006 29.2085C58.1073 29.2085 58.8821 29.9832 58.8821 31.1121V37.6199H65.412C66.5188 37.6199 67.2714 38.3947 67.2714 39.5014C67.2714 40.5861 66.5188 41.3165 65.412 41.3165H58.8821V47.8465C58.8821 48.9754 58.1073 49.728 57.0006 49.728C55.9159 49.728 55.1633 48.9532 55.1633 47.8465V41.3165H48.6555C47.5266 41.3165 46.7519 40.5861 46.7519 39.5014Z" fill="white"/>
</svg>
