<svg width="80" height="80" viewBox="0 0 80 80" fill="none" xmlns="http://www.w3.org/2000/svg">
<path d="M37.8225 20.3645L41.6168 18.1606C36.7379 17.9175 31.682 19.3146 27.344 22.4892C17.5117 29.6844 15.212 43.1657 22.0212 52.5727C22.5815 53.3468 22.4117 54.431 21.6418 54.9944C20.8719 55.5578 19.7936 55.387 19.2333 54.6129C11.2339 43.5617 14.0401 27.9368 25.3149 19.6859C31.8209 14.9249 39.7653 13.6196 46.8626 15.4783C48.4681 15.8988 48.7154 18.0413 47.3164 18.8539L39.5474 23.3667C38.7229 23.8456 37.6684 23.5618 37.1921 22.7328C36.7158 21.9038 36.998 20.8435 37.8225 20.3645Z" fill="white"/>
<path d="M38.3988 61.8402C43.2779 62.0793 48.3326 60.6781 52.6681 57.5001C62.4946 50.2969 64.7835 36.8137 57.9668 27.4123C57.4058 26.6386 57.5749 25.5542 58.3443 24.9902C59.1137 24.4262 60.1922 24.5961 60.7531 25.3698C68.7614 36.4145 65.9676 52.0417 54.6994 60.3017C48.1973 65.068 40.2539 66.3797 33.1551 64.5267C31.5493 64.1075 31.3002 61.9653 32.6986 61.1515L40.464 56.6324C41.2881 56.1529 42.3428 56.4358 42.8198 57.2644C43.2968 58.0931 43.0154 59.1536 42.1913 59.6332L38.3988 61.8402Z" fill="white"/>
<path d="M32.585 48.0001L28.185 33.0001H30.185L33.725 45.9401L37.285 33.0001H39.105L34.705 48.0001H32.585ZM41.2753 48.0001V33.0001H46.5353C49.4753 33.0001 51.1753 34.5001 51.1753 37.1201C51.1753 39.2001 50.0153 40.6001 47.9753 41.1201L51.2353 48.0001H49.0553L46.0553 41.3401H43.1353V48.0001H41.2753ZM46.3753 34.5801H43.1353V39.8401H46.3753C48.2553 39.8401 49.2553 38.9201 49.2553 37.1801C49.2553 35.4801 48.2553 34.5801 46.3753 34.5801Z" fill="white"/>
</svg>
