<svg width="80" height="80" viewBox="0 0 80 80" fill="none" xmlns="http://www.w3.org/2000/svg">
<path d="M17.332 41.5297C17.332 30.639 25.2786 21.4086 35.638 19.3721V16.251C35.638 14.6573 36.7227 14.2367 37.9622 15.1221L45.0013 20.0805C46.0195 20.8109 45.9974 21.8734 45.0013 22.5596L37.9401 27.518C36.7227 28.3812 35.638 27.9607 35.638 26.389V23.2237C27.2708 25.1273 21.1172 32.5648 21.1172 41.5297C21.1172 51.9776 29.4622 60.3448 39.9102 60.3448C50.3581 60.3448 58.7474 51.9776 58.7253 41.5297C58.7031 35.2432 55.6484 29.6872 50.9336 26.3226C50.026 25.6364 49.7383 24.5961 50.2917 23.6664C50.8451 22.7588 52.0625 22.5153 53.0365 23.268C58.7253 27.4073 62.4883 34.0922 62.4883 41.5297C62.4883 53.8812 52.2617 64.1078 39.9102 64.1078C27.5807 64.1078 17.332 53.8812 17.332 41.5297ZM34 50.6273C33.0482 50.6273 32.4727 49.9411 32.4727 48.9893V36.4828H32.4284L30.237 38.1208C29.9935 38.32 29.7721 38.4086 29.4401 38.4086C28.8203 38.4086 28.3555 37.9216 28.3555 37.2797C28.3555 36.7484 28.6211 36.3721 29.0638 36.0622L31.5651 34.2028C32.2513 33.6716 32.8932 33.2732 33.7786 33.2732C34.8633 33.2732 35.5495 33.9151 35.5495 34.9997V48.9893C35.5495 49.9411 34.974 50.6273 34 50.6273ZM44.8906 50.7601C42.7435 50.7601 40.3086 49.5206 39.7552 47.3956C39.6888 47.1521 39.6445 46.8864 39.6445 46.6208C39.6445 45.8461 40.1315 45.337 40.9062 45.337C41.5039 45.337 41.9466 45.669 42.2344 46.2888C42.6771 47.4398 43.5625 48.3031 44.8906 48.3031C46.5729 48.3031 47.5247 46.7315 47.5247 44.85C47.5247 43.0791 46.6615 41.5075 44.9128 41.5075C44.0273 41.5075 43.2747 41.9502 42.7435 42.6586C42.3008 43.1898 41.9909 43.4776 41.2826 43.4776C40.3086 43.4776 39.7995 42.7471 39.8659 41.751L40.3529 35.3096C40.4193 34.1364 40.9505 33.5388 42.1016 33.5388H48.5208C49.2734 33.5388 49.7383 34.0258 49.7383 34.7784C49.7383 35.531 49.2513 36.018 48.5208 36.018H42.8984L42.5 41.0648H42.5885C43.1862 39.9359 44.4258 39.2497 45.8867 39.2497C48.8307 39.2497 50.4909 41.7953 50.4909 44.7614C50.4909 48.2146 48.3437 50.7601 44.8906 50.7601Z" fill="white"/>
</svg>
