<svg width="80" height="80" viewBox="0 0 80 80" fill="none" xmlns="http://www.w3.org/2000/svg">
<path d="M37.7132 19.3314L41.7072 17.0115C36.5715 16.7556 31.2495 18.2263 26.6832 21.5679C16.3334 29.1418 13.9126 43.3326 21.0802 53.2347C21.6701 54.0496 21.4912 55.1909 20.6808 55.7839C19.8704 56.377 18.7353 56.1972 18.1455 55.3823C9.72511 43.7495 12.6791 27.3022 24.5473 18.6171C31.3956 13.6055 39.7582 12.2315 47.2291 14.1881C48.919 14.6307 49.1794 16.8859 47.7068 17.7413L39.5288 22.4916C38.661 22.9957 37.5509 22.6969 37.0496 21.8243C36.5482 20.9517 36.8453 19.8356 37.7132 19.3314Z" fill="white"/>
<path d="M38.3198 62.99C43.4557 63.2417 48.7765 61.7668 53.3401 58.4215C63.6838 50.8392 66.0932 36.6464 58.9177 26.7501C58.3272 25.9357 58.5051 24.7943 59.315 24.2006C60.125 23.6069 61.2602 23.7857 61.8507 24.6001C70.2804 36.2262 67.3396 52.6758 55.4784 61.3705C48.634 66.3877 40.2725 67.7685 32.8001 65.8179C31.1098 65.3767 30.8476 63.1217 32.3196 62.2651L40.4937 57.5082C41.3612 57.0033 42.4714 57.3012 42.9735 58.1734C43.4756 59.0457 43.1794 60.162 42.3119 60.6668L38.3198 62.99Z" fill="white"/>
<path d="M27.9752 47.3336L32.3752 32.3336H34.9152L39.3152 47.3336H37.3152L36.2552 43.5736H30.8552L29.8152 47.3336H27.9752ZM31.2752 42.0536H35.8352L33.5552 33.9736L31.2752 42.0536ZM41.4381 47.3336V32.3336H46.6981C49.6381 32.3336 51.3381 33.8336 51.3381 36.4536C51.3381 38.5336 50.1781 39.9336 48.1381 40.4536L51.3981 47.3336H49.2181L46.2181 40.6736H43.2981V47.3336H41.4381ZM46.5381 33.9136H43.2981V39.1736H46.5381C48.4181 39.1736 49.4181 38.2536 49.4181 36.5136C49.4181 34.8136 48.4181 33.9136 46.5381 33.9136Z" fill="white"/>
</svg>
