<svg width="80" height="80" viewBox="0 0 80 80" fill="none" xmlns="http://www.w3.org/2000/svg">
<path d="M39.7163 47.4049C25.771 47.4049 17.3374 43.5312 17.3374 34.2565V25.4466C17.3374 18.983 26.2801 14.6666 39.7163 14.6666C53.1304 14.6666 62.0952 18.983 62.0952 25.4466V34.2565C62.0952 43.5312 53.6395 47.4049 39.7163 47.4049ZM39.7163 32.6406C51.0054 32.6406 58.5314 29.7408 58.5314 25.4466C58.5314 21.1523 51.0054 18.2304 39.7163 18.2304C28.4272 18.2304 20.9012 21.1523 20.9012 25.4466C20.9012 29.7408 28.4272 32.6406 39.7163 32.6406ZM26.7671 36.8906C26.7671 37.6875 26.1252 38.3515 25.3283 38.3515C24.5314 38.3515 23.8674 37.6875 23.8674 36.8906V33.4375C22.7384 32.9062 21.7645 32.3307 20.9012 31.7109V34.2565C20.9012 41.2955 28.0067 43.8411 39.7163 43.8411C51.4259 43.8411 58.5314 41.2955 58.5314 34.2565V31.7109C57.5353 32.4414 56.3621 33.0833 55.034 33.6588V36.8906C55.034 37.6875 54.37 38.3515 53.5731 38.3515C52.7762 38.3515 52.1343 37.6875 52.1343 36.8906V34.677C50.9168 35.0312 49.633 35.319 48.2384 35.5403V38.3958C48.2384 39.1927 47.5965 39.8567 46.7996 39.8567C46.0028 39.8567 45.3387 39.1927 45.3387 38.3958V35.9388C43.922 36.0716 42.439 36.1601 40.8895 36.2044V38.9713C40.8895 39.7682 40.2476 40.4101 39.4507 40.4101C38.6538 40.4101 37.9897 39.7682 37.9897 38.9713V36.1822C36.4403 36.138 34.9572 36.0494 33.5627 35.8724V38.3958C33.5627 39.1927 32.8986 39.8567 32.1017 39.8567C31.3049 39.8567 30.6629 39.1927 30.6629 38.3958V35.4518C29.2684 35.2083 27.9624 34.8984 26.7671 34.5221V36.8906ZM29.1356 63.2981C28.6486 64.6484 26.922 64.6927 26.2358 63.608L21.853 56.7018C21.2554 55.75 21.6317 54.6875 22.6942 54.3333L30.3752 51.6549C31.5705 51.2343 32.9871 52.2968 32.478 53.7356L31.3491 56.9895C34.603 57.8086 38.1226 58.2291 41.7306 58.2291C46.4897 58.2291 51.0718 57.4765 55.1226 56.1041C56.4507 55.6171 57.314 56.6132 57.314 57.6315C57.314 58.2955 57.0262 59.0039 56.2072 59.2695C51.8022 60.7304 46.8439 61.5716 41.7306 61.5716C37.7463 61.5716 33.8504 61.0846 30.2424 60.1549L29.1356 63.2981Z" fill="white"/>
</svg>
