<svg width="80" height="80" viewBox="0 0 80 80" fill="none" xmlns="http://www.w3.org/2000/svg">
<path d="M9.32959 30.0001H35.1841C35.5521 30.0003 35.8501 30.299 35.8501 30.6671V49.3331C35.8501 49.7012 35.5521 49.9999 35.1841 50.0001H9.32959C8.9614 50.0001 8.6626 49.7013 8.6626 49.3331V30.6671C8.6626 30.2989 8.9614 30.0001 9.32959 30.0001ZM45.4751 30.0001H71.3296C71.6976 30.0003 71.9956 30.299 71.9956 30.6671V49.3331C71.9956 49.7012 71.6976 49.9999 71.3296 50.0001H45.4751C45.1069 50.0001 44.8081 49.7013 44.8081 49.3331V30.6671C44.8081 30.2989 45.1069 30.0001 45.4751 30.0001Z" stroke="white" stroke-width="4"/>
</svg>
