<svg width="80" height="80" viewBox="0 0 80 80" fill="none" xmlns="http://www.w3.org/2000/svg">
<path d="M56.8125 59.8992L19.7799 22.9109C19.138 22.269 19.138 21.1401 19.7799 20.4982C20.4661 19.8341 21.5508 19.8341 22.2148 20.4982L59.2253 57.4864C59.8893 58.1726 59.9557 59.1687 59.2253 59.8992C58.5391 60.6297 57.4766 60.5854 56.8125 59.8992ZM39.5911 21.7599C57.4766 21.7599 69.8281 36.1922 69.8281 40.7299C69.8281 43.3419 65.6667 49.2963 58.6719 53.8341L55.9492 51.1114C62.0807 47.3484 65.9544 42.5229 65.9544 40.7299C65.9544 38.0958 54.1562 25.2573 39.5911 25.2573C36.8464 25.2573 34.3451 25.6779 31.9102 26.4083L28.9883 23.5086C32.2422 22.424 35.7396 21.7599 39.5911 21.7599ZM39.5911 59.7C21.9271 59.7 9.33203 45.2456 9.33203 40.7299C9.33203 38.0516 13.7148 31.92 21.0859 27.3601L23.8307 30.1049C17.3008 34.0229 13.2057 39.1805 13.2057 40.7299C13.2057 43.851 25.0039 56.2026 39.5911 56.2026C42.5794 56.2026 45.3685 55.7156 48.0026 54.8966L50.9023 57.7963C47.4714 58.9695 43.7083 59.7 39.5911 59.7ZM50.9466 45.5776L34.7214 29.3523C36.2044 28.7104 37.8424 28.3341 39.5911 28.3341C46.4753 28.3341 52.0091 33.8016 52.0091 40.7299C52.0091 42.4344 51.6328 44.0945 50.9466 45.5776ZM39.5911 53.1258C32.6628 53.1258 27.151 47.4812 27.1289 40.7299C27.1289 38.7378 27.5937 36.8784 28.4128 35.2404L45.0143 51.8419C43.3763 52.6388 41.5391 53.1258 39.5911 53.1258Z" fill="white"/>
</svg>
