<svg width="80" height="80" viewBox="0 0 80 80" fill="none" xmlns="http://www.w3.org/2000/svg">
<path d="M31.1829 48.5105C28.1724 48.5105 26.6672 47.0053 26.6672 43.7957V35.3178C26.6672 32.1082 28.1724 30.5809 31.1829 30.5809H37.5136C37.7128 30.5809 37.8899 30.5144 38.0448 30.3816L48.0279 21.5275C49.2011 20.4871 49.8652 20.0001 50.9277 20.0001C52.4107 20.0001 53.4732 21.1733 53.4732 22.6121V56.5678C53.4732 58.0066 52.4107 59.047 50.9719 59.047C49.9094 59.047 49.0904 58.6043 48.0279 57.6525L38.0448 48.7098C37.8899 48.5769 37.7128 48.5105 37.5136 48.5105H31.1829ZM31.3378 45.2788H38.4211C38.9967 45.2788 39.4172 45.4116 39.9264 45.8543L49.3782 54.3764C49.4889 54.4871 49.6217 54.5535 49.7323 54.5535C49.8873 54.5535 50.0201 54.4207 50.0201 54.2215V24.8035C50.0201 24.6043 49.8873 24.4936 49.7323 24.4936C49.5995 24.4936 49.4667 24.56 49.356 24.6707L39.9264 33.2371C39.4172 33.7019 38.9967 33.8126 38.4211 33.8126H31.3378C30.4967 33.8126 30.1204 34.1889 30.1204 35.0301V44.0835C30.1204 44.9025 30.4967 45.2788 31.3378 45.2788Z" fill="white"/>
</svg>
