<svg width="80" height="80" viewBox="0 0 80 80" fill="none" xmlns="http://www.w3.org/2000/svg">
<path d="M39.5623 17.3336C42.8162 17.3336 45.1183 19.6136 45.9595 22.5133C51.8475 24.6383 54.0832 30.4821 54.2603 38.9821C54.4152 41.5276 54.8136 44.6709 56.2746 46.1982C58.2004 48.1683 60.436 50.1604 60.436 52.374C60.436 53.0159 60.2589 53.5693 59.8826 53.9899L30.1105 24.1735C30.9738 23.4651 31.992 22.9117 33.1652 22.5133C34.0063 19.6136 36.2863 17.3336 39.5623 17.3336ZM19.1535 21.8271C18.5116 21.1852 18.5116 20.0563 19.1535 19.4143C19.8397 18.7503 20.9243 18.7503 21.5884 19.4143L61.3436 59.1253C62.0076 59.8115 61.9855 60.874 61.3436 61.538C60.6795 62.2242 59.5949 62.2242 58.9308 61.538L19.1535 21.8271ZM22.009 55.0524C19.9282 55.0524 18.6665 53.9899 18.6665 52.374C18.6665 50.1604 20.9243 48.1683 22.8501 46.1982C24.311 44.6709 24.6873 41.5276 24.8644 38.9821C24.9087 36.3701 25.1522 34.0459 25.6392 31.943L48.7264 55.0524H22.009ZM39.5623 63.9287C35.7993 63.9287 33.0545 61.1839 32.7668 58.0849H46.3579C46.048 61.1839 43.3032 63.9287 39.5623 63.9287Z" fill="white"/>
</svg>
