<svg width="80" height="80" viewBox="0 0 80 80" fill="none" xmlns="http://www.w3.org/2000/svg">
<path d="M31.2295 60.3204C30.772 60.3204 30.2055 60.1026 29.8351 59.7322L17.0247 47.1614C16.589 46.7475 16.3711 46.2246 16.3711 45.7017C16.3711 45.157 16.589 44.6559 17.0247 44.242L29.8351 31.6712C30.2055 31.3008 30.772 31.0612 31.2295 31.0612C32.406 31.0612 33.1685 31.8673 33.1685 32.9784C33.1685 33.5448 32.9724 33.9806 32.6456 34.3291L26.3493 40.4512L22.2317 43.9806L27.3297 43.7627H55.1511C57.4604 43.7627 58.4408 42.7605 58.4408 40.3858V27.51C58.4408 25.2006 57.4604 24.1984 55.1511 24.1984H42.9506C41.7524 24.1984 40.968 23.327 40.968 22.2594C40.968 21.1919 41.7524 20.3204 42.9506 20.3204H55.1511C60.2273 20.3204 62.3406 22.4337 62.3406 27.51V40.3858C62.3406 45.3095 60.2273 47.6407 55.1511 47.6407H27.3297L22.2317 47.4228L26.3493 50.9522L32.6456 57.0742C32.9724 57.4228 33.1685 57.8368 33.1685 58.4032C33.1685 59.5361 32.406 60.3204 31.2295 60.3204Z" fill="white"/>
</svg>
