<svg width="80" height="80" viewBox="0 0 80 80" fill="none" xmlns="http://www.w3.org/2000/svg">
<path d="M30.1592 40.5471C30.1592 40.0359 30.3432 39.5655 30.7318 39.1974L46.9485 23.3283C47.2962 22.9807 47.7461 22.7966 48.2778 22.7966C49.3412 22.7966 50.1592 23.5942 50.1592 24.6576C50.1592 25.1688 49.9342 25.6392 49.607 25.9868L34.7195 40.5471L49.607 55.1075C49.9342 55.4551 50.1592 55.905 50.1592 56.4367C50.1592 57.5001 49.3412 58.2977 48.2778 58.2977C47.7461 58.2977 47.2962 58.1136 46.9485 57.7455L30.7318 41.8968C30.3432 41.5083 30.1592 41.0584 30.1592 40.5471Z" fill="white"/>
</svg>
