<svg width="80" height="80" viewBox="0 0 80 80" fill="none" xmlns="http://www.w3.org/2000/svg">
<path d="M24.5495 57.9015C23.5091 57.9015 22.668 57.1046 22.668 56.0642V23.1931C22.668 22.1528 23.5091 21.3338 24.5495 21.3338C25.612 21.3338 26.4531 22.1528 26.4531 23.1931V38.7543C26.6966 37.8468 27.3828 37.0278 28.5781 36.3194L51.1341 23.0382C52.0417 22.5069 52.7721 22.2192 53.6797 22.2192C55.4284 22.2192 56.8672 23.5473 56.8672 26.0265V53.2088C56.8672 55.6879 55.4284 57.0161 53.6797 57.0161C52.7721 57.0161 52.0417 56.7283 51.1341 56.197L28.5781 42.9158C27.3828 42.2075 26.6966 41.3885 26.4531 40.4809V56.0642C26.4531 57.1046 25.612 57.9015 24.5495 57.9015ZM52.7279 52.921C53.0378 52.921 53.3255 52.6997 53.3255 52.2569V26.9783C53.3255 26.5356 53.0378 26.3142 52.7279 26.3142C52.5729 26.3142 52.3958 26.3806 52.1745 26.5135L31.1458 38.9978C30.8138 39.1749 30.6589 39.3077 30.6589 39.6176C30.6589 39.9054 30.8359 40.0603 31.1458 40.2374L52.1745 52.7218C52.3958 52.8546 52.5729 52.921 52.7279 52.921Z" fill="white"/>
</svg>
