<svg width="80" height="80" viewBox="0 0 80 80" fill="none" xmlns="http://www.w3.org/2000/svg">
<path d="M29.6157 63.1318C28.0662 63.1318 27.203 62.025 27.203 60.3206V54.5654H26.1405C19.5441 54.5654 16.0024 50.9352 16.0024 44.4274V27.4716C16.0024 20.9638 19.5441 17.3336 26.1405 17.3336H54.6509C61.2472 17.3336 64.7889 20.986 64.7889 27.4716V44.4274C64.7889 50.913 61.2472 54.5654 54.6509 54.5654H40.4399L32.8032 61.361C31.453 62.5563 30.7004 63.1318 29.6157 63.1318ZM30.5233 59.081L37.6066 52.0419C38.4478 51.1787 39.0675 51.0016 40.3071 51.0016H54.6509C59.1001 51.0016 61.2251 48.7216 61.2251 44.4052V27.4716C61.2251 23.1552 59.1001 20.8974 54.6509 20.8974H26.1405C21.6691 20.8974 19.5662 23.1552 19.5662 27.4716V44.4052C19.5662 48.7216 21.6691 51.0016 26.1405 51.0016H28.8631C30.0584 51.0016 30.5233 51.4664 30.5233 52.6617V59.081Z" fill="white"/>
</svg>
