<svg width="80" height="80" viewBox="0 0 80 80" fill="none" xmlns="http://www.w3.org/2000/svg">
<path d="M15.5234 57.4413C13.7969 57.4413 12.3359 56.1132 12.3359 53.6562V26.4518C12.3359 23.9947 13.7969 22.6666 15.5234 22.6666C16.431 22.6666 17.1615 22.9544 18.069 23.4856L40.625 36.7669C41.8424 37.4752 42.5065 38.2721 42.75 39.2018V26.4518C42.75 23.9947 44.2109 22.6666 45.9375 22.6666C46.8451 22.6666 47.5977 22.9544 48.4831 23.4856L71.0612 36.7669C72.6107 37.6965 73.2969 38.7812 73.2969 40.0429C73.2969 41.3268 72.6107 42.4114 71.0612 43.3411L48.4831 56.6223C47.5977 57.1536 46.8451 57.4413 45.9375 57.4413C44.2109 57.4413 42.75 56.1132 42.75 53.6562V40.9062C42.5065 41.8359 41.8424 42.6327 40.625 43.3411L18.069 56.6223C17.1836 57.1536 16.431 57.4413 15.5234 57.4413Z" fill="white"/>
</svg>
