<svg width="80" height="80" viewBox="0 0 80 80" fill="none" xmlns="http://www.w3.org/2000/svg">
<path d="M39.4412 61.3388C39.0871 61.3388 38.5558 61.2281 37.9803 60.9183C25.6066 53.9456 21.3345 51.0237 21.3345 43.0771V26.387C21.3345 24.1071 22.3306 23.3545 24.1678 22.6018C26.7576 21.5615 35.0363 18.4847 37.6261 17.6435C38.2017 17.4664 38.8215 17.3336 39.4412 17.3336C40.061 17.3336 40.6808 17.4443 41.2785 17.6435C43.8462 18.5289 52.1248 21.5393 54.7147 22.6018C56.5741 23.3766 57.548 24.1071 57.548 26.387V43.0771C57.548 51.0237 53.4972 54.3219 40.9022 60.9183C40.3488 61.206 39.7954 61.3388 39.4412 61.3388ZM36.9621 49.3193C37.7147 49.3193 38.3566 48.9651 38.8215 48.2568L49.2251 31.8545C49.5129 31.4117 49.7785 30.9026 49.7785 30.3935C49.7785 29.3753 48.8709 28.7112 47.9191 28.7112C47.3215 28.7112 46.7459 29.0433 46.3254 29.7295L36.8735 44.9143L32.38 39.1149C31.8267 38.3844 31.3397 38.163 30.7199 38.163C29.7017 38.163 28.9269 38.9821 28.9269 40.0003C28.9269 40.4873 29.1261 40.9964 29.4582 41.4391L35.0142 48.2568C35.5897 49.0315 36.2095 49.3193 36.9621 49.3193Z" fill="white"/>
</svg>
