<svg width="80" height="80" viewBox="0 0 80 80" fill="none" xmlns="http://www.w3.org/2000/svg">
<path d="M19.3314 25.1092L30.7311 13.9529C31.1296 13.5545 31.7051 13.3331 32.1921 13.3331C33.3653 13.3331 34.1621 14.13 34.1621 15.281C34.1621 15.8566 33.9629 16.2771 33.5866 16.6534L28.8275 21.2797L24.7103 24.8214L29.8236 24.6222H59.3965C60.5475 24.6222 61.3666 25.4412 61.3666 26.5922C61.3666 27.7654 60.5475 28.5844 59.3965 28.5844H29.8236L24.7103 28.3631L28.8275 31.9269L33.5866 36.531C33.9629 36.9073 34.1621 37.3501 34.1621 37.9034C34.1621 39.0545 33.3653 39.8735 32.1921 39.8735C31.7051 39.8735 31.1296 39.63 30.7311 39.2316L19.3314 28.0753C18.4681 27.2563 18.4239 25.9725 19.3314 25.1092ZM60.7246 53.8409L49.3249 64.9972C48.9265 65.3735 48.3509 65.617 47.8418 65.617C46.6686 65.617 45.8939 64.8201 45.8939 63.6691C45.8939 63.0935 46.071 62.6508 46.4473 62.2745L51.2285 57.6704L55.3457 54.1066L50.2324 54.3279H20.6595C19.5085 54.3279 18.6673 53.5089 18.6673 52.3357C18.6673 51.1847 19.5085 50.3657 20.6595 50.3657H50.2324L55.3457 50.587L51.2285 47.0232L46.4473 42.3969C46.071 42.0428 45.8939 41.6001 45.8939 41.0245C45.8939 39.8735 46.6686 39.0766 47.8418 39.0766C48.3509 39.0766 48.9265 39.3201 49.3249 39.6964L60.7246 50.8527C61.5879 51.6938 61.61 52.9777 60.7246 53.8409Z" fill="white"/>
</svg>
