<svg width="80" height="80" viewBox="0 0 80 80" fill="none" xmlns="http://www.w3.org/2000/svg">
<path d="M23.2422 57.1896C22.4675 56.437 22.4896 55.1531 23.2422 54.4005L37.4089 40.2117L23.2422 26.0451C22.4896 25.2925 22.4896 24.0308 23.2422 23.256C23.9948 22.4591 25.3008 22.4813 26.0534 23.256L40.2201 37.4227L54.3868 23.256C55.1394 22.4813 56.4232 22.4813 57.1979 23.256C57.9727 24.0086 57.9506 25.2925 57.1979 26.0451L43.0313 40.2117L57.1979 54.4005C57.9506 55.1531 57.9506 56.4149 57.1979 57.1896C56.4453 57.9643 55.1394 57.9422 54.3868 57.1896L40.2201 43.0229L26.0534 57.1896C25.3008 57.9422 24.017 57.9422 23.2422 57.1896Z" fill="white"/>
</svg>
