<svg width="80" height="80" viewBox="0 0 80 80" fill="none" xmlns="http://www.w3.org/2000/svg">
<path d="M39.9126 62.4899C27.5832 62.4899 17.3345 52.2412 17.3345 39.9117C17.3345 27.5602 27.561 17.3336 39.8905 17.3336C52.242 17.3336 62.4907 27.5602 62.4907 39.9117C62.4907 52.2412 52.2642 62.4899 39.9126 62.4899ZM39.9126 58.7268C50.3605 58.7268 58.7277 50.3597 58.7277 39.9117C58.7277 29.4638 50.3384 21.0966 39.8905 21.0966C29.4425 21.0966 21.1196 29.4638 21.1196 39.9117C21.1196 50.3597 29.4647 58.7268 39.9126 58.7268ZM28.3358 42.3024C27.4504 42.3024 26.7863 41.6383 26.7863 40.7529C26.7863 39.8896 27.4504 39.2255 28.3358 39.2255H38.3631V25.8336C38.3631 24.9703 39.0272 24.3063 39.8905 24.3063C40.7537 24.3063 41.4399 24.9703 41.4399 25.8336V40.7529C41.4399 41.6383 40.7537 42.3024 39.8905 42.3024H28.3358Z" fill="white"/>
</svg>
