<svg width="80" height="80" viewBox="0 0 80 80" fill="none" xmlns="http://www.w3.org/2000/svg">
<path d="M39.3477 58.9636C21.8385 58.9636 9.33203 44.6198 9.33203 40.1485C9.33203 35.655 21.8385 21.3334 39.3477 21.3334C57.056 21.3334 69.3411 35.655 69.3411 40.1485C69.3411 44.6198 57.0781 58.9636 39.3477 58.9636ZM39.3477 52.4779C46.1875 52.4779 51.7214 46.8776 51.7214 40.1485C51.7214 33.2422 46.1875 27.8191 39.3477 27.8191C32.4414 27.8191 26.9518 33.2422 26.9518 40.1485C26.9518 46.8776 32.4414 52.4779 39.3477 52.4779ZM39.3477 44.5977C36.8685 44.5977 34.832 42.5834 34.832 40.1485C34.832 37.6914 36.8685 35.6771 39.3477 35.6771C41.8047 35.6771 43.8411 37.6914 43.8411 40.1485C43.8411 42.5834 41.8047 44.5977 39.3477 44.5977Z" fill="white"/>
</svg>
