<svg width="80" height="80" viewBox="0 0 80 80" fill="none" xmlns="http://www.w3.org/2000/svg">
<path d="M17.8287 48.5105C14.8404 48.5105 13.3352 47.0053 13.3352 43.7957V35.3178C13.3352 32.1082 14.8183 30.5809 17.8287 30.5809H24.1816C24.3808 30.5809 24.5579 30.5144 24.7128 30.3816L34.6959 21.5275C35.8469 20.4871 36.5331 20.0001 37.5956 20.0001C39.0566 20.0001 40.1412 21.1733 40.1412 22.6121V56.5678C40.1412 58.0066 39.0566 59.047 37.6399 59.047C36.5774 59.047 35.7584 58.6043 34.6959 57.6525L24.7128 48.7098C24.5579 48.5769 24.3808 48.5105 24.1816 48.5105H17.8287ZM17.9836 45.2788H25.067C25.6425 45.2788 26.0852 45.4116 26.5943 45.8543L36.024 54.3764C36.1568 54.4871 36.2896 54.5535 36.4003 54.5535C36.5553 54.5535 36.6881 54.4207 36.6881 54.2215V24.8035C36.6881 24.6043 36.5553 24.4936 36.4003 24.4936C36.2454 24.4936 36.1347 24.56 36.024 24.6707L26.5943 33.2371C26.0852 33.7019 25.6425 33.8126 25.067 33.8126H17.9836C17.1646 33.8126 16.7883 34.1889 16.7883 35.0301V44.0835C16.7883 44.9025 17.1646 45.2788 17.9836 45.2788ZM46.7597 39.5014C46.7597 38.3947 47.5344 37.6199 48.6633 37.6199H55.1711V31.1121C55.1711 29.9832 55.9237 29.2085 57.0084 29.2085C58.1152 29.2085 58.8899 29.9832 58.8899 31.1121V37.6199H65.4198C66.5266 37.6199 67.2792 38.3947 67.2792 39.5014C67.2792 40.5861 66.5266 41.3165 65.4198 41.3165H58.8899V47.8465C58.8899 48.9754 58.1152 49.728 57.0084 49.728C55.9237 49.728 55.1711 48.9532 55.1711 47.8465V41.3165H48.6633C47.5344 41.3165 46.7597 40.5861 46.7597 39.5014Z" fill="white"/>
</svg>
