<svg width="80" height="80" viewBox="0 0 80 80" fill="none" xmlns="http://www.w3.org/2000/svg">
<path d="M37.8264 20.3645L41.6207 18.1606C36.7418 17.9175 31.6859 19.3146 27.3479 22.4892C17.5156 29.6844 15.2159 43.1657 22.0251 52.5727C22.5855 53.3468 22.4156 54.431 21.6457 54.9944C20.8758 55.5578 19.7975 55.387 19.2372 54.6129C11.2378 43.5617 14.044 27.9368 25.3188 19.6859C31.8248 14.9249 39.7692 13.6196 46.8665 15.4783C48.472 15.8988 48.7193 18.0413 47.3203 18.8539L39.5513 23.3667C38.7268 23.8456 37.6723 23.5618 37.196 22.7328C36.7197 21.9038 37.0019 20.8435 37.8264 20.3645Z" fill="white"/>
<path d="M38.4027 61.8402C43.2818 62.0793 48.3365 60.6781 52.672 57.5001C62.4985 50.2969 64.7874 36.8137 57.9707 27.4123C57.4097 26.6386 57.5788 25.5542 58.3482 24.9902C59.1176 24.4262 60.1961 24.5961 60.757 25.3698C68.7653 36.4145 65.9715 52.0417 54.7033 60.3017C48.2012 65.068 40.2578 66.3797 33.159 64.5267C31.5532 64.1075 31.3041 61.9653 32.7025 61.1515L40.4679 56.6324C41.292 56.1529 42.3467 56.4358 42.8237 57.2644C43.3007 58.0931 43.0193 59.1536 42.1952 59.6332L38.4027 61.8402Z" fill="white"/>
<path d="M28.9623 48V46.7C31.5623 41.64 36.1423 40.62 36.1423 37.02C36.1423 35.4 35.1823 34.38 33.7023 34.38C32.2623 34.38 31.0823 35.6 30.4823 37.64L28.8623 36.98C29.6623 34.46 31.5823 32.8 33.7823 32.8C36.3623 32.8 38.0623 34.46 38.0623 37.02C38.0623 41.32 33.6623 42.22 30.9423 46.34H38.0023V48H28.9623ZM40.7519 48V33H44.1119C48.4319 33 50.8519 35.64 50.8519 40.5C50.8519 45.34 48.4319 48 44.1119 48H40.7519ZM44.0119 34.58H42.6119V46.42H44.0119C47.2919 46.42 48.9319 44.48 48.9319 40.5C48.9319 36.52 47.2919 34.58 44.0119 34.58Z" fill="white"/>
</svg>
