<svg width="80" height="80" viewBox="0 0 80 80" fill="none" xmlns="http://www.w3.org/2000/svg">
<path fill-rule="evenodd" clip-rule="evenodd" d="M34.8429 35.2175H18.2884L31.682 45.4102L26.5389 61.9901L40.0022 51.7427L53.4665 61.9902L48.3234 45.4104L61.7153 35.2175H45.1627L40.0023 18.583L34.8429 35.2175ZM38.1422 14.7493C38.4043 13.9052 39.1553 13.3336 40.0022 13.3336C40.8501 13.3336 41.6011 13.9052 41.8622 14.7493L47.2573 32.1406H64.7169C65.7965 32.1406 66.6707 33.0584 66.6707 34.1894C66.6707 34.8901 66.3334 35.5078 65.8209 35.8776L51.74 46.5949L57.1342 63.9841C57.3953 64.8292 57.1088 65.7532 56.4232 66.2756C56.08 66.5358 55.6771 66.667 55.2732 66.667C54.8703 66.667 54.4674 66.5358 54.1242 66.2756L40.0022 55.5276L25.8812 66.2756C25.538 66.5358 25.1341 66.667 24.7312 66.667C24.3273 66.667 23.9244 66.5358 23.5822 66.2756C22.8957 65.7532 22.6092 64.8292 22.8712 63.9841L28.2654 46.5949L14.1434 35.8479C13.4579 35.3254 13.1714 34.4004 13.4334 33.5563C13.6945 32.7122 14.4456 32.1406 15.2925 32.1406H32.7481L38.1422 14.7493Z" fill="white"/>
</svg>
