<svg width="80" height="80" viewBox="0 0 80 80" fill="none" xmlns="http://www.w3.org/2000/svg">
<path d="M61.4378 61.1199C60.5967 60.5443 60.486 59.504 61.0837 58.5964C64.5146 53.5496 66.6839 47.1303 66.6839 40.047C66.6839 32.9415 64.5146 26.5665 61.0837 21.4975C60.486 20.5899 60.5967 19.5496 61.4378 18.974C62.1904 18.4207 63.2751 18.6199 63.8727 19.5274C67.68 25.1498 70.0706 32.211 70.0706 40.047C70.0706 47.8608 67.7464 54.9662 63.8727 60.5665C63.2751 61.4519 62.1904 61.6732 61.4378 61.1199ZM34.5212 59.5925C33.4808 59.5925 32.6175 59.1719 31.6214 58.198L22.1696 49.2553C22.0368 49.1225 21.8376 49.0561 21.6162 49.0561H15.2855C12.2751 49.0561 10.6592 47.418 10.6592 44.2084V35.974C10.6592 32.7865 12.2751 31.1264 15.2855 31.1264H21.6162C21.8376 31.1264 22.0368 31.06 22.1696 30.9272L31.6214 22.073C32.7282 20.9884 33.4365 20.5457 34.4769 20.5457C35.9821 20.5457 37.0225 21.7188 37.0225 23.1576V57.1134C37.0225 58.5522 35.9821 59.5925 34.5212 59.5925ZM53.137 55.254C52.318 54.7006 52.2074 53.6602 52.8271 52.7527C55.1956 49.2996 56.6344 44.7618 56.6344 40.047C56.6344 35.3321 55.2399 30.7501 52.8271 27.3412C52.1852 26.4337 52.318 25.3933 53.137 24.8399C53.9561 24.2865 54.9743 24.4858 55.5719 25.3269C58.4274 29.1785 60.0654 34.5795 60.0654 40.047C60.0654 45.5144 58.4053 50.8712 55.5719 54.767C54.9743 55.6081 53.9561 55.8074 53.137 55.254ZM44.9248 49.4766C44.0173 48.8347 43.9066 47.7722 44.5706 46.8425C45.8324 45.0496 46.585 42.6147 46.585 40.047C46.585 37.4792 45.8545 35.0222 44.5706 33.2514C43.8844 32.3438 44.0173 31.2371 44.9248 30.6173C45.6553 30.086 46.6956 30.2631 47.2933 31.1264C48.9977 33.3842 50.0159 36.6602 50.0159 40.047C50.0159 43.4337 48.9977 46.7318 47.2933 48.9675C46.6956 49.8308 45.6553 49.9858 44.9248 49.4766Z" fill="white"/>
</svg>
