<svg width="80" height="80" viewBox="0 0 80 80" fill="none" xmlns="http://www.w3.org/2000/svg">
<path d="M62.3928 53.34C61.5175 46.3898 58.2926 42.0851 51.6584 42.0851H47.0053C50.9674 39.7534 53.5934 35.4936 53.5934 30.6509C53.5934 23.2971 47.5121 17.3334 40.0026 17.3334C32.4931 17.3334 26.4118 23.3419 26.4118 30.6957C26.4118 35.5384 29.0378 39.7983 32.9999 42.1299H29.5907C24.1544 42.1299 20.6069 44.91 18.8102 49.6631C17.6124 52.757 17.3359 55.851 17.3359 60.5592V62.6667H21.2059V60.5592C21.2059 50.9186 23.0947 45.9414 29.5907 45.9414H51.6584C55.8969 45.9414 57.8779 48.5869 58.569 53.8332C58.7993 55.5371 58.8454 57.0169 58.7993 59.7521C58.7993 60.1557 58.7993 60.335 58.7993 60.5592V62.6667H62.6693V60.5592C62.6693 60.5592 62.6693 60.2005 62.6693 59.7969C62.6693 56.9272 62.6693 55.3129 62.3928 53.3848V53.34ZM40.0026 38.9911C34.9349 38.9911 30.8807 35.0004 30.8807 30.1128C30.8807 25.2252 34.9809 21.2345 40.0026 21.2345C45.0243 21.2345 49.1246 25.2252 49.1246 30.1128C49.1246 35.0004 45.0243 38.9911 40.0026 38.9911Z" fill="white"/>
</svg>
