<svg width="80" height="80" viewBox="0 0 80 80" fill="none" xmlns="http://www.w3.org/2000/svg">
<path fill-rule="evenodd" clip-rule="evenodd" d="M36.8024 13.4158C37.0645 12.5717 37.8155 12.0001 38.6624 12.0001C39.5102 12.0001 40.2613 12.5717 40.5224 13.4158L45.9175 30.8071H63.377C64.4566 30.8071 65.3309 31.7249 65.3309 32.8559C65.3309 33.5566 64.9935 34.1743 64.4811 34.5441L50.4002 45.2614L55.7943 62.6506C56.0554 63.4957 55.7689 64.4197 55.0834 64.9421C54.7402 65.2023 54.3373 65.3335 53.9334 65.3335C53.5305 65.3335 53.1276 65.2023 52.7843 64.9421L38.6624 54.1941L24.5414 64.9421C24.1981 65.2023 23.7943 65.3335 23.3914 65.3335C22.9875 65.3335 22.5846 65.2023 22.2423 64.9421C21.5558 64.4197 21.2693 63.4957 21.5314 62.6506L26.9255 45.2614L12.8036 34.5144C12.1181 33.9919 11.8315 33.0669 12.0936 32.2228C12.3547 31.3787 13.1057 30.8071 13.9526 30.8071H31.4083L36.8024 13.4158Z" fill="white"/>
</svg>
