<svg width="80" height="80" viewBox="0 0 80 80" fill="none" xmlns="http://www.w3.org/2000/svg">
<path d="M39.5951 59.2735C21.931 59.2735 9.33594 44.819 9.33594 40.3034C9.33594 35.7657 21.9531 21.3334 39.5951 21.3334C57.4583 21.3334 69.832 35.7657 69.832 40.3034C69.832 44.819 57.4805 59.2735 39.5951 59.2735ZM39.5951 55.7761C54.1159 55.7761 65.9583 43.4245 65.9583 40.3034C65.9583 37.6693 54.1159 24.8308 39.5951 24.8308C25.0078 24.8308 13.2096 37.6693 13.2096 40.3034C13.2096 43.4245 25.0078 55.7761 39.5951 55.7761ZM39.5951 52.6993C32.6667 52.6993 27.1328 47.0547 27.1328 40.3034C27.1328 33.375 32.6667 27.9076 39.5951 27.9076C46.4792 27.9076 52.013 33.375 52.013 40.3034C52.013 47.0547 46.4792 52.6993 39.5951 52.6993ZM39.5951 44.4206C41.875 44.4206 43.7344 42.5612 43.7344 40.3034C43.7344 38.0235 41.875 36.1862 39.5951 36.1862C37.293 36.1862 35.4336 38.0235 35.4336 40.3034C35.4336 42.5612 37.293 44.4206 39.5951 44.4206Z" fill="white"/>
</svg>
