<svg width="80" height="80" viewBox="0 0 80 80" fill="none" xmlns="http://www.w3.org/2000/svg">
<path d="M54.8883 62.6145L11.1487 18.9192C10.5068 18.2773 10.5068 17.1484 11.1487 16.5065C11.8127 15.8203 12.9195 15.8424 13.5836 16.5065L57.301 60.2018C57.9651 60.8658 57.9429 61.9283 57.301 62.6145C56.6591 63.2786 55.5523 63.2786 54.8883 62.6145ZM45.3036 21.4869C49.7528 21.4869 52.1877 24.0547 52.1877 28.4817V48.4479C52.1877 49.3997 52.0992 50.4179 51.9443 51.1705L22.2607 21.4869H45.3036ZM55.1982 45.9908V32.9088L63.2554 25.9583C64.0081 25.2942 64.8935 24.8737 65.6903 24.8737C67.4169 24.8737 68.5458 26.1354 68.5458 27.9505V50.9713C68.5458 52.7864 67.4169 54.0481 65.6903 54.0481C64.8935 54.0481 64.0081 53.6276 63.2554 52.9635L55.1982 45.9908ZM21.3088 57.4349C16.8596 57.4349 14.2255 54.8229 14.2255 50.3737V28.5703C14.2255 27.6406 14.3805 26.6224 14.6239 26.069L45.9898 57.4349H21.3088Z" fill="white"/>
</svg>
