<svg width="80" height="80" viewBox="0 0 80 80" fill="none" xmlns="http://www.w3.org/2000/svg">
<path d="M40.8663 43.8459V43.1004C40.8663 41.8415 41.311 41.1937 42.8615 40.2648C44.448 39.2993 45.3855 37.9671 45.3855 36.0726C45.3855 33.4571 43.2461 31.5382 40.073 31.5382C36.5875 31.5382 34.7245 33.6404 34.6163 36.4148H37.1043C37.2125 34.8015 38.2822 33.7871 39.9408 33.7871C41.5875 33.7871 42.6572 34.8015 42.6572 36.1826C42.6572 37.4415 42.1404 38.1504 40.686 39.0426C39.0394 40.0448 38.3062 41.1448 38.3663 42.8681L38.3783 43.8459H40.8663Z" fill="white"/>
<path d="M39.6225 49.2305C40.7676 49.2305 41.5393 48.4587 41.5393 47.3139C41.5393 46.1562 40.7676 45.3844 39.6225 45.3844C38.4774 45.3844 37.6932 46.1562 37.6932 47.3139C37.6932 48.4587 38.4774 49.2305 39.6225 49.2305Z" fill="white"/>
<path fill-rule="evenodd" clip-rule="evenodd" d="M40.001 19.9998C51.0467 19.9998 60.001 28.9541 60.001 39.9998C60.001 51.0455 51.0467 59.9998 40.001 59.9998C28.9553 59.9998 20.001 51.0455 20.001 39.9998C20.001 28.9541 28.9553 19.9998 40.001 19.9998ZM40.0009 22.3528C30.2547 22.3528 22.3539 30.2536 22.3539 39.9998C22.3539 49.746 30.2547 57.6469 40.0009 57.6469C49.7471 57.6469 57.648 49.746 57.648 39.9998C57.648 30.2536 49.7471 22.3528 40.0009 22.3528Z" fill="white"/>
<path d="M40.8663 43.8459V43.1004C40.8663 41.8415 41.311 41.1937 42.8615 40.2648C44.448 39.2993 45.3855 37.9671 45.3855 36.0726C45.3855 33.4571 43.2461 31.5382 40.073 31.5382C36.5875 31.5382 34.7245 33.6404 34.6163 36.4148H37.1043C37.2125 34.8015 38.2822 33.7871 39.9408 33.7871C41.5875 33.7871 42.6572 34.8015 42.6572 36.1826C42.6572 37.4415 42.1404 38.1504 40.686 39.0426C39.0394 40.0448 38.3062 41.1448 38.3663 42.8681L38.3783 43.8459H40.8663Z" stroke="white"/>
<path d="M39.6225 49.2305C40.7676 49.2305 41.5393 48.4587 41.5393 47.3139C41.5393 46.1562 40.7676 45.3844 39.6225 45.3844C38.4774 45.3844 37.6932 46.1562 37.6932 47.3139C37.6932 48.4587 38.4774 49.2305 39.6225 49.2305Z" stroke="white"/>
<path fill-rule="evenodd" clip-rule="evenodd" d="M40.001 19.9998C51.0467 19.9998 60.001 28.9541 60.001 39.9998C60.001 51.0455 51.0467 59.9998 40.001 59.9998C28.9553 59.9998 20.001 51.0455 20.001 39.9998C20.001 28.9541 28.9553 19.9998 40.001 19.9998ZM40.0009 22.3528C30.2547 22.3528 22.3539 30.2536 22.3539 39.9998C22.3539 49.746 30.2547 57.6469 40.0009 57.6469C49.7471 57.6469 57.648 49.746 57.648 39.9998C57.648 30.2536 49.7471 22.3528 40.0009 22.3528Z" stroke="white"/>
</svg>
