<svg width="80" height="80" viewBox="0 0 80 80" fill="none" xmlns="http://www.w3.org/2000/svg">
<path d="M39.3912 63.6188C38.5279 63.6188 37.7753 62.9326 37.7753 62.0693V18.861C37.7753 17.9977 38.5279 17.3336 39.3912 17.3336C40.2545 17.3336 41.0292 17.9977 41.0292 18.861V62.0693C41.0292 62.9326 40.2545 63.6188 39.3912 63.6188ZM66.3079 53.1709L47.5813 42.3245C46.2753 41.5498 46.3196 39.5133 47.5813 38.7828L66.3079 27.8037C67.7024 26.9847 69.4511 27.8701 69.4511 29.4196V51.6435C69.4511 53.1709 67.7245 53.9899 66.3079 53.1709ZM12.4967 53.1709C11.08 53.9899 9.3313 53.1709 9.3313 51.6435V29.4196C9.3313 27.8701 11.1021 26.9847 12.4967 27.8037L31.2232 38.7828C32.4849 39.5133 32.5071 41.5498 31.2232 42.3245L12.4967 53.1709Z" fill="white"/>
</svg>
