<svg width="80" height="80" viewBox="0 0 80 80" fill="none" xmlns="http://www.w3.org/2000/svg">
<path d="M37.4531 63.3254C35.7487 63.3254 34.4427 62.285 34.0443 60.647L33.0703 56.5077L32.362 56.2642L28.776 58.4777C27.3372 59.3853 25.6549 59.1639 24.4375 57.9465L21.3607 54.8697C20.1432 53.6522 19.8997 51.9699 20.8294 50.5533L23.0651 46.9673L22.8216 46.3033L18.6823 45.3293C17.0664 44.9309 16.0039 43.6027 16.0039 41.9204V37.5376C16.0039 35.8553 17.0443 34.5272 18.6823 34.1288L22.7773 33.1327L23.043 32.4244L20.8073 28.8384C19.8776 27.4218 20.1211 25.7616 21.3385 24.522L24.4154 21.4231C25.6107 20.2277 27.293 20.0064 28.7318 20.8918L32.3177 23.1053L33.0703 22.8176L34.0443 18.6783C34.4427 17.0402 35.7487 15.9999 37.4531 15.9999H41.9245C43.6289 15.9999 44.9349 17.0402 45.3333 18.6783L46.2852 22.8176L47.0378 23.1053L50.6458 20.8918C52.0846 20.0064 53.7448 20.2277 54.9401 21.4231L58.0391 24.522C59.2565 25.7616 59.4779 27.4218 58.5703 28.8384L56.3125 32.4244L56.6003 33.1327L60.6953 34.1288C62.3333 34.5272 63.3737 35.8553 63.3737 37.5376V41.9204C63.3737 43.6027 62.3112 44.9309 60.6953 45.3293L56.556 46.3033L56.2904 46.9673L58.5482 50.5533C59.4557 51.9699 59.2344 53.6522 58.0169 54.8697L54.918 57.9465C53.7005 59.1639 52.0404 59.3853 50.6016 58.4777L46.9935 56.2642L46.2852 56.5077L45.3333 60.647C44.9349 62.285 43.6289 63.3254 41.9245 63.3254H37.4531ZM37.8073 59.8723H41.5703C41.9466 59.8723 42.1458 59.7173 42.1901 59.3632L43.5404 53.8736C44.8906 53.5415 46.1302 53.0103 47.082 52.4126L51.9075 55.3788C52.1953 55.578 52.4609 55.5337 52.7487 55.2681L55.3385 52.6561C55.6042 52.4126 55.6042 52.147 55.4271 51.8371L52.4609 47.0559C52.9922 46.1262 53.5456 44.8645 53.8997 43.5142L59.4115 42.2082C59.7435 42.1418 59.9206 41.9426 59.9206 41.5663V37.8697C59.9206 37.4712 59.7656 37.2941 59.4115 37.2277L53.9219 35.8996C53.5677 34.4608 52.9258 33.1548 52.5052 32.3358L55.4492 27.5546C55.6484 27.2225 55.6484 26.9569 55.3828 26.6913L52.7708 24.1236C52.4831 23.858 52.2617 23.8137 51.9075 24.0129L47.1042 26.9348C46.1081 26.4035 44.9128 25.8501 43.5404 25.496L42.1901 19.9621C42.1458 19.608 41.9466 19.453 41.5703 19.453H37.8073C37.431 19.453 37.2318 19.608 37.1654 19.9621L35.8594 25.4517C34.5312 25.828 33.181 26.3814 32.2292 26.9126L27.4479 24.0129C27.1159 23.8137 26.8724 23.858 26.6068 24.1236L23.9727 26.6913C23.7292 26.9569 23.707 27.2225 23.9062 27.5546L26.8503 32.3358C26.4518 33.1548 25.7878 34.4608 25.4336 35.8996L19.9661 37.2277C19.5898 37.2941 19.457 37.4712 19.457 37.8697V41.5663C19.457 41.9426 19.612 42.1418 19.9661 42.2082L25.4557 43.5142C25.8099 44.8645 26.3854 46.1262 26.8945 47.0559L23.9284 51.8371C23.7513 52.147 23.7734 52.4126 24.0169 52.6561L26.6289 55.2681C26.8945 55.5337 27.1823 55.578 27.4479 55.3788L32.2734 52.4126C33.2253 53.0103 34.487 53.5415 35.8372 53.8736L37.1654 59.3632C37.2318 59.7173 37.431 59.8723 37.8073 59.8723ZM39.6888 48.1184C35.0404 48.1184 31.2331 44.2889 31.2331 39.6626C31.2331 35.0585 35.0625 31.2512 39.6888 31.2512C44.3151 31.2512 48.1224 35.0585 48.1224 39.6626C48.1224 44.3111 44.3151 48.1184 39.6888 48.1184ZM39.6888 44.6874C42.3893 44.6874 44.6471 42.4074 44.6471 39.6626C44.6471 36.94 42.3893 34.6822 39.6888 34.6822C36.944 34.6822 34.6862 36.94 34.6862 39.6626C34.6862 42.4296 36.944 44.6874 39.6888 44.6874Z" fill="white"/>
</svg>
