<svg width="80" height="80" viewBox="0 0 80 80" fill="none" xmlns="http://www.w3.org/2000/svg">
<path d="M21.8555 56.7281C20.1068 56.7281 18.668 55.4221 18.668 52.943V25.7607C18.668 23.2815 20.1068 21.9534 21.8555 21.9534C22.763 21.9534 23.4935 22.2411 24.401 22.7724L46.957 36.0536C48.1523 36.762 48.8385 37.581 49.082 38.4885V24.2776C49.082 22.3518 50.1003 21.3336 52.026 21.3336H57.0729C59.0208 21.3336 60.0169 22.2633 60.0169 24.2776V54.426C60.0169 56.374 59.0208 57.3922 57.0729 57.3922H52.026C50.1003 57.3922 49.082 56.374 49.082 54.426V40.193C48.8385 41.1227 48.1523 41.9195 46.957 42.65L24.401 55.9091C23.4935 56.4404 22.763 56.7281 21.8555 56.7281Z" fill="white"/>
</svg>
