<svg width="80" height="80" viewBox="0 0 80 80" fill="none" xmlns="http://www.w3.org/2000/svg">
<path d="M58.6646 38.5054L58.1431 40.271C58.1281 40.2609 56.0812 38.8806 53.9663 38.9488L48.7446 38.9517C47.5627 38.9519 48.0132 36.3706 48.0132 36.3706C48.0132 36.3706 48.6751 36.4727 48.7095 36.3365C48.9172 33.9595 48.7061 30.5634 46.0601 28.8326C41.5692 25.9146 34.1561 26.4621 33.9507 33.5259C33.9219 33.5452 29.9506 36.21 30.02 36.2105L34.7876 36.2076L34.9624 36.9556L33.6763 39.6724C33.6763 39.6724 33.4325 40.0126 33.7808 40.1138C34.0571 40.1813 35.3608 40.1475 35.3813 40.147C35.869 40.6895 36.0439 42.5224 35.6616 42.5913C32.9124 43.3068 30.5824 47.0096 30.5864 53.6656L33.3354 53.6646C33.5364 53.9902 34.1849 55.0598 34.7642 55.9995H11.6929C10.7056 55.9994 9.77769 55.6251 9.07959 54.9439C8.38198 54.2626 7.99756 53.3572 7.99756 52.3941V27.605C7.99766 26.642 8.382 25.7364 9.07959 25.0552C9.77767 24.3745 10.7057 23.9997 11.6929 23.9995H47.2085L58.6646 38.5054ZM68.228 23.9995C69.2358 23.9997 70.1833 24.3754 70.896 25.0562C71.6093 25.7375 72.0024 26.6428 72.0024 27.606V52.3941C72.0024 54.3823 70.3089 55.9993 68.228 55.9995H61.0259L61.0249 53.6499C63.1585 53.648 66.7847 53.646 66.7847 53.646C68.2415 53.5094 69.805 51.0639 70.231 49.6031C70.4073 49.0591 69.5547 48.6533 68.9146 47.7027C68.4513 47.024 68.3444 45.7673 67.5259 45.4624C66.3594 45.024 65.0525 43.8798 65.0376 43.8667C65.0376 43.8455 65.0367 42.5139 65.0366 42.4751C65.0366 42.4408 64.4312 41.8296 64.4312 41.8296L63.8267 41.7281V41.1167L63.2925 40.4048L62.688 40.3023V39.6577L62.1899 38.979L61.3364 38.8775L52.0024 23.9995H68.228ZM15.6313 45.9468C14.2299 45.9478 13.0948 47.0559 13.0952 48.4234C13.0959 49.7909 14.2331 50.899 15.6343 50.898C17.0356 50.8977 18.1699 49.7878 18.1685 48.4204C18.1679 47.053 17.0328 45.9459 15.6313 45.9468Z" fill="white"/>
</svg>
