<svg width="80" height="80" viewBox="0 0 80 80" fill="none" xmlns="http://www.w3.org/2000/svg">
<path d="M17.332 41.5297C17.332 30.639 25.2786 21.4086 35.638 19.3721V16.251C35.638 14.6573 36.7227 14.2367 37.9622 15.1221L45.0013 20.0805C46.0195 20.8109 45.9974 21.8734 45.0013 22.5596L37.9401 27.518C36.7227 28.3812 35.638 27.9607 35.638 26.389V23.2237C27.2708 25.1273 21.1172 32.5648 21.1172 41.5297C21.1172 51.9776 29.4622 60.3448 39.9102 60.3448C50.3581 60.3448 58.7474 51.9776 58.7253 41.5297C58.7031 35.2432 55.6484 29.6872 50.9336 26.3226C50.026 25.6364 49.7383 24.5961 50.2917 23.6664C50.8451 22.7588 52.0625 22.5153 53.0365 23.268C58.7253 27.4073 62.4883 34.0922 62.4883 41.5297C62.4883 53.8812 52.2617 64.1078 39.9102 64.1078C27.5807 64.1078 17.332 53.8812 17.332 41.5297Z" fill="white"/>
</svg>
