<svg width="80" height="80" viewBox="0 0 80 80" fill="none" xmlns="http://www.w3.org/2000/svg">
<path fill-rule="evenodd" clip-rule="evenodd" d="M13.3352 21.3652C13.3352 19.1384 15.1373 17.3332 17.3604 17.3332H62.6434C64.8664 17.3332 66.6685 19.1384 66.6685 21.3652V40.5661C66.6685 41.6982 66.1934 42.7781 65.3594 43.5419L42.7179 64.277C41.1801 65.6853 38.8236 65.6853 37.2859 64.277L14.6444 43.5419C13.8103 42.7781 13.3352 41.6982 13.3352 40.5661V21.3652ZM17.3604 20.3572C16.8046 20.3572 16.3541 20.8085 16.3541 21.3652V40.5661C16.3541 40.8491 16.4728 41.1191 16.6814 41.3101L39.3229 62.0452C39.7073 62.3972 40.2964 62.3972 40.6809 62.0452L63.3224 41.3101C63.5309 41.1191 63.6497 40.8491 63.6497 40.5661V21.3652C63.6497 20.8085 63.1991 20.3572 62.6434 20.3572H17.3604Z" fill="white"/>
</svg>
