<svg width="80" height="80" viewBox="0 0 80 80" fill="none" xmlns="http://www.w3.org/2000/svg">
<path d="M31.3651 21.7709C31.3429 20.642 32.0734 20.0001 33.3351 20.0001H51.3534C55.9797 20.0001 58.3039 22.28 58.3039 26.8621V51.0339L61.5799 47.5365L63.7049 45.4558C64.4575 44.7032 65.52 44.6368 66.2726 45.3894C67.0031 46.142 66.981 47.2267 66.2062 47.9793L58.7687 55.3946C57.3078 56.8334 55.714 56.8334 54.2531 55.3946L46.7935 47.9793C46.0409 47.2267 45.9966 46.142 46.7492 45.3894C47.5239 44.6368 48.5643 44.7254 49.3169 45.4558L51.4419 47.5365L54.7401 51.0782V27.0392C54.7401 24.7371 53.5226 23.5639 51.3091 23.5639H33.3351C32.0734 23.5639 31.3872 22.8998 31.3651 21.7709ZM12.5278 35.3399C11.7974 34.6095 11.8195 33.5248 12.5942 32.7722L20.0539 25.3347C21.4927 23.9181 23.1086 23.9181 24.5474 25.3347L32.007 32.7722C32.7596 33.5248 32.8039 34.6095 32.0513 35.3399C31.2987 36.1147 30.2362 36.0261 29.4836 35.2957L27.3586 33.1928L24.0604 29.6733V53.7123C24.0604 56.0144 25.3 57.1876 27.5135 57.1876H45.4653C46.7271 57.1876 47.4132 57.8295 47.4354 58.9806C47.4575 60.1095 46.7271 60.7514 45.4653 60.7514H27.4471C22.8429 60.7514 20.4966 58.4714 20.4966 53.8894V29.7175L17.2205 33.1928L15.0955 35.2957C14.3429 36.0261 13.3026 36.1147 12.5278 35.3399Z" fill="white"/>
</svg>
