<svg width="80" height="80" viewBox="0 0 80 80" fill="none" xmlns="http://www.w3.org/2000/svg">
<path d="M23.3804 60.7239C19.6174 60.7239 17.3374 58.1119 17.3374 54.7252C17.3374 53.6849 17.603 52.6224 18.2007 51.6263L35.3778 21.6992C36.5067 19.6849 38.4989 18.6666 40.5353 18.6666C42.5718 18.6666 44.5418 19.6849 45.6929 21.6992L62.87 51.6263C63.4233 52.6002 63.7332 53.6849 63.7332 54.7252C63.7332 58.1119 61.4533 60.7239 57.6903 60.7239H23.3804ZM23.4025 57.2487H57.646C59.1733 57.2487 60.1473 56.0533 60.1473 54.7031C60.1473 54.2825 60.0366 53.7734 59.7931 53.3086L42.6382 23.3815C42.1733 22.5625 41.3543 22.2083 40.5353 22.2083C39.7163 22.2083 38.8752 22.5625 38.4103 23.3815L21.2554 53.2864C21.0119 53.7513 20.9233 54.2825 20.9233 54.7031C20.9233 56.0533 21.853 57.2487 23.4025 57.2487Z" fill="white"/>
</svg>
