<svg width="80" height="80" viewBox="0 0 80 80" fill="none" xmlns="http://www.w3.org/2000/svg">
<path d="M24.1833 57.7079C17.2992 57.7079 13.3369 53.303 13.3369 47.8577C13.3369 43.1428 16.3252 39.4241 20.7523 38.1624C21.527 29.3303 28.7874 22.6676 37.376 22.6676C43.9502 22.6676 49.3512 26.2314 52.2952 32.0751C60.3304 32.0751 66.2406 37.5647 66.2406 44.8473C66.2406 52.0634 60.4632 57.7079 53.0036 57.7079H24.1833ZM24.139 54.1441H53.2471C58.5374 54.1441 62.6546 50.0934 62.6546 44.9358C62.6546 39.9332 58.7588 35.7496 51.8304 35.7496C50.4801 35.7496 49.8382 35.3733 49.307 34.2887C46.8278 29.1975 42.7106 26.2314 37.376 26.2314C30.4697 26.2314 24.8473 31.8538 24.3161 39.3577C24.2275 40.6415 23.7627 41.2171 22.5231 41.527C18.9372 42.4788 16.9007 44.7809 16.9007 47.9684C16.9007 51.6871 19.6012 54.1441 24.139 54.1441Z" fill="white"/>
</svg>
