<svg width="80" height="80" viewBox="0 0 80 80" fill="none" xmlns="http://www.w3.org/2000/svg">
<path d="M61.0392 17C62.7664 17 64.1666 18.4263 64.1666 20.1856V39.2996H61.0391V20.1855H14.1274V48.8561H32.8921V52.0418H14.1274C12.4002 52.0418 11 50.6156 11 48.8562V20.1856C11 18.4263 12.4002 17 14.1274 17H61.0392Z" fill="white"/>
<path d="M36.375 47.2085C36.375 45.2065 37.998 43.5835 40 43.5835H65.375C67.377 43.5835 69 45.2065 69 47.2085V59.292C69 61.294 67.377 62.917 65.375 62.917H40C37.998 62.917 36.375 61.294 36.375 59.2919V47.2085Z" fill="white"/>
<path fill-rule="evenodd" clip-rule="evenodd" d="M65.375 47.2086L40 47.2086V59.292L65.375 59.292L65.375 47.2086ZM40 43.5835C37.998 43.5835 36.375 45.2065 36.375 47.2085V59.2919C36.375 61.294 37.998 62.917 40 62.917H65.375C67.377 62.917 69 61.294 69 59.292V47.2085C69 45.2065 67.377 43.5835 65.375 43.5835H40Z" fill="white"/>
<path d="M19.7878 41.167H33.6287C34.478 41.167 35.1665 40.4785 35.1665 39.6291C35.1665 38.7798 34.478 38.0912 33.6287 38.0912H19.7878C18.9384 38.0912 18.2499 38.7798 18.2499 39.6291C18.2499 40.4785 18.9384 41.167 19.7878 41.167Z" fill="white"/>
<path d="M18.7003 26.8754L32.5412 40.7164C33.1418 41.3169 34.1155 41.3169 34.7161 40.7164C35.3167 40.1158 35.3167 39.142 34.7161 38.5415L20.8752 24.7005C20.2746 24.0999 19.3009 24.0999 18.7003 24.7005C18.0997 25.3011 18.0997 26.2748 18.7003 26.8754Z" fill="white"/>
<path d="M32.0908 25.7879V39.6289C32.0908 40.4783 32.7793 41.167 33.6287 41.167C34.478 41.167 35.1665 40.4785 35.1665 39.6291L35.1665 25.7879C35.1665 24.9386 34.478 24.25 33.6286 24.25C32.7793 24.25 32.0908 24.9386 32.0908 25.7879Z" fill="white"/>
</svg>
