<svg width="80" height="80" viewBox="0 0 80 80" fill="none" xmlns="http://www.w3.org/2000/svg">
<path d="M19.5599 57.8542C14.9115 57.8542 12.6094 55.5521 12.6094 50.9922V29.7201C12.6094 25.1602 14.9115 22.8802 19.5599 22.8802H61.3737C65.9779 22.8802 68.3242 25.1823 68.3242 29.7201V50.9922C68.3242 55.5521 65.9779 57.8542 61.3737 57.8542H19.5599ZM19.6042 54.2904H61.3073C63.4987 54.2904 64.7604 53.0951 64.7604 50.793V29.9193C64.7604 27.6172 63.4987 26.4441 61.3073 26.4441H19.6042C17.3906 26.4441 16.1732 27.6172 16.1732 29.9193V50.793C16.1732 53.0951 17.3906 54.2904 19.6042 54.2904ZM21.5964 35.2097C20.9987 35.2097 20.6224 34.8334 20.6224 34.2357V32.1993C20.6224 31.5795 20.9987 31.2032 21.5964 31.2032H23.6328C24.2526 31.2032 24.6289 31.5795 24.6289 32.1993V34.2357C24.6289 34.8334 24.2526 35.2097 23.6328 35.2097H21.5964ZM28.724 35.2097C28.1042 35.2097 27.7279 34.8334 27.7279 34.2357V32.1993C27.7279 31.5795 28.1042 31.2032 28.724 31.2032H30.7604C31.3581 31.2032 31.7344 31.5795 31.7344 32.1993V34.2357C31.7344 34.8334 31.3581 35.2097 30.7604 35.2097H28.724ZM35.8516 35.2097C35.2318 35.2097 34.8555 34.8334 34.8555 34.2357V32.1993C34.8555 31.5795 35.2318 31.2032 35.8516 31.2032H37.8659C38.4857 31.2032 38.862 31.5795 38.862 32.1993V34.2357C38.862 34.8334 38.4857 35.2097 37.8659 35.2097H35.8516ZM42.957 35.2097C42.3594 35.2097 41.9831 34.8334 41.9831 34.2357V32.1993C41.9831 31.5795 42.3594 31.2032 42.957 31.2032H44.9935C45.6133 31.2032 45.9896 31.5795 45.9896 32.1993V34.2357C45.9896 34.8334 45.6133 35.2097 44.9935 35.2097H42.957ZM50.0846 35.2097C49.4648 35.2097 49.0885 34.8334 49.0885 34.2357V32.1993C49.0885 31.5795 49.4648 31.2032 50.0846 31.2032H52.1211C52.7188 31.2032 53.0951 31.5795 53.0951 32.1993V34.2357C53.0951 34.8334 52.7188 35.2097 52.1211 35.2097H50.0846ZM57.2122 35.2097C56.5924 35.2097 56.2161 34.8334 56.2161 34.2357V32.1993C56.2161 31.5795 56.5924 31.2032 57.2122 31.2032H59.2266C59.8464 31.2032 60.2227 31.5795 60.2227 32.1993V34.2357C60.2227 34.8334 59.8464 35.2097 59.2266 35.2097H57.2122ZM21.5964 42.3373C20.9987 42.3373 20.6224 41.961 20.6224 41.3412V39.3269C20.6224 38.7071 20.9987 38.3308 21.5964 38.3308H23.6328C24.2526 38.3308 24.6289 38.7071 24.6289 39.3269V41.3412C24.6289 41.961 24.2526 42.3373 23.6328 42.3373H21.5964ZM28.724 42.3373C28.1042 42.3373 27.7279 41.961 27.7279 41.3412V39.3269C27.7279 38.7071 28.1042 38.3308 28.724 38.3308H30.7604C31.3581 38.3308 31.7344 38.7071 31.7344 39.3269V41.3412C31.7344 41.961 31.3581 42.3373 30.7604 42.3373H28.724ZM35.8516 42.3373C35.2318 42.3373 34.8555 41.961 34.8555 41.3412V39.3269C34.8555 38.7071 35.2318 38.3308 35.8516 38.3308H37.8659C38.4857 38.3308 38.862 38.7071 38.862 39.3269V41.3412C38.862 41.961 38.4857 42.3373 37.8659 42.3373H35.8516ZM42.957 42.3373C42.3594 42.3373 41.9831 41.961 41.9831 41.3412V39.3269C41.9831 38.7071 42.3594 38.3308 42.957 38.3308H44.9935C45.6133 38.3308 45.9896 38.7071 45.9896 39.3269V41.3412C45.9896 41.961 45.6133 42.3373 44.9935 42.3373H42.957ZM50.0846 42.3373C49.4648 42.3373 49.0885 41.961 49.0885 41.3412V39.3269C49.0885 38.7071 49.4648 38.3308 50.0846 38.3308H52.1211C52.7188 38.3308 53.0951 38.7071 53.0951 39.3269V41.3412C53.0951 41.961 52.7188 42.3373 52.1211 42.3373H50.0846ZM57.2122 42.3373C56.5924 42.3373 56.2161 41.961 56.2161 41.3412V39.3269C56.2161 38.7071 56.5924 38.3308 57.2122 38.3308H59.2266C59.8464 38.3308 60.2227 38.7071 60.2227 39.3269V41.3412C60.2227 41.961 59.8464 42.3373 59.2266 42.3373H57.2122ZM21.5964 49.4649C20.9987 49.4649 20.6224 49.0886 20.6224 48.4688V46.4323C20.6224 45.8347 20.9987 45.4584 21.5964 45.4584H23.6328C24.2526 45.4584 24.6289 45.8347 24.6289 46.4323V48.4688C24.6289 49.0886 24.2526 49.4649 23.6328 49.4649H21.5964ZM28.9453 49.4649C28.1706 49.4649 27.7279 49.0222 27.7279 48.2474V46.6537C27.7279 45.9011 28.1706 45.4584 28.9453 45.4584H51.8997C52.6523 45.4584 53.0951 45.9011 53.0951 46.6537V48.2474C53.0951 49.0222 52.6523 49.4649 51.8997 49.4649H28.9453ZM57.2122 49.4649C56.5924 49.4649 56.2161 49.0886 56.2161 48.4688V46.4323C56.2161 45.8347 56.5924 45.4584 57.2122 45.4584H59.2266C59.8464 45.4584 60.2227 45.8347 60.2227 46.4323V48.4688C60.2227 49.0886 59.8464 49.4649 59.2266 49.4649H57.2122Z" fill="white"/>
</svg>
