<svg width="80" height="80" viewBox="0 0 80 80" fill="none" xmlns="http://www.w3.org/2000/svg">
<path d="M47.027 57.1728H37.1892C36.4162 57.1728 35.7838 57.8089 35.7838 58.5864C35.7838 59.3639 36.4162 60 37.1892 60H47.027C47.8 60 48.4324 59.3639 48.4324 58.5864C48.4324 57.8089 47.8 57.1728 47.027 57.1728Z" fill="white"/>
<path d="M32.973 60C33.7492 60 34.3784 59.3671 34.3784 58.5864C34.3784 57.8057 33.7492 57.1728 32.973 57.1728C32.1968 57.1728 31.5676 57.8057 31.5676 58.5864C31.5676 59.3671 32.1968 60 32.973 60Z" fill="white"/>
<path d="M65.2411 19.5008C64.7632 19.0908 64.1308 18.9212 63.5265 19.0343C47.9124 21.8049 32.0876 21.8049 16.4735 19.0343C15.8551 18.9212 15.2227 19.0908 14.7589 19.5008C14.2811 19.8966 14 20.5044 14 21.1264V53.6389C14 54.2608 14.2811 54.8545 14.7589 55.2645C15.2368 55.6744 15.8692 55.8441 16.4735 55.731C32.0876 52.9603 47.9124 52.9603 63.5265 55.731C63.653 55.7592 63.7654 55.7592 63.8919 55.7592C64.3838 55.7592 64.8616 55.5896 65.2411 55.2645C65.7189 54.8687 66 54.2608 66 53.6389V21.1264C66 20.5044 65.7189 19.9107 65.2411 19.5008ZM61.7838 51.1368C54.5459 49.9918 47.28 49.4122 40 49.4122C32.72 49.4122 25.4541 49.9918 18.2162 51.1368V23.6284C32.6778 25.9326 47.3222 25.9326 61.7838 23.6284V51.1368Z" fill="white"/>
</svg>
