<svg width="80" height="80" viewBox="0 0 80 80" fill="none" xmlns="http://www.w3.org/2000/svg">
<path d="M50.7783 43.9453L35.4163 28.6276H36.0804C36.2132 28.6276 36.346 28.539 36.4567 28.4505L45.3551 20.194C46.5062 19.1315 47.1924 18.6666 48.2327 18.6666C49.738 18.6666 50.7783 19.8398 50.7783 21.2786V43.9453ZM58.415 60.0377L20.4971 22.1419C19.833 21.5 19.833 20.3711 20.4971 19.7291C21.1611 19.0651 22.2679 19.0651 22.932 19.7291L60.8278 57.625C61.4919 58.289 61.4919 59.3515 60.8278 60.0377C60.1859 60.7018 59.0791 60.7018 58.415 60.0377ZM28.9307 47.177C25.9202 47.177 24.415 45.6718 24.415 42.4622V33.9843C24.415 32.5013 24.7471 31.3945 25.389 30.664L50.6234 55.8763C50.2692 57.138 49.4059 57.7135 48.2549 57.7135C47.2367 57.7135 46.3955 57.2929 45.3551 56.319L35.7926 47.3763C35.6377 47.2434 35.4606 47.177 35.2393 47.177H28.9307Z" fill="white"/>
</svg>
