<svg width="80" height="80" viewBox="0 0 80 80" fill="none" xmlns="http://www.w3.org/2000/svg">
<path d="M25.7929 41.1489L37.2848 36.6565C38.0588 36.3536 38.9842 35.9835 39.7413 35.9835C40.4816 35.9835 41.4239 36.3536 42.1979 36.6565L53.6729 41.1489C54.3123 41.4013 54.7329 41.9734 54.7329 42.5791C54.7329 43.5718 54.0094 44.3289 53.0335 44.3289C52.5288 44.3289 51.8557 44.0429 51.4351 43.8747L39.7413 39.2981L28.0307 43.8747C27.6101 44.0429 26.9539 44.3289 26.4323 44.3289C25.4564 44.3289 24.7329 43.5718 24.7329 42.5791C24.7329 41.9734 25.1535 41.4013 25.7929 41.1489Z" fill="white"/>
</svg>
