<svg width="80" height="80" viewBox="0 0 80 80" fill="none" xmlns="http://www.w3.org/2000/svg">
<path d="M26.9481 60.7514C22.3218 60.7514 19.9976 58.4715 19.9976 53.8894V26.8621C19.9976 22.2801 22.3218 20.0001 26.9481 20.0001H53.7983C58.4468 20.0001 60.7489 22.3022 60.7489 26.8621V53.8894C60.7489 58.4493 58.4468 60.7514 53.7983 60.7514H26.9481ZM26.9923 57.1876H53.7541C55.9455 57.1876 57.1851 56.0144 57.1851 53.7124V27.0392C57.1851 24.7371 55.9455 23.5639 53.7541 23.5639H26.9923C24.7788 23.5639 23.5614 24.7371 23.5614 27.0392V53.7124C23.5614 56.0144 24.7788 57.1876 26.9923 57.1876Z" fill="white"/>
</svg>
