<svg width="80" height="80" viewBox="0 0 80 80" fill="none" xmlns="http://www.w3.org/2000/svg">
<path d="M25.5599 48.0001V46.3401H28.1599V35.4601C27.3799 35.7801 26.4799 36.1401 25.5599 36.4001V35.0401C26.8199 34.5201 28.0599 33.7401 28.9999 33.0001H29.9999V46.3401H32.4999V48.0001H25.5599ZM38.7308 48.2001C35.8508 48.2001 33.9308 46.6801 33.9308 44.3601C33.9308 42.7801 34.9108 41.1201 37.1308 40.3001C35.7108 39.5201 34.4908 38.5001 34.4908 36.4801C34.4908 34.3201 36.1708 32.8001 38.7308 32.8001C41.3108 32.8001 42.9908 34.2201 42.9908 36.3601C42.9908 37.9201 42.0308 39.1401 40.2308 39.8601C41.9308 40.6801 43.5308 41.7001 43.5308 44.1001C43.5308 46.5601 41.6308 48.2001 38.7308 48.2001ZM36.2308 36.3401C36.2308 37.9401 37.5708 38.6601 39.1108 39.3601C40.6508 38.6201 41.4108 37.6801 41.4108 36.5201C41.4108 35.2001 40.3508 34.3401 38.7308 34.3401C37.2308 34.3401 36.2308 35.1801 36.2308 36.3401ZM35.6908 44.1001C35.6908 45.6801 36.8308 46.6201 38.7308 46.6201C40.5508 46.6201 41.6308 45.7001 41.6308 44.1601C41.6308 42.3801 40.0308 41.6601 38.3508 40.8801C36.7108 41.4401 35.6908 42.6601 35.6908 44.1001ZM49.9613 48.2001C46.9413 48.2001 45.2213 45.4601 45.2213 40.5001C45.2213 35.5401 46.9413 32.8001 49.9613 32.8001C53.0013 32.8001 54.7213 35.5401 54.7213 40.5001C54.7213 45.4601 53.0013 48.2001 49.9613 48.2001ZM49.9613 46.7001C51.8613 46.7001 52.8013 44.6601 52.8013 40.5001C52.8013 36.3401 51.8613 34.3001 49.9613 34.3001C48.0813 34.3001 47.1413 36.3401 47.1413 40.5001C47.1413 44.6601 48.0813 46.7001 49.9613 46.7001Z" fill="white"/>
<path d="M37.8264 20.3645L41.6207 18.1606C36.7418 17.9175 31.6859 19.3146 27.3479 22.4892C17.5156 29.6844 15.2159 43.1657 22.0251 52.5727C22.5855 53.3468 22.4156 54.431 21.6457 54.9944C20.8758 55.5578 19.7975 55.387 19.2372 54.6129C11.2378 43.5617 14.044 27.9368 25.3188 19.6859C31.8248 14.9249 39.7692 13.6196 46.8665 15.4783C48.472 15.8988 48.7193 18.0413 47.3203 18.8539L39.5513 23.3667C38.7268 23.8456 37.6723 23.5618 37.196 22.7328C36.7197 21.9038 37.0019 20.8435 37.8264 20.3645Z" fill="white"/>
<path d="M38.4027 61.8402C43.2818 62.0793 48.3365 60.6781 52.672 57.5001C62.4985 50.2969 64.7874 36.8137 57.9707 27.4123C57.4097 26.6386 57.5788 25.5542 58.3482 24.9902C59.1176 24.4262 60.1961 24.5961 60.757 25.3698C68.7653 36.4145 65.9715 52.0417 54.7033 60.3017C48.2012 65.068 40.2578 66.3797 33.159 64.5267C31.5532 64.1075 31.3041 61.9653 32.7025 61.1515L40.4679 56.6324C41.292 56.1529 42.3467 56.4358 42.8237 57.2644C43.3007 58.0931 43.0193 59.1536 42.1952 59.6332L38.4027 61.8402Z" fill="white"/>
</svg>
