<svg width="80" height="80" viewBox="0 0 80 80" fill="none" xmlns="http://www.w3.org/2000/svg">
<path d="M17.332 41.5368C17.332 34.0993 21.0951 27.4144 26.7839 23.2751C27.7578 22.5225 28.9753 22.766 29.5286 23.6735C30.082 24.6032 29.7943 25.6436 28.8867 26.3298C24.1719 29.6944 21.1172 35.2504 21.0951 41.5368C21.0729 51.9847 29.4622 60.3519 39.9102 60.3519C50.3581 60.3519 58.7031 51.9847 58.7031 41.5368C58.7031 32.572 52.5495 25.1345 44.1823 23.2308V26.3741C44.1823 27.9678 43.0977 28.3884 41.8802 27.503L34.8411 22.5446C33.8008 21.8142 33.8229 20.7517 34.8411 20.0433L41.9023 15.1071C43.0977 14.2439 44.1823 14.6644 44.1823 16.236V19.3793C54.5417 21.4157 62.4883 30.6462 62.4883 41.5368C62.4883 53.8884 52.2617 64.115 39.9102 64.115C27.5807 64.115 17.332 53.8884 17.332 41.5368Z" fill="white"/>
</svg>
