<svg width="80" height="80" viewBox="0 0 80 80" fill="none" xmlns="http://www.w3.org/2000/svg">
<path d="M38.4271 63.5964C37.276 63.5964 36.4349 62.9102 36.1693 61.7813L35.0182 56.9115C34.1549 56.6237 33.3359 56.2917 32.5833 55.9375L28.3333 58.5495C27.3815 59.1472 26.2747 59.0586 25.4779 58.2618L22.6445 55.4284C21.8477 54.6315 21.7148 53.4805 22.3789 52.5287L24.9687 48.3008C24.6146 47.5261 24.2826 46.7292 24.0391 45.9323L19.125 44.7592C17.9961 44.5157 17.332 43.6745 17.332 42.5235V38.517C17.332 37.3881 17.9961 36.5469 19.125 36.3034L23.9948 35.1302C24.2826 34.2227 24.6367 33.4037 24.9245 32.7175L22.3346 28.4232C21.6927 27.4714 21.7812 26.3868 22.6003 25.5899L25.4779 22.7344C26.2969 21.9597 27.293 21.849 28.2669 22.4024L32.5612 25.0586C33.3138 24.6602 34.1549 24.3282 35.0182 24.0404L36.1693 19.1485C36.4349 18.0196 37.276 17.3334 38.4271 17.3334H42.5C43.651 17.3334 44.4922 18.0196 44.7357 19.1485L45.8867 24.0847C46.7943 24.3724 47.6133 24.7045 48.3216 25.0808L52.6602 22.4024C53.6341 21.849 54.6081 21.9818 55.4271 22.7344L58.3268 25.5899C59.1458 26.3868 59.2122 27.4714 58.5924 28.4232L55.9805 32.7175C56.2904 33.4037 56.6445 34.2227 56.9323 35.1302L61.8021 36.3034C62.931 36.5469 63.595 37.3881 63.595 38.517V42.5235C63.595 43.6745 62.931 44.5157 61.8021 44.7592L56.888 45.9323C56.6445 46.7292 56.3125 47.5261 55.9362 48.3008L58.5482 52.5287C59.1901 53.4805 59.0794 54.6315 58.2825 55.4284L55.4271 58.2618C54.6302 59.0586 53.5456 59.1472 52.5937 58.5495L48.3216 55.9375C47.5911 56.2917 46.75 56.6237 45.8867 56.9115L44.7357 61.7813C44.4922 62.9102 43.651 63.5964 42.5 63.5964H38.4271ZM40.4635 48.2787C44.7578 48.2787 48.2773 44.737 48.2773 40.4427C48.2773 36.1706 44.7578 32.6511 40.4635 32.6511C36.1693 32.6511 32.6497 36.1706 32.6497 40.4427C32.6497 44.737 36.1693 48.2787 40.4635 48.2787Z" fill="white"/>
</svg>
