<svg width="80" height="80" viewBox="0 0 80 80" fill="none" xmlns="http://www.w3.org/2000/svg">
<path fill-rule="evenodd" clip-rule="evenodd" d="M40.1045 44.3419C30.9142 44.3419 21.2077 49.1643 18.8554 59.1451C18.5612 60.3931 18.6053 61.0245 18.6635 61.2706C18.811 61.3181 19.1569 61.3872 19.8166 61.3552C20.592 61.3175 21.5714 61.1536 22.7636 60.8746C24.2576 60.5249 25.8209 60.0652 27.5155 59.5668C28.6276 59.2397 29.7962 58.896 31.0389 58.5559C34.0011 57.7452 37.2429 57.0029 40.196 57.0029C43.1519 57.0029 46.3694 57.7462 49.2979 58.5582C50.5547 58.9067 51.7283 59.2576 52.8412 59.5903C54.4812 60.0806 55.9892 60.5314 57.4377 60.8773C58.6048 61.1559 59.556 61.3181 60.3036 61.3553C60.8856 61.3843 61.202 61.329 61.3461 61.2884C61.4034 61.0238 61.4371 60.3806 61.1471 59.1407C58.8096 49.1468 49.2723 44.3419 40.1045 44.3419ZM16.308 58.5363C19.0449 46.9235 30.2211 41.7055 40.1045 41.7055C49.9879 41.7055 60.9794 46.9235 63.6955 58.5363C65.4663 66.1073 59.3254 64.2752 51.977 62.0828C48.0541 60.9124 43.7872 59.6394 40.196 59.6394C36.6244 59.6394 32.3353 60.8986 28.3668 62.0637C20.8705 64.2644 14.5184 66.1293 16.308 58.5363Z" fill="white"/>
<path fill-rule="evenodd" clip-rule="evenodd" d="M55.3316 27.1654C52.7972 24.0145 48.244 22.068 39.8254 22.0908C32.0464 22.1119 27.4244 23.9994 24.7145 26.7726C22.0014 29.5491 20.964 33.4584 20.9028 38.0711C20.8662 40.8286 20.9134 43.6485 20.9602 46.4487C20.995 48.5276 21.0296 50.5957 21.0296 52.6192H18.4114C18.4114 50.707 18.3778 48.6639 18.3436 46.584C18.2965 43.7228 18.2483 40.7918 18.2848 38.0359C18.3503 33.0986 19.4617 28.3891 22.8483 24.9234C26.2382 21.4544 31.6669 19.4765 39.8183 19.4544C48.5578 19.4307 54.0974 21.4421 57.3662 25.506C60.5781 29.4993 61.3164 35.157 61.3164 41.6702V52.6069H58.6983V41.6702C58.6983 35.2014 57.9229 30.3871 55.3316 27.1654Z" fill="white"/>
<path fill-rule="evenodd" clip-rule="evenodd" d="M37.9781 20.4966C37.9781 20.4959 37.9781 20.4952 36.6695 20.4606C35.3608 20.4259 35.3609 20.4252 35.3609 20.4245L35.361 20.4199L35.3612 20.4126L35.362 20.3945L35.3646 20.3444C35.367 20.305 35.3709 20.2537 35.3771 20.1921C35.3895 20.0694 35.4115 19.9034 35.4507 19.7081C35.5281 19.3229 35.6787 18.7932 35.9778 18.25C36.6179 17.0877 37.8782 15.9998 40.0488 15.9998C42.2102 15.9998 43.4962 17.0759 44.1788 18.203C44.5017 18.736 44.6792 19.2581 44.7771 19.6406C44.8266 19.8343 44.8575 19.999 44.8765 20.121C44.8861 20.1822 44.8927 20.2332 44.8973 20.2723L44.9026 20.3222L44.9043 20.3402L44.9049 20.3474L44.9052 20.3505C44.9053 20.3512 44.9054 20.3534 43.6007 20.4606C42.2959 20.5678 42.296 20.5685 42.296 20.5691L42.2963 20.5727L42.2967 20.5765C42.2959 20.5696 42.2939 20.5548 42.2901 20.5301C42.2823 20.4802 42.2675 20.3995 42.2417 20.2985C42.1888 20.0918 42.0966 19.8283 41.9436 19.5757C41.6745 19.1315 41.1846 18.6363 40.0488 18.6363C38.9221 18.6363 38.4927 19.1197 38.2675 19.5286C38.134 19.7711 38.0579 20.027 38.0169 20.2311C37.9969 20.3303 37.9868 20.4099 37.9818 20.459C37.9794 20.4834 37.9782 20.4996 37.9778 20.5062C37.9776 20.5095 37.9776 20.5104 37.9777 20.5086L37.9779 20.504L37.978 20.5001L37.9781 20.4966ZM42.2971 20.581L42.2967 20.5765Z" fill="white"/>
<path fill-rule="evenodd" clip-rule="evenodd" d="M40.4091 37.6444C40.1548 37.5098 39.8511 37.5098 39.5969 37.6444L36.4384 39.3165C35.7982 39.6554 35.0499 39.1079 35.1721 38.39L35.7753 34.8485C35.8239 34.5635 35.73 34.2726 35.5244 34.0707L32.9691 31.5626C32.4511 31.0541 32.737 30.1683 33.4528 30.0636L36.984 29.5469C37.2683 29.5053 37.514 29.3255 37.6411 29.0661L39.2204 25.844C39.5405 25.1908 40.4655 25.1908 40.7856 25.844L42.3648 29.0661C42.4919 29.3255 42.7377 29.5053 43.0219 29.5469L46.5532 30.0636C47.269 30.1683 47.5548 31.0541 47.0368 31.5626L44.4816 34.0707C44.2759 34.2726 44.1821 34.5635 44.2306 34.8485L44.8338 38.39C44.9561 39.1079 44.2078 39.6554 43.5675 39.3165L40.4091 37.6444Z" fill="white"/>
</svg>
