<svg width="80" height="80" viewBox="0 0 80 80" fill="none" xmlns="http://www.w3.org/2000/svg">
<path d="M17.3323 41.5369C17.3323 34.0994 21.0953 27.4146 26.7841 23.2752C27.7581 22.5226 28.9755 22.7661 29.5289 23.6737C30.0823 24.6034 29.7945 25.6437 28.887 26.3299C24.1721 29.6945 21.1174 35.2505 21.0953 41.5369C21.0732 51.9849 29.4625 60.3521 39.9104 60.3521C50.3583 60.3521 58.7034 51.9849 58.7034 41.5369C58.7034 32.5721 52.5497 25.1346 44.1825 23.231V26.3742C44.1825 27.9679 43.0979 28.3885 41.8805 27.5031L34.8414 22.5448C33.801 21.8143 33.8232 20.7518 34.8414 20.0435L41.9026 15.1073C43.0979 14.244 44.1825 14.6646 44.1825 16.2362V19.3794C54.5419 21.4159 62.4885 30.6463 62.4885 41.5369C62.4885 53.8885 52.262 64.1151 39.9104 64.1151C27.581 64.1151 17.3323 53.8885 17.3323 41.5369ZM34.1109 50.6346C33.1591 50.6346 32.5836 49.9484 32.5836 48.9966V36.4901H32.5393L30.3479 38.1281C30.1044 38.3273 29.8831 38.4159 29.551 38.4159C28.9312 38.4159 28.4664 37.9289 28.4664 37.2869C28.4664 36.7557 28.732 36.3794 29.1747 36.0695L31.676 34.2101C32.3622 33.6789 33.0041 33.2804 33.8896 33.2804C34.9742 33.2804 35.6604 33.9224 35.6604 35.007V48.9966C35.6604 49.9484 35.0849 50.6346 34.1109 50.6346ZM45.0015 50.7674C42.8544 50.7674 40.4195 49.5278 39.8661 47.4028C39.7997 47.1593 39.7555 46.8937 39.7555 46.6281C39.7555 45.8534 40.2424 45.3442 41.0172 45.3442C41.6148 45.3442 42.0575 45.6763 42.3453 46.2961C42.788 47.4471 43.6734 48.3104 45.0015 48.3104C46.6838 48.3104 47.6357 46.7388 47.6357 44.8573C47.6357 43.0864 46.7724 41.5148 45.0237 41.5148C44.1383 41.5148 43.3857 41.9575 42.8544 42.6659C42.4117 43.1971 42.1018 43.4849 41.3935 43.4849C40.4195 43.4849 39.9104 42.7544 39.9768 41.7583L40.4638 35.3169C40.5302 34.1437 41.0614 33.5461 42.2125 33.5461H48.6318C49.3844 33.5461 49.8492 34.033 49.8492 34.7856C49.8492 35.5383 49.3622 36.0252 48.6318 36.0252H43.0094L42.6109 41.0721H42.6995C43.2971 39.9432 44.5367 39.257 45.9976 39.257C48.9195 39.257 50.6018 41.8026 50.6018 44.7687C50.6018 48.2218 48.4547 50.7674 45.0015 50.7674Z" fill="white"/>
</svg>
