<svg width="80" height="80" viewBox="0 0 80 80" fill="none" xmlns="http://www.w3.org/2000/svg">
<path d="M17.6834 54.0782C13.9204 54.0782 11.9946 52.2409 11.9946 48.3894V23.0222C11.9946 19.1706 13.9204 17.3334 17.6834 17.3334H61.6444C65.4295 17.3334 67.3332 19.1706 67.3332 23.0222V48.3894C67.3332 52.2409 65.4295 54.0782 61.6444 54.0782H17.6834ZM32.2264 45.0912C32.2264 46.2865 33.4881 46.7071 34.4399 46.1537L49.8019 37.1003C50.9087 36.4584 50.8644 34.9532 49.7798 34.3112L34.4399 25.28C33.4881 24.7266 32.2264 25.1472 32.2264 26.3425V45.0912ZM28.5298 61.5821C27.5558 61.5821 26.7368 60.7852 26.7368 59.7891C26.7368 58.793 27.5558 57.9961 28.5298 57.9961H50.798C51.772 57.9961 52.591 58.793 52.591 59.7891C52.591 60.7852 51.772 61.5821 50.798 61.5821H28.5298Z" fill="white"/>
</svg>
