<svg width="80" height="80" viewBox="0 0 80 80" fill="none" xmlns="http://www.w3.org/2000/svg">
<path fill-rule="evenodd" clip-rule="evenodd" d="M47.8676 17.1283V19.5898H52.3453H56.8347L50.4111 26.0134L43.9993 32.4248L45.7811 34.2183L47.5746 36.0001L53.9865 29.5882L60.4101 23.1652V27.6546V32.1323H62.8716H65.3326V23.3995V14.6668L56.6003 14.6668H47.8676V17.1283Z" fill="white"/>
<path fill-rule="evenodd" clip-rule="evenodd" d="M26.0609 50.4242L19.6136 56.836V52.3466L19.6136 47.869H17.1384H14.6633L14.6633 56.6011L14.6633 65.3336H23.4438H32.2248V62.8722V60.4107H27.7224H23.2081L29.6083 54.0459C33.1204 50.5531 35.9967 47.6341 35.9967 47.5755C35.9967 47.5052 35.2189 46.6732 34.2521 45.7235L32.5194 44.0003L26.0609 50.4242Z" fill="white"/>
</svg>
