<svg width="80" height="80" viewBox="0 0 80 80" fill="none" xmlns="http://www.w3.org/2000/svg">
<path d="M20.599 58.4873C15.9727 58.4873 13.6484 56.2073 13.6484 51.6253V24.5979C13.6484 20.0159 15.9727 17.736 20.599 17.736H50.8359C55.4622 17.736 57.7643 20.038 57.7643 24.5979V37.2373C57.1888 37.1709 56.5911 37.1266 56.0156 37.1266C55.418 37.1266 54.8424 37.1709 54.2005 37.2373V30.9508C54.2005 28.9143 53.0938 27.8518 51.1237 27.8518H20.2669C18.2969 27.8518 17.2122 28.9143 17.2122 30.9508V51.8245C17.2122 53.8831 18.2969 54.9235 20.2669 54.9235H42.2031C42.513 56.1852 43 57.3805 43.6419 58.4873H20.599ZM31.3789 35.7985C30.6042 35.7985 30.3385 35.5771 30.3385 34.8024V33.4964C30.3385 32.7216 30.6042 32.4781 31.3789 32.4781H32.6849C33.4596 32.4781 33.7253 32.7216 33.7253 33.4964V34.8024C33.7253 35.5771 33.4596 35.7985 32.6849 35.7985H31.3789ZM38.75 35.7985C37.9531 35.7985 37.7096 35.5771 37.7096 34.8024V33.4964C37.7096 32.7216 37.9531 32.4781 38.75 32.4781H40.0339C40.8086 32.4781 41.0742 32.7216 41.0742 33.4964V34.8024C41.0742 35.5771 40.8086 35.7985 40.0339 35.7985H38.75ZM46.099 35.7985C45.3242 35.7985 45.0586 35.5771 45.0586 34.8024V33.4964C45.0586 32.7216 45.3242 32.4781 46.099 32.4781H47.4049C48.1797 32.4781 48.4232 32.7216 48.4232 33.4964V34.8024C48.4232 35.5771 48.1797 35.7985 47.4049 35.7985H46.099ZM24.0299 43.0367C23.2552 43.0367 22.9896 42.8154 22.9896 42.0407V40.7347C22.9896 39.9599 23.2552 39.7386 24.0299 39.7386H25.3359C26.1107 39.7386 26.3542 39.9599 26.3542 40.7347V42.0407C26.3542 42.8154 26.1107 43.0367 25.3359 43.0367H24.0299ZM31.3789 43.0367C30.6042 43.0367 30.3385 42.8154 30.3385 42.0407V40.7347C30.3385 39.9599 30.6042 39.7386 31.3789 39.7386H32.6849C33.4596 39.7386 33.7253 39.9599 33.7253 40.7347V42.0407C33.7253 42.8154 33.4596 43.0367 32.6849 43.0367H31.3789ZM38.75 43.0367C37.9531 43.0367 37.7096 42.8154 37.7096 42.0407V40.7347C37.7096 39.9599 37.9531 39.7386 38.75 39.7386H40.0339C40.8086 39.7386 41.0742 39.9599 41.0742 40.7347V42.0407C41.0742 42.8154 40.8086 43.0367 40.0339 43.0367H38.75ZM56.0156 62.6487C49.8398 62.6487 44.7708 57.6018 44.7708 51.4039C44.7708 45.2503 49.8398 40.1591 56.0156 40.1591C62.1693 40.1591 67.2604 45.2282 67.2604 51.4039C67.2604 57.5576 62.1029 62.6487 56.0156 62.6487ZM50.7695 53.1305H56.1263C56.901 53.1305 57.4987 52.5328 57.4987 51.7581V44.8518C57.4987 44.1214 56.8789 43.5237 56.1263 43.5237C55.3737 43.5237 54.7539 44.1214 54.7539 44.8518V50.4078H50.7695C50.0169 50.4078 49.375 51.0276 49.375 51.7581C49.375 52.5107 49.9948 53.1305 50.7695 53.1305ZM24.0299 50.2972C23.2552 50.2972 22.9896 50.0537 22.9896 49.2789V47.9729C22.9896 47.1982 23.2552 46.9768 24.0299 46.9768H25.3359C26.1107 46.9768 26.3542 47.1982 26.3542 47.9729V49.2789C26.3542 50.0537 26.1107 50.2972 25.3359 50.2972H24.0299ZM31.3789 50.2972C30.6042 50.2972 30.3385 50.0537 30.3385 49.2789V47.9729C30.3385 47.1982 30.6042 46.9768 31.3789 46.9768H32.6849C33.4596 46.9768 33.7253 47.1982 33.7253 47.9729V49.2789C33.7253 50.0537 33.4596 50.2972 32.6849 50.2972H31.3789ZM38.75 50.2972C37.9531 50.2972 37.7096 50.0537 37.7096 49.2789V47.9729C37.7096 47.1982 37.9531 46.9768 38.75 46.9768H40.0339C40.8086 46.9768 41.0742 47.1982 41.0742 47.9729V49.2789C41.0742 50.0537 40.8086 50.2972 40.0339 50.2972H38.75Z" fill="white"/>
</svg>
