<svg width="80" height="80" viewBox="0 0 80 80" fill="none" xmlns="http://www.w3.org/2000/svg">
<path fill-rule="evenodd" clip-rule="evenodd" d="M40 16C26.7447 16 16 26.7447 16 40C16 53.2553 26.7447 64 40 64C53.2553 64 64 53.2553 64 40C64 26.7447 53.2463 16 40 16ZM60.7784 35.0596C58.5737 33.8178 56.396 33.0799 54.1012 32.4499C53.1024 32.18 52.0945 31.928 51.0596 31.676C48.7649 31.1091 46.3172 30.5152 43.4466 29.5253H43.4196L43.3926 29.5073C40.7919 28.7244 38.3982 27.3566 36.4094 25.5028C34.7357 23.946 33.3768 22.0832 32.4139 20.0135C34.7717 19.1136 37.3273 18.6187 40 18.6187C50.0967 18.6187 58.5467 25.6288 60.7784 35.0416V35.0596ZM18.6367 40C18.6367 39.892 18.6367 39.784 18.6367 39.667C20.8414 40.6929 24.6029 43.2306 28.1935 49.6198C31.2621 55.0911 34.5467 58.6277 37.0844 60.7964C37.2643 60.9494 37.4353 61.0844 37.6063 61.2193C26.9336 60.0315 18.6367 50.9876 18.6367 40ZM42.2677 61.2373C42.1057 61.1474 41.8898 61.0304 41.6108 60.8594C40.9449 60.4454 39.973 59.7795 38.8121 58.7897C36.4904 56.8099 33.4218 53.5163 30.5062 48.324C26.1237 40.5219 21.3723 37.8583 18.8706 36.8954C19.8695 30.0382 24.117 24.243 30.0112 21.1204C31.1271 23.5051 32.6839 25.6558 34.6187 27.4556C36.8954 29.5703 39.631 31.1451 42.6097 32.045C45.5883 33.0709 48.225 33.7188 50.5647 34.2857C51.5726 34.5287 52.5174 34.7627 53.4083 35.0056C56.252 35.7795 58.7267 36.6974 61.3003 38.5242C61.3363 39.0101 61.3543 39.5051 61.3543 40C61.3543 51.0236 52.9944 60.1035 42.2677 61.2373Z" fill="white"/>
</svg>
