<svg width="80" height="80" viewBox="0 0 80 80" fill="none" xmlns="http://www.w3.org/2000/svg">
<path d="M17.3359 41.5297C17.3359 30.639 25.2826 21.4086 35.6419 19.3721V16.251C35.6419 14.6573 36.7266 14.2367 37.9661 15.1221L45.0052 20.0805C46.0234 20.8109 46.0013 21.8734 45.0052 22.5596L37.944 27.518C36.7266 28.3812 35.6419 27.9607 35.6419 26.389V23.2237C27.2747 25.1273 21.1211 32.5648 21.1211 41.5297C21.1211 51.9776 29.4661 60.3448 39.9141 60.3448C50.362 60.3448 58.7513 51.9776 58.7292 41.5297C58.707 35.2432 55.6523 29.6872 50.9375 26.3226C50.0299 25.6364 49.7422 24.5961 50.2956 23.6664C50.849 22.7588 52.0664 22.5153 53.0404 23.268C58.7292 27.4073 62.4922 34.0922 62.4922 41.5297C62.4922 53.8812 52.2656 64.1078 39.9141 64.1078C27.5846 64.1078 17.3359 53.8812 17.3359 41.5297ZM47.0195 50.7601C42.6589 50.7601 41.1094 46.3331 41.1094 41.9281C41.1094 37.5896 42.6367 33.1182 47.0195 33.1182C51.3581 33.1182 52.9075 37.5674 52.9075 41.9281C52.9075 46.3109 51.3581 50.7601 47.0195 50.7601ZM32.8307 50.7601C30.4844 50.7601 27.9167 49.6312 27.3633 47.3956C27.2969 47.1299 27.2526 46.8643 27.2526 46.5987C27.2526 45.7797 27.7839 45.2706 28.625 45.2706C29.2227 45.2706 29.7096 45.6469 29.9974 46.2445C30.3958 47.462 31.3034 48.2588 32.8529 48.2588C34.4687 48.2588 35.5755 47.1742 35.5755 45.6026C35.5755 43.6547 34.2695 42.8799 32.4766 42.8799H31.7904C31.0599 42.8799 30.5951 42.4815 30.5951 41.751C30.5951 41.0648 31.0378 40.6221 31.7904 40.6221H32.4323C34.0703 40.6221 35.1771 39.6703 35.1771 38.0544C35.1771 36.5713 34.2695 35.6195 32.7865 35.6195C31.5247 35.6195 30.6615 36.2836 30.2409 37.6117C29.9974 38.32 29.599 38.6299 28.8464 38.6299C27.9388 38.6299 27.5625 38.0544 27.5625 37.3682C27.5625 37.1026 27.6068 36.8148 27.6732 36.5713C28.1602 34.5791 30.2852 33.1846 32.7643 33.1846C35.7305 33.1846 38.099 34.8005 38.099 37.6781C38.099 39.6039 36.9258 41.1755 34.9557 41.6182V41.6625C36.9922 41.8617 38.6745 43.1898 38.6745 45.7354C38.6745 48.8786 36.0846 50.7601 32.8307 50.7601ZM47.0195 48.2588C48.8568 48.2588 49.7865 45.5362 49.7865 41.9281C49.7865 38.3422 48.8568 35.6416 47.0195 35.6416C45.1602 35.6416 44.2305 38.3422 44.2305 41.9281C44.2305 45.5362 45.1602 48.2588 47.0195 48.2588Z" fill="white"/>
</svg>
