<svg width="80" height="80" viewBox="0 0 80 80" fill="none" xmlns="http://www.w3.org/2000/svg">
<path d="M17.332 41.5368C17.332 34.0993 21.0951 27.4144 26.7839 23.2751C27.7578 22.5225 28.9753 22.766 29.5286 23.6735C30.082 24.6032 29.7943 25.6436 28.8867 26.3298C24.1719 29.6944 21.1172 35.2504 21.0951 41.5368C21.0729 51.9847 29.4622 60.3519 39.9102 60.3519C50.3581 60.3519 58.7031 51.9847 58.7031 41.5368C58.7031 32.572 52.5495 25.1345 44.1823 23.2308V26.3741C44.1823 27.9678 43.0977 28.3884 41.8802 27.503L34.8411 22.5446C33.8008 21.8142 33.8229 20.7517 34.8411 20.0433L41.9023 15.1071C43.0977 14.2439 44.1823 14.6644 44.1823 16.236V19.3793C54.5417 21.4157 62.4883 30.6462 62.4883 41.5368C62.4883 53.8884 52.2617 64.115 39.9102 64.115C27.5807 64.115 17.332 53.8884 17.332 41.5368ZM34.9297 50.6345C34.1771 50.6345 33.4909 50.1696 33.4909 49.1293V47.0928H28.0898C27.0495 47.0928 26.3411 46.4288 26.3411 45.4548C26.3411 44.7022 26.5846 43.9939 26.8945 43.3077C27.9128 41.2048 29.8385 37.6631 31.1445 35.3832C31.8086 34.0993 32.5391 33.3246 33.9779 33.3246C35.4167 33.3246 36.3906 34.0993 36.3906 35.5603V44.6358H37.276C38.0951 44.6358 38.5156 45.1449 38.5156 45.8754C38.5156 46.5394 38.1393 47.0928 37.276 47.0928H36.3906V49.1293C36.3906 50.1918 35.7044 50.6345 34.9297 50.6345ZM46.5065 50.8116C44.3594 50.8116 41.9245 49.5498 41.3711 47.447C41.2826 47.1814 41.2604 46.9157 41.2604 46.6722C41.2604 45.8754 41.7474 45.3884 42.5221 45.3884C43.0977 45.3884 43.5404 45.6983 43.8503 46.3181C44.293 47.4691 45.1784 48.3103 46.4844 48.3103C48.1888 48.3103 49.1406 46.7608 49.1406 44.8571C49.1406 43.1084 48.2552 41.5368 46.5286 41.5368C45.6432 41.5368 44.8906 41.9795 44.3594 42.6879C43.9167 43.2191 43.6068 43.4847 42.8763 43.4847C41.9023 43.4847 41.3932 42.7543 41.4596 41.7803L41.9466 35.3389C42.013 34.1657 42.5443 33.5681 43.6953 33.5681H50.1367C50.8672 33.5681 51.3542 34.0551 51.3542 34.8077C51.3542 35.5603 50.8672 36.0472 50.1367 36.0472H44.4922L44.0937 41.0941H44.1823C44.8021 39.9431 46.0195 39.279 47.5026 39.279C50.4245 39.279 52.1068 41.8246 52.1068 44.7907C52.1068 48.2439 49.9596 50.8116 46.5065 50.8116ZM33.5352 44.7243V35.9144H33.4466C32.0078 38.4821 30.1706 41.891 28.9753 44.5694V44.7243H33.5352Z" fill="white"/>
</svg>
