<svg width="80" height="80" viewBox="0 0 80 80" fill="none" xmlns="http://www.w3.org/2000/svg">
<path d="M20.4407 58.6145C15.9915 58.6145 13.3352 56.0468 13.3352 51.5976V29.6614C13.3352 25.2343 16.1907 22.6666 20.4407 22.6666H44.4355C48.8847 22.6666 51.3196 25.2343 51.3196 29.6614V51.5976C51.3196 56.0468 48.6633 58.6145 44.2141 58.6145H20.4407ZM54.33 47.1705V34.0884L62.3873 27.1379C63.1399 26.4739 64.0253 26.0533 64.8222 26.0533C66.5487 26.0533 67.6776 27.315 67.6776 29.1301V52.1509C67.6776 53.966 66.5487 55.2278 64.8222 55.2278C64.0253 55.2278 63.1399 54.8072 62.3873 54.1431L54.33 47.1705Z" fill="white"/>
</svg>
