<svg width="80" height="80" viewBox="0 0 80 80" fill="none" xmlns="http://www.w3.org/2000/svg">
<path d="M39.7124 47.4049C25.7671 47.4049 17.3335 43.5312 17.3335 34.2565V25.4466C17.3335 18.983 26.2762 14.6666 39.7124 14.6666C53.1265 14.6666 62.0913 18.983 62.0913 25.4466V34.2565C62.0913 43.5312 53.6356 47.4049 39.7124 47.4049ZM39.7124 32.6406C51.0015 32.6406 58.5275 29.7408 58.5275 25.4466C58.5275 21.1523 51.0015 18.2304 39.7124 18.2304C28.4233 18.2304 20.8973 21.1523 20.8973 25.4466C20.8973 29.7408 28.4233 32.6406 39.7124 32.6406ZM26.7632 36.8906C26.7632 37.6875 26.1213 38.3515 25.3244 38.3515C24.5275 38.3515 23.8634 37.6875 23.8634 36.8906V33.4375C22.7345 32.9062 21.7606 32.3307 20.8973 31.7109V34.2565C20.8973 41.2955 28.0028 43.8411 39.7124 43.8411C51.422 43.8411 58.5275 41.2955 58.5275 34.2565V31.7109C57.5314 32.4414 56.3582 33.0833 55.0301 33.6588V36.8906C55.0301 37.6875 54.366 38.3515 53.5692 38.3515C52.7723 38.3515 52.1304 37.6875 52.1304 36.8906V34.677C50.9129 35.0312 49.6291 35.319 48.2345 35.5403V38.3958C48.2345 39.1927 47.5926 39.8567 46.7957 39.8567C45.9989 39.8567 45.3348 39.1927 45.3348 38.3958V35.9388C43.9181 36.0716 42.4351 36.1601 40.8856 36.2044V38.9713C40.8856 39.7682 40.2437 40.4101 39.4468 40.4101C38.6499 40.4101 37.9858 39.7682 37.9858 38.9713V36.1822C36.4364 36.138 34.9533 36.0494 33.5588 35.8724V38.3958C33.5588 39.1927 32.8947 39.8567 32.0978 39.8567C31.3009 39.8567 30.659 39.1927 30.659 38.3958V35.4518C29.2645 35.2083 27.9585 34.8984 26.7632 34.5221V36.8906ZM21.6056 57.6315C21.6056 56.6132 22.4689 55.6171 23.8192 56.1041C27.87 57.4765 32.452 58.2291 37.2111 58.2291C40.8192 58.2291 44.3387 57.7864 47.5926 56.9895L46.4416 53.6692C45.9325 52.2304 47.3491 51.1679 48.5444 51.5885L56.2476 54.2669C57.2879 54.6432 57.6642 55.6836 57.0887 56.6354L52.6838 63.5416C51.9976 64.6263 50.271 64.582 49.784 63.2317L48.6994 60.1549C45.0913 61.0846 41.1955 61.5716 37.2111 61.5716C32.0757 61.5716 27.1174 60.7304 22.7345 59.2695C21.9155 59.0039 21.6056 58.2955 21.6056 57.6315Z" fill="white"/>
</svg>
