<svg width="80" height="80" viewBox="0 0 80 80" fill="none" xmlns="http://www.w3.org/2000/svg">
<path d="M26.6501 18.8553C26.7829 16.9738 27.8454 15.9999 29.8818 15.9999H51.3311C53.3896 15.9999 54.4521 16.9738 54.585 18.8553H26.6501ZM22.0902 24.9869C22.4222 22.9725 23.374 21.8658 25.5876 21.8658H55.6475C57.861 21.8658 58.8128 22.9725 59.1449 24.9869H22.0902ZM21.3376 64.9413C18.8805 64.9413 17.3311 63.3918 17.3311 61.0012V32.5129C17.3311 30.1223 18.8805 28.5507 21.3376 28.5507H59.8975C62.3766 28.5507 63.9261 30.1223 63.9261 32.5129V61.0012C63.9261 63.3918 62.3766 64.9413 59.8975 64.9413H21.3376ZM21.2933 35.9218H23.8389C24.4144 35.9218 24.7686 35.5233 24.7686 35.0142V32.7121C24.7686 32.1366 24.4144 31.7382 23.8389 31.7382H21.3597C20.7178 31.7382 20.3193 32.1587 20.3193 32.7785V35.0142C20.3193 35.5233 20.6956 35.9218 21.2933 35.9218ZM57.3962 35.9218H59.9639C60.5394 35.9218 60.9378 35.5233 60.9378 35.0142V32.7785C60.9378 32.1587 60.5394 31.7382 59.8975 31.7382H57.3962C56.8649 31.7382 56.4886 32.1366 56.4886 32.7121V35.0142C56.4886 35.5233 56.8649 35.9218 57.3962 35.9218ZM21.2933 42.4517H23.8389C24.4144 42.4517 24.7686 42.0311 24.7686 41.5663V39.2642C24.7686 38.733 24.4144 38.3124 23.8389 38.3124H21.2933C20.6735 38.3124 20.3193 38.733 20.3193 39.2642V41.5663C20.3193 42.0311 20.6956 42.4517 21.2933 42.4517ZM57.3962 42.4517H59.9639C60.5394 42.4517 60.9378 42.0311 60.9378 41.5663V39.2642C60.9378 38.733 60.5615 38.3124 59.9639 38.3124H57.3962C56.8649 38.3124 56.4886 38.733 56.4886 39.2642V41.5663C56.4886 42.0311 56.8649 42.4517 57.3962 42.4517ZM21.2933 48.8488H23.8389C24.4144 48.8488 24.7686 48.4061 24.7686 47.8749V45.6835C24.7686 45.0637 24.4144 44.6652 23.8389 44.6652H21.2933C20.6735 44.6652 20.3193 45.0637 20.3193 45.6835V47.8749C20.3193 48.4061 20.6956 48.8488 21.2933 48.8488ZM57.3962 48.8488H59.9639C60.5394 48.8488 60.9378 48.4061 60.9378 47.8749V45.6835C60.9378 45.0637 60.5615 44.6652 59.9639 44.6652H57.3962C56.8649 44.6652 56.4886 45.0637 56.4886 45.6835V47.8749C56.4886 48.4061 56.8649 48.8488 57.3962 48.8488ZM27.0485 46.746C27.0485 47.565 27.6904 48.2512 28.5316 48.2512H52.7256C53.5667 48.2512 54.2308 47.565 54.2308 46.746C54.2308 45.9048 53.5667 45.2408 52.7256 45.2408H28.5316C27.6904 45.2408 27.0485 45.9048 27.0485 46.746ZM21.2933 55.2017H23.8389C24.4144 55.2017 24.7686 54.7811 24.7686 54.2941V52.0363C24.7686 51.4608 24.4144 51.0845 23.8389 51.0845H21.2933C20.6735 51.0845 20.3193 51.4608 20.3193 52.0363V54.2941C20.3193 54.7811 20.6956 55.2017 21.2933 55.2017ZM57.3962 55.2017H59.9639C60.5394 55.2017 60.9378 54.7811 60.9378 54.2941V52.0363C60.9378 51.4608 60.5615 51.0845 59.9639 51.0845H57.3962C56.8649 51.0845 56.4886 51.4608 56.4886 52.0363V54.2941C56.4886 54.7811 56.8649 55.2017 57.3962 55.2017ZM21.3597 61.7538H23.8389C24.4144 61.7538 24.7686 61.3553 24.7686 60.8241V58.522C24.7686 57.9465 24.4144 57.5702 23.8389 57.5702H21.2933C20.6956 57.5702 20.3193 57.9465 20.3193 58.522V60.7356C20.3193 61.3332 20.7178 61.7538 21.3597 61.7538ZM57.3962 61.7538H59.8975C60.5394 61.7538 60.9378 61.3332 60.9378 60.7356V58.522C60.9378 57.9465 60.5394 57.5702 59.9639 57.5702H57.3962C56.8649 57.5702 56.4886 57.9465 56.4886 58.522V60.8241C56.4886 61.3553 56.8649 61.7538 57.3962 61.7538Z" fill="white"/>
</svg>
