<svg width="80" height="80" viewBox="0 0 80 80" fill="none" xmlns="http://www.w3.org/2000/svg">
<path d="M17.3354 41.5299C17.3354 30.6393 25.2821 21.4088 35.6414 19.3723V16.2512C35.6414 14.6575 36.7261 14.2369 37.9657 15.1223L45.0047 20.0807C46.0229 20.8111 46.0008 21.8736 45.0047 22.5598L37.9435 27.5182C36.7261 28.3814 35.6414 27.9609 35.6414 26.3893V23.2239C27.2743 25.1275 21.1206 32.565 21.1206 41.5299C21.1206 51.9778 29.4657 60.345 39.9136 60.345C50.3615 60.345 58.7508 51.9778 58.7287 41.5299C58.7065 35.2434 55.6519 29.6874 50.937 26.3229C50.0295 25.6367 49.7417 24.5963 50.2951 23.6666C50.8485 22.7591 52.0659 22.5156 53.0399 23.2682C58.7287 27.4075 62.4917 34.0924 62.4917 41.5299C62.4917 53.8814 52.2651 64.108 39.9136 64.108C27.5841 64.108 17.3354 53.8814 17.3354 41.5299ZM30.661 50.6275C29.8198 50.6275 29.2222 50.1184 29.2222 49.3437C29.2222 48.9231 29.3328 48.5911 29.4878 48.1926L34.8446 36.151V36.0182H28.6024C27.8719 36.0182 27.3628 35.5312 27.3628 34.8007C27.3628 34.0702 27.8719 33.5611 28.6024 33.5611H36.1948C37.1245 33.5611 37.8993 34.0924 37.8993 35.1992C37.8993 35.8189 37.7 36.3945 37.4565 36.97L32.0334 49.6314C31.7456 50.2955 31.3693 50.6275 30.661 50.6275ZM45.7795 50.8046C43.6545 50.8046 41.1974 49.5429 40.644 47.44C40.5776 47.1744 40.5334 46.9088 40.5334 46.6653C40.5334 45.8684 41.0203 45.3814 41.8172 45.3814C42.3927 45.3814 42.8354 45.6913 43.1453 46.3111C43.5659 47.4622 44.4513 48.3033 45.7795 48.3033C47.4617 48.3033 48.4357 46.7538 48.4357 44.8502C48.4357 43.1015 47.5282 41.5299 45.8237 41.5299C44.9162 41.5299 44.1636 41.9726 43.6323 42.6809C43.1896 43.2122 42.8797 43.4778 42.1714 43.4778C41.1974 43.4778 40.6662 42.7473 40.7547 41.7734L41.2196 35.332C41.3081 34.1588 41.8394 33.5611 42.9904 33.5611H49.4097C50.1623 33.5611 50.6271 34.0481 50.6271 34.8007C50.6271 35.5533 50.1401 36.0403 49.4097 36.0403H43.7651L43.3667 41.0872H43.4552C44.075 39.9361 45.2925 39.2721 46.7977 39.2721C49.6974 39.2721 51.3797 41.8176 51.3797 44.7838C51.3797 48.2369 49.2326 50.8046 45.7795 50.8046Z" fill="white"/>
</svg>
