<svg width="80" height="80" viewBox="0 0 80 80" fill="none" xmlns="http://www.w3.org/2000/svg">
<path d="M17.6873 54.1003C14.1678 54.1003 11.9985 51.931 11.9985 48.4115V23.0222C11.9985 19.5026 14.1678 17.3334 17.6873 17.3334H61.6483C65.1899 17.3334 67.3371 19.5026 67.3371 23.0222V48.4115C67.3371 51.931 65.1899 54.1003 61.6483 54.1003H17.6873ZM17.7537 50.5365H61.5819C62.9543 50.5365 63.7733 49.7175 63.7733 48.3672V23.0664C63.7733 21.7162 62.9543 20.8972 61.5819 20.8972H17.7537C16.3813 20.8972 15.5623 21.7162 15.5623 23.0664V48.3672C15.5623 49.7175 16.3813 50.5365 17.7537 50.5365ZM28.5337 61.6042C27.5597 61.6042 26.7407 60.8073 26.7407 59.8112C26.7407 58.8151 27.5597 58.0183 28.5337 58.0183H50.8019C51.7759 58.0183 52.5949 58.8151 52.5949 59.8112C52.5949 60.8073 51.7759 61.6042 50.8019 61.6042H28.5337Z" fill="white"/>
</svg>
