<svg width="80" height="80" viewBox="0 0 80 80" fill="none" xmlns="http://www.w3.org/2000/svg">
<path d="M41.1652 53.657L36.6559 42.182C36.3531 41.408 35.9829 40.4658 35.9829 39.7255C35.9829 38.9851 36.3531 38.0429 36.6559 37.2689L41.1652 25.7939C41.4176 25.1377 41.9896 24.7339 42.5954 24.7339C43.5881 24.7339 44.3452 25.4574 44.3452 26.4333C44.3452 26.9212 44.0592 27.5942 43.8909 28.0317L39.2975 39.7255L43.8909 51.4192C44.0592 51.8567 44.3452 52.5129 44.3452 53.0177C44.3452 54.0104 43.5881 54.7339 42.5954 54.7339C41.9896 54.7339 41.4176 54.3132 41.1652 53.657Z" fill="white"/>
</svg>
