<svg width="80" height="80" viewBox="0 0 80 80" fill="none" xmlns="http://www.w3.org/2000/svg">
<path d="M17.8287 60.7736C15.106 60.7736 13.3352 59.0249 13.3352 56.3465V24.4051C13.3352 21.7488 15.106 20.0001 17.8287 20.0001H61.037C63.7818 20.0001 65.5305 21.7488 65.5305 24.4051V56.3465C65.5305 59.0249 63.7818 60.7736 61.037 60.7736H17.8287ZM17.7623 28.2788H20.6178C21.2597 28.2788 21.6803 27.8139 21.6803 27.2384V24.6486C21.6803 24.0066 21.2597 23.5639 20.6178 23.5639H17.8508C17.1425 23.5639 16.6777 24.0288 16.6777 24.7371V27.2384C16.6777 27.8139 17.1204 28.2788 17.7623 28.2788ZM25.8639 38.616H53.024C53.6659 38.616 54.0644 38.2397 54.0644 37.5756V24.5822C54.0644 23.9181 53.6659 23.5639 53.024 23.5639H25.8639C25.1998 23.5639 24.8014 23.9181 24.8014 24.5822V37.5756C24.8014 38.2397 25.1998 38.616 25.8639 38.616ZM58.248 28.2788H61.1034C61.7675 28.2788 62.1881 27.8139 62.1881 27.2384V24.7371C62.1881 24.0288 61.7454 23.5639 61.0149 23.5639H58.248C57.606 23.5639 57.1855 24.0066 57.1855 24.6486V27.2384C57.1855 27.8139 57.606 28.2788 58.248 28.2788ZM17.7623 35.6056H20.6178C21.2597 35.6056 21.6803 35.1186 21.6803 34.5652V32.0197C21.6803 31.3777 21.2597 30.935 20.6178 30.935H17.7623C17.0982 30.935 16.6777 31.3777 16.6777 32.0197V34.5652C16.6777 35.1186 17.1204 35.6056 17.7623 35.6056ZM58.248 35.6056H61.1034C61.7675 35.6056 62.1881 35.1186 62.1881 34.5652V32.0197C62.1881 31.3777 61.7675 30.935 61.1034 30.935H58.248C57.606 30.935 57.1855 31.3777 57.1855 32.0197V34.5652C57.1855 35.1186 57.606 35.6056 58.248 35.6056ZM17.7623 42.7111H20.6178C21.2597 42.7111 21.6803 42.2462 21.6803 41.6707V39.1473C21.6803 38.4832 21.2597 38.0626 20.6178 38.0626H17.7623C17.0982 38.0626 16.6777 38.4832 16.6777 39.1473V41.6707C16.6777 42.2462 17.1204 42.7111 17.7623 42.7111ZM58.248 42.7111H61.1034C61.7675 42.7111 62.1881 42.2462 62.1881 41.6707V39.1473C62.1881 38.4832 61.7675 38.0626 61.1034 38.0626H58.248C57.606 38.0626 57.1855 38.4832 57.1855 39.1473V41.6707C57.1855 42.2462 57.606 42.7111 58.248 42.7111ZM25.8639 57.2098H53.024C53.6659 57.2098 54.0644 56.8113 54.0644 56.1473V43.2423C54.0644 42.6004 53.6659 42.2019 53.024 42.2019H25.8639C25.1998 42.2019 24.8014 42.6004 24.8014 43.2423V56.1473C24.8014 56.8113 25.1998 57.2098 25.8639 57.2098ZM17.7623 49.8829H20.6178C21.2597 49.8829 21.6803 49.396 21.6803 48.8204V46.297C21.6803 45.6329 21.2597 45.2124 20.6178 45.2124H17.7623C17.0982 45.2124 16.6777 45.6329 16.6777 46.297V48.8204C16.6777 49.396 17.1204 49.8829 17.7623 49.8829ZM58.248 49.8829H61.1034C61.7675 49.8829 62.1881 49.396 62.1881 48.8204V46.297C62.1881 45.6329 61.7675 45.2124 61.1034 45.2124H58.248C57.606 45.2124 57.1855 45.6329 57.1855 46.297V48.8204C57.1855 49.396 57.606 49.8829 58.248 49.8829ZM17.8508 57.2098H20.6178C21.2597 57.2098 21.6803 56.7449 21.6803 56.1251V53.5574C21.6803 52.9376 21.2597 52.4949 20.6178 52.4949H17.7623C17.1204 52.4949 16.6777 52.9376 16.6777 53.5574V56.0587C16.6777 56.7228 17.1425 57.2098 17.8508 57.2098ZM58.248 57.2098H61.0149C61.7454 57.2098 62.1881 56.7228 62.1881 56.0587V53.5574C62.1881 52.9376 61.7675 52.4949 61.1034 52.4949H58.248C57.606 52.4949 57.1855 52.9376 57.1855 53.5574V56.1251C57.1855 56.7449 57.606 57.2098 58.248 57.2098Z" fill="white"/>
</svg>
