<svg width="80" height="80" viewBox="0 0 80 80" fill="none" xmlns="http://www.w3.org/2000/svg">
<path d="M17.3359 41.5368C17.3359 34.0993 21.099 27.4144 26.7878 23.2751C27.7617 22.5225 28.9792 22.766 29.5326 23.6735C30.0859 24.6032 29.7982 25.6436 28.8906 26.3298C24.1758 29.6944 21.1211 35.2504 21.099 41.5368C21.0768 51.9847 29.4661 60.3519 39.9141 60.3519C50.362 60.3519 58.707 51.9847 58.707 41.5368C58.707 32.572 52.5534 25.1345 44.1862 23.2308V26.3741C44.1862 27.9678 43.1016 28.3884 41.8841 27.503L34.8451 22.5446C33.8047 21.8142 33.8268 20.7517 34.8451 20.0433L41.9062 15.1071C43.1016 14.2439 44.1862 14.6644 44.1862 16.236V19.3793C54.5456 21.4157 62.4922 30.6462 62.4922 41.5368C62.4922 53.8884 52.2656 64.115 39.9141 64.115C27.5846 64.115 17.3359 53.8884 17.3359 41.5368ZM47.3073 50.7673C42.9687 50.7673 41.4193 46.3402 41.4193 41.9353C41.4193 37.5967 42.9466 33.1254 47.3073 33.1254C51.668 33.1254 53.1953 37.5746 53.1953 41.9353C53.1953 46.2959 51.6901 50.7673 47.3073 50.7673ZM33.3177 50.7894C30.5729 50.7894 28.7799 48.9743 27.9388 46.4509C27.4297 44.9235 27.2526 42.9314 27.4297 41.0941C27.6068 37.0876 29.1562 33.1475 33.362 33.1475C35.5091 33.1475 37.3464 34.1657 38.0547 35.6931C38.2318 36.0472 38.3203 36.4235 38.3203 36.8441C38.3203 37.4639 37.9661 38.1058 37.0365 38.1058C36.3724 38.1058 35.974 37.7295 35.6419 37.1761C35.1549 36.2022 34.4245 35.6267 33.3177 35.6267C31.724 35.6267 30.9271 37.0876 30.5508 38.6371C30.3073 39.5889 30.1966 40.74 30.1966 42.2673H30.2852C30.8385 40.5407 32.2331 39.3676 34.2253 39.3676C37.1029 39.3676 38.8737 41.7582 38.8737 44.835C38.8737 48.3324 36.5937 50.7894 33.3177 50.7894ZM47.3073 48.266C49.1667 48.266 50.0964 45.5433 50.0964 41.9353C50.0964 38.3493 49.1667 35.6488 47.3073 35.6488C45.4701 35.6488 44.5404 38.3493 44.5404 41.9353C44.5404 45.5433 45.4701 48.266 47.3073 48.266ZM33.2734 48.3103C34.9557 48.3103 35.9076 46.6944 35.9076 44.9678C35.9076 43.2191 35 41.6696 33.2956 41.6696C31.6576 41.6696 30.6393 43.1306 30.6393 44.8793C30.6393 46.5837 31.5911 48.3103 33.2734 48.3103Z" fill="white"/>
</svg>
