<svg width="80" height="80" viewBox="0 0 80 80" fill="none" xmlns="http://www.w3.org/2000/svg">
<path d="M15 31.271V26.6697C15 22.2804 17.2265 20.0963 21.6582 20.0963H26.0899V23.5102H21.7006C19.5802 23.5102 18.4139 24.6341 18.4139 26.8393V31.271H15ZM65 31.271H61.5861V26.8393C61.5861 24.6341 60.4198 23.5102 58.2994 23.5102H53.9101V20.0963H58.3418C62.7735 20.0963 65 22.2804 65 26.6697V31.271ZM28.9949 23.5102V20.0963H38.5581V23.5102H28.9949ZM41.4419 23.5102V20.0963H51.0051V23.5102H41.4419ZM39.9152 51.4152C33.3842 51.4152 28.1043 46.1353 28.1043 39.6044C28.1043 33.0946 33.3842 27.8147 39.9152 27.8147C46.4249 27.8147 51.7048 33.0946 51.7048 39.6044C51.7048 46.1353 46.4249 51.4152 39.9152 51.4152ZM39.9152 48.6799C44.9618 48.6799 48.9695 44.651 48.9695 39.6044C48.9695 34.5577 44.9618 30.5501 39.9152 30.5501C34.8685 30.5501 30.8397 34.5577 30.8397 39.6044C30.8397 44.651 34.8685 48.6799 39.9152 48.6799ZM15 45.0539V34.176H18.4139V45.0539H15ZM65 45.0539H61.5861V34.176H65V45.0539ZM21.6582 59.1336C17.2265 59.1336 15 56.9496 15 52.5603V47.9589H18.4139V52.3906C18.4139 54.5959 19.5802 55.7197 21.7006 55.7197H26.0899V59.1336H21.6582ZM58.3418 59.1336H53.9101V55.7197H58.2994C60.4198 55.7197 61.5861 54.5959 61.5861 52.3906V47.9589H65V52.5603C65 56.9496 62.7735 59.1336 58.3418 59.1336ZM28.9949 59.1336V55.7197H38.5581V59.1336H28.9949ZM41.4419 59.1336V55.7197H51.0051V59.1336H41.4419Z" fill="white"/>
</svg>
