<svg width="80" height="80" viewBox="0 0 80 80" fill="none" xmlns="http://www.w3.org/2000/svg">
<path d="M17.332 41.5298C17.332 30.6392 25.2786 21.4087 35.638 19.3722V16.2511C35.638 14.6574 36.7227 14.2368 37.9622 15.1222L45.0013 20.0806C46.0195 20.811 45.9974 21.8735 45.0013 22.5597L37.9401 27.5181C36.7227 28.3814 35.638 27.9608 35.638 26.3892V23.2238C27.2708 25.1274 21.1172 32.5649 21.1172 41.5298C21.1172 51.9777 29.4622 60.3449 39.9102 60.3449C50.3581 60.3449 58.7474 51.9777 58.7253 41.5298C58.7031 35.2433 55.6484 29.6873 50.9336 26.3228C50.026 25.6366 49.7383 24.5962 50.2917 23.6665C50.8451 22.759 52.0625 22.5155 53.0365 23.2681C58.7253 27.4074 62.4883 34.0923 62.4883 41.5298C62.4883 53.8814 52.2617 64.1079 39.9102 64.1079C27.5807 64.1079 17.332 53.8814 17.332 41.5298ZM47.1927 50.7603C42.8542 50.7603 41.3047 46.3332 41.3047 41.9282C41.3047 37.5897 42.832 33.1183 47.1927 33.1183C51.5534 33.1183 53.0807 37.5676 53.0807 41.9282C53.0807 46.2889 51.5755 50.7603 47.1927 50.7603ZM33.2031 50.7824C30.4583 50.7824 28.6654 48.9673 27.8242 46.4439C27.3151 44.9165 27.138 42.9243 27.3151 41.0871C27.4922 37.0806 29.0417 33.1405 33.2474 33.1405C35.3945 33.1405 37.2318 34.1587 37.9401 35.686C38.1172 36.0402 38.2057 36.4165 38.2057 36.8371C38.2057 37.4569 37.8516 38.0988 36.9219 38.0988C36.2578 38.0988 35.8594 37.7225 35.5273 37.1691C35.0404 36.1952 34.3099 35.6196 33.2031 35.6196C31.6094 35.6196 30.8125 37.0806 30.4362 38.6301C30.1927 39.5819 30.082 40.7329 30.082 42.2603H30.1706C30.724 40.5337 32.1185 39.3605 34.1107 39.3605C36.9883 39.3605 38.7591 41.7511 38.7591 44.828C38.7591 48.3254 36.4792 50.7824 33.2031 50.7824ZM47.1927 48.259C49.0521 48.259 49.9818 45.5363 49.9818 41.9282C49.9818 38.3423 49.0521 35.6418 47.1927 35.6418C45.3555 35.6418 44.4258 38.3423 44.4258 41.9282C44.4258 45.5363 45.3555 48.259 47.1927 48.259ZM33.1589 48.3032C34.8411 48.3032 35.793 46.6873 35.793 44.9608C35.793 43.2121 34.8854 41.6626 33.181 41.6626C31.543 41.6626 30.5247 43.1235 30.5247 44.8722C30.5247 46.5767 31.4766 48.3032 33.1589 48.3032Z" fill="white"/>
</svg>
