<svg width="80" height="80" viewBox="0 0 80 80" fill="none" xmlns="http://www.w3.org/2000/svg">
<path d="M26.9491 60.7509C22.3228 60.7509 19.9985 58.471 19.9985 53.889V26.8616C19.9985 22.2796 22.3228 19.9996 26.9491 19.9996H53.7993C58.4478 19.9996 60.7498 22.3017 60.7498 26.8616V53.889C60.7498 58.4489 58.4478 60.7509 53.7993 60.7509H26.9491ZM26.9933 57.1871H53.755C55.9464 57.1871 57.186 56.014 57.186 53.7119V27.0387C57.186 24.7366 55.9464 23.5634 53.755 23.5634H26.9933C24.7798 23.5634 23.5623 24.7366 23.5623 27.0387V53.7119C23.5623 56.014 24.7798 57.1871 26.9933 57.1871ZM40.2082 32.6832C38.6144 32.6832 37.3306 31.3994 37.3306 29.7835C37.3306 28.1676 38.6144 26.8837 40.2082 26.8837C41.8241 26.8837 43.0858 28.1676 43.0858 29.7835C43.0858 31.3994 41.8241 32.6832 40.2082 32.6832ZM36.5337 52.7379C35.6261 52.7379 34.9178 52.0739 34.9178 51.1663C34.9178 50.303 35.6261 49.6168 36.5337 49.6168H39.2785V39.4788H36.91C36.0024 39.4788 35.2941 38.8147 35.2941 37.9072C35.2941 37.0439 36.0024 36.3577 36.91 36.3577H41.0715C42.2004 36.3577 42.798 37.1546 42.798 38.3499V49.6168H45.5428C46.4504 49.6168 47.1587 50.303 47.1587 51.1663C47.1587 52.0739 46.4504 52.7379 45.5428 52.7379H36.5337Z" fill="white"/>
</svg>
