<svg width="80" height="80" viewBox="0 0 80 80" fill="none" xmlns="http://www.w3.org/2000/svg">
<path d="M38.529 59.047C37.4886 59.047 36.6253 58.6264 35.6292 57.6525L26.1774 48.7098C26.0446 48.5769 25.8454 48.5105 25.624 48.5105H19.2933C16.2829 48.5105 14.667 46.8725 14.667 43.6629V35.4285C14.667 32.241 16.2829 30.5809 19.2933 30.5809H25.624C25.8454 30.5809 26.0446 30.5144 26.1774 30.3816L35.6292 21.5275C36.7581 20.465 37.4443 20.0001 38.4847 20.0001C39.9899 20.0001 41.0303 21.1733 41.0303 22.6121V56.5678C41.0303 58.0066 39.9899 59.047 38.529 59.047ZM57.1449 54.7085C56.3258 54.1551 56.2152 53.1147 56.835 52.2072C59.2034 48.754 60.6422 44.2163 60.6422 39.5014C60.6422 34.7866 59.2477 30.2045 56.835 26.7957C56.193 25.8881 56.3258 24.8478 57.1449 24.2944C57.9639 23.741 58.9821 23.9402 59.5797 24.7814C62.4352 28.6329 64.0732 34.034 64.0732 39.5014C64.0732 44.9689 62.4131 50.3256 59.5797 54.2215C58.9821 55.0626 57.9639 55.2618 57.1449 54.7085ZM48.9548 48.9311C48.0472 48.2892 47.9365 47.2267 48.6006 46.297C49.8623 44.504 50.6149 42.0691 50.6149 39.5014C50.6149 36.9337 49.8844 34.4767 48.6006 32.7059C47.9144 31.7983 48.0472 30.6915 48.9548 30.0717C49.6852 29.5405 50.7256 29.7176 51.3232 30.5809C53.0277 32.8387 54.0459 36.1147 54.0459 39.5014C54.0459 42.8881 53.0277 46.1863 51.3232 48.422C50.7256 49.2853 49.6852 49.4402 48.9548 48.9311Z" fill="white"/>
</svg>
