<svg width="80" height="80" viewBox="0 0 80 80" fill="none" xmlns="http://www.w3.org/2000/svg">
<path d="M18.6682 36.3306C18.6682 26.591 26.5927 18.6665 36.3323 18.6665C46.0719 18.6665 53.9963 26.591 53.9963 36.3306C53.9963 40.3592 52.6461 44.0558 50.3661 47.022L61.1903 57.9126C61.6552 58.3774 61.9208 59.0194 61.9208 59.7277C61.9208 61.2108 60.8805 62.3397 59.3752 62.3397C58.6669 62.3397 58.0028 62.0962 57.4937 61.5871L46.6031 50.6743C43.7034 52.755 40.1838 53.9946 36.3323 53.9946C26.5927 53.9946 18.6682 46.0701 18.6682 36.3306ZM22.4534 36.3306C22.4534 43.9894 28.6734 50.2095 36.3323 50.2095C43.9911 50.2095 50.2112 43.9894 50.2112 36.3306C50.2112 28.6717 43.9911 22.4517 36.3323 22.4517C28.6734 22.4517 22.4534 28.6717 22.4534 36.3306ZM30.6435 37.9465C29.7581 37.9465 29.0055 37.216 29.0055 36.3306C29.0055 35.4451 29.7581 34.6925 30.6435 34.6925H42.0211C42.9065 34.6925 43.637 35.4451 43.637 36.3306C43.637 37.216 42.9065 37.9465 42.0211 37.9465H30.6435Z" fill="white"/>
</svg>
