<svg width="80" height="80" viewBox="0 0 80 80" fill="none" xmlns="http://www.w3.org/2000/svg">
<path d="M17.3359 41.5369C17.3359 34.0994 21.099 27.4145 26.7878 23.2752C27.7617 22.5226 28.9792 22.7661 29.5326 23.6736C30.0859 24.6033 29.7982 25.6437 28.8906 26.3299C24.1758 29.6945 21.1211 35.2505 21.099 41.5369C21.0768 51.9848 29.4661 60.352 39.9141 60.352C50.362 60.352 58.707 51.9848 58.707 41.5369C58.707 32.5721 52.5534 25.1346 44.1862 23.2309V26.3742C44.1862 27.9679 43.1016 28.3885 41.8841 27.5031L34.8451 22.5447C33.8047 21.8143 33.8268 20.7518 34.8451 20.0434L41.9062 15.1072C43.1016 14.244 44.1862 14.6645 44.1862 16.2361V19.3794C54.5456 21.4158 62.4922 30.6463 62.4922 41.5369C62.4922 53.8885 52.2656 64.115 39.9141 64.115C27.5846 64.115 17.3359 53.8885 17.3359 41.5369ZM47.1302 50.7674C42.7695 50.7674 41.2201 46.3403 41.2201 41.9354C41.2201 37.5968 42.7474 33.1255 47.1302 33.1255C51.4687 33.1255 53.0182 37.5747 53.0182 41.9354C53.0182 46.3182 51.4687 50.7674 47.1302 50.7674ZM32.9414 50.7674C30.5951 50.7674 28.0273 49.6385 27.474 47.4028C27.4076 47.1372 27.3633 46.8716 27.3633 46.6059C27.3633 45.7869 27.8945 45.2778 28.7357 45.2778C29.3333 45.2778 29.8203 45.6541 30.1081 46.2518C30.5065 47.4692 31.4141 48.2661 32.9635 48.2661C34.5794 48.2661 35.6862 47.1814 35.6862 45.6098C35.6862 43.6619 34.3802 42.8872 32.5872 42.8872H31.901C31.1706 42.8872 30.7057 42.4887 30.7057 41.7583C30.7057 41.0721 31.1484 40.6294 31.901 40.6294H32.543C34.181 40.6294 35.2878 39.6775 35.2878 38.0617C35.2878 36.5786 34.3802 35.6268 32.8971 35.6268C31.6133 35.6268 30.7721 36.2908 30.3516 37.6189C30.1081 38.3273 29.7096 38.6372 28.957 38.6372C28.0495 38.6372 27.6732 38.0617 27.6732 37.3755C27.6732 37.1098 27.7174 36.8221 27.7839 36.5786C28.2708 34.5864 30.3958 33.1919 32.875 33.1919C35.8411 33.1919 38.2096 34.8078 38.2096 37.6854C38.2096 39.6111 37.0365 41.1828 35.0664 41.6255V41.6697C37.1029 41.8689 38.7852 43.1971 38.7852 45.7426C38.7852 48.8859 36.1953 50.7674 32.9414 50.7674ZM47.1302 48.2661C48.9674 48.2661 49.8971 45.5434 49.8971 41.9354C49.8971 38.3494 48.9674 35.6489 47.1302 35.6489C45.2708 35.6489 44.3411 38.3494 44.3411 41.9354C44.3411 45.5434 45.2708 48.2661 47.1302 48.2661Z" fill="white"/>
</svg>
