<svg width="80" height="80" viewBox="0 0 80 80" fill="none" xmlns="http://www.w3.org/2000/svg">
<path d="M16.4967 48.5105C13.5084 48.5105 12.0032 47.0053 12.0032 43.7957V35.3178C12.0032 32.1082 13.4862 30.5809 16.4967 30.5809H22.8495C23.0487 30.5809 23.2258 30.5144 23.3808 30.3816L33.3638 21.5275C34.5149 20.4871 35.2011 20.0001 36.2636 20.0001C37.7245 20.0001 38.8092 21.1733 38.8092 22.6121V56.5678C38.8092 58.0066 37.7245 59.047 36.3079 59.047C35.2454 59.047 34.4263 58.6043 33.3638 57.6525L23.3808 48.7098C23.2258 48.5769 23.0487 48.5105 22.8495 48.5105H16.4967ZM16.6516 45.2788H23.7349C24.3105 45.2788 24.7532 45.4116 25.2623 45.8543L34.692 54.3764C34.8248 54.4871 34.9576 54.5535 35.0683 54.5535C35.2232 54.5535 35.356 54.4207 35.356 54.2215V24.8035C35.356 24.6043 35.2232 24.4936 35.0683 24.4936C34.9133 24.4936 34.8027 24.56 34.692 24.6707L25.2623 33.2371C24.7532 33.7019 24.3105 33.8126 23.7349 33.8126H16.6516C15.8326 33.8126 15.4563 34.1889 15.4563 35.0301V44.0835C15.4563 44.9025 15.8326 45.2788 16.6516 45.2788ZM47.3092 41.3608C46.0696 41.3608 45.1842 40.6967 45.1842 39.5236C45.1842 38.3282 46.0253 37.642 47.3092 37.642H64.6633C65.9693 37.642 66.7662 38.3282 66.7662 39.5236C66.7662 40.6967 65.9029 41.3608 64.6633 41.3608H47.3092Z" fill="white"/>
</svg>
