<svg width="80" height="80" viewBox="0 0 80 80" fill="none" xmlns="http://www.w3.org/2000/svg">
<path d="M13.333 38.7714C13.333 34.4771 16.2106 30.7805 20.3942 29.6959C20.9919 24.2506 25.5739 20.0227 31.0635 20.0006C34.4281 20.0006 37.1729 21.4173 39.7184 24.4498C40.5596 24.2285 41.5335 24.0956 42.6403 24.0956C46.7353 24.0956 50.1442 27.0839 50.764 31.0683C55.1911 32.0201 58.6221 35.8053 59.0869 40.4758C63.2926 41.5826 66.2145 45.235 66.2367 49.5735C66.2367 54.7753 62.2744 58.8704 56.32 58.8704H29.6468C24.5778 58.8704 20.9033 55.2844 20.9033 50.4146C20.9033 49.485 21.0583 48.5995 21.3239 47.7805C16.4098 46.9394 13.333 43.1542 13.333 38.7714ZM16.6755 38.7714C16.6755 41.9589 19.2653 44.3717 23.2718 44.593C24.6663 43.1764 26.5479 42.2467 28.695 42.0032C29.514 37.886 33.0999 34.8756 37.3721 34.8535C38.2354 34.8535 39.1208 35.0084 39.9176 35.1855C41.6885 32.817 44.3005 31.2675 47.2445 30.9133C46.5804 28.8769 44.6325 27.4381 42.3968 27.4381C41.4228 27.4381 40.5153 27.6373 39.9176 27.8365C38.7887 28.1907 37.9919 27.9915 37.4606 27.1061C35.9775 24.7154 33.764 23.3652 31.0635 23.343C27.0127 23.343 23.6481 26.6855 23.7145 30.6035C23.7145 32.0201 23.2054 32.6399 21.8551 32.7949C18.9997 33.1269 16.6755 35.6725 16.6755 38.7714ZM29.6468 55.5279H56.32C60.238 55.5279 62.8942 53.1373 62.8942 49.5735C62.8942 46.5852 60.6585 44.0175 57.7367 43.6855C56.2314 43.5084 55.7887 43.0214 55.7887 41.4941C55.7887 37.4654 52.557 34.1673 48.5505 34.1673C45.7171 34.1894 43.1937 35.6725 42.0426 37.9745C41.5557 38.9485 40.8473 39.1477 39.652 38.6829C38.7445 38.3287 38.2354 38.1959 37.3721 38.1959C34.3838 38.1959 32.0817 40.3873 31.8382 43.4199C31.7275 44.7258 31.0856 45.1907 29.5583 45.235C26.57 45.2792 24.2458 47.537 24.2458 50.4146C24.2458 53.4472 26.4372 55.5279 29.6468 55.5279Z" fill="white"/>
</svg>
