<svg width="80" height="80" viewBox="0 0 80 80" fill="none" xmlns="http://www.w3.org/2000/svg">
<path fill-rule="evenodd" clip-rule="evenodd" d="M40.0038 58.2C47.478 58.2 53.5371 52.1409 53.5371 44.6667C53.5371 37.1924 47.478 31.1333 40.0038 31.1333C32.5295 31.1333 26.4704 37.1924 26.4704 44.6667C26.4704 52.1409 32.5295 58.2 40.0038 58.2ZM40.0038 61C49.0244 61 56.3371 53.6873 56.3371 44.6667C56.3371 35.646 49.0244 28.3333 40.0038 28.3333C30.9831 28.3333 23.6704 35.646 23.6704 44.6667C23.6704 53.6873 30.9831 61 40.0038 61Z" fill="white"/>
<path fill-rule="evenodd" clip-rule="evenodd" d="M61.4704 44.6667C61.4704 56.5224 51.8595 66.1334 40.0038 66.1334C28.1481 66.1334 18.5371 56.5224 18.5371 44.6667C18.5371 32.811 28.1481 23.2 40.0038 23.2C51.8595 23.2 61.4704 32.811 61.4704 44.6667ZM40.0038 63.3333C50.3131 63.3333 58.6704 54.976 58.6704 44.6667C58.6704 34.3574 50.3131 26 40.0038 26C29.6945 26 21.3371 34.3574 21.3371 44.6667C21.3371 54.976 29.6945 63.3333 40.0038 63.3333Z" fill="white"/>
<path fill-rule="evenodd" clip-rule="evenodd" d="M40.0038 29.2667C40.777 29.2667 41.4038 29.8935 41.4038 30.6667V35.3333C41.4038 36.1065 40.777 36.7333 40.0038 36.7333C39.2306 36.7333 38.6038 36.1065 38.6038 35.3333V30.6667C38.6038 29.8935 39.2306 29.2667 40.0038 29.2667Z" fill="white"/>
<path fill-rule="evenodd" clip-rule="evenodd" d="M40.0038 52.6C40.777 52.6 41.4038 53.2268 41.4038 54V58.6667C41.4038 59.4399 40.777 60.0667 40.0038 60.0667C39.2306 60.0667 38.6038 59.4399 38.6038 58.6667V54C38.6038 53.2268 39.2306 52.6 40.0038 52.6Z" fill="white"/>
<path fill-rule="evenodd" clip-rule="evenodd" d="M55.4038 44.6667C55.4038 45.4399 54.777 46.0667 54.0038 46.0667H49.3371C48.5639 46.0667 47.9371 45.4399 47.9371 44.6667C47.9371 43.8935 48.5639 43.2667 49.3371 43.2667H54.0038C54.777 43.2667 55.4038 43.8935 55.4038 44.6667Z" fill="white"/>
<path fill-rule="evenodd" clip-rule="evenodd" d="M32.0704 44.6667C32.0704 45.4399 31.4436 46.0667 30.6704 46.0667H26.0038C25.2306 46.0667 24.6038 45.4399 24.6038 44.6667C24.6038 43.8935 25.2306 43.2667 26.0038 43.2667H30.6704C31.4436 43.2667 32.0704 43.8935 32.0704 44.6667Z" fill="white"/>
<path fill-rule="evenodd" clip-rule="evenodd" d="M39.0704 20.4V23.6667C39.0704 24.4399 38.4436 25.0667 37.6704 25.0667C36.8972 25.0667 36.2704 24.4399 36.2704 23.6667V19.4667C36.2704 18.4358 37.1062 17.6 38.1371 17.6H41.8704C42.9014 17.6 43.7371 18.4358 43.7371 19.4667V23.6667C43.7371 24.4399 43.1103 25.0667 42.3371 25.0667C41.5639 25.0667 40.9371 24.4399 40.9371 23.6667V20.4H39.0704Z" fill="white"/>
<path fill-rule="evenodd" clip-rule="evenodd" d="M36.7371 15.7333V17.6H43.2704V15.7333H36.7371ZM33.9371 14.8C33.9371 13.7691 34.7728 12.9333 35.8038 12.9333H44.2038C45.2347 12.9333 46.0704 13.7691 46.0704 14.8V18.5333C46.0704 19.5643 45.2347 20.4 44.2038 20.4H35.8038C34.7728 20.4 33.9371 19.5643 33.9371 18.5333V14.8Z" fill="white"/>
</svg>
