<svg width="80" height="80" viewBox="0 0 80 80" fill="none" xmlns="http://www.w3.org/2000/svg">
<path d="M18.6641 36.3309C18.6641 26.5913 26.5885 18.6669 36.3281 18.6669C46.0677 18.6669 53.9922 26.5913 53.9922 36.3309C53.9922 40.3596 52.6419 44.0562 50.362 47.0223L61.1862 57.913C61.651 58.3778 61.9167 59.0197 61.9167 59.7281C61.9167 61.2111 60.8763 62.34 59.3711 62.34C58.6628 62.34 57.9987 62.0966 57.4896 61.5874L46.599 50.6747C43.6992 52.7554 40.1797 53.995 36.3281 53.995C26.5885 53.995 18.6641 46.0705 18.6641 36.3309ZM22.4492 36.3309C22.4492 43.9898 28.6693 50.2098 36.3281 50.2098C43.987 50.2098 50.207 43.9898 50.207 36.3309C50.207 28.6721 43.987 22.452 36.3281 22.452C28.6693 22.452 22.4492 28.6721 22.4492 36.3309ZM29.0234 36.3309C29.0234 35.4234 29.7318 34.6929 30.6393 34.6929H34.7122V30.6421C34.7122 29.7346 35.4206 29.0262 36.3281 29.0262C37.2357 29.0262 37.9661 29.7346 37.9661 30.6421V34.6929H42.0169C42.9245 34.6929 43.6328 35.4234 43.6328 36.3309C43.6328 37.2385 42.9245 37.9468 42.0169 37.9468H37.9661V42.0197C37.9661 42.9273 37.2357 43.6356 36.3281 43.6356C35.4206 43.6356 34.7122 42.9273 34.7122 42.0197V37.9468H30.6393C29.7318 37.9468 29.0234 37.2385 29.0234 36.3309Z" fill="white"/>
</svg>
