<svg width="80" height="80" viewBox="0 0 80 80" fill="none" xmlns="http://www.w3.org/2000/svg">
<path d="M18.5923 52.374C18.5923 50.1604 20.828 48.1683 22.7537 46.1982C24.2147 44.6709 24.6131 41.5276 24.7902 38.9821C24.9451 30.2607 27.203 24.6383 33.091 22.5133C33.8214 19.6136 36.2121 17.3336 39.466 17.3336C42.742 17.3336 45.1105 19.6136 45.8631 22.5133C51.7511 24.6383 54.0089 30.2607 54.1639 38.9821C54.341 41.5276 54.7394 44.6709 56.2004 46.1982C58.104 48.1683 60.3618 50.1604 60.3618 52.374C60.3618 53.9899 59.1001 55.0524 57.0194 55.0524H47.6782C47.5011 59.3466 44.1587 63.0654 39.466 63.0654C34.7954 63.0654 31.453 59.3245 31.2759 55.0524H21.9347C19.8319 55.0524 18.5923 53.9899 18.5923 52.374ZM22.8866 51.7099H56.0454V51.4443C55.647 50.8024 54.341 49.4964 53.1678 48.2125C51.5962 46.4417 50.8436 43.5862 50.6444 39.2698C50.4673 29.5966 47.5897 26.5198 43.8045 25.4795C43.229 25.3466 42.9412 25.081 42.9191 24.5055C42.8306 22.2034 41.5246 20.5875 39.466 20.5875C37.4295 20.5875 36.1014 22.2034 36.035 24.5055C36.0129 25.081 35.703 25.3466 35.1496 25.4795C31.3644 26.5198 28.4868 29.5966 28.3097 39.2698C28.1105 43.5862 27.3579 46.4417 25.7642 48.2125C24.6131 49.4964 23.285 50.8024 22.8866 51.4443V51.7099ZM70.4113 55.3401C69.703 54.5433 69.9243 53.5029 70.7212 52.5953C73.6873 49.2972 75.3475 44.9586 75.3475 40.1995C75.3475 35.4404 73.6873 31.1018 70.7212 27.8037C69.9243 26.8961 69.703 25.8558 70.4113 25.0589C71.1196 24.2177 72.3592 24.2399 73.2004 25.1696C76.8748 29.1539 78.9556 34.4664 78.9556 40.1995C78.9556 45.9326 76.8748 51.2229 73.2004 55.2294C72.3592 56.1591 71.1196 56.1591 70.4113 55.3401ZM8.54281 55.3401C7.83447 56.1591 6.59489 56.1591 5.75374 55.2294C2.07926 51.2229 -0.00146484 45.9326 -0.00146484 40.1995C-0.00146484 34.4664 2.07926 29.1539 5.75374 25.1696C6.59489 24.2399 7.83447 24.2177 8.54281 25.0589C9.25114 25.8558 9.02978 26.8961 8.23291 27.8037C5.26676 31.1018 3.60661 35.4404 3.60661 40.1995C3.60661 44.9586 5.26676 49.2972 8.23291 52.5953C9.02978 53.5029 9.25114 54.5433 8.54281 55.3401ZM14.7407 49.0315C14.0103 49.8505 12.6821 49.8727 11.9074 48.8766C9.98161 46.486 8.87484 43.4534 8.87484 40.1995C8.87484 36.9456 9.98161 33.913 11.9074 31.5224C12.6821 30.5263 14.0103 30.5263 14.7407 31.3675C15.4491 32.1643 15.1613 33.1604 14.453 34.1123C13.1248 35.7503 12.4829 37.8974 12.4829 40.1995C12.4829 42.5016 13.1248 44.6266 14.453 46.2867C15.1613 47.2386 15.4491 48.2347 14.7407 49.0315ZM64.1912 49.0315C63.505 48.2347 63.7928 47.2386 64.5011 46.2867C65.8071 44.6266 66.4712 42.5016 66.4712 40.1995C66.4712 37.8974 65.8071 35.7503 64.5011 34.1123C63.7928 33.1604 63.505 32.1643 64.1912 31.3675C64.9438 30.5263 66.2498 30.5263 67.0467 31.5224C68.9725 33.913 70.0793 36.9456 70.0793 40.1995C70.0793 43.4534 68.9725 46.486 67.0467 48.8766C66.2498 49.8727 64.9438 49.8505 64.1912 49.0315ZM34.729 55.0524C34.8839 58.0628 36.8097 59.9443 39.466 59.9443C42.1444 59.9443 44.0701 58.0628 44.2251 55.0524H34.729Z" fill="white"/>
</svg>
