<svg width="80" height="80" viewBox="0 0 80 80" fill="none" xmlns="http://www.w3.org/2000/svg">
<path d="M30.417 30.25H48.583C49.2273 30.25 49.75 30.7727 49.75 31.417V49.583C49.75 50.2273 49.2273 50.75 48.583 50.75H30.417C29.7727 50.75 29.25 50.2273 29.25 49.583V31.417C29.25 30.7727 29.7727 30.25 30.417 30.25Z" stroke="white" stroke-width="2.5"/>
<path d="M8.25 24.6797C8.25 23.8404 9.10965 23.2753 9.87988 23.6084L22.0469 28.875C22.4736 29.0597 22.7498 29.4803 22.75 29.9453V51.0547C22.7498 51.5197 22.4736 51.9403 22.0469 52.125L9.87988 57.3916C9.10965 57.7247 8.25 57.1596 8.25 56.3203V24.6797Z" stroke="white" stroke-width="2.5"/>
<path d="M70.75 24.6797C70.75 23.8404 69.8903 23.2753 69.1201 23.6084L56.9531 28.875C56.5264 29.0597 56.2502 29.4803 56.25 29.9453V51.0547C56.2502 51.5197 56.5264 51.9403 56.9531 52.125L69.1201 57.3916C69.8904 57.7247 70.75 57.1596 70.75 56.3203V24.6797Z" stroke="white" stroke-width="2.5"/>
</svg>
