<svg width="80" height="80" viewBox="0 0 80 80" fill="none" xmlns="http://www.w3.org/2000/svg">
<path d="M30.1011 24.1956C30.9865 23.4873 32.0047 22.9117 33.2 22.5133C33.9526 19.6136 36.3211 17.3336 39.5972 17.3336C42.8511 17.3336 45.2417 19.6136 45.9943 22.5133C51.9045 24.6604 54.2508 30.3492 54.3615 39.7568C54.4722 42.9222 55.1362 45.0914 56.9513 47.1279C58.5451 48.7438 60.3823 50.4039 60.3823 52.1748C60.3823 52.7946 60.1831 53.3701 59.8068 53.7906L51.9487 45.6891C51.174 44.206 50.9526 42.5459 50.842 39.8453C50.7091 29.7295 47.7651 26.542 43.9136 25.4795C43.3602 25.3466 43.0503 25.081 43.0282 24.5055C42.9618 22.2034 41.6336 20.5875 39.5972 20.5875C37.5386 20.5875 36.2326 22.2034 36.144 24.5055C36.1219 25.081 35.8341 25.3466 35.2808 25.4795C34.3289 25.7451 33.4435 26.1435 32.6466 26.7412L30.1011 24.1956ZM19.144 21.8271C18.5021 21.1852 18.5021 20.0563 19.144 19.4143C19.8302 18.7503 20.9149 18.7503 21.5789 19.4143L61.3341 59.1253C61.9982 59.8115 61.9761 60.874 61.3341 61.538C60.6701 62.2242 59.5855 62.2242 58.9214 61.538L19.144 21.8271ZM39.5972 63.0654C34.9045 63.0654 31.562 59.3245 31.3849 55.0524H22.0659C19.9409 55.0524 18.7013 54.012 18.7013 52.374C18.7013 50.1604 20.9591 48.1683 22.8849 46.1982C24.3459 44.6709 24.7222 41.5276 24.8993 38.9821C24.9435 36.3701 25.1649 34.0237 25.6519 32.0094L28.7508 35.1084C28.5737 36.3479 28.4631 37.7203 28.4188 39.2698C28.2417 43.5862 27.467 46.4417 25.8953 48.2125C24.7222 49.4964 23.4162 50.8024 23.0177 51.4443V51.7099H45.3524L49.1818 55.5393H47.743C47.3446 59.6344 44.0907 63.0654 39.5972 63.0654ZM39.5972 59.9443C42.2534 59.9443 44.1792 58.0628 44.3341 55.0524H34.8381C35.0151 58.0628 36.9188 59.9443 39.5972 59.9443Z" fill="white"/>
</svg>
