<svg width="80" height="80" viewBox="0 0 80 80" fill="none" xmlns="http://www.w3.org/2000/svg">
<path d="M52.1117 47.3935C54.7679 47.3935 57.4684 46.9065 59.2614 46.176C59.7926 45.9768 60.0583 45.9547 60.4124 45.9547C61.0986 45.9547 61.8734 46.5745 61.8734 47.482C61.8734 47.7255 61.8291 48.2125 61.5635 48.788C57.9775 57.0667 50.1637 62.1135 40.5348 62.1135C27.0986 62.1135 17.3369 52.3297 17.3369 38.8935C17.3369 29.5966 23.0921 20.9638 31.2822 17.6435C31.902 17.4 32.3226 17.3336 32.4997 17.3336C33.4294 17.3336 34.1156 18.1969 34.1156 18.9273C34.1156 19.3701 34.0492 19.6799 33.7171 20.3219C32.8981 21.9156 32.3447 24.8818 32.3447 28.2464C32.3447 40.0445 39.915 47.3935 52.1117 47.3935ZM20.8122 38.7385C20.8122 50.2932 29.1794 58.6604 40.6676 58.6604C47.7952 58.6604 54.2809 55.2737 57.6455 49.7177C55.8083 50.3596 53.8825 50.6253 51.6025 50.6253C37.4801 50.6253 29.0465 42.3909 29.0465 28.5563C29.0465 26.0328 29.4229 23.7529 30.1312 21.6943C24.3981 25.3023 20.8122 31.8544 20.8122 38.7385Z" fill="white"/>
</svg>
