<svg width="80" height="80" viewBox="0 0 80 80" fill="none" xmlns="http://www.w3.org/2000/svg">
<path d="M39.729 62.0472C39.3748 62.0472 38.8215 61.9143 38.2459 61.6044C25.673 54.5211 21.3345 51.555 21.3345 43.4755V26.542C21.3345 24.2177 22.3527 23.4651 24.2121 22.6904C26.8241 21.6279 35.2798 18.4183 37.8918 17.6656C38.4673 17.5107 39.1092 17.3336 39.729 17.3336C40.3488 17.3336 40.9907 17.4664 41.5884 17.6656C44.2004 18.5732 52.634 21.6058 55.2459 22.6904C57.1274 23.4873 58.1235 24.2177 58.1235 26.542V43.4755C58.1235 51.555 53.8071 54.5433 41.2121 61.6044C40.6587 61.9143 40.0832 62.0472 39.729 62.0472ZM39.729 58.0406C40.0832 58.0406 40.4595 57.9078 41.1014 57.5094C51.328 51.2893 54.604 49.4964 54.604 42.6565V27.2281C54.604 26.4755 54.4712 26.1656 53.8735 25.9443C50.4425 24.7711 43.9569 22.4248 40.6144 21.0966C40.2603 20.9638 39.9725 20.8974 39.729 20.8974C39.4855 20.8974 39.1978 20.9417 38.8436 21.0966C35.5011 22.4248 28.9712 24.6162 25.6066 25.9443C24.9868 26.1878 24.854 26.4755 24.854 27.2281V42.6565C24.854 49.4964 28.13 51.3115 38.3566 57.5094C39.0207 57.9078 39.3748 58.0406 39.729 58.0406ZM32.1808 47.9912C31.2069 47.9912 30.41 47.1722 30.41 46.1982C30.41 45.7112 30.6092 45.2906 30.9412 44.9586L37.2277 38.65L30.9412 32.3414C30.6092 32.0094 30.41 31.5888 30.41 31.1018C30.41 30.1279 31.2069 29.3531 32.1808 29.3531C32.6899 29.3531 33.0884 29.5302 33.4204 29.8844L39.729 36.1709L46.104 29.8623C46.4803 29.486 46.8566 29.3089 47.3215 29.3089C48.3175 29.3089 49.0923 30.1058 49.0923 31.0797C49.0923 31.5667 48.9373 31.943 48.561 32.3193L42.2524 38.65L48.5389 44.9365C48.8931 45.2906 49.0702 45.6891 49.0702 46.1982C49.0702 47.1722 48.2954 47.9912 47.2993 47.9912C46.7902 47.9912 46.3696 47.7698 46.0376 47.4378L39.729 41.1513L33.4647 47.4378C33.1327 47.7919 32.6899 47.9912 32.1808 47.9912Z" fill="white"/>
</svg>
