<svg width="80" height="80" viewBox="0 0 80 80" fill="none" xmlns="http://www.w3.org/2000/svg">
<path d="M29.1348 44.1126H51.4053C51.7224 44.1126 51.9795 44.3697 51.9795 44.6868V60.7659C51.9795 61.0831 51.7224 61.3401 51.4053 61.3401H29.1348C28.8176 61.3401 28.5606 61.0831 28.5605 60.7659V44.6868C28.5605 44.3697 28.8176 44.1126 29.1348 44.1126ZM13.6299 19.9935H35.9004C36.2175 19.9935 36.4745 20.2506 36.4746 20.5677V36.6468C36.4746 36.9639 36.2175 37.221 35.9004 37.221H13.6299C13.3128 37.2209 13.0557 36.9639 13.0557 36.6468V20.5677C13.0557 20.2507 13.3128 19.9936 13.6299 19.9935ZM44.7656 19.9935H67.0361C67.3532 19.9936 67.6103 20.2507 67.6104 20.5677V36.6468C67.6104 36.9639 67.3532 37.2209 67.0361 37.221H44.7656C44.4485 37.221 44.1914 36.9639 44.1914 36.6468V20.5677C44.1915 20.2506 44.4485 19.9935 44.7656 19.9935Z" stroke="white" stroke-width="3.44554"/>
</svg>
