<svg width="80" height="80" viewBox="0 0 80 80" fill="none" xmlns="http://www.w3.org/2000/svg">
<path d="M30.314 62.0968C27.0601 62.0968 25.3335 60.326 25.3335 56.8286V41.5773C25.3335 38.5004 26.6838 36.7739 29.2072 36.3976V31.0408C29.2072 22.7179 34.6525 18.6671 40.4299 18.6671C46.2293 18.6671 51.6746 22.7179 51.6746 31.0408V36.3976C54.2202 36.7739 55.5483 38.5004 55.5483 41.5773V56.8286C55.5483 60.326 53.8218 62.0968 50.5679 62.0968H30.314ZM32.7267 30.5538V36.3312H48.1772V30.5538C48.1772 24.9757 44.5692 22.0096 40.4299 22.0096C36.2905 22.0096 32.7267 24.9757 32.7267 30.5538Z" fill="white"/>
</svg>
