<svg width="80" height="80" viewBox="0 0 80 80" fill="none" xmlns="http://www.w3.org/2000/svg">
<path d="M50.5292 59.047C49.511 59.047 48.6477 58.6264 47.6295 57.6525L38.1998 48.7098C38.0448 48.5769 37.8678 48.5105 37.6464 48.5105H31.2935C28.3053 48.5105 26.6672 46.8725 26.6672 43.6629V35.4285C26.6672 32.241 28.3053 30.5809 31.2935 30.5809H37.6464C37.8678 30.5809 38.0448 30.5144 38.1998 30.3816L47.6295 21.5275C48.7584 20.4428 49.4667 20.0001 50.4849 20.0001C51.9902 20.0001 53.0305 21.1733 53.0305 22.6121V56.5678C53.0305 58.0066 51.9902 59.047 50.5292 59.047Z" fill="white"/>
</svg>
