<svg width="80" height="80" viewBox="0 0 80 80" fill="none" xmlns="http://www.w3.org/2000/svg">
<path d="M56.5729 59.8991L19.5404 22.9108C18.8984 22.2689 18.8984 21.14 19.5404 20.498C20.2266 19.834 21.3112 19.834 21.9753 20.498L58.9857 57.4863C59.6497 58.1725 59.7161 59.1686 58.9857 59.8991C58.2995 60.6296 57.237 60.5853 56.5729 59.8991ZM58.6536 53.502L50.6849 45.4447C51.349 44.028 51.7253 42.4121 51.7253 40.7298C51.7253 33.8236 46.1914 28.4004 39.3516 28.4004C37.6471 28.4004 36.0534 28.7546 34.5924 29.3743L28.8372 23.6191C32.0469 22.5566 35.5885 21.9147 39.3516 21.9147C57.0599 21.9147 69.345 36.2363 69.345 40.7298C69.345 43.3639 65.1172 49.2298 58.6536 53.502ZM39.3516 59.5449C21.8424 59.5449 9.33594 45.2012 9.33594 40.7298C9.33594 38.0736 13.6966 31.9421 20.6693 27.5814L28.2396 35.196C27.4206 36.8561 26.9557 38.7376 26.9557 40.7298C26.9779 47.459 32.4453 53.0592 39.3516 53.0592C41.2995 53.0592 43.1589 52.5944 44.7969 51.7533L50.5964 57.5527C47.2539 58.7923 43.4466 59.5449 39.3516 59.5449ZM46.3906 40.265C46.3906 40.5527 46.3685 40.8626 46.3464 41.1283L38.5104 33.2923C38.776 33.2702 39.0638 33.248 39.3516 33.248C43.2695 33.248 46.3906 36.3913 46.3906 40.265ZM32.2904 40.2207C32.2904 39.9108 32.3125 39.5788 32.3346 39.2689L40.2812 47.2155C39.9714 47.2376 39.6836 47.2598 39.3737 47.2598C35.5 47.2598 32.2904 44.1165 32.2904 40.2207Z" fill="white"/>
</svg>
