<svg width="80" height="80" viewBox="0 0 80 80" fill="none" xmlns="http://www.w3.org/2000/svg">
<path d="M21.3359 52.5224V26.2255C21.3359 23.1487 23.1953 21.3336 26.2943 21.3336H52.4362C55.5573 21.3336 57.3945 23.1487 57.3945 26.2255V52.5224C57.3945 55.5992 55.5573 57.4143 52.4362 57.4143H26.2943C23.1953 57.4143 21.3359 55.5992 21.3359 52.5224ZM24.8997 51.6812C24.8997 53.0315 25.6966 53.8505 27.0247 53.8505H51.7057C53.056 53.8505 53.8307 53.0315 53.8307 51.6812V27.0667C53.8307 25.7164 53.056 24.8974 51.7057 24.8974H27.0247C25.6966 24.8974 24.8997 25.7164 24.8997 27.0667V51.6812Z" fill="white"/>
</svg>
