<svg width="80" height="80" viewBox="0 0 80 80" fill="none" xmlns="http://www.w3.org/2000/svg">
<path d="M28.3091 56.1467C27.3355 56.1467 26.5408 55.939 25.9251 55.5238C25.3237 55.1086 24.8942 54.5645 24.6364 53.8915C24.393 53.2329 24.3286 52.5384 24.4431 51.8082C24.572 51.0636 24.887 50.3763 25.3882 49.7463L46.3933 22.126C47.1235 21.1667 47.9397 20.5367 48.8418 20.236C49.7581 19.921 50.6674 19.921 51.5694 20.236C52.4715 20.551 53.2876 21.181 54.0179 22.126L75.0445 49.7248C75.5313 50.3692 75.832 51.0636 75.9466 51.8082C76.0754 52.5384 76.011 53.2329 75.7533 53.8915C75.5098 54.5645 75.0803 55.1086 74.4646 55.5238C73.8632 55.939 73.0757 56.1467 72.1021 56.1467H28.3091ZM29.2541 52.5599H71.157C71.5436 52.5599 71.7942 52.4239 71.9088 52.1518C72.0233 51.8798 71.9732 51.6005 71.7584 51.3142L51.2043 24.3812C50.9466 24.0232 50.6172 23.8443 50.2163 23.8443C49.8154 23.8443 49.4718 24.0304 49.1854 24.4027L28.6528 51.3357C28.4523 51.622 28.4022 51.9012 28.5024 52.1733C28.617 52.431 28.8675 52.5599 29.2541 52.5599ZM43.5368 38.5994C42.7922 38.5994 42.1336 38.4419 41.5608 38.1269C40.9881 37.7976 40.4726 37.4038 40.0144 36.9456C39.5562 36.4874 39.1339 36.065 38.7473 35.6784L40.3796 33.6166C40.9809 34.1893 41.5322 34.7263 42.0333 35.2274C42.5345 35.7142 43.0356 35.9577 43.5368 35.9577C43.995 35.9577 44.4532 35.8288 44.9113 35.5711C45.3695 35.299 45.8564 34.9912 46.3718 34.6475C46.8873 34.2896 47.4529 33.9746 48.0686 33.7025C48.6986 33.4161 49.4145 33.2729 50.2163 33.2729C51.0182 33.2729 51.7341 33.4161 52.3641 33.7025C52.9941 33.9746 53.5597 34.2896 54.0608 34.6475C54.5763 34.9912 55.056 35.299 55.4998 35.5711C55.958 35.8288 56.4162 35.9577 56.8744 35.9577C57.3899 35.9577 57.891 35.7142 58.3778 35.2274C58.879 34.7406 59.4231 34.2108 60.0101 33.6381L61.6424 35.6784C61.2702 36.0794 60.8549 36.5089 60.3967 36.9671C59.9385 37.411 59.4231 37.7976 58.8503 38.1269C58.2776 38.4419 57.619 38.5994 56.8744 38.5994C56.0153 38.5994 55.2707 38.4634 54.6407 38.1913C54.0107 37.9193 53.4451 37.6043 52.944 37.2463C52.4428 36.8884 51.9703 36.5805 51.5265 36.3228C51.0969 36.0507 50.6602 35.9147 50.2163 35.9147C49.7581 35.9147 49.3071 36.0507 48.8632 36.3228C48.4337 36.5805 47.9683 36.8884 47.4672 37.2463C46.9804 37.6043 46.4219 37.9193 45.7919 38.1913C45.1619 38.4634 44.4102 38.5994 43.5368 38.5994ZM33.3778 43.3245L25.0445 32.9078C24.7581 32.5499 24.4288 32.3709 24.0565 32.3709C23.6986 32.3709 23.3764 32.557 23.09 32.9293L8.27047 51.3357C8.07001 51.6077 8.01989 51.8798 8.12012 52.1518C8.23467 52.4239 8.47092 52.5599 8.82888 52.5599H28.3736V56.1467H7.92682C6.93885 56.1467 6.13702 55.9319 5.52133 55.5023C4.90563 55.0871 4.47608 54.543 4.23267 53.87C3.98925 53.1971 3.9463 52.474 4.1038 51.7008C4.2613 50.9276 4.61926 50.1973 5.17768 49.5101L20.2765 30.6742C21.0354 29.7435 21.8587 29.1206 22.7464 28.8056C23.6341 28.4906 24.5147 28.4906 25.3882 28.8056C26.2759 29.1063 27.0992 29.7291 27.8581 30.6742L35.59 40.3606L33.3778 43.3245ZM18.1287 43.5178C17.4271 43.5178 16.8114 43.3531 16.2816 43.0238C15.7518 42.6802 15.2793 42.2792 14.8641 41.8211C14.4489 41.3629 14.0623 40.9619 13.7043 40.6183L15.1863 38.8357C15.759 39.3654 16.2745 39.8881 16.7327 40.4035C17.2052 40.919 17.6705 41.1767 18.1287 41.1767C18.6728 41.1767 19.2169 40.9763 19.761 40.5754C20.3051 40.1744 20.9208 39.7735 21.6081 39.3726C22.2954 38.9717 23.1115 38.7712 24.0565 38.7712C25.0302 38.7712 25.8535 38.9717 26.5265 39.3726C27.2138 39.7735 27.8295 40.1744 28.3736 40.5754C28.932 40.9763 29.4832 41.1767 30.0273 41.1767C30.4139 41.1767 30.7862 41.0049 31.1442 40.6613C31.5164 40.3033 31.9174 39.9095 32.3469 39.48L33.6785 41.4559C33.2347 41.9428 32.7192 42.4081 32.1321 42.852C31.5451 43.2959 30.8435 43.5178 30.0273 43.5178C28.9964 43.5178 28.1373 43.3245 27.45 42.9379C26.777 42.537 26.1828 42.1361 25.6674 41.7351C25.1519 41.3199 24.615 41.1123 24.0565 41.1123C23.5268 41.1123 22.997 41.3199 22.4672 41.7351C21.9517 42.1361 21.3504 42.537 20.6631 42.9379C19.9901 43.3245 19.1453 43.5178 18.1287 43.5178Z" fill="white"/>
</svg>
