<svg width="80" height="80" viewBox="0 0 80 80" fill="none" xmlns="http://www.w3.org/2000/svg">
<path d="M30.3179 62.0968C27.064 62.0968 25.3374 60.326 25.3374 56.8286V41.5773C25.3374 38.5004 26.6877 36.7739 29.2111 36.3976V31.0408C29.2111 22.7179 34.6564 18.6671 40.4338 18.6671C46.2332 18.6671 51.6785 22.7179 51.6785 31.0408V36.3976C54.2241 36.7739 55.5522 38.5004 55.5522 41.5773V56.8286C55.5522 60.326 53.8257 62.0968 50.5718 62.0968H30.3179ZM32.7306 30.5538V36.3312H48.1812V30.5538C48.1812 24.9757 44.5731 22.0096 40.4338 22.0096C36.2944 22.0096 32.7306 24.9757 32.7306 30.5538ZM40.4338 51.5825C41.2749 51.5825 41.7619 51.0734 41.784 50.2101L42.0054 42.7283C42.0275 41.865 41.3413 41.201 40.4338 41.201C39.5041 41.201 38.84 41.8429 38.8621 42.7062L39.0835 50.2101C39.1056 51.0734 39.5926 51.5825 40.4338 51.5825ZM40.4116 56.8064C41.452 56.8064 42.3153 55.9874 42.3153 54.9913C42.3153 53.951 41.452 53.1541 40.4116 53.1541C39.4155 53.1541 38.5744 53.9731 38.5744 54.9913C38.5744 55.9874 39.4377 56.8064 40.4116 56.8064Z" fill="white"/>
</svg>
