<svg width="80" height="80" viewBox="0 0 80 80" fill="none" xmlns="http://www.w3.org/2000/svg">
<path d="M43.8612 59.047C42.8209 59.047 41.9576 58.6264 40.9615 57.6525L31.5097 48.7098C31.3769 48.5769 31.1777 48.5105 30.9563 48.5105H24.6256C21.6152 48.5105 19.9993 46.8725 19.9993 43.6629V35.4285C19.9993 32.241 21.6152 30.5809 24.6256 30.5809H30.9563C31.1777 30.5809 31.3769 30.5144 31.5097 30.3816L40.9615 21.5275C42.0683 20.4428 42.7766 20.0001 43.817 20.0001C45.3222 20.0001 46.3625 21.1733 46.3625 22.6121V56.5678C46.3625 58.0066 45.3222 59.047 43.8612 59.047ZM54.2649 48.9311C53.3573 48.2892 53.2467 47.2267 53.9107 46.297C55.1724 44.504 55.925 42.0691 55.925 39.5014C55.925 36.9337 55.1946 34.4767 53.9107 32.7059C53.2245 31.7983 53.3573 30.6915 54.2649 30.0717C54.9954 29.5405 56.0357 29.7176 56.6334 30.5809C58.3378 32.8387 59.356 36.1147 59.356 39.5014C59.356 42.8881 58.3378 46.1863 56.6334 48.422C56.0357 49.2853 54.9954 49.4402 54.2649 48.9311Z" fill="white"/>
</svg>
