<svg width="80" height="80" viewBox="0 0 80 80" fill="none" xmlns="http://www.w3.org/2000/svg">
<path d="M59.8149 61.6182L17.0936 18.919C16.4517 18.2771 16.4517 17.1482 17.0936 16.5063C17.7798 15.8201 18.8866 15.8422 19.5285 16.5063L62.2277 59.2055C62.8918 59.8695 62.8696 60.9542 62.2277 61.6182C61.5636 62.2823 60.479 62.2823 59.8149 61.6182ZM61.6522 20.0258C65.1938 20.0258 67.341 22.1508 67.341 25.6925V51.0818C67.341 53.8044 66.1014 55.6195 63.8879 56.3279H63.7329L27.4308 20.0258H61.6522ZM17.6912 56.7706C14.1496 56.7706 12.0024 54.6456 12.0024 51.0818V25.6925C12.0024 23.3682 12.9321 21.7302 14.6366 20.9333H14.7694L50.5845 56.7706H17.6912ZM28.5376 64.2745C27.5636 64.2745 26.7446 63.4776 26.7446 62.4815C26.7446 61.4854 27.5636 60.6886 28.5376 60.6886H50.8058C51.7798 60.6886 52.5988 61.4854 52.5988 62.4815C52.5988 63.4776 51.7798 64.2745 50.8058 64.2745H28.5376Z" fill="white"/>
</svg>
