<svg width="80" height="80" viewBox="0 0 80 80" fill="none" xmlns="http://www.w3.org/2000/svg">
<path d="M19.2044 57.8542C14.556 57.8542 12.2539 55.5521 12.2539 50.9922V29.7201C12.2539 25.1602 14.556 22.8802 19.2044 22.8802H61.0182C65.6224 22.8802 67.9688 25.1823 67.9688 29.7201V50.9922C67.9688 55.5521 65.6224 57.8542 61.0182 57.8542H19.2044ZM20.6432 35.0547H22.7461C23.388 35.0547 23.7865 34.6563 23.7865 34.0365V31.9336C23.7865 31.3138 23.388 30.9154 22.7461 30.9154H20.6432C20.0234 30.9154 19.6471 31.3138 19.6471 31.9336V34.0365C19.6471 34.6563 20.0234 35.0547 20.6432 35.0547ZM27.9922 35.0547H30.0951C30.7148 35.0547 31.1133 34.6563 31.1133 34.0365V31.9336C31.1133 31.3138 30.7148 30.9154 30.0951 30.9154H27.9922C27.3503 30.9154 26.974 31.3138 26.974 31.9336V34.0365C26.974 34.6563 27.3503 35.0547 27.9922 35.0547ZM35.3411 35.0547H37.4219C38.0638 35.0547 38.4622 34.6563 38.4622 34.0365V31.9336C38.4622 31.3138 38.0638 30.9154 37.4219 30.9154H35.3411C34.7214 30.9154 34.3229 31.3138 34.3229 31.9336V34.0365C34.3229 34.6563 34.7214 35.0547 35.3411 35.0547ZM42.6901 35.0547H44.793C45.4128 35.0547 45.8112 34.6563 45.8112 34.0365V31.9336C45.8112 31.3138 45.4128 30.9154 44.793 30.9154H42.6901C42.0703 30.9154 41.6719 31.3138 41.6719 31.9336V34.0365C41.6719 34.6563 42.0703 35.0547 42.6901 35.0547ZM50.0391 35.0547H52.1419C52.7617 35.0547 53.138 34.6563 53.138 34.0365V31.9336C53.138 31.3138 52.7617 30.9154 52.1419 30.9154H50.0391C49.3971 30.9154 48.9987 31.3138 48.9987 31.9336V34.0365C48.9987 34.6563 49.3971 35.0547 50.0391 35.0547ZM57.388 35.0547H59.4688C60.1107 35.0547 60.487 34.6563 60.487 34.0365V31.9336C60.487 31.3138 60.1107 30.9154 59.4688 30.9154H57.388C56.7461 30.9154 56.3477 31.3138 56.3477 31.9336V34.0365C56.3477 34.6563 56.7461 35.0547 57.388 35.0547ZM20.6432 42.4037H22.7461C23.388 42.4037 23.7865 42.0052 23.7865 41.3855V39.2826C23.7865 38.6628 23.388 38.2644 22.7461 38.2644H20.6432C20.0234 38.2644 19.6471 38.6628 19.6471 39.2826V41.3855C19.6471 42.0052 20.0234 42.4037 20.6432 42.4037ZM27.9922 42.4037H30.0951C30.7148 42.4037 31.1133 42.0052 31.1133 41.3855V39.2826C31.1133 38.6628 30.7148 38.2644 30.0951 38.2644H27.9922C27.3503 38.2644 26.974 38.6628 26.974 39.2826V41.3855C26.974 42.0052 27.3503 42.4037 27.9922 42.4037ZM35.3411 42.4037H37.4219C38.0638 42.4037 38.4622 42.0052 38.4622 41.3855V39.2826C38.4622 38.6628 38.0638 38.2644 37.4219 38.2644H35.3411C34.7214 38.2644 34.3229 38.6628 34.3229 39.2826V41.3855C34.3229 42.0052 34.7214 42.4037 35.3411 42.4037ZM42.6901 42.4037H44.793C45.4128 42.4037 45.8112 42.0052 45.8112 41.3855V39.2826C45.8112 38.6628 45.4128 38.2644 44.793 38.2644H42.6901C42.0703 38.2644 41.6719 38.6628 41.6719 39.2826V41.3855C41.6719 42.0052 42.0703 42.4037 42.6901 42.4037ZM50.0391 42.4037H52.1419C52.7617 42.4037 53.138 42.0052 53.138 41.3855V39.2826C53.138 38.6628 52.7617 38.2644 52.1419 38.2644H50.0391C49.3971 38.2644 48.9987 38.6628 48.9987 39.2826V41.3855C48.9987 42.0052 49.3971 42.4037 50.0391 42.4037ZM57.388 42.4037H59.4688C60.1107 42.4037 60.487 42.0052 60.487 41.3855V39.2826C60.487 38.6628 60.1107 38.2644 59.4688 38.2644H57.388C56.7461 38.2644 56.3477 38.6628 56.3477 39.2826V41.3855C56.3477 42.0052 56.7461 42.4037 57.388 42.4037ZM20.6432 49.7526H22.7461C23.388 49.7526 23.7865 49.3542 23.7865 48.7344V46.6315C23.7865 46.0118 23.388 45.6133 22.7461 45.6133H20.6432C20.0234 45.6133 19.6471 46.0118 19.6471 46.6315V48.7344C19.6471 49.3542 20.0234 49.7526 20.6432 49.7526ZM28.2357 49.7526H51.8984C52.6732 49.7526 53.138 49.2878 53.138 48.4909V46.8529C53.138 46.0782 52.6732 45.6133 51.8984 45.6133H28.2357C27.4388 45.6133 26.974 46.0782 26.974 46.8529V48.4909C26.974 49.2878 27.4388 49.7526 28.2357 49.7526ZM57.388 49.7526H59.4688C60.1107 49.7526 60.487 49.3542 60.487 48.7344V46.6315C60.487 46.0118 60.1107 45.6133 59.4688 45.6133H57.388C56.7461 45.6133 56.3477 46.0118 56.3477 46.6315V48.7344C56.3477 49.3542 56.7461 49.7526 57.388 49.7526Z" fill="white"/>
</svg>
