<svg width="80" height="80" viewBox="0 0 80 80" fill="none" xmlns="http://www.w3.org/2000/svg">
<path d="M26.9451 60.7509C22.3188 60.7509 19.9946 58.471 19.9946 53.889V26.8616C19.9946 22.2796 22.3188 19.9996 26.9451 19.9996H53.7954C58.4438 19.9996 60.7459 22.3017 60.7459 26.8616V53.889C60.7459 58.4489 58.4438 60.7509 53.7954 60.7509H26.9451ZM40.1821 32.484C41.8423 32.484 43.1483 31.1559 43.1483 29.4736C43.1483 27.7913 41.8423 26.4632 40.1821 26.4632C38.522 26.4632 37.1938 27.7913 37.1938 29.4736C37.1938 31.1559 38.522 32.484 40.1821 32.484ZM36.397 53.1585H45.6717C46.6235 53.1585 47.354 52.4723 47.354 51.5205C47.354 50.635 46.6235 49.9046 45.6717 49.9046H42.8605V38.3278C42.8605 37.0882 42.2407 36.247 41.0675 36.247H36.7733C35.8436 36.247 35.1131 36.9775 35.1131 37.8629C35.1131 38.8147 35.8436 39.5009 36.7733 39.5009H39.2082V49.9046H36.397C35.4451 49.9046 34.7147 50.635 34.7147 51.5205C34.7147 52.4723 35.4451 53.1585 36.397 53.1585Z" fill="white"/>
</svg>
