<svg width="80" height="80" viewBox="0 0 80 80" fill="none" xmlns="http://www.w3.org/2000/svg">
<path d="M30.314 62.0747C27.0601 62.0747 25.3335 60.3038 25.3335 56.8064V41.5551C25.3335 38.4783 26.6838 36.7517 29.2072 36.3754V31.0187C29.2072 22.6958 34.6525 18.6671 40.4299 18.6671C46.2293 18.6671 51.6746 22.6958 51.6746 31.0187V36.3754C54.2202 36.7517 55.5483 38.5004 55.5483 41.5551V56.8064C55.5483 60.3038 53.8218 62.0747 50.5679 62.0747H30.314ZM32.7267 30.5538V36.309H48.1772V30.5538C48.1772 24.9536 44.5692 22.0096 40.4299 22.0096C36.2905 22.0096 32.7267 24.9536 32.7267 30.5538ZM30.4246 58.7322H50.4572C51.4312 58.7322 51.9624 58.1346 51.9624 57.0499V41.3116C51.9624 40.227 51.4312 39.6515 50.4572 39.6515H30.4246C29.4728 39.6515 28.9194 40.227 28.9194 41.3116V57.0499C28.9194 58.1346 29.4728 58.7322 30.4246 58.7322Z" fill="white"/>
</svg>
