<svg width="80" height="80" viewBox="0 0 80 80" fill="none" xmlns="http://www.w3.org/2000/svg">
<path d="M39.7251 62.0472C39.3709 62.0472 38.8175 61.9143 38.242 61.6044C25.6691 54.5211 21.3306 51.555 21.3306 43.4755V26.542C21.3306 24.2177 22.3488 23.4651 24.2082 22.6904C26.8201 21.6279 35.2759 18.4183 37.8879 17.6656C38.4634 17.5107 39.1053 17.3336 39.7251 17.3336C40.3449 17.3336 40.9868 17.4664 41.5845 17.6656C44.1965 18.5732 52.63 21.6058 55.242 22.6904C57.1235 23.4873 58.1196 24.2177 58.1196 26.542V43.4755C58.1196 51.555 53.8032 54.5433 41.2082 61.6044C40.6548 61.9143 40.0793 62.0472 39.7251 62.0472ZM39.7251 58.0406C40.0793 58.0406 40.4556 57.9078 41.0975 57.5094C51.3241 51.2893 54.6001 49.4964 54.6001 42.6565V27.2281C54.6001 26.4755 54.4673 26.1656 53.8696 25.9443C50.4386 24.7711 43.953 22.4248 40.6105 21.0966C40.2563 20.9638 39.9686 20.8974 39.7251 20.8974C39.4816 20.8974 39.1938 20.9417 38.8397 21.0966C35.4972 22.4248 28.9673 24.6162 25.6027 25.9443C24.9829 26.1878 24.8501 26.4755 24.8501 27.2281V42.6565C24.8501 49.4964 28.1261 51.3115 38.3527 57.5094C39.0168 57.9078 39.3709 58.0406 39.7251 58.0406ZM39.7251 42.6123C38.6183 42.6123 37.9985 41.9925 37.9764 40.8636L37.6886 29.1539C37.6665 28.025 38.5077 27.206 39.703 27.206C40.8761 27.206 41.7616 28.0472 41.7394 29.1761L41.4074 40.8636C41.3853 42.0146 40.7655 42.6123 39.7251 42.6123ZM39.7251 49.8063C38.4412 49.8063 37.3345 48.7659 37.3345 47.5042C37.3345 46.2425 38.4191 45.2021 39.7251 45.2021C41.009 45.2021 42.0936 46.2203 42.0936 47.5042C42.0936 48.788 40.9868 49.8063 39.7251 49.8063Z" fill="white"/>
</svg>
