<svg width="80" height="80" viewBox="0 0 80 80" fill="none" xmlns="http://www.w3.org/2000/svg">
<path d="M24.2826 60.7517C19.6562 60.7517 17.332 58.4717 17.332 53.8897V26.8623C17.332 22.2803 19.6562 20.0004 24.2826 20.0004H54.5195C59.1458 20.0004 61.4479 22.3024 61.4479 26.8623V53.8897C61.4479 58.4496 59.1458 60.7517 54.5195 60.7517H24.2826ZM23.9505 57.1879H54.8073C56.7773 57.1879 57.8841 56.1475 57.8841 54.0889V33.2152C57.8841 31.1788 56.7773 30.1163 54.8073 30.1163H23.9505C21.9805 30.1163 20.8958 31.1788 20.8958 33.2152V54.0889C20.8958 56.1475 21.9805 57.1879 23.9505 57.1879ZM35.0846 38.0629C34.3099 38.0629 34.0443 37.8415 34.0443 37.0668V35.7608C34.0443 34.986 34.3099 34.7426 35.0846 34.7426H36.3906C37.1654 34.7426 37.4089 34.986 37.4089 35.7608V37.0668C37.4089 37.8415 37.1654 38.0629 36.3906 38.0629H35.0846ZM42.4336 38.0629C41.6589 38.0629 41.3932 37.8415 41.3932 37.0668V35.7608C41.3932 34.986 41.6589 34.7426 42.4336 34.7426H43.7396C44.5143 34.7426 44.7799 34.986 44.7799 35.7608V37.0668C44.7799 37.8415 44.5143 38.0629 43.7396 38.0629H42.4336ZM49.7826 38.0629C49.0078 38.0629 48.7643 37.8415 48.7643 37.0668V35.7608C48.7643 34.986 49.0078 34.7426 49.7826 34.7426H51.0885C51.8633 34.7426 52.1289 34.986 52.1289 35.7608V37.0668C52.1289 37.8415 51.8633 38.0629 51.0885 38.0629H49.7826ZM27.7357 45.3011C26.9388 45.3011 26.6953 45.0798 26.6953 44.3051V42.9991C26.6953 42.2243 26.9388 42.003 27.7357 42.003H29.0195C29.8164 42.003 30.0599 42.2243 30.0599 42.9991V44.3051C30.0599 45.0798 29.8164 45.3011 29.0195 45.3011H27.7357ZM35.0846 45.3011C34.3099 45.3011 34.0443 45.0798 34.0443 44.3051V42.9991C34.0443 42.2243 34.3099 42.003 35.0846 42.003H36.3906C37.1654 42.003 37.4089 42.2243 37.4089 42.9991V44.3051C37.4089 45.0798 37.1654 45.3011 36.3906 45.3011H35.0846ZM42.4336 45.3011C41.6589 45.3011 41.3932 45.0798 41.3932 44.3051V42.9991C41.3932 42.2243 41.6589 42.003 42.4336 42.003H43.7396C44.5143 42.003 44.7799 42.2243 44.7799 42.9991V44.3051C44.7799 45.0798 44.5143 45.3011 43.7396 45.3011H42.4336ZM49.7826 45.3011C49.0078 45.3011 48.7643 45.0798 48.7643 44.3051V42.9991C48.7643 42.2243 49.0078 42.003 49.7826 42.003H51.0885C51.8633 42.003 52.1289 42.2243 52.1289 42.9991V44.3051C52.1289 45.0798 51.8633 45.3011 51.0885 45.3011H49.7826ZM27.7357 52.5616C26.9388 52.5616 26.6953 52.3181 26.6953 51.5433V50.2373C26.6953 49.4626 26.9388 49.2412 27.7357 49.2412H29.0195C29.8164 49.2412 30.0599 49.4626 30.0599 50.2373V51.5433C30.0599 52.3181 29.8164 52.5616 29.0195 52.5616H27.7357ZM35.0846 52.5616C34.3099 52.5616 34.0443 52.3181 34.0443 51.5433V50.2373C34.0443 49.4626 34.3099 49.2412 35.0846 49.2412H36.3906C37.1654 49.2412 37.4089 49.4626 37.4089 50.2373V51.5433C37.4089 52.3181 37.1654 52.5616 36.3906 52.5616H35.0846ZM42.4336 52.5616C41.6589 52.5616 41.3932 52.3181 41.3932 51.5433V50.2373C41.3932 49.4626 41.6589 49.2412 42.4336 49.2412H43.7396C44.5143 49.2412 44.7799 49.4626 44.7799 50.2373V51.5433C44.7799 52.3181 44.5143 52.5616 43.7396 52.5616H42.4336Z" fill="white"/>
</svg>
