<svg width="80" height="80" viewBox="0 0 80 80" fill="none" xmlns="http://www.w3.org/2000/svg">
<path d="M17.3359 41.5368C17.3359 34.0993 21.099 27.4144 26.7878 23.2751C27.7617 22.5225 28.9792 22.766 29.5326 23.6735C30.0859 24.6032 29.7982 25.6436 28.8906 26.3298C24.1758 29.6944 21.1211 35.2504 21.099 41.5368C21.0768 51.9847 29.4661 60.3519 39.9141 60.3519C50.362 60.3519 58.707 51.9847 58.707 41.5368C58.707 32.572 52.5534 25.1345 44.1862 23.2308V26.3741C44.1862 27.9678 43.1016 28.3884 41.8841 27.503L34.8451 22.5446C33.8047 21.8142 33.8268 20.7517 34.8451 20.0433L41.9062 15.1071C43.1016 14.2439 44.1862 14.6644 44.1862 16.236V19.3793C54.5456 21.4157 62.4922 30.6462 62.4922 41.5368C62.4922 53.8884 52.2656 64.115 39.9141 64.115C27.5846 64.115 17.3359 53.8884 17.3359 41.5368ZM40.0911 50.8116C37.944 50.8116 35.5091 49.5498 34.9557 47.4248C34.8893 47.1814 34.8451 46.9157 34.8451 46.6501C34.8451 45.8754 35.332 45.3884 36.1068 45.3884C36.6823 45.3884 37.1471 45.6983 37.4349 46.3181C37.8555 47.4691 38.763 48.3324 40.069 48.3324C41.7734 48.3324 42.7253 46.7608 42.7253 44.8793C42.7253 43.1084 41.862 41.5368 40.1133 41.5368C39.2279 41.5368 38.4753 41.9795 37.944 42.71C37.5013 43.2191 37.1914 43.5069 36.4831 43.5069C35.5091 43.5069 35 42.7764 35.0664 41.8025L35.5312 35.3389C35.6198 34.1879 36.151 33.5681 37.3021 33.5681H43.7214C44.474 33.5681 44.9388 34.0551 44.9388 34.8077C44.9388 35.5603 44.4518 36.0472 43.7214 36.0472H38.0768L37.7005 41.0941H37.7891C38.3867 39.9652 39.6263 39.279 41.0872 39.279C44.0091 39.279 45.6914 41.8246 45.6914 44.7907C45.6914 48.2439 43.5443 50.8116 40.0911 50.8116Z" fill="white"/>
</svg>
