<svg width="80" height="80" viewBox="0 0 80 80" fill="none" xmlns="http://www.w3.org/2000/svg">
<path fill-rule="evenodd" clip-rule="evenodd" d="M40.001 22.3526C30.2548 22.3526 22.3539 30.2534 22.3539 39.9996C22.3539 49.7458 30.2548 57.6467 40.001 57.6467C49.7472 57.6467 57.648 49.7458 57.648 39.9996C57.648 30.2534 49.7472 22.3526 40.001 22.3526ZM20.001 39.9996C20.001 28.9539 28.9553 19.9996 40.001 19.9996C51.0467 19.9996 60.001 28.9539 60.001 39.9996C60.001 51.0453 51.0467 59.9996 40.001 59.9996C28.9553 59.9996 20.001 51.0453 20.001 39.9996ZM47.0389 32.4503C47.4984 32.9097 47.4984 33.6546 47.039 34.1141L41.4079 39.7464L47.036 45.3753C47.4955 45.8347 47.4954 46.5796 47.0359 47.0391C46.5765 47.4985 45.8316 47.4984 45.3721 47.0389L39.7443 41.4103L34.117 47.0389C33.6576 47.4984 32.9127 47.4985 32.4532 47.0391C31.9937 46.5797 31.9936 45.8348 32.453 45.3753L38.0807 39.7464L32.453 34.118C31.9936 33.6585 31.9937 32.9136 32.4531 32.4542C32.9126 31.9948 33.6575 31.9948 34.1169 32.4543L39.7443 38.0825L45.3751 32.4505C45.8345 31.991 46.5794 31.9909 47.0389 32.4503Z" fill="white" stroke="white" stroke-linecap="round"/>
</svg>
