<svg width="80" height="80" viewBox="0 0 80 80" fill="none" xmlns="http://www.w3.org/2000/svg">
<path fill-rule="evenodd" clip-rule="evenodd" d="M19.5209 33.1594C18.5321 34.3124 17.9319 36.7289 17.9319 37.7145C17.9319 38.7 18.3295 39.7864 19.3184 40.9395C20.3158 42.1026 21.8427 43.2391 23.8644 44.2363C27.9034 46.2283 30.4071 46.4002 36.8009 46.4002C37.7759 46.4002 38.5664 47.2773 38.5664 48.3594C38.5664 49.4414 37.7759 50.3185 36.8009 50.3185C30.0313 50.3185 27.0177 50.0794 22.4303 47.8169C20.1389 46.6868 18.1752 45.2903 16.7605 43.6407C15.3371 41.981 14.4009 39.975 14.4009 37.7145C14.4009 35.4539 15.3371 33.4479 16.7605 31.7882C18.1752 30.1386 20.1389 28.7422 22.4303 27.612C27.0177 25.3496 33.2313 24.0002 40.0009 24.0002C46.7705 24.0002 52.9841 25.3496 57.5715 27.612C59.8629 28.7422 61.8266 30.1386 63.2413 31.7882C64.6646 33.4479 65.6009 35.4539 65.6009 37.7145C65.6009 40.098 64.5615 42.1945 63.0073 43.9058C61.4599 45.6095 59.3147 47.0391 56.8159 48.1746C55.9135 48.5847 54.8825 48.1053 54.513 47.104C54.1435 46.1027 54.5754 44.9586 55.4778 44.5485C57.706 43.5359 59.4052 42.352 60.5203 41.1242C61.6285 39.904 62.0698 38.751 62.0698 37.7145C62.0698 36.7289 61.4697 34.3124 60.4809 33.1594C59.4834 31.9963 58.1591 30.7694 56.1374 29.7723C52.0983 27.7802 46.3947 26.4981 40.0009 26.4981C33.6071 26.4981 27.9034 27.7802 23.8644 29.7723C21.8427 30.7694 20.5184 31.9963 19.5209 33.1594Z" fill="white" stroke="white" stroke-width="2" stroke-linecap="round"/>
<path d="M43.5503 47.3626C43.9292 47.669 43.9292 48.3311 43.5503 48.6375L34.6126 55.8645C34.1804 56.214 33.5945 55.8472 33.5945 55.2271L33.5945 40.7731C33.5945 40.153 34.1804 39.7861 34.6126 40.1356L43.5503 47.3626Z" fill="white"/>
</svg>
