<svg width="80" height="80" viewBox="0 0 80 80" fill="none" xmlns="http://www.w3.org/2000/svg">
<path d="M52.4635 57.9013C51.4232 57.9013 50.5599 57.1044 50.5599 56.0641V23.193C50.5599 22.1526 51.4232 21.3336 52.4635 21.3336C53.5039 21.3336 54.3451 22.1526 54.3451 23.193V56.0641C54.3451 57.1044 53.5039 57.9013 52.4635 57.9013ZM67.0729 57.9013C66.0326 57.9013 65.1914 57.1044 65.1914 56.0641V23.193C65.1914 22.1526 66.0326 21.3336 67.0729 21.3336C68.1354 21.3336 68.9766 22.1526 68.9766 23.193V56.0641C68.9766 57.1044 68.1354 57.9013 67.0729 57.9013ZM15.1875 57.0159C13.4388 57.0159 12 55.6878 12 53.2086V26.0263C12 23.5471 13.4388 22.219 15.1875 22.219C16.0951 22.219 16.8255 22.5068 17.7331 23.038L40.2891 36.3193C41.8607 37.249 42.5247 38.3557 42.5247 39.6174C42.5247 40.8792 41.8607 41.9859 40.2891 42.9156L17.7331 56.1969C16.8255 56.7281 16.0951 57.0159 15.1875 57.0159ZM16.1615 52.9208C16.2943 52.9208 16.4714 52.8544 16.6927 52.7216L37.7435 40.2372C38.0313 40.0601 38.2083 39.9052 38.2083 39.6174C38.2083 39.3075 38.0534 39.1747 37.7435 38.9976L16.6927 26.5133C16.4714 26.3805 16.2943 26.3141 16.1615 26.3141C15.8294 26.3141 15.5417 26.5354 15.5417 26.9781V52.2568C15.5417 52.6995 15.8294 52.9208 16.1615 52.9208Z" fill="white"/>
</svg>
