<svg width="80" height="80" viewBox="0 0 80 80" fill="none" xmlns="http://www.w3.org/2000/svg">
<path d="M28.3242 58.8088C26.6862 58.8088 25.668 57.5471 25.668 55.6213V24.499C25.668 22.5732 26.6862 21.3336 28.3242 21.3336C29.2096 21.3336 29.9622 21.6656 30.8477 22.1747L56.6576 37.1161C58.4948 38.1786 59.1367 38.887 59.1367 40.0601C59.1367 41.2333 58.4948 41.9417 56.6576 43.0263L30.8477 57.9456C29.9622 58.4547 29.2096 58.8088 28.3242 58.8088ZM29.4531 54.581C29.5417 54.581 29.6302 54.5367 29.7188 54.4924L54.2227 40.3036C54.3333 40.2594 54.4219 40.1708 54.4219 40.0601C54.4219 39.9495 54.3333 39.8831 54.2227 39.8167L29.7188 25.65C29.6302 25.5836 29.5417 25.5393 29.4531 25.5393C29.3203 25.5393 29.2318 25.6279 29.2318 25.8049V54.3154C29.2318 54.4924 29.3203 54.581 29.4531 54.581Z" fill="white"/>
</svg>
