<svg width="80" height="80" viewBox="0 0 80 80" fill="none" xmlns="http://www.w3.org/2000/svg">
<path d="M17.6912 54.1001C14.1717 54.1001 12.0024 51.9308 12.0024 48.4113V23.0219C12.0024 19.5024 14.1717 17.3331 17.6912 17.3331H61.6522C65.1938 17.3331 67.341 19.5024 67.341 23.0219V48.4113C67.341 51.9308 65.1938 54.1001 61.6522 54.1001H17.6912ZM17.7576 50.5363H61.5858C62.9582 50.5363 63.7772 49.7172 63.7772 48.367V23.0662C63.7772 21.7159 62.9582 20.8969 61.5858 20.8969H17.7576C16.3853 20.8969 15.5662 21.7159 15.5662 23.0662V48.367C15.5662 49.7172 16.3853 50.5363 17.7576 50.5363ZM19.9712 47.5258C19.0194 47.5258 18.5988 47.0831 18.5988 46.1092V25.3462C18.5988 24.3722 19.0194 23.9516 19.9712 23.9516H59.4165C60.3683 23.9516 60.7668 24.3722 60.7668 25.3462V46.1092C60.7668 47.0831 60.3683 47.5258 59.4165 47.5258H19.9712ZM28.5376 61.604C27.5636 61.604 26.7446 60.8071 26.7446 59.811C26.7446 58.8149 27.5636 58.018 28.5376 58.018H50.8058C51.7798 58.018 52.5988 58.8149 52.5988 59.811C52.5988 60.8071 51.7798 61.604 50.8058 61.604H28.5376Z" fill="white"/>
</svg>
