<svg width="80" height="80" viewBox="0 0 80 80" fill="none" xmlns="http://www.w3.org/2000/svg">
<path d="M9.3313 60.5031C9.3313 59.9081 9.59976 59.3402 9.94875 58.9616L50.6467 17.9621C51.5058 17.1237 52.8749 17.1237 53.7071 17.9621C54.5394 18.8005 54.5394 20.2068 53.7071 21.0452L36.6333 38.2455C41.385 43.6544 44.4185 50.6589 44.8749 58.3125H67.1568C68.338 58.3125 69.3313 59.3132 69.3313 60.5031C69.3313 61.6931 68.338 62.6667 67.1568 62.6667H11.4789C10.3246 62.6667 9.3313 61.6931 9.3313 60.5031ZM16.7138 58.3125H40.5528C40.0964 51.8489 37.5461 45.9532 33.5729 41.3286L16.7138 58.3125Z" fill="white"/>
</svg>
