<svg width="80" height="80" viewBox="0 0 80 80" fill="none" xmlns="http://www.w3.org/2000/svg">
<path d="M39.9165 62.4899C27.5871 62.4899 17.3384 52.2412 17.3384 39.9117C17.3384 27.5602 27.5649 17.3336 39.8944 17.3336C52.2459 17.3336 62.4946 27.5602 62.4946 39.9117C62.4946 52.2412 52.2681 62.4899 39.9165 62.4899ZM28.3397 42.3024H39.8944C40.7576 42.3024 41.4438 41.6383 41.4438 40.7529V25.8336C41.4438 24.9703 40.7576 24.3063 39.8944 24.3063C39.0311 24.3063 38.367 24.9703 38.367 25.8336V39.2255H28.3397C27.4543 39.2255 26.7902 39.8896 26.7902 40.7529C26.7902 41.6383 27.4543 42.3024 28.3397 42.3024Z" fill="white"/>
</svg>
