<svg width="80" height="80" viewBox="0 0 80 80" fill="none" xmlns="http://www.w3.org/2000/svg">
<path d="M26.6502 18.8556C26.783 16.9741 27.8455 16.0001 29.882 16.0001H51.3311C53.3896 16.0001 54.4521 16.9741 54.585 18.8556H26.6502ZM22.0903 24.9871C22.4224 22.9728 23.3742 21.866 25.5877 21.866H55.6474C57.861 21.866 58.8128 22.9728 59.1448 24.9871H22.0903Z" fill="white"/>
<path fill-rule="evenodd" clip-rule="evenodd" d="M60.3315 31.4415H21.3315C20.7793 31.4415 20.3315 31.8892 20.3315 32.4415V60.9415C20.3315 61.4938 20.7793 61.9415 21.3315 61.9415H60.3315C60.8838 61.9415 61.3315 61.4938 61.3315 60.9415V32.4415C61.3315 31.8892 60.8838 31.4415 60.3315 31.4415ZM21.3315 28.4415C19.1224 28.4415 17.3315 30.2324 17.3315 32.4415V60.9415C17.3315 63.1507 19.1224 64.9415 21.3315 64.9415H60.3315C62.5407 64.9415 64.3315 63.1507 64.3315 60.9415V32.4415C64.3315 30.2324 62.5407 28.4415 60.3315 28.4415H21.3315Z" fill="white"/>
<path d="M41 37C46.5228 37 51 41.4772 51 47C51 52.5228 46.5228 57 41 57C35.4772 57 31 52.5228 31 47C31 41.4772 35.4772 37 41 37Z" stroke="#FFFEF6" stroke-width="3" stroke-linecap="round" stroke-dasharray="6 6"/>
</svg>
