<svg width="80" height="80" viewBox="0 0 80 80" fill="none" xmlns="http://www.w3.org/2000/svg">
<path d="M33.6693 57.4413C32.7617 57.4413 32.0091 57.1536 31.1237 56.6223L8.56771 43.3411C6.99609 42.4114 6.33203 41.3268 6.33203 40.0429C6.33203 38.7812 6.99609 37.6965 8.56771 36.7669L31.1237 23.4856C32.0312 22.9544 32.7617 22.6666 33.6693 22.6666C35.3958 22.6666 36.8568 23.9947 36.8568 26.4518V39.2018C37.1003 38.2721 37.7643 37.4752 38.9818 36.7669L61.5378 23.4856C62.4453 22.9544 63.1758 22.6666 64.0833 22.6666C65.8099 22.6666 67.2708 23.9947 67.2708 26.4518V53.6562C67.2708 56.1132 65.8099 57.4413 64.0833 57.4413C63.1758 57.4413 62.4232 57.1536 61.5378 56.6223L38.9818 43.3411C37.7865 42.6327 37.1003 41.8359 36.8568 40.9062V53.6562C36.8568 56.1132 35.3958 57.4413 33.6693 57.4413ZM32.6953 53.3463C33.0273 53.3463 33.293 53.1471 33.293 52.6822V27.4257C33.293 26.9609 33.0273 26.7616 32.6953 26.7616C32.5404 26.7616 32.3854 26.8281 32.1641 26.9387L11.1133 39.4231C10.8034 39.6002 10.6263 39.7551 10.6263 40.0429C10.6263 40.3528 10.8034 40.5077 11.1133 40.6848L32.1641 53.1692C32.3633 53.302 32.5404 53.3463 32.6953 53.3463ZM63.1094 53.3463C63.4414 53.3463 63.707 53.1471 63.707 52.6822V27.4257C63.707 26.9609 63.4414 26.7616 63.1094 26.7616C62.9766 26.7616 62.7995 26.8281 62.5781 26.9387L41.5273 39.4231C41.2174 39.6002 41.0625 39.7551 41.0625 40.0429C41.0625 40.3528 41.2174 40.5077 41.5273 40.6848L62.5781 53.1692C62.7995 53.302 62.9766 53.3463 63.1094 53.3463Z" fill="white"/>
</svg>
