<svg width="80" height="80" viewBox="0 0 80 80" fill="none" xmlns="http://www.w3.org/2000/svg">
<path d="M21.612 57.3922C19.6862 57.3922 18.668 56.374 18.668 54.426V24.2776C18.668 22.3518 19.6862 21.3336 21.612 21.3336H26.6589C28.5846 21.3336 29.6029 22.2633 29.6029 24.2776V38.4885C29.8464 37.581 30.5326 36.762 31.7279 36.0536L54.2839 22.7724C55.1914 22.2411 55.9219 21.9534 56.8294 21.9534C58.5781 21.9534 60.0169 23.2815 60.0169 25.7607V52.943C60.0169 55.4221 58.5781 56.7281 56.8294 56.7281C55.9219 56.7281 55.1914 56.4404 54.2839 55.9091L31.7279 42.65C30.5326 41.9195 29.8464 41.1227 29.6029 40.193V54.426C29.6029 56.374 28.5846 57.3922 26.6589 57.3922H21.612Z" fill="white"/>
</svg>
