<svg width="80" height="80" viewBox="0 0 80 80" fill="none" xmlns="http://www.w3.org/2000/svg">
<path d="M46.9216 57.4399C45.3383 57.4399 44.5012 56.458 44.5012 54.5795V25.5057C44.5012 23.6485 45.3383 22.6666 46.9216 22.6666H51.0707C52.6539 22.6666 53.491 23.5631 53.491 25.5057V54.5795C53.491 56.458 52.6539 57.4399 51.0707 57.4399H46.9216ZM61.4435 57.4399C59.8421 57.4399 59.0232 56.458 59.0232 54.5795V25.5057C59.0232 23.6485 59.8421 22.6666 61.4435 22.6666H65.5745C67.1759 22.6666 67.9948 23.5631 67.9948 25.5057V54.5795C67.9948 56.458 67.1759 57.4399 65.5745 57.4399H61.4435ZM15.9486 56.7995C14.511 56.7995 13.3281 55.5401 13.3281 53.1493V26.9359C13.3281 24.5451 14.511 23.2643 15.9486 23.2643C16.6947 23.2643 17.2953 23.5418 18.0414 24.0541L36.5851 36.862C37.8772 37.7585 38.4231 38.8045 38.4231 40.0426C38.4231 41.2593 37.8772 42.3267 36.5851 43.2232L18.0414 56.0097C17.2953 56.522 16.6947 56.7995 15.9486 56.7995Z" fill="white"/>
</svg>
