<svg width="80" height="80" viewBox="0 0 80 80" fill="none" xmlns="http://www.w3.org/2000/svg">
<path d="M25.0726 46.8692C18.4762 46.8692 14.6689 42.6414 14.6689 37.3953C14.6689 32.7247 17.7236 29.2494 21.7301 28.0763C22.4606 19.864 29.3226 13.3341 37.6455 13.3341C44.0426 13.3341 49.1781 16.8536 51.945 22.3211C59.4489 22.3211 65.2041 27.4786 65.2041 34.5398C65.2041 41.3575 59.8031 46.8692 52.5426 46.8692H25.0726ZM25.0283 43.3276H52.764C57.8109 43.3276 61.6624 39.4539 61.6624 34.6284C61.6624 29.9135 57.9658 25.9734 51.4137 25.9734C50.1077 25.9734 49.4437 25.5971 48.9346 24.5125C46.5439 19.6205 42.626 16.8758 37.6455 16.8758C31.2262 16.8758 25.8031 22.0776 25.2939 29.3159C25.1833 30.5554 24.7406 31.131 23.5231 31.463C19.7601 32.4591 18.2106 34.8497 18.2106 37.506C18.2106 40.782 20.4906 43.3276 25.0283 43.3276ZM26.3343 57.9148C25.8695 57.9148 25.626 57.5385 25.6481 57.1401L25.7588 55.0372L23.988 56.2325C23.6559 56.4317 23.1468 56.3653 22.9476 56.0112C22.7484 55.657 22.859 55.17 23.2796 54.9708L25.1833 54.0411L23.2796 53.0893C22.859 52.8901 22.7705 52.4252 22.9697 52.0711C23.1911 51.6948 23.6559 51.6505 23.988 51.8718L25.7588 53.0893L25.626 50.9643C25.6038 50.5437 25.8695 50.1896 26.3343 50.1896C26.7327 50.1896 27.0648 50.5437 27.0205 50.9643L26.8656 53.0893L28.6143 51.8718C28.9242 51.6505 29.4775 51.7169 29.6768 52.0711C29.8317 52.4252 29.7432 52.8901 29.3226 53.0893L27.4189 54.0411L29.3005 54.9708C29.7432 55.17 29.8538 55.6791 29.6546 56.0112C29.4333 56.3432 28.9242 56.4317 28.6143 56.2104L26.8656 55.0151L26.9984 57.1401C27.0205 57.5385 26.7327 57.9148 26.3343 57.9148ZM38.5973 57.9148C38.1325 57.9148 37.889 57.5385 37.9111 57.1401L38.0218 55.0372L36.2288 56.2325C35.9189 56.4317 35.4098 56.3653 35.2106 56.0112C35.0114 55.657 35.1221 55.17 35.5426 54.9708L37.4463 54.0411L35.5426 53.0893C35.1221 52.8901 35.0335 52.4252 35.2327 52.0711C35.4541 51.6948 35.9189 51.6505 36.2288 51.8718L38.0218 53.0893L37.889 50.9643C37.8669 50.5437 38.1325 50.1896 38.5973 50.1896C38.9958 50.1896 39.3278 50.5437 39.2835 50.9643L39.1286 53.0893L40.8773 51.8718C41.1872 51.6505 41.7406 51.7169 41.9398 52.0711C42.0947 52.4252 42.0062 52.8901 41.5856 53.0893L39.6598 54.0411L41.5635 54.9708C42.0062 55.17 42.1169 55.6791 41.9176 56.0112C41.6963 56.3432 41.1872 56.4317 40.8773 56.2104L39.1286 55.0151L39.2614 57.1401C39.2835 57.5385 38.9958 57.9148 38.5973 57.9148ZM50.8603 57.9148C50.3955 57.9148 50.152 57.5385 50.1742 57.1401L50.2848 55.0372L48.4919 56.2325C48.182 56.4317 47.6728 56.3653 47.4736 56.0112C47.2744 55.657 47.3851 55.17 47.8057 54.9708L49.7093 54.0411L47.8057 53.0893C47.3851 52.8901 47.2965 52.4252 47.4958 52.0711C47.7171 51.6948 48.182 51.6505 48.4919 51.8718L50.2848 53.0893L50.152 50.9643C50.1299 50.5437 50.3955 50.1896 50.8603 50.1896C51.2588 50.1896 51.5908 50.5437 51.5465 50.9643L51.3695 53.0893L53.1403 51.8718C53.4502 51.6505 54.0036 51.7169 54.2028 52.0711C54.3577 52.4252 54.2692 52.8901 53.8486 53.0893L51.9228 54.0411L53.8265 54.9708C54.2692 55.17 54.3799 55.6791 54.1807 56.0112C53.9593 56.3432 53.4502 56.4317 53.1403 56.2104L51.3695 55.0151L51.5244 57.1401C51.5465 57.5385 51.2588 57.9148 50.8603 57.9148ZM21.5309 66.2377C21.0661 66.2377 20.8226 65.8393 20.8447 65.4409L20.9554 63.338L19.1846 64.5333C18.8525 64.7547 18.3434 64.6882 18.1442 64.3119C17.945 63.9578 18.0557 63.4929 18.4762 63.2937L20.3799 62.364L18.4762 61.4122C18.0557 61.1909 17.9671 60.726 18.1663 60.394C18.3877 60.0177 18.8525 59.9734 19.1846 60.1726L20.9554 61.4122L20.8226 59.2651C20.8005 58.8445 21.0661 58.4903 21.5309 58.4903C21.9294 58.4903 22.2614 58.8445 22.2171 59.2651L22.0622 61.4122L23.8109 60.1726C24.1429 59.9734 24.6742 60.0398 24.8734 60.394C25.0283 60.726 24.9398 61.213 24.5192 61.4122L22.6156 62.364L24.4971 63.2716C24.9398 63.4708 25.0505 63.9799 24.8512 64.3119C24.6299 64.644 24.1429 64.7325 23.8109 64.5333L22.0622 63.338L22.195 65.4409C22.2171 65.8393 21.9294 66.2377 21.5309 66.2377ZM33.7939 66.2377C33.3291 66.2377 33.0856 65.8393 33.1077 65.4409L33.2184 63.338L31.4255 64.5333C31.1156 64.7547 30.6064 64.6882 30.4072 64.3119C30.208 63.9578 30.3187 63.4929 30.7393 63.2937L32.6429 62.364L30.7393 61.4122C30.3187 61.1909 30.2301 60.726 30.4294 60.394C30.6507 60.0177 31.1156 59.9734 31.4255 60.1726L33.2184 61.4122L33.0856 59.2651C33.0635 58.8445 33.3291 58.4903 33.7939 58.4903C34.1924 58.4903 34.5244 58.8445 34.4801 59.2651L34.3252 61.4122L36.0739 60.1726C36.3838 59.9734 36.9372 60.0398 37.1364 60.394C37.2913 60.726 37.2028 61.213 36.7822 61.4122L34.8564 62.364L36.7601 63.2716C37.2028 63.4708 37.3135 63.9799 37.1143 64.3119C36.8929 64.644 36.3838 64.7325 36.0739 64.5333L34.3252 63.338L34.458 65.4409C34.4801 65.8393 34.1924 66.2377 33.7939 66.2377ZM46.057 66.2377C45.5921 66.2377 45.3486 65.8393 45.3708 65.4409L45.4814 63.338L43.6885 64.5333C43.3786 64.7547 42.8695 64.6882 42.6702 64.3119C42.471 63.9578 42.5817 63.4929 43.0023 63.2937L44.9059 62.364L43.0023 61.4122C42.5817 61.1909 42.4932 60.726 42.6924 60.394C42.9137 60.0177 43.3786 59.9734 43.6885 60.1726L45.4814 61.4122L45.3486 59.2651C45.3265 58.8445 45.5921 58.4903 46.057 58.4903C46.4554 58.4903 46.7874 58.8445 46.7432 59.2651L46.5661 61.4122L48.3369 60.1726C48.6468 59.9734 49.2002 60.0398 49.3994 60.394C49.5544 60.726 49.4658 61.213 49.0452 61.4122L47.1195 62.364L49.0231 63.2716C49.4658 63.4708 49.5765 63.9799 49.3773 64.3119C49.1559 64.644 48.6468 64.7325 48.3369 64.5333L46.5661 63.338L46.721 65.4409C46.7432 65.8393 46.4554 66.2377 46.057 66.2377Z" fill="white"/>
</svg>
