<svg width="80" height="80" viewBox="0 0 80 80" fill="none" xmlns="http://www.w3.org/2000/svg">
<path d="M37.8264 20.3645L41.6207 18.1606C36.7418 17.9175 31.6859 19.3146 27.3479 22.4892C17.5156 29.6844 15.2159 43.1657 22.0251 52.5727C22.5855 53.3468 22.4156 54.431 21.6457 54.9944C20.8758 55.5578 19.7975 55.387 19.2372 54.6129C11.2378 43.5617 14.044 27.9368 25.3188 19.6859C31.8248 14.9249 39.7692 13.6196 46.8665 15.4783C48.472 15.8988 48.7193 18.0413 47.3203 18.8539L39.5513 23.3667C38.7268 23.8456 37.6723 23.5618 37.196 22.7328C36.7197 21.9038 37.0019 20.8435 37.8264 20.3645Z" fill="white"/>
<path d="M38.4027 61.8402C43.2818 62.0793 48.3365 60.6781 52.672 57.5001C62.4985 50.2969 64.7874 36.8137 57.9707 27.4123C57.4097 26.6386 57.5788 25.5542 58.3482 24.9902C59.1176 24.4262 60.1961 24.5961 60.757 25.3698C68.7653 36.4145 65.9715 52.0417 54.7033 60.3017C48.2012 65.068 40.2578 66.3797 33.159 64.5267C31.5532 64.1075 31.3041 61.9653 32.7025 61.1515L40.4679 56.6324C41.292 56.1529 42.3467 56.4358 42.8237 57.2644C43.3007 58.0931 43.0193 59.1536 42.1952 59.6332L38.4027 61.8402Z" fill="white"/>
<path d="M33.3623 48.2001C31.0023 48.2001 28.9223 46.8601 28.1023 44.8201L29.7023 44.0201C30.5423 45.6601 31.8223 46.5401 33.3623 46.5401C35.2023 46.5401 36.2823 45.6001 36.2823 43.9201C36.2823 42.0801 34.9423 41.1001 32.5223 41.1001H31.5023V39.4401H32.2223C34.6223 39.4401 35.9423 38.4601 35.9423 36.6201C35.9423 35.2601 34.9223 34.3401 33.4023 34.3401C32.0223 34.3401 30.8423 35.1201 30.0823 36.5401L28.8023 35.7401C29.6223 33.9601 31.4423 32.8001 33.4023 32.8001C36.0623 32.8001 37.7823 34.2201 37.7823 36.4001C37.7823 38.3601 36.4823 39.7401 34.4423 40.0601C36.8223 40.3401 38.2023 41.7401 38.2023 43.9201C38.2023 46.4801 36.2623 48.2001 33.3623 48.2001ZM40.7519 48.0001V33.0001H44.1119C48.4319 33.0001 50.8519 35.6401 50.8519 40.5001C50.8519 45.3401 48.4319 48.0001 44.1119 48.0001H40.7519ZM44.0119 34.5801H42.6119V46.4201H44.0119C47.2919 46.4201 48.9319 44.4801 48.9319 40.5001C48.9319 36.5201 47.2919 34.5801 44.0119 34.5801Z" fill="white"/>
</svg>
