<svg width="80" height="80" viewBox="0 0 80 80" fill="none" xmlns="http://www.w3.org/2000/svg">
<path d="M39.7124 36.409C26.6304 36.409 17.909 32.2697 17.909 26.2045C17.909 20.1394 26.6304 16.0001 39.7124 16.0001C52.7944 16.0001 61.5158 20.1394 61.5158 26.2045C61.5158 32.2697 52.7944 36.409 39.7124 36.409ZM39.7124 48.185C25.7671 48.185 17.3335 44.2892 17.3335 35.0366V32.5131C18.8608 34.284 21.0744 35.7449 23.8634 36.8517V40.0613C23.8634 40.8582 24.5275 41.5001 25.3244 41.5001C26.1213 41.5001 26.7632 40.8582 26.7632 40.0613V37.8478C28.0028 38.2019 29.2866 38.4897 30.659 38.7111V41.5665C30.659 42.3634 31.3009 43.0053 32.0978 43.0053C32.8947 43.0053 33.5588 42.3634 33.5588 41.5665V39.1316C34.9976 39.2866 36.5249 39.3973 37.9858 39.4194V42.1199C37.9858 42.9168 38.6499 43.5808 39.4468 43.5808C40.2437 43.5808 40.8856 42.9168 40.8856 42.1199V39.4415C42.258 39.4194 43.896 39.3087 45.3348 39.1759V41.5665C45.3348 42.3634 45.9989 43.0053 46.7957 43.0053C47.5926 43.0053 48.2345 42.3634 48.2345 41.5665V38.7996C49.4741 38.6004 50.8465 38.3348 52.1304 38.0027V40.0613C52.1304 40.8582 52.7723 41.5001 53.5692 41.5001C54.366 41.5001 55.0301 40.8582 55.0301 40.0613V37.0509C58.0627 35.922 60.4533 34.3947 62.0913 32.5131V35.0366C62.0913 44.2892 53.6356 48.185 39.7124 48.185ZM21.495 58.2124C21.495 57.1941 22.3582 56.1759 23.7085 56.685C27.87 58.2124 32.3192 58.9871 37.2111 58.9871C40.9299 58.9871 44.4051 58.5444 47.7033 57.6368L46.5744 54.4493C46.0653 52.9884 47.4819 51.948 48.6772 52.3465L56.3804 55.047C57.4207 55.4012 57.797 56.4415 57.1994 57.3933L52.8166 64.3217C52.1304 65.3842 50.4038 65.34 49.9168 63.9897L48.8101 60.8022C45.1577 61.8204 41.3062 62.3295 37.2111 62.3295C31.9429 62.3295 27.0952 61.4663 22.5796 59.8282C21.8049 59.5626 21.495 58.8764 21.495 58.2124Z" fill="white"/>
</svg>
