<svg width="80" height="80" viewBox="0 0 80 80" fill="none" xmlns="http://www.w3.org/2000/svg">
<path d="M20.6282 57.7242C15.2271 57.7242 11.9954 54.581 11.9954 49.1799V29.8557C11.9954 24.4768 15.4706 21.3336 20.6282 21.3336H43.7597C49.1607 21.3336 52.3925 24.4768 52.3925 29.8557V32.9104L60.7597 25.8271C61.6451 25.0966 62.6191 24.5875 63.5266 24.5875C65.4745 24.5875 66.7584 26.0263 66.7584 28.0849V50.9729C66.7584 53.0315 65.4745 54.4703 63.5266 54.4703C62.6191 54.4703 61.6451 53.9612 60.7597 53.2307L52.3925 46.1474V49.1799C52.3925 54.581 49.1607 57.7242 43.7597 57.7242H20.6282ZM21.248 54.3818H43.1399C46.748 54.3818 48.8287 52.5003 48.8287 48.6708V30.387C48.8287 26.5354 46.748 24.6539 43.1399 24.6539H21.248C17.6178 24.6539 15.5592 26.5354 15.5592 30.387V48.6708C15.5592 52.5003 17.6178 54.3818 21.248 54.3818ZM62.4198 50.2203C62.6191 50.3531 62.7519 50.4638 62.9511 50.4638C63.2167 50.4638 63.3274 50.2646 63.3274 49.9547V29.1031C63.3274 28.7932 63.2167 28.5719 62.9511 28.5719C62.7519 28.5719 62.6191 28.6825 62.4198 28.8375L52.3925 37.1161V41.9417L62.4198 50.2203Z" fill="white"/>
</svg>
