<svg width="80" height="80" viewBox="0 0 80 80" fill="none" xmlns="http://www.w3.org/2000/svg">
<path d="M39.7319 62.0467C39.3778 62.0467 38.8244 61.9139 38.2489 61.604C25.6759 54.5206 21.3374 51.5545 21.3374 43.4751V26.5415C21.3374 24.2172 22.3556 23.4646 24.215 22.6899C26.827 21.6274 35.2827 18.4178 37.8947 17.6652C38.4702 17.5102 39.1121 17.3331 39.7319 17.3331C40.3517 17.3331 40.9937 17.4659 41.5913 17.6652C44.2033 18.5727 52.6369 21.6053 55.2489 22.6899C57.1304 23.4868 58.1265 24.2172 58.1265 26.5415V43.4751C58.1265 51.5545 53.8101 54.5428 41.215 61.604C40.6616 61.9139 40.0861 62.0467 39.7319 62.0467ZM39.7319 58.0402C40.0861 58.0402 40.4624 57.9073 41.1043 57.5089C51.3309 51.2889 54.6069 49.4959 54.6069 42.656V27.2277C54.6069 26.4751 54.4741 26.1652 53.8765 25.9438C50.4455 24.7706 43.9598 22.4243 40.6174 21.0962C40.2632 20.9633 39.9754 20.8969 39.7319 20.8969C39.4884 20.8969 39.2007 20.9412 38.8465 21.0962C35.5041 22.4243 28.9741 24.6157 25.6095 25.9438C24.9897 26.1873 24.8569 26.4751 24.8569 27.2277V42.656C24.8569 49.4959 28.133 51.311 38.3595 57.5089C39.0236 57.9073 39.3778 58.0402 39.7319 58.0402Z" fill="white"/>
</svg>
