<svg width="80" height="80" viewBox="0 0 80 80" fill="none" xmlns="http://www.w3.org/2000/svg">
<path d="M19.3448 33.304C18.3487 33.5917 17.6182 33.149 17.3969 32.3743C17.1755 31.6217 17.5297 30.8248 18.4594 30.5592C21.7133 29.5188 25.3656 28.8769 28.9737 28.8769C33.1794 28.8769 36.212 29.541 39.8864 29.541C42.0557 29.541 43.4502 28.2128 43.4502 26.1985C43.4502 24.1842 42.0114 22.9003 40.1742 22.9003C38.7797 22.9003 37.5844 23.7857 37.0974 24.9146C36.6325 25.8001 35.7693 26.0214 35.0609 25.6673C34.2862 25.2688 34.1534 24.4277 34.5075 23.6972C35.4372 21.5943 37.6508 20.0006 40.1742 20.0006C43.5831 20.0006 46.35 22.5904 46.35 26.1985C46.35 29.718 43.8708 32.4186 39.8864 32.4186C36.0349 32.4186 33.0466 31.7545 28.9737 31.7545C25.8305 31.7545 22.5323 32.2857 19.3448 33.304ZM53.9646 43.6633C46.5049 43.6633 39.9086 39.8339 31.0765 39.8339C26.7159 39.8339 22.9528 40.4316 19.3448 41.804C18.3708 42.136 17.6182 41.6712 17.3969 40.8964C17.1755 40.1438 17.5518 39.3691 18.4594 39.037C22.3552 37.6646 26.5167 36.9342 31.0765 36.9342C39.9307 36.9342 47.2133 40.7857 53.9646 40.7857C57.5505 40.7857 59.8747 38.7493 59.8747 35.8053C59.8747 32.9055 57.6833 30.8912 54.9828 30.8912C52.6586 30.8912 50.7328 32.4628 50.3565 34.787C50.1794 35.8274 49.4711 36.3365 48.6521 36.2258C47.8552 36.1152 47.3461 35.3847 47.4789 34.455C48.0101 30.8027 50.9763 28.0136 54.9828 28.0136C59.2992 28.0136 62.7745 31.2896 62.7745 35.8053C62.7745 40.3873 59.1221 43.6633 53.9646 43.6633ZM39.9086 59.2688C36.5219 59.2688 34.2419 56.8118 33.8435 53.735C33.7107 52.8274 34.1091 51.9863 35.1052 51.9199C36.057 51.8535 36.6547 52.5396 36.7875 53.3587C37.0974 55.218 38.1599 56.3912 39.9086 56.3912C41.6573 56.3912 43.0739 55.1516 43.0739 53.1373C43.0739 49.9055 38.8239 47.8912 30.7888 47.8912C26.8044 47.8912 22.8643 48.5774 19.3448 49.8391C18.3708 50.1712 17.6182 49.7063 17.3969 48.9316C17.1755 48.179 17.5518 47.4042 18.4594 47.0722C22.2224 45.7883 26.6716 44.9915 30.7888 44.9915C40.6169 44.9915 45.9515 47.9133 45.9515 53.1373C45.9515 56.7454 43.3174 59.2688 39.9086 59.2688Z" fill="white"/>
</svg>
