<svg width="80" height="80" viewBox="0 0 80 80" fill="none" xmlns="http://www.w3.org/2000/svg">
<path d="M47.4565 60.3204C46.3018 60.3204 45.5393 59.5361 45.5393 58.4032C45.5393 57.8368 45.7136 57.4228 46.0622 57.0742L52.3367 50.9522L56.4761 47.4228L51.3563 47.6407H23.5567C18.4805 47.6407 16.3672 45.3095 16.3672 40.3858V27.51C16.3672 22.4337 18.4805 20.3204 23.5567 20.3204H35.7572C36.9554 20.3204 37.7397 21.1919 37.7397 22.2594C37.7397 23.327 36.9554 24.1984 35.7572 24.1984H23.5567C21.2474 24.1984 20.2452 25.2006 20.2452 27.51V40.3858C20.2452 42.7605 21.2474 43.7627 23.5567 43.7627H51.3563L56.4761 43.9806L52.3367 40.4512L46.0622 34.3291C45.7136 33.9806 45.5393 33.5448 45.5393 32.9784C45.5393 31.8673 46.3018 31.0612 47.4565 31.0612C47.9358 31.0612 48.5023 31.3008 48.8726 31.6712L61.6831 44.242C62.1188 44.6559 62.3367 45.157 62.3367 45.7017C62.3367 46.2246 62.1188 46.7475 61.6831 47.1614L48.8726 59.7322C48.5023 60.1026 47.9358 60.3204 47.4565 60.3204Z" fill="white"/>
</svg>
