<svg width="80" height="80" viewBox="0 0 80 80" fill="none" xmlns="http://www.w3.org/2000/svg">
<path d="M17.332 41.5368C17.332 34.0993 21.0951 27.4144 26.7839 23.2751C27.7578 22.5225 28.9753 22.766 29.5286 23.6735C30.082 24.6032 29.7943 25.6436 28.8867 26.3298C24.1719 29.6944 21.1172 35.2504 21.0951 41.5368C21.0729 51.9847 29.4622 60.3519 39.9102 60.3519C50.3581 60.3519 58.7031 51.9847 58.7031 41.5368C58.7031 32.572 52.5495 25.1345 44.1823 23.2308V26.3741C44.1823 27.9678 43.0977 28.3884 41.8802 27.503L34.8411 22.5446C33.8008 21.8142 33.8229 20.7517 34.8411 20.0433L41.9023 15.1071C43.0977 14.2439 44.1823 14.6644 44.1823 16.236V19.3793C54.5417 21.4157 62.4883 30.6462 62.4883 41.5368C62.4883 53.8884 52.2617 64.115 39.9102 64.115C27.5807 64.115 17.332 53.8884 17.332 41.5368ZM30.7682 50.6345C29.9271 50.6345 29.3294 50.1254 29.3294 49.3506C29.3294 48.9301 29.4401 48.598 29.5951 48.1996L34.9518 36.1579V36.0251H28.7096C27.957 36.0251 27.4701 35.5381 27.4701 34.8077C27.4701 34.0772 27.957 33.5681 28.7096 33.5681H36.3021C37.2318 33.5681 38.0065 34.0993 38.0065 35.2061C38.0065 35.8259 37.8073 36.4014 37.5638 36.9769L32.1406 49.6384C31.8529 50.3024 31.4766 50.6345 30.7682 50.6345ZM45.8867 50.8116C43.7617 50.8116 41.3047 49.5498 40.7513 47.447C40.6849 47.1814 40.6406 46.9157 40.6406 46.6722C40.6406 45.8754 41.1276 45.3884 41.9245 45.3884C42.5 45.3884 42.9427 45.6983 43.2526 46.3181C43.6732 47.4691 44.5586 48.3103 45.8867 48.3103C47.569 48.3103 48.543 46.7608 48.543 44.8571C48.543 43.1084 47.6354 41.5368 45.931 41.5368C45.0234 41.5368 44.2708 41.9795 43.7396 42.6879C43.2969 43.2191 42.987 43.4847 42.2786 43.4847C41.3047 43.4847 40.7734 42.7543 40.862 41.7803L41.3268 35.3389C41.4154 34.1657 41.9466 33.5681 43.0977 33.5681H49.5169C50.2695 33.5681 50.7344 34.0551 50.7344 34.8077C50.7344 35.5603 50.2474 36.0472 49.5169 36.0472H43.8724L43.474 41.0941H43.5625C44.1823 39.9431 45.3997 39.279 46.8828 39.279C49.8047 39.279 51.487 41.8246 51.487 44.7907C51.487 48.2439 49.3398 50.8116 45.8867 50.8116Z" fill="white"/>
</svg>
