<svg width="80" height="80" viewBox="0 0 80 80" fill="none" xmlns="http://www.w3.org/2000/svg">
<path d="M28.5967 48.2001C26.2367 48.2001 24.1567 46.8601 23.3367 44.8201L24.9367 44.0201C25.7767 45.6601 27.0567 46.5401 28.5967 46.5401C30.4367 46.5401 31.5167 45.6001 31.5167 43.9201C31.5167 42.0801 30.1767 41.1001 27.7567 41.1001H26.7367V39.4401H27.4567C29.8567 39.4401 31.1767 38.4601 31.1767 36.6201C31.1767 35.2601 30.1567 34.3401 28.6367 34.3401C27.2567 34.3401 26.0767 35.1201 25.3167 36.5401L24.0367 35.7401C24.8567 33.9601 26.6767 32.8001 28.6367 32.8001C31.2967 32.8001 33.0167 34.2201 33.0167 36.4001C33.0167 38.3601 31.7167 39.7401 29.6767 40.0601C32.0567 40.3401 33.4367 41.7401 33.4367 43.9201C33.4367 46.4801 31.4967 48.2001 28.5967 48.2001ZM40.3472 48.2001C37.2072 48.2001 35.3672 45.5001 35.3672 40.8601C35.3672 35.9201 37.4472 32.8001 40.6672 32.8001C42.3272 32.8001 43.6272 33.4601 44.4072 34.7001L43.2072 35.8201C42.5072 34.8801 41.6072 34.3801 40.6672 34.3801C38.4672 34.3801 37.3072 36.5401 37.3072 40.5801C38.0272 39.4201 39.4272 38.7401 40.9672 38.7401C43.3272 38.7401 44.8472 40.5801 44.8472 43.4201C44.8472 46.2601 42.9672 48.2001 40.3472 48.2001ZM40.5072 40.2401C39.2272 40.2601 38.1072 40.9601 37.3472 42.2001C37.6072 45.1001 38.6272 46.6201 40.3472 46.6201C42.0272 46.6201 43.1072 45.3801 43.1072 43.4201C43.1072 41.4401 42.1472 40.2401 40.5072 40.2401ZM51.2367 48.2001C48.2167 48.2001 46.4967 45.4601 46.4967 40.5001C46.4967 35.5401 48.2167 32.8001 51.2367 32.8001C54.2767 32.8001 55.9967 35.5401 55.9967 40.5001C55.9967 45.4601 54.2767 48.2001 51.2367 48.2001ZM51.2367 46.7001C53.1367 46.7001 54.0767 44.6601 54.0767 40.5001C54.0767 36.3401 53.1367 34.3001 51.2367 34.3001C49.3567 34.3001 48.4167 36.3401 48.4167 40.5001C48.4167 44.6601 49.3567 46.7001 51.2367 46.7001Z" fill="white"/>
<path d="M37.8228 20.3645L41.617 18.1606C36.7381 17.9175 31.6822 19.3146 27.3443 22.4892C17.5119 29.6844 15.2122 43.1657 22.0215 52.5727C22.5818 53.3468 22.4119 54.431 21.642 54.9944C20.8722 55.5578 19.7938 55.387 19.2335 54.6129C11.2341 43.5617 14.0403 27.9368 25.3151 19.6859C31.8211 14.9249 39.7655 13.6196 46.8629 15.4783C48.4683 15.8988 48.7157 18.0413 47.3167 18.8539L39.5476 23.3667C38.7231 23.8456 37.6686 23.5618 37.1923 22.7328C36.716 21.9038 36.9983 20.8435 37.8228 20.3645Z" fill="white"/>
<path d="M38.399 61.8402C43.2781 62.0793 48.3329 60.6781 52.6683 57.5001C62.4949 50.2969 64.7838 36.8137 57.967 27.4123C57.4061 26.6386 57.5751 25.5542 58.3445 24.9902C59.114 24.4262 60.1924 24.5961 60.7534 25.3698C68.7616 36.4145 65.9679 52.0417 54.6997 60.3017C48.1975 65.068 40.2541 66.3797 33.1553 64.5267C31.5495 64.1075 31.3005 61.9653 32.6988 61.1515L40.4642 56.6324C41.2883 56.1529 42.3431 56.4358 42.8201 57.2644C43.297 58.0931 43.0156 59.1536 42.1915 59.6332L38.399 61.8402Z" fill="white"/>
</svg>
