<svg width="80" height="80" viewBox="0 0 80 80" fill="none" xmlns="http://www.w3.org/2000/svg">
<path d="M24.9819 59.4077C21.728 59.4077 20.0015 57.6368 20.0015 54.1394V38.8881C20.0015 35.8113 21.3517 34.0848 23.8973 33.7085V28.3517C23.8973 20.0288 29.3205 16.0001 35.12 16.0001C40.9194 16.0001 46.3647 20.0288 46.3647 28.3517V33.7306C48.2905 34.0184 49.508 35.1251 49.9507 36.9402L49.9728 37.2944C49.4637 37.2059 48.9546 37.1837 48.4233 37.1837C40.6095 37.1837 34.1681 43.6251 34.1681 51.4611C34.1681 54.4051 35.0757 57.1277 36.6473 59.4077H24.9819ZM27.3947 27.8868V33.642H42.8452V27.8868C42.8452 22.2866 39.2593 19.3426 35.12 19.3426C30.9806 19.3426 27.3947 22.2866 27.3947 27.8868ZM48.4455 62.7059C42.2697 62.7059 37.2007 57.659 37.2007 51.4611C37.2007 45.3074 42.2697 40.2163 48.4455 40.2163C54.5991 40.2163 59.6903 45.2853 59.6903 51.4611C59.6903 57.6147 54.5327 62.7059 48.4455 62.7059ZM43.1994 53.1876H48.5562C49.3309 53.1876 49.9285 52.59 49.9285 51.8152V44.909C49.9285 44.1785 49.3088 43.5809 48.5562 43.5809C47.8035 43.5809 47.1838 44.1785 47.1838 44.909V50.465H43.1994C42.4468 50.465 41.8048 51.0848 41.8048 51.8152C41.8048 52.5678 42.4246 53.1876 43.1994 53.1876Z" fill="white"/>
</svg>
