<svg width="80" height="80" viewBox="0 0 80 80" fill="none" xmlns="http://www.w3.org/2000/svg">
<path fill-rule="evenodd" clip-rule="evenodd" d="M36.6739 46.3428C37.0489 46.3428 37.4085 46.4908 37.6737 46.7543C37.9389 47.0177 38.0878 47.375 38.0878 47.7475V59.6406C38.0878 60.0131 37.9389 60.3704 37.6737 60.6339C37.4085 60.8973 37.0489 61.0453 36.6739 61.0453C36.2989 61.0453 35.9393 60.8973 35.6741 60.6339C35.4089 60.3704 35.26 60.0131 35.26 59.6406V47.7475C35.26 47.5631 35.2965 47.3804 35.3676 47.21C35.4386 47.0396 35.5428 46.8847 35.6741 46.7543C35.8054 46.6238 35.9613 46.5204 36.1328 46.4498C36.3044 46.3792 36.4882 46.3428 36.6739 46.3428Z" fill="white"/>
<path fill-rule="evenodd" clip-rule="evenodd" d="M44.7098 46.3428C45.0848 46.3428 45.4444 46.4908 45.7096 46.7543C45.9748 47.0177 46.1237 47.375 46.1237 47.7475V59.6406C46.1237 59.8251 46.0872 60.0077 46.0161 60.1782C45.9451 60.3486 45.8409 60.5034 45.7096 60.6339C45.5783 60.7643 45.4224 60.8678 45.2509 60.9384C45.0793 61.009 44.8955 61.0453 44.7098 61.0453C44.5241 61.0453 44.3403 61.009 44.1687 60.9384C43.9972 60.8678 43.8413 60.7643 43.71 60.6339C43.5787 60.5034 43.4745 60.3486 43.4035 60.1782C43.3324 60.0077 43.2959 59.8251 43.2959 59.6406V47.7475C43.2959 47.5631 43.3324 47.3804 43.4035 47.21C43.4745 47.0396 43.5787 46.8847 43.71 46.7543C43.8413 46.6238 43.9972 46.5204 44.1687 46.4498C44.3403 46.3792 44.5241 46.3428 44.7098 46.3428Z" fill="white"/>
<path d="M18.057 65.2125C17.7785 65.2137 17.506 65.1318 17.2749 64.9774C17.0438 64.8229 16.8647 64.6031 16.7609 64.3463C16.6187 64.0013 16.6179 63.6146 16.7588 63.269C16.8997 62.9234 17.1711 62.6463 17.515 62.4968C24.9512 59.8397 32.8013 58.5082 40.7036 58.5637C48.735 58.5564 56.7073 59.9265 64.2693 62.6139C64.4426 62.6815 64.6008 62.7824 64.7349 62.9108C64.8689 63.0391 64.9762 63.1925 65.0506 63.3621C65.125 63.5316 65.1651 63.7141 65.1685 63.899C65.1719 64.084 65.1387 64.2678 65.0706 64.44C65.0025 64.6121 64.9009 64.7693 64.7717 64.9025C64.6425 65.0357 64.4881 65.1422 64.3174 65.2162C64.1468 65.2901 63.9631 65.3299 63.7769 65.3333C63.5908 65.3367 63.4057 65.3036 63.2324 65.236C56.0197 62.6976 48.4262 61.3915 40.7743 61.3731C33.2186 61.3192 25.7123 62.5872 18.599 65.1189C18.4264 65.1857 18.2421 65.2175 18.057 65.2125Z" fill="white"/>
<path fill-rule="evenodd" clip-rule="evenodd" d="M22.0396 35.2926C21.5259 35.2926 21.0238 35.4443 20.597 35.7283C20.1702 36.0123 19.838 36.4159 19.6425 36.8878C19.447 37.3598 19.3971 37.8788 19.499 38.379C19.601 38.8791 19.8502 39.338 20.2151 39.6972C20.58 40.0564 21.0441 40.2998 21.5485 40.3965C22.0529 40.4932 22.5748 40.4388 23.048 40.2403C23.5213 40.0418 23.9245 39.7081 24.2065 39.2815C24.4884 38.855 24.6365 38.3548 24.6318 37.8445C24.6318 37.5074 24.5646 37.1736 24.4341 36.8625C24.3035 36.5513 24.1122 36.269 23.8712 36.0317C23.6301 35.7944 23.3442 35.6069 23.0298 35.4801C22.7155 35.3532 22.3789 35.2895 22.0396 35.2926ZM16.6431 37.8445C16.6431 36.7785 16.9615 35.7365 17.5582 34.8505C18.1548 33.9645 19.0027 33.2743 19.9945 32.8675C20.9862 32.4606 22.0772 32.3554 23.1293 32.565C24.1813 32.7747 25.147 33.2899 25.9041 34.0453C26.6612 34.8007 27.1755 35.7623 27.382 36.8084C27.5885 37.8545 27.4777 38.9379 27.0639 39.9214C26.65 40.9049 25.9517 41.7442 25.0572 42.333C24.1628 42.9219 23.1126 43.2337 22.0396 43.2291C20.6062 43.2229 19.2336 42.6529 18.2222 41.6437C17.2108 40.6346 16.643 39.2685 16.6431 37.8445Z" fill="white"/>
<path fill-rule="evenodd" clip-rule="evenodd" d="M22.0396 23.4464C21.5269 23.4464 21.0257 23.5974 20.5994 23.8804C20.1731 24.1634 19.8409 24.5656 19.6447 25.0361C19.4485 25.5067 19.3972 26.0245 19.4972 26.524C19.5972 27.0236 19.8441 27.4825 20.2066 27.8426C20.5691 28.2028 21.031 28.4481 21.5339 28.5474C22.0367 28.6468 22.5579 28.5958 23.0316 28.4009C23.5053 28.206 23.9101 27.8759 24.195 27.4524C24.4798 27.0289 24.6318 26.531 24.6318 26.0216C24.635 25.6826 24.5701 25.3463 24.4409 25.0324C24.3118 24.7186 24.1209 24.4334 23.8796 24.1937C23.6383 23.9539 23.3512 23.7643 23.0353 23.636C22.7194 23.5077 22.3809 23.4432 22.0396 23.4464ZM16.6431 25.9748C16.6384 24.9079 16.9529 23.8636 17.5467 22.9745C18.1405 22.0854 18.9867 21.3916 19.9781 20.9812C20.9694 20.5707 22.0612 20.4621 23.1148 20.6691C24.1683 20.8761 25.1363 21.3895 25.8957 22.1439C26.6551 22.8984 27.1718 23.86 27.3802 24.9067C27.5886 25.9534 27.4793 27.038 27.0661 28.0229C26.653 29.0077 25.9546 29.8484 25.0597 30.4383C24.1648 31.0282 23.1136 31.3407 22.0396 31.3361C20.6103 31.3299 19.2412 30.7631 18.2305 29.759C17.2198 28.7549 16.6493 27.3948 16.6431 25.9748Z" fill="white"/>
<path fill-rule="evenodd" clip-rule="evenodd" d="M34.011 35.2926C33.4963 35.288 32.9919 35.4357 32.562 35.7168C32.1321 35.998 31.7962 36.4 31.5971 36.8715C31.398 37.343 31.3447 37.8627 31.444 38.3645C31.5432 38.8662 31.7906 39.3272 32.1545 39.6888C32.5185 40.0503 32.9825 40.2961 33.4876 40.3947C33.9926 40.4933 34.5157 40.4403 34.9903 40.2425C35.465 40.0447 35.8696 39.711 36.1526 39.2839C36.4356 38.8569 36.5843 38.3558 36.5796 37.8445C36.5796 37.1677 36.309 36.5186 35.8273 36.04C35.3456 35.5615 34.6922 35.2926 34.011 35.2926ZM28.6144 37.8445C28.6191 36.7851 28.9395 35.7509 29.5353 34.8723C30.1311 33.9938 30.9756 33.3102 31.9621 32.908C32.9486 32.5059 34.0329 32.403 35.0782 32.6125C36.1234 32.822 37.0828 33.3345 37.8352 34.0852C38.5875 34.8359 39.0992 35.7912 39.3055 36.8305C39.5118 37.8699 39.4036 38.9466 38.9944 39.9249C38.5853 40.9032 37.8936 41.7391 37.0067 42.3272C36.1197 42.9153 35.0773 43.2291 34.011 43.2291C32.5776 43.2229 31.205 42.6529 30.1936 41.6437C29.1822 40.6346 28.6144 39.2685 28.6144 37.8445Z" fill="white"/>
<path fill-rule="evenodd" clip-rule="evenodd" d="M34.011 23.4464C33.4973 23.4417 32.9938 23.5888 32.5644 23.869C32.1351 24.1491 31.7992 24.5497 31.5993 25.0198C31.3995 25.4899 31.3448 26.0085 31.4422 26.5095C31.5395 27.0106 31.7845 27.4717 32.1461 27.8342C32.5077 28.1967 32.9695 28.4443 33.473 28.5456C33.9764 28.6469 34.4988 28.5972 34.9739 28.403C35.4489 28.2088 35.8552 27.8788 36.1411 27.4548C36.427 27.0308 36.5796 26.532 36.5796 26.0216C36.5827 25.6846 36.5186 25.3502 36.3909 25.0379C36.2632 24.7256 36.0745 24.4415 35.8357 24.202C35.5968 23.9626 35.3126 23.7725 34.9994 23.6428C34.6862 23.5131 34.3503 23.4464 34.011 23.4464ZM28.6144 25.9748C28.6144 24.9145 28.9309 23.8779 29.5239 22.9963C30.1169 22.1146 30.9597 21.4275 31.9458 21.0217C32.9319 20.6159 34.017 20.5097 35.0638 20.7166C36.1106 20.9235 37.0722 21.4341 37.8269 22.1838C38.5816 22.9336 39.0956 23.8889 39.3038 24.9289C39.5121 25.9689 39.4052 27.0468 38.9967 28.0265C38.5883 29.0061 37.8966 29.8434 37.0091 30.4325C36.1217 31.0216 35.0783 31.3361 34.011 31.3361C32.5816 31.3299 31.2126 30.7631 30.2019 29.759C29.1912 28.7549 28.6206 27.3948 28.6144 25.9748Z" fill="white"/>
<path fill-rule="evenodd" clip-rule="evenodd" d="M45.9824 35.2926C45.4677 35.288 44.9633 35.4357 44.5334 35.7168C44.1035 35.998 43.7676 36.4 43.5685 36.8715C43.3694 37.343 43.3161 37.8627 43.4153 38.3645C43.5146 38.8662 43.762 39.3272 44.1259 39.6888C44.4899 40.0503 44.9539 40.2961 45.4589 40.3947C45.964 40.4933 46.4871 40.4403 46.9617 40.2425C47.4363 40.0447 47.8409 39.711 48.124 39.2839C48.407 38.8569 48.5557 38.3558 48.551 37.8445C48.551 37.1677 48.2804 36.5186 47.7987 36.04C47.317 35.5615 46.6636 35.2926 45.9824 35.2926ZM40.5858 37.8445C40.5905 36.7851 40.9109 35.7509 41.5067 34.8723C42.1025 33.9938 42.947 33.3102 43.9335 32.908C44.9199 32.5059 46.0043 32.403 47.0495 32.6125C48.0948 32.822 49.0542 33.3345 49.8065 34.0852C50.5589 34.8359 51.0705 35.7912 51.2769 36.8305C51.4832 37.8699 51.375 38.9466 50.9658 39.9249C50.5567 40.9032 49.865 41.7391 48.978 42.3272C48.0911 42.9153 47.0487 43.2291 45.9824 43.2291C45.2717 43.2291 44.568 43.0897 43.9117 42.8188C43.2554 42.5479 42.6595 42.1509 42.1581 41.6506C41.6566 41.1503 41.2596 40.5565 40.9898 39.9033C40.72 39.2501 40.5827 38.5505 40.5858 37.8445Z" fill="white"/>
<path fill-rule="evenodd" clip-rule="evenodd" d="M45.9824 23.4464C45.4687 23.4417 44.9652 23.5888 44.5358 23.869C44.1064 24.1491 43.7705 24.5497 43.5707 25.0198C43.3709 25.4899 43.3162 26.0085 43.4135 26.5095C43.5109 27.0106 43.7559 27.4717 44.1175 27.8342C44.479 28.1967 44.9409 28.4443 45.4443 28.5456C45.9478 28.6469 46.4702 28.5972 46.9453 28.403C47.4203 28.2088 47.8266 27.8788 48.1125 27.4548C48.3983 27.0308 48.551 26.532 48.551 26.0216C48.5541 25.6846 48.49 25.3502 48.3623 25.0379C48.2346 24.7256 48.0459 24.4415 47.8071 24.202C47.5682 23.9626 47.284 23.7725 46.9708 23.6428C46.6576 23.5131 46.3217 23.4464 45.9824 23.4464ZM40.5858 26.0216C40.5858 24.9613 40.9023 23.9247 41.4953 23.0431C42.0883 22.1614 42.9311 21.4743 43.9172 21.0685C44.9033 20.6627 45.9883 20.5565 47.0352 20.7634C48.082 20.9703 49.0436 21.4809 49.7983 22.2307C50.553 22.9804 51.067 23.9357 51.2752 24.9757C51.4834 26.0157 51.3766 27.0937 50.9681 28.0733C50.5597 29.0529 49.868 29.8902 48.9805 30.4793C48.0931 31.0684 47.0497 31.3829 45.9824 31.3829C45.2697 31.3829 44.5641 31.2427 43.9062 30.9703C43.2484 30.698 42.6514 30.2989 42.1497 29.7961C41.6479 29.2933 41.2514 28.6967 40.983 28.0409C40.7146 27.385 40.5796 26.6828 40.5858 25.9748V26.0216Z" fill="white"/>
<path fill-rule="evenodd" clip-rule="evenodd" d="M57.9537 35.2926C57.4391 35.288 56.9346 35.4357 56.5048 35.7168C56.0749 35.998 55.739 36.4 55.5399 36.8715C55.3408 37.343 55.2874 37.8627 55.3867 38.3645C55.486 38.8662 55.7333 39.3272 56.0973 39.6888C56.4612 40.0503 56.9253 40.2961 57.4303 40.3947C57.9353 40.4933 58.4585 40.4403 58.9331 40.2425C59.4077 40.0447 59.8123 39.711 60.0954 39.2839C60.3784 38.8569 60.527 38.3558 60.5224 37.8445C60.5224 37.1677 60.2518 36.5186 59.77 36.04C59.2883 35.5615 58.635 35.2926 57.9537 35.2926ZM52.5336 37.8445C52.5336 36.7795 52.8515 35.7384 53.4471 34.8529C54.0426 33.9674 54.8891 33.2772 55.8795 32.8697C56.8699 32.4621 57.9597 32.3555 59.0111 32.5633C60.0625 32.771 61.0283 33.2839 61.7863 34.0369C62.5443 34.79 63.0606 35.7494 63.2697 36.794C63.4788 37.8385 63.3715 38.9212 62.9613 39.9051C62.551 40.889 61.8563 41.73 60.965 42.3216C60.0736 42.9133 59.0257 43.2291 57.9537 43.2291C56.5162 43.2291 55.1376 42.6618 54.1211 41.652C53.1047 40.6422 52.5336 39.2726 52.5336 37.8445Z" fill="white"/>
<path fill-rule="evenodd" clip-rule="evenodd" d="M57.9537 23.4464C57.4401 23.4417 56.9366 23.5888 56.5072 23.869C56.0778 24.1491 55.7419 24.5497 55.5421 25.0198C55.3423 25.4899 55.2876 26.0085 55.3849 26.5095C55.4823 27.0106 55.7273 27.4717 56.0888 27.8342C56.4504 28.1967 56.9122 28.4443 57.4157 28.5456C57.9192 28.6469 58.4416 28.5972 58.9167 28.403C59.3917 28.2088 59.7979 27.8788 60.0838 27.4548C60.3697 27.0308 60.5224 26.532 60.5224 26.0216C60.5224 25.3427 60.2526 24.6912 59.7715 24.2089C59.2904 23.7266 58.6371 23.4525 57.9537 23.4464ZM52.5336 26.0216C52.529 24.9557 52.8429 23.9123 53.4356 23.0237C54.0283 22.1352 54.8732 21.4413 55.8632 21.0302C56.8531 20.6191 57.9437 20.5091 58.9966 20.7142C60.0496 20.9193 61.0175 21.4303 61.7779 22.1824C62.5383 22.9345 63.0569 23.8939 63.2679 24.9391C63.479 25.9842 63.373 27.0681 62.9635 28.0534C62.5539 29.0387 61.8593 29.881 60.9674 30.4737C60.0756 31.0665 59.0267 31.3829 57.9537 31.3829C57.24 31.3829 56.5332 31.2428 55.8741 30.9708C55.2149 30.6987 54.6164 30.3 54.1128 29.7975C53.6092 29.295 53.2104 28.6986 52.9394 28.0426C52.6684 27.3866 52.5305 26.6839 52.5336 25.9748V26.0216Z" fill="white"/>
<path fill-rule="evenodd" clip-rule="evenodd" d="M14.6635 16.0717C14.6603 15.8864 14.6947 15.7023 14.7647 15.5305C14.8346 15.3586 14.9386 15.2025 15.0706 15.0714C15.2025 14.9403 15.3596 14.837 15.5326 14.7675C15.7056 14.698 15.8909 14.6639 16.0775 14.667H63.9158C64.1024 14.6639 64.2877 14.698 64.4607 14.7675C64.6337 14.837 64.7908 14.9403 64.9228 15.0714C65.0547 15.2025 65.1587 15.3586 65.2287 15.5305C65.2986 15.7023 65.333 15.8864 65.3298 16.0717C65.3298 16.2562 65.2932 16.4389 65.2222 16.6093C65.1511 16.7797 65.047 16.9346 64.9157 17.065C64.7844 17.1954 64.6285 17.2989 64.4569 17.3695C64.2854 17.4401 64.1015 17.4764 63.9158 17.4764H16.0775C15.7025 17.4764 15.3428 17.3284 15.0777 17.065C14.8125 16.8016 14.6635 16.4443 14.6635 16.0717Z" fill="white"/>
<path fill-rule="evenodd" clip-rule="evenodd" d="M14.6635 47.7475C14.6635 47.375 14.8125 47.0177 15.0777 46.7543C15.3428 46.4908 15.7025 46.3428 16.0775 46.3428H63.9158C64.2909 46.3428 64.6505 46.4908 64.9157 46.7543C65.1808 47.0177 65.3298 47.375 65.3298 47.7475C65.333 47.9329 65.2986 48.117 65.2287 48.2888C65.1587 48.4607 65.0547 48.6168 64.9228 48.7479C64.7908 48.8789 64.6337 48.9823 64.4607 49.0518C64.2877 49.1212 64.1024 49.1554 63.9158 49.1522H16.0775C15.8909 49.1554 15.7056 49.1212 15.5326 49.0518C15.3596 48.9823 15.2025 48.8789 15.0706 48.7479C14.9386 48.6168 14.8346 48.4607 14.7647 48.2888C14.6947 48.117 14.6603 47.9329 14.6635 47.7475Z" fill="white"/>
</svg>
