<svg width="80" height="80" viewBox="0 0 80 80" fill="none" xmlns="http://www.w3.org/2000/svg">
<path d="M29.612 57.3922C27.6862 57.3922 26.668 56.374 26.668 54.426V24.2776C26.668 22.3518 27.6862 21.3336 29.612 21.3336H34.6589C36.5846 21.3336 37.6029 22.2633 37.6029 24.2776V54.426C37.6029 56.374 36.5846 57.3922 34.6589 57.3922H29.612ZM45.7044 57.3922C43.7565 57.3922 42.7383 56.374 42.7383 54.426V24.2776C42.7383 22.3518 43.7565 21.3336 45.7044 21.3336H50.7292C52.6771 21.3336 53.6732 22.2633 53.6732 24.2776V54.426C53.6732 56.374 52.6771 57.3922 50.7292 57.3922H45.7044Z" fill="white"/>
</svg>
