<svg width="80" height="80" viewBox="0 0 80 80" fill="none" xmlns="http://www.w3.org/2000/svg">
<path d="M26.6503 18.8556C26.7831 16.9741 27.8456 16.0001 29.8821 16.0001H51.3313C53.3899 16.0001 54.4524 16.9741 54.5852 18.8556H26.6503ZM22.0904 24.9871C22.4224 22.9728 23.3743 21.866 25.5878 21.866H55.6477C57.8612 21.866 58.8131 22.9728 59.1451 24.9871H22.0904ZM21.3378 64.9415C18.8808 64.9415 17.3313 63.3921 17.3313 61.0014V32.5131C17.3313 30.1225 18.8808 28.5509 21.3378 28.5509H59.8977C62.3769 28.5509 63.9263 30.1225 63.9263 32.5131V61.0014C63.9263 63.3921 62.3769 64.9415 59.8977 64.9415H21.3378ZM21.2935 35.922H23.8391C24.4146 35.922 24.7688 35.5236 24.7688 35.0144V32.7124C24.7688 32.1368 24.4146 31.7384 23.8391 31.7384H21.3599C20.718 31.7384 20.3196 32.159 20.3196 32.7788V35.0144C20.3196 35.5236 20.6959 35.922 21.2935 35.922ZM28.4875 45.1525H52.748C53.3013 45.1525 53.6555 44.8426 53.6555 44.2449V32.646C53.6555 32.0704 53.3013 31.7384 52.748 31.7384H28.4875C27.9563 31.7384 27.6021 32.0704 27.6021 32.646V44.2449C27.6021 44.8426 27.9563 45.1525 28.4875 45.1525ZM57.3964 35.922H59.9641C60.5396 35.922 60.9381 35.5236 60.9381 35.0144V32.7788C60.9381 32.159 60.5396 31.7384 59.8977 31.7384H57.3964C56.8652 31.7384 56.4888 32.1368 56.4888 32.7124V35.0144C56.4888 35.5236 56.8652 35.922 57.3964 35.922ZM21.2935 42.4519H23.8391C24.4146 42.4519 24.7688 42.0314 24.7688 41.5665V39.2644C24.7688 38.7332 24.4146 38.3126 23.8391 38.3126H21.2935C20.6737 38.3126 20.3196 38.7332 20.3196 39.2644V41.5665C20.3196 42.0314 20.6959 42.4519 21.2935 42.4519ZM57.3964 42.4519H59.9641C60.5396 42.4519 60.9381 42.0314 60.9381 41.5665V39.2644C60.9381 38.7332 60.5618 38.3126 59.9641 38.3126H57.3964C56.8652 38.3126 56.4888 38.7332 56.4888 39.2644V41.5665C56.4888 42.0314 56.8652 42.4519 57.3964 42.4519ZM21.2935 48.8491H23.8391C24.4146 48.8491 24.7688 48.4064 24.7688 47.8751V45.6837C24.7688 45.0639 24.4146 44.6655 23.8391 44.6655H21.2935C20.6737 44.6655 20.3196 45.0639 20.3196 45.6837V47.8751C20.3196 48.4064 20.6959 48.8491 21.2935 48.8491ZM57.3964 48.8491H59.9641C60.5396 48.8491 60.9381 48.4064 60.9381 47.8751V45.6837C60.9381 45.0639 60.5618 44.6655 59.9641 44.6655H57.3964C56.8652 44.6655 56.4888 45.0639 56.4888 45.6837V47.8751C56.4888 48.4064 56.8652 48.8491 57.3964 48.8491ZM28.4875 61.754H52.748C53.3013 61.754 53.6555 61.3999 53.6555 60.8465V49.3139C53.6555 48.7384 53.3013 48.4064 52.748 48.4064H28.4875C27.9563 48.4064 27.6021 48.7384 27.6021 49.3139V60.8465C27.6021 61.3999 27.9563 61.754 28.4875 61.754ZM21.2935 55.2019H23.8391C24.4146 55.2019 24.7688 54.7814 24.7688 54.2944V52.0366C24.7688 51.4611 24.4146 51.0848 23.8391 51.0848H21.2935C20.6737 51.0848 20.3196 51.4611 20.3196 52.0366V54.2944C20.3196 54.7814 20.6959 55.2019 21.2935 55.2019ZM57.3964 55.2019H59.9641C60.5396 55.2019 60.9381 54.7814 60.9381 54.2944V52.0366C60.9381 51.4611 60.5618 51.0848 59.9641 51.0848H57.3964C56.8652 51.0848 56.4888 51.4611 56.4888 52.0366V54.2944C56.4888 54.7814 56.8652 55.2019 57.3964 55.2019ZM21.3599 61.754H23.8391C24.4146 61.754 24.7688 61.3556 24.7688 60.8243V58.5223C24.7688 57.9467 24.4146 57.5704 23.8391 57.5704H21.2935C20.6959 57.5704 20.3196 57.9467 20.3196 58.5223V60.7358C20.3196 61.3335 20.718 61.754 21.3599 61.754ZM57.3964 61.754H59.8977C60.5396 61.754 60.9381 61.3335 60.9381 60.7358V58.5223C60.9381 57.9467 60.5396 57.5704 59.9641 57.5704H57.3964C56.8652 57.5704 56.4888 57.9467 56.4888 58.5223V60.8243C56.4888 61.3556 56.8652 61.754 57.3964 61.754Z" fill="white"/>
</svg>
