<svg width="80" height="80" viewBox="0 0 80 80" fill="none" xmlns="http://www.w3.org/2000/svg">
<path d="M39.4412 61.3388C39.0871 61.3388 38.5558 61.2281 37.9803 60.9183C25.6066 53.9456 21.3345 51.0237 21.3345 43.0771V26.387C21.3345 24.1071 22.3306 23.3545 24.1678 22.6018C26.7576 21.5615 35.0363 18.4847 37.6261 17.6435C38.2017 17.4664 38.8215 17.3336 39.4412 17.3336C40.061 17.3336 40.6808 17.4443 41.2785 17.6435C43.8462 18.5289 52.1248 21.5393 54.7147 22.6018C56.5741 23.3766 57.548 24.1071 57.548 26.387V43.0771C57.548 51.0237 53.4972 54.3219 40.9022 60.9183C40.3488 61.206 39.7954 61.3388 39.4412 61.3388ZM32.0037 47.8141C32.5129 47.8141 32.9777 47.637 33.3319 47.2828L39.4412 41.1292L45.5728 47.2828C45.9048 47.637 46.3696 47.8141 46.8787 47.8141C47.9191 47.8141 48.7381 46.9951 48.7381 45.9547C48.7381 45.4456 48.561 45.0029 48.2069 44.6487L42.0532 38.5393L48.229 32.3636C48.6053 31.9873 48.7603 31.5667 48.7603 31.0576C48.7603 30.0615 47.9412 29.2646 46.923 29.2646C46.436 29.2646 46.0376 29.4196 45.6613 29.7959L39.4412 35.9716L33.2655 29.818C32.9113 29.486 32.5129 29.3089 32.0037 29.3089C30.9855 29.3089 30.1886 30.0836 30.1886 31.1018C30.1886 31.5888 30.3657 32.0537 30.7199 32.3857L36.8514 38.5393L30.7199 44.6709C30.3657 45.025 30.1886 45.4677 30.1886 45.9547C30.1886 46.9951 30.9855 47.8141 32.0037 47.8141Z" fill="white"/>
</svg>
