<svg width="80" height="80" viewBox="0 0 80 80" fill="none" xmlns="http://www.w3.org/2000/svg">
<path d="M39.4442 61.3383C39.09 61.3383 38.5588 61.2277 37.9832 60.9178C25.6095 53.9451 21.3374 51.0232 21.3374 43.0766V26.3865C21.3374 24.1066 22.3335 23.354 24.1707 22.6014C26.7606 21.561 35.0392 18.4842 37.6291 17.643C38.2046 17.4659 38.8244 17.3331 39.4442 17.3331C40.064 17.3331 40.6838 17.4438 41.2814 17.643C43.8491 18.5284 52.1278 21.5389 54.7176 22.6014C56.577 23.3761 57.5509 24.1066 57.5509 26.3865V43.0766C57.5509 51.0232 53.5002 54.3214 40.9051 60.9178C40.3517 61.2055 39.7983 61.3383 39.4442 61.3383Z" fill="white"/>
</svg>
