<svg width="80" height="80" viewBox="0 0 80 80" fill="none" xmlns="http://www.w3.org/2000/svg">
<path fill-rule="evenodd" clip-rule="evenodd" d="M34.3334 21.6664L30.9129 30.0791L24.8508 25.9058C27.9516 24.004 31.1301 22.5834 34.3334 21.6664ZM28.3845 36.2989C27.5039 34.7334 26.5094 32.5748 25.4133 29.6072C25.4009 29.572 25.3868 29.536 25.3736 29.5001C25.3026 29.306 25.2299 29.1035 25.158 28.9027C25.1324 28.8316 25.1076 28.7638 25.082 28.6927C25.0432 28.5822 25.0036 28.4726 24.9647 28.3597C24.9499 28.317 24.9334 28.2727 24.9193 28.2292L30.1893 31.8578L28.3845 36.2989ZM35.1248 35.2547C35.119 35.2907 35.114 35.3284 35.1082 35.3635C35.0818 35.5434 35.057 35.7275 35.0273 35.899C34.991 36.1081 34.9497 36.3006 34.9092 36.4964C34.8761 36.6545 34.8447 36.8185 34.8092 36.9682C34.7646 37.154 34.7159 37.3205 34.6672 37.492C34.6283 37.6284 34.5912 37.7723 34.5507 37.8995C34.4978 38.0609 34.44 38.2023 34.383 38.3479C34.3392 38.4617 34.2971 38.5839 34.25 38.6876C34.1881 38.8257 34.1203 38.9411 34.0542 39.0624C34.0063 39.1503 33.9617 39.2482 33.9105 39.3277C33.837 39.4414 33.7585 39.5318 33.6801 39.6263C33.6297 39.6883 33.5826 39.7611 33.5297 39.8146C33.4405 39.9058 33.3447 39.9702 33.2497 40.038C33.2026 40.0715 33.1597 40.1175 33.1118 40.1443C32.9647 40.2271 32.8119 40.2831 32.6533 40.3116C32.5757 40.325 32.498 40.3308 32.4212 40.3317C32.3378 40.3317 32.2486 40.3233 32.1511 40.3066C32.1461 40.3057 32.1404 40.3041 32.1346 40.3032C32.0982 40.2957 32.0619 40.2865 32.0239 40.2773C31.9983 40.2706 31.9727 40.2631 31.9446 40.2547C31.9314 40.2497 31.9173 40.2463 31.9041 40.2413C31.3548 40.0556 30.5817 39.5285 29.6119 38.2207L31.7604 32.9388L35.1248 35.2547ZM35.2933 24.2474C35.3098 24.4892 35.3255 24.7319 35.3387 24.9686C35.3585 25.3175 35.3759 25.6589 35.3916 25.9977C35.4056 26.2897 35.4172 26.5809 35.4279 26.8654C35.4395 27.1758 35.4469 27.4778 35.4535 27.779C35.4544 27.7983 35.4552 27.8183 35.456 27.8367C35.4626 28.1145 35.4692 28.3898 35.4725 28.6592C35.4758 28.9704 35.4758 29.2733 35.4758 29.5745C35.475 29.833 35.4742 30.0924 35.47 30.3434C35.4659 30.6354 35.4577 30.9174 35.4494 31.1993C35.442 31.4403 35.4354 31.6821 35.4246 31.9147C35.4131 32.1874 35.3965 32.4485 35.38 32.7095C35.3709 32.8526 35.361 32.9948 35.3503 33.1345L32.4832 31.16L35.2933 24.2474ZM38.9162 19.3437C39.648 19.245 40.4171 19.5069 41.2034 20.1168C41.3075 21.048 41.5702 23.6701 41.6602 27.1022C41.7626 30.9776 41.6454 35.8864 40.8309 40.5709C40.821 40.6311 40.8103 40.6914 40.7995 40.7508C40.1131 40.7382 39.5109 40.7558 39.0137 40.7842C38.0976 40.8378 37.5318 40.929 37.4376 40.9449C37.1039 41.0026 36.8553 41.2411 36.7405 41.5397C36.6818 41.6929 36.6479 41.8552 36.6769 42.0284C36.7603 42.5412 37.2394 42.8935 37.7457 42.8014C37.8415 42.7864 47.4655 41.2653 55.4812 48.1335C55.6546 48.2833 55.8686 48.3561 56.08 48.3561C56.1155 48.3561 56.1486 48.3369 56.1841 48.3335C56.4113 48.3067 56.6318 48.213 56.7904 48.0223C57.1216 47.6257 57.0729 47.0317 56.6814 46.6961C56.5475 46.5815 56.4121 46.4753 56.2774 46.3648C55.7133 45.9005 55.1433 45.4746 54.5717 45.0822C54.6262 44.8797 54.6816 44.6773 54.7328 44.4723C56.4038 37.8559 56.403 30.0631 56.2072 25.5158C56.1486 24.142 56.0718 23.0694 56.0181 22.4109C56.4005 22.3105 56.778 22.3122 57.1596 22.4344C58.3904 22.8293 59.4527 24.2909 59.9301 25.11C59.9739 25.1845 60.0044 25.2431 60.0383 25.3058C61.6168 35.0371 61.2005 48.8656 54.8451 56.0543C51.8335 59.4596 47.7108 61.0358 42.5903 60.7497C27.1595 59.8771 19.1454 44.4907 19.1909 29.7209C19.1967 29.6866 19.2074 29.6306 19.2247 29.5494C19.2652 29.3553 19.3429 29.0566 19.4792 28.7102C19.6857 28.189 20.021 27.5891 20.5703 27.1858C20.9825 26.8829 21.4756 26.7382 22.0448 26.7223C22.1753 26.719 22.3099 26.7206 22.4503 26.7323C22.7205 27.559 22.9906 28.3496 23.259 29.1093C24.7574 33.3446 26.2302 36.5356 27.6939 38.7059C27.7666 38.813 27.8393 38.9251 27.9112 39.0281C28.8396 40.3416 29.7639 41.2411 30.689 41.7397C31.2623 42.0493 31.8356 42.2158 32.4096 42.2158C32.5864 42.2158 32.764 42.199 32.9408 42.1698C32.949 42.1681 32.9581 42.1689 32.9672 42.1672C33.2613 42.1162 33.538 42.025 33.7982 41.8995C33.8089 41.8937 33.8213 41.8903 33.8329 41.8853C33.9237 41.8401 34.0088 41.7841 34.0956 41.7305C34.1377 41.7046 34.1823 41.6828 34.2236 41.6552C34.2698 41.6234 34.3128 41.5849 34.3566 41.5506C34.5573 41.3983 34.7481 41.2293 34.924 41.031C35.0736 40.862 35.2123 40.6704 35.347 40.4705C35.6947 39.9484 35.9921 39.3276 36.2399 38.6156C36.3266 38.3637 36.4067 38.0968 36.4827 37.8233C36.5843 37.4568 36.6777 37.0753 36.7603 36.6745C36.8974 36.0085 37.0048 35.2957 37.0915 34.5485C37.0956 34.5125 37.1006 34.4774 37.1039 34.4414C37.1783 33.7805 37.2319 33.091 37.2716 32.3832C37.2832 32.1632 37.2947 31.9415 37.3038 31.7181C37.3344 30.9567 37.3492 30.1761 37.3476 29.3804C37.3476 29.3704 37.3484 29.3595 37.3476 29.3486C37.3468 28.7638 37.3377 28.1723 37.3212 27.5757C37.2567 25.2523 37.0849 22.8619 36.8619 20.5753C37.1956 20.1921 37.9382 19.4717 38.9162 19.3437ZM45.4277 19.2207C46.1389 19.2701 46.8088 19.6424 47.4192 20.3293C47.4911 21.0974 47.6811 23.358 47.7695 26.4361C47.8835 30.4354 47.8223 35.8161 47.1012 41.1155C47.0789 41.2854 47.0558 41.4552 47.0318 41.6242C45.4533 41.2034 43.9731 40.9691 42.6704 40.8512C42.687 40.7524 42.7027 40.6537 42.7184 40.5541C43.5246 35.7324 43.6361 30.7868 43.5262 26.8988C43.4337 23.6182 43.1859 21.0974 43.0661 20.039C43.5402 19.6959 44.4439 19.1563 45.4277 19.2207ZM54.1281 22.1231C54.1727 22.631 54.2743 23.9262 54.3462 25.7183C54.5189 30.0238 54.5131 37.21 53.0948 43.3394C53.0395 43.5771 52.9816 43.8122 52.9222 44.0464C51.5394 43.2533 50.1608 42.6442 48.8276 42.1781C48.8573 41.9773 48.8862 41.7774 48.9143 41.5757C49.6858 36.0303 49.7436 30.3836 49.6214 26.2337C49.5413 23.5555 49.3876 21.5057 49.3009 20.5109C50.2814 20.1218 52.4042 19.6801 54.1281 22.1231ZM61.8489 24.8449C61.8407 24.7972 61.8142 24.7595 61.7994 24.7143C61.7845 24.6683 61.7837 24.6215 61.7622 24.5771C61.6986 24.4491 60.1763 21.4312 57.7271 20.6423C56.9283 20.3837 56.1304 20.3854 55.3449 20.6397C53.127 17.8545 50.25 18.0753 48.5302 18.789C47.6447 17.903 46.6419 17.4135 45.5367 17.3416C44.0664 17.2496 42.8043 17.9365 42.0823 18.441C40.9722 17.6528 39.8323 17.324 38.6767 17.4763C36.9949 17.6972 35.8335 18.8852 35.3668 19.45C31.1524 20.4532 26.9769 22.2813 22.9443 24.8884C21.5946 24.7018 20.4249 24.962 19.4659 25.6715C17.6594 27.0076 17.3505 29.439 17.3389 29.5419C17.3365 29.5612 17.3439 29.5779 17.3431 29.5963C17.3414 29.6147 17.3315 29.6314 17.3315 29.6499C17.2588 45.3282 25.8767 61.6893 42.4871 62.6289C42.9232 62.654 43.3544 62.6666 43.7781 62.6666C48.8995 62.6657 53.0832 60.8677 56.2295 57.3102C63.0574 49.5894 63.5241 34.9953 61.8489 24.8449Z" fill="white"/>
</svg>
