<svg width="80" height="80" viewBox="0 0 80 80" fill="none" xmlns="http://www.w3.org/2000/svg">
<path d="M19.8411 58.4873C15.2148 58.4873 12.8906 56.2073 12.8906 51.6253V24.5979C12.8906 20.0159 15.2148 17.736 19.8411 17.736H50.0781C54.7044 17.736 57.0065 20.038 57.0065 24.5979V37.2373C56.431 37.1709 55.8333 37.1266 55.2578 37.1266C54.6602 37.1266 54.0846 37.1709 53.4427 37.2373V30.9508C53.4427 28.9143 52.3359 27.8518 50.3659 27.8518H19.5091C17.5391 27.8518 16.4544 28.9143 16.4544 30.9508V51.8245C16.4544 53.8831 17.5391 54.9235 19.5091 54.9235H41.4453C41.7552 56.1852 42.2422 57.3805 42.8841 58.4873H19.8411ZM30.6211 35.7985C29.8464 35.7985 29.5807 35.5771 29.5807 34.8024V33.4964C29.5807 32.7216 29.8464 32.4781 30.6211 32.4781H31.9271C32.7018 32.4781 32.9674 32.7216 32.9674 33.4964V34.8024C32.9674 35.5771 32.7018 35.7985 31.9271 35.7985H30.6211ZM37.9922 35.7985C37.1953 35.7985 36.9518 35.5771 36.9518 34.8024V33.4964C36.9518 32.7216 37.1953 32.4781 37.9922 32.4781H39.276C40.0508 32.4781 40.3164 32.7216 40.3164 33.4964V34.8024C40.3164 35.5771 40.0508 35.7985 39.276 35.7985H37.9922ZM45.3411 35.7985C44.5664 35.7985 44.3008 35.5771 44.3008 34.8024V33.4964C44.3008 32.7216 44.5664 32.4781 45.3411 32.4781H46.6471C47.4219 32.4781 47.6654 32.7216 47.6654 33.4964V34.8024C47.6654 35.5771 47.4219 35.7985 46.6471 35.7985H45.3411ZM23.2721 43.0367C22.4974 43.0367 22.2318 42.8154 22.2318 42.0407V40.7347C22.2318 39.9599 22.4974 39.7386 23.2721 39.7386H24.5781C25.3529 39.7386 25.5964 39.9599 25.5964 40.7347V42.0407C25.5964 42.8154 25.3529 43.0367 24.5781 43.0367H23.2721ZM30.6211 43.0367C29.8464 43.0367 29.5807 42.8154 29.5807 42.0407V40.7347C29.5807 39.9599 29.8464 39.7386 30.6211 39.7386H31.9271C32.7018 39.7386 32.9674 39.9599 32.9674 40.7347V42.0407C32.9674 42.8154 32.7018 43.0367 31.9271 43.0367H30.6211ZM37.9922 43.0367C37.1953 43.0367 36.9518 42.8154 36.9518 42.0407V40.7347C36.9518 39.9599 37.1953 39.7386 37.9922 39.7386H39.276C40.0508 39.7386 40.3164 39.9599 40.3164 40.7347V42.0407C40.3164 42.8154 40.0508 43.0367 39.276 43.0367H37.9922ZM55.2578 62.6487C49.082 62.6487 44.013 57.6018 44.013 51.4039C44.013 45.2503 49.082 40.1591 55.2578 40.1591C61.4115 40.1591 66.5026 45.2282 66.5026 51.4039C66.5026 57.5576 61.3451 62.6487 55.2578 62.6487ZM55.2578 53.3076C56.0326 53.3076 56.5638 52.7763 56.5859 52.0237L56.7852 45.693C56.8073 44.7854 56.1875 44.1657 55.2578 44.1657C54.3281 44.1657 53.7083 44.7854 53.7305 45.693L53.9076 52.0237C53.9297 52.7763 54.4831 53.3076 55.2578 53.3076ZM23.2721 50.2972C22.4974 50.2972 22.2318 50.0537 22.2318 49.2789V47.9729C22.2318 47.1982 22.4974 46.9768 23.2721 46.9768H24.5781C25.3529 46.9768 25.5964 47.1982 25.5964 47.9729V49.2789C25.5964 50.0537 25.3529 50.2972 24.5781 50.2972H23.2721ZM30.6211 50.2972C29.8464 50.2972 29.5807 50.0537 29.5807 49.2789V47.9729C29.5807 47.1982 29.8464 46.9768 30.6211 46.9768H31.9271C32.7018 46.9768 32.9674 47.1982 32.9674 47.9729V49.2789C32.9674 50.0537 32.7018 50.2972 31.9271 50.2972H30.6211ZM37.9922 50.2972C37.1953 50.2972 36.9518 50.0537 36.9518 49.2789V47.9729C36.9518 47.1982 37.1953 46.9768 37.9922 46.9768H39.276C40.0508 46.9768 40.3164 47.1982 40.3164 47.9729V49.2789C40.3164 50.0537 40.0508 50.2972 39.276 50.2972H37.9922ZM55.2578 58.5758C56.276 58.5758 57.1172 57.7568 57.1172 56.7164C57.1172 55.6982 56.2982 54.8349 55.2578 54.8349C54.2396 54.8349 53.3763 55.6982 53.3763 56.7164C53.3763 57.7568 54.2396 58.5758 55.2578 58.5758Z" fill="white"/>
</svg>
