<svg width="80" height="80" viewBox="0 0 80 80" fill="none" xmlns="http://www.w3.org/2000/svg">
<path d="M54.8883 62.6145L11.1487 18.9192C10.5068 18.2773 10.5068 17.1484 11.1487 16.5065C11.8127 15.8203 12.9195 15.8424 13.5836 16.5065L57.301 60.2018C57.9651 60.8658 57.9429 61.9283 57.301 62.6145C56.6591 63.2786 55.5523 63.2786 54.8883 62.6145ZM45.7463 21.2877C51.1474 21.2877 54.3791 24.431 54.3791 29.8099V32.8645L62.7463 25.7812C63.6318 25.0507 64.6057 24.5416 65.5133 24.5416C67.4612 24.5416 68.745 25.9804 68.745 28.039V50.927C68.745 52.9856 67.4612 54.4244 65.5133 54.4244C64.6057 54.4244 63.6318 53.9153 62.7463 53.1849L54.3791 46.1015V49.4218C54.3791 50.6393 54.1357 51.8789 53.7151 52.875L50.6161 49.776C50.7489 49.3554 50.8153 48.9791 50.8153 48.4479V30.3411C50.8153 26.4895 48.7346 24.608 45.1265 24.608H25.4482L22.1278 21.2877H45.7463ZM22.6148 57.6783C17.2138 57.6783 13.982 54.5351 13.982 49.1341V25.6484L17.5458 29.2343V48.625C17.5458 52.4544 19.6044 54.3359 23.2346 54.3359H42.8245L46.1448 57.6783H22.6148ZM64.4065 50.1744C64.6057 50.3073 64.7385 50.4179 64.9377 50.4179C65.2034 50.4179 65.314 50.2187 65.314 49.9088V29.0573C65.314 28.7474 65.2034 28.526 64.9377 28.526C64.7385 28.526 64.6057 28.6367 64.4065 28.7916L54.3791 37.0703V41.8958L64.4065 50.1744Z" fill="white"/>
</svg>
