<svg width="80" height="80" viewBox="0 0 80 80" fill="none" xmlns="http://www.w3.org/2000/svg">
<path d="M31.417 30.25H49.583C50.2273 30.25 50.75 30.7727 50.75 31.417V49.583C50.75 50.2273 50.2273 50.75 49.583 50.75H31.417C30.7727 50.75 30.25 50.2273 30.25 49.583V31.417C30.25 30.7727 30.7727 30.25 31.417 30.25Z" stroke="white" stroke-width="2.5"/>
<path d="M11.417 30.25H23.583C24.2273 30.25 24.75 30.7727 24.75 31.417V36.583C24.75 37.2273 24.2273 37.75 23.583 37.75H11.417C10.7727 37.75 10.25 37.2273 10.25 36.583V31.417C10.25 30.7727 10.7727 30.25 11.417 30.25Z" stroke="white" stroke-width="2.5"/>
<path d="M11.417 43.25H23.583C24.2273 43.25 24.75 43.7727 24.75 44.417V49.583C24.75 50.2273 24.2273 50.75 23.583 50.75H11.417C10.7727 50.75 10.25 50.2273 10.25 49.583V44.417C10.25 43.7727 10.7727 43.25 11.417 43.25Z" stroke="white" stroke-width="2.5"/>
<path d="M57.417 30.25H69.583C70.2273 30.25 70.75 30.7727 70.75 31.417V36.583C70.75 37.2273 70.2273 37.75 69.583 37.75H57.417C56.7727 37.75 56.25 37.2273 56.25 36.583V31.417C56.25 30.7727 56.7727 30.25 57.417 30.25Z" stroke="white" stroke-width="2.5"/>
<path d="M57.417 43.25H69.583C70.2273 43.25 70.75 43.7727 70.75 44.417V49.583C70.75 50.2273 70.2273 50.75 69.583 50.75H57.417C56.7727 50.75 56.25 50.2273 56.25 49.583V44.417C56.25 43.7727 56.7727 43.25 57.417 43.25Z" stroke="white" stroke-width="2.5"/>
</svg>
