<svg width="80" height="80" viewBox="0 0 80 80" fill="none" xmlns="http://www.w3.org/2000/svg">
<path fill-rule="evenodd" clip-rule="evenodd" d="M61.4591 33.5384V31.0769H56.9814H52.4919L58.9155 24.6533L65.3274 18.242L63.5456 16.4484L61.7521 14.6666L55.3402 21.0785L48.9166 27.5016V23.0121V18.5344H46.4551H43.9941V27.2672V36H52.7263H61.4591V33.5384Z" fill="white"/>
<path fill-rule="evenodd" clip-rule="evenodd" d="M24.6017 58.9095L31.049 52.4978V56.9871V61.4647H33.5242H35.9993V52.7327V44.0001H27.2188H18.4378V46.4616V48.923H22.9402H27.4545L21.0543 55.2879C17.5422 58.7806 14.6659 61.6996 14.6659 61.7582C14.6659 61.8285 15.4437 62.6605 16.4105 63.6103L18.1432 65.3335L24.6017 58.9095Z" fill="white"/>
</svg>
