<svg width="80" height="80" viewBox="0 0 80 80" fill="none" xmlns="http://www.w3.org/2000/svg">
<path d="M25.855 57.0161C24.1063 57.0161 22.6675 55.6879 22.6675 53.2088V26.0265C22.6675 23.5473 24.1063 22.2192 25.855 22.2192C26.7625 22.2192 27.493 22.5069 28.4006 23.0382L50.9565 36.3194C52.1519 37.0278 52.838 37.8468 53.0815 38.7543V23.1931C53.0815 22.1528 53.9448 21.3338 54.9852 21.3338C56.0255 21.3338 56.8667 22.1528 56.8667 23.1931V56.0642C56.8667 57.1046 56.0255 57.9015 54.9852 57.9015C53.9448 57.9015 53.0815 57.1046 53.0815 56.0642V40.4809C52.838 41.3885 52.1519 42.2075 50.9565 42.9158L28.4006 56.197C27.493 56.7283 26.7625 57.0161 25.855 57.0161ZM26.8289 52.921C26.9618 52.921 27.1388 52.8546 27.3602 52.7218L48.411 40.2374C48.6987 40.0603 48.8758 39.9054 48.8758 39.6176C48.8758 39.3077 48.7209 39.1749 48.411 38.9978L27.3602 26.5135C27.1388 26.3806 26.9618 26.3142 26.8289 26.3142C26.4969 26.3142 26.2091 26.5356 26.2091 26.9783V52.2569C26.2091 52.6997 26.4969 52.921 26.8289 52.921Z" fill="white"/>
</svg>
