<svg width="80" height="80" viewBox="0 0 80 80" fill="none" xmlns="http://www.w3.org/2000/svg">
<path d="M51.1161 29.0684V24.9398L59.7818 22.1249C60.0551 22.044 60.2964 21.8838 60.4734 21.6658C60.6503 21.4477 60.7543 21.1823 60.7715 20.9051C60.7935 20.6241 60.7267 20.3433 60.58 20.1001C60.4334 19.857 60.2138 19.6632 59.9508 19.5446L50.2954 14.8531C50.0834 14.7313 49.8417 14.6671 49.5954 14.6671C49.3491 14.6671 49.1074 14.7313 48.8954 14.8531C48.6876 14.9804 48.5165 15.157 48.3983 15.3663C48.28 15.5756 48.2185 15.8107 48.2195 16.0494V28.6696C45.4945 28.3729 42.7546 28.2241 40.0125 28.2239C34.8019 28.1711 29.6047 28.7463 24.5398 29.9363V24.9398L33.2055 22.1249C33.4788 22.044 33.7201 21.8838 33.8971 21.6658C34.074 21.4477 34.178 21.1823 34.1952 20.9051C34.2192 20.6267 34.156 20.3477 34.0138 20.1049C33.8716 19.8621 33.6572 19.6667 33.3986 19.5446L23.7433 14.8531C23.5312 14.7313 23.2895 14.6671 23.0432 14.6671C22.797 14.6671 22.5552 14.7313 22.3432 14.8531C22.1354 14.9804 21.9643 15.157 21.8461 15.3663C21.7279 15.5756 21.6663 15.8107 21.6674 16.0494V30.8511C17.3225 32.3055 14.6672 34.3228 14.6672 36.5044V57.6162C14.6672 61.1818 21.7156 64.2312 31.5641 65.3337V62.425C22.6329 61.346 17.6845 58.7656 17.5638 57.5458V50.7901C18.5355 51.3755 19.5619 51.8703 20.6294 52.2679C22.1981 52.8716 23.812 53.3579 25.4571 53.7223C27.4455 54.1725 29.461 54.5015 31.4917 54.7075V51.9629C29.4602 51.718 27.4452 51.3577 25.4571 50.8839C20.4122 49.6172 17.6363 47.9048 17.5638 46.9899V40.2342C18.5355 40.8196 19.5619 41.3144 20.6294 41.712C22.1981 42.3157 23.812 42.802 25.4571 43.1663C30.2115 44.1905 35.0704 44.6863 39.9401 44.6442C44.8096 44.6823 49.6679 44.1865 54.4231 43.1663C56.0698 42.8079 57.6842 42.3216 59.2507 41.712C60.3779 41.3276 61.4617 40.8325 62.4853 40.2342V46.9899C62.3646 47.9048 59.5887 49.5703 54.5196 50.8135C52.531 51.2852 50.5162 51.6454 48.485 51.8926V54.7075C50.5146 54.4937 52.5296 54.1648 54.5196 53.7223C56.1663 53.3638 57.7807 52.8775 59.3473 52.2679C60.4246 51.8749 61.4594 51.3799 62.437 50.7901V57.5458C62.2922 58.7656 57.3438 61.3694 48.4368 62.425V65.2634C58.2852 64.1609 65.3336 61.1114 65.3336 57.5458V36.434C65.3819 33.1969 59.5645 30.382 51.1161 29.0684ZM51.1161 18.3717L55.5576 20.5298L51.1161 21.9607V18.3717ZM24.564 18.3717L29.0054 20.5298L24.564 21.9607V18.3717ZM57.9231 39.2489C56.8086 39.6458 55.6724 39.9826 54.5196 40.2576C51.1069 41.061 47.6234 41.548 44.116 41.712C42.7884 41.712 41.4367 41.712 40.0366 41.712C38.6366 41.712 37.2366 41.712 35.9572 41.712C32.4484 41.5475 28.9642 41.0526 25.5536 40.2342C24.3755 39.9651 23.2148 39.6282 22.0777 39.2255C19.2052 38.1933 17.6363 37.0908 17.5638 36.4106C17.7087 34.8389 25.795 31.0153 40.0366 31.0153C54.2782 31.0153 62.2922 34.8389 62.4853 36.4106C62.3646 37.1143 60.8439 38.2168 57.9231 39.2489Z" fill="white"/>
</svg>
