<svg width="80" height="80" viewBox="0 0 80 80" fill="none" xmlns="http://www.w3.org/2000/svg">
<path d="M17.332 41.5369C17.332 34.0994 21.0951 27.4146 26.7839 23.2752C27.7578 22.5226 28.9753 22.7661 29.5286 23.6737C30.082 24.6034 29.7943 25.6437 28.8867 26.3299C24.1719 29.6945 21.1172 35.2505 21.0951 41.5369C21.0729 51.9849 29.4622 60.3521 39.9102 60.3521C50.3581 60.3521 58.7031 51.9849 58.7031 41.5369C58.7031 32.5721 52.5495 25.1346 44.1823 23.231V26.3742C44.1823 27.9679 43.0977 28.3885 41.8802 27.5031L34.8411 22.5448C33.8008 21.8143 33.8229 20.7518 34.8411 20.0435L41.9023 15.1073C43.0977 14.244 44.1823 14.6646 44.1823 16.2362V19.3794C54.5417 21.4159 62.4883 30.6463 62.4883 41.5369C62.4883 53.8885 52.2617 64.1151 39.9102 64.1151C27.5807 64.1151 17.332 53.8885 17.332 41.5369ZM47.4805 50.7674C43.1419 50.7674 41.5924 46.3403 41.5924 41.9354C41.5924 37.5968 43.1198 33.1255 47.4805 33.1255C51.8411 33.1255 53.3685 37.5747 53.3685 41.9354C53.3685 46.2961 51.8411 50.7674 47.4805 50.7674ZM32.8047 50.7674C31.1888 50.7674 29.7279 50.1255 28.8203 49.0409C28.2891 48.5096 27.8685 47.757 27.8685 47.0929C27.8685 46.3846 28.3112 45.8091 29.1523 45.8091C29.8385 45.8091 30.2148 46.119 30.5469 46.7388C31.0781 47.6906 31.7643 48.2882 32.9154 48.2882C35.5052 48.2882 36.0365 44.5695 36.0143 41.8468C36.0143 41.7804 36.0143 41.6919 36.0143 41.6476H35.9922C35.5052 43.3078 34.0885 44.5695 32.0521 44.5695C29.1302 44.5695 27.3372 42.0461 27.3372 39.0578C27.3372 35.6268 29.6172 33.1255 32.8932 33.1255C37.2096 33.1255 38.9362 37.3312 38.9362 41.7583C38.9362 46.2518 37.4753 50.7674 32.8047 50.7674ZM32.9154 42.2231C34.5755 42.2231 35.6159 40.7401 35.6159 39.0135C35.6159 37.2869 34.6198 35.6268 32.9596 35.6268C31.2552 35.6268 30.3255 37.2648 30.3255 38.9471C30.3255 40.6294 31.2331 42.2231 32.9154 42.2231ZM47.4805 48.2661C49.3398 48.2661 50.2695 45.5435 50.2695 41.9354C50.2695 38.3494 49.3177 35.6489 47.4805 35.6489C45.6432 35.6489 44.6914 38.3494 44.6914 41.9354C44.6914 45.5435 45.6432 48.2661 47.4805 48.2661Z" fill="white"/>
</svg>
