<svg width="80" height="80" viewBox="0 0 80 80" fill="none" xmlns="http://www.w3.org/2000/svg">
<path d="M51.9106 30.1621L41.1604 22.9925C40.5079 22.558 39.662 22.558 39.0114 22.9925L28.2611 30.1621C27.099 30.9362 27.0917 32.656 28.2485 33.4411L38.9987 40.7403C39.6566 41.1876 40.5169 41.1876 41.1748 40.7403L51.9251 33.4411C53.08 32.656 53.071 30.9362 51.9106 30.1621Z" fill="white"/>
<path d="M33.8565 42.4196L23.1062 35.25C22.4538 34.8154 21.6097 34.8154 20.9572 35.25L10.207 42.4196C9.04483 43.1937 9.0376 44.9135 10.1943 45.6986L20.9446 52.9978C21.6025 53.4451 22.4628 53.4451 23.1207 52.9978L33.871 45.6986C35.0259 44.9135 35.0168 43.1937 33.8565 42.4196Z" fill="white"/>
<path d="M69.7889 42.4196L59.0386 35.25C58.3862 34.8154 57.5403 34.8154 56.8897 35.25L46.1394 42.4196C44.9772 43.1937 44.97 44.9135 46.1267 45.6986L56.877 52.9978C57.5349 53.4451 58.3952 53.4451 59.0531 52.9978L69.8034 45.6986C70.9583 44.9135 70.9492 43.1937 69.7889 42.4196Z" fill="white"/>
</svg>
