<svg width="80" height="80" viewBox="0 0 80 80" fill="none" xmlns="http://www.w3.org/2000/svg">
<path d="M17.332 41.5297C17.332 30.639 25.2786 21.4086 35.638 19.3721V16.251C35.638 14.6573 36.7227 14.2367 37.9622 15.1221L45.0013 20.0805C46.0195 20.8109 45.9974 21.8734 45.0013 22.5596L37.9401 27.518C36.7227 28.3812 35.638 27.9607 35.638 26.389V23.2237C27.2708 25.1273 21.1172 32.5648 21.1172 41.5297C21.1172 51.9776 29.4622 60.3448 39.9102 60.3448C50.3581 60.3448 58.7474 51.9776 58.7253 41.5297C58.7031 35.2432 55.6484 29.6872 50.9336 26.3226C50.026 25.6364 49.7383 24.5961 50.2917 23.6664C50.8451 22.7588 52.0625 22.5153 53.0365 23.268C58.7253 27.4073 62.4883 34.0922 62.4883 41.5297C62.4883 53.8812 52.2617 64.1078 39.9102 64.1078C27.5807 64.1078 17.332 53.8812 17.332 41.5297ZM47.3698 50.7601C43.0312 50.7601 41.4818 46.3331 41.4818 41.9281C41.4818 37.5896 43.0091 33.1182 47.3698 33.1182C51.7305 33.1182 53.2578 37.5674 53.2578 41.9281C53.2578 46.2888 51.7305 50.7601 47.3698 50.7601ZM32.694 50.7601C31.0781 50.7601 29.6172 50.1182 28.7096 49.0336C28.1784 48.5023 27.7578 47.7497 27.7578 47.0857C27.7578 46.3773 28.2005 45.8018 29.0417 45.8018C29.7279 45.8018 30.1042 46.1117 30.4362 46.7315C30.9674 47.6833 31.6536 48.281 32.8047 48.281C35.3945 48.281 35.9258 44.5622 35.9036 41.8396C35.9036 41.7732 35.9036 41.6846 35.9036 41.6403H35.8815C35.3945 43.3005 33.9779 44.5622 31.9414 44.5622C29.0195 44.5622 27.2266 42.0388 27.2266 39.0505C27.2266 35.6195 29.5065 33.1182 32.7826 33.1182C37.099 33.1182 38.8255 37.3239 38.8255 41.751C38.8255 46.2445 37.3646 50.7601 32.694 50.7601ZM32.8047 42.2159C34.4648 42.2159 35.5052 40.7328 35.5052 39.0062C35.5052 37.2797 34.5091 35.6195 32.849 35.6195C31.1445 35.6195 30.2148 37.2575 30.2148 38.9398C30.2148 40.6221 31.1224 42.2159 32.8047 42.2159ZM47.3698 48.2588C49.2292 48.2588 50.1589 45.5362 50.1589 41.9281C50.1589 38.3422 49.207 35.6416 47.3698 35.6416C45.5326 35.6416 44.5807 38.3422 44.5807 41.9281C44.5807 45.5362 45.5326 48.2588 47.3698 48.2588Z" fill="white"/>
</svg>
