<svg width="80" height="80" viewBox="0 0 80 80" fill="none" xmlns="http://www.w3.org/2000/svg">
<path d="M61.4456 61.1199C60.6045 60.5443 60.4938 59.504 61.0915 58.5964C64.5225 53.5496 66.6917 47.1303 66.6917 40.047C66.6917 32.9415 64.5225 26.5665 61.0915 21.4975C60.4938 20.5899 60.6045 19.5496 61.4456 18.974C62.1982 18.4207 63.2829 18.6199 63.8805 19.5274C67.6878 25.1498 70.0784 32.211 70.0784 40.047C70.0784 47.8608 67.7542 54.9662 63.8805 60.5665C63.2829 61.4519 62.1982 61.6732 61.4456 61.1199ZM15.1605 49.0561C12.1722 49.0561 10.667 47.5509 10.667 44.3412V35.8634C10.667 32.6537 12.1501 31.1264 15.1605 31.1264H21.5133C21.7126 31.1264 21.8896 31.06 22.0446 30.9272L32.0277 22.073C33.1787 21.0326 33.8649 20.5457 34.9274 20.5457C36.3883 20.5457 37.473 21.7188 37.473 23.1576V57.1134C37.473 58.5522 36.3883 59.5925 34.9717 59.5925C33.9092 59.5925 33.0902 59.1498 32.0277 58.198L22.0446 49.2553C21.8896 49.1225 21.7126 49.0561 21.5133 49.0561H15.1605ZM53.1449 55.254C52.3258 54.7006 52.2152 53.6602 52.835 52.7527C55.2034 49.2996 56.6422 44.7618 56.6422 40.047C56.6422 35.3321 55.2477 30.7501 52.835 27.3412C52.193 26.4337 52.3258 25.3933 53.1449 24.8399C53.9639 24.2865 54.9821 24.4858 55.5797 25.3269C58.4352 29.1785 60.0732 34.5795 60.0732 40.047C60.0732 45.5144 58.4131 50.8712 55.5797 54.767C54.9821 55.6081 53.9639 55.8074 53.1449 55.254ZM15.3154 45.8243H22.3988C22.9743 45.8243 23.417 45.9571 23.9261 46.3998L33.3558 54.9219C33.4886 55.0326 33.6214 55.099 33.7321 55.099C33.887 55.099 34.0199 54.9662 34.0199 54.767V25.349C34.0199 25.1498 33.887 25.0391 33.7321 25.0391C33.5771 25.0391 33.4665 25.1055 33.3558 25.2162L23.9261 33.7826C23.417 34.2475 22.9743 34.3582 22.3988 34.3582H15.3154C14.4964 34.3582 14.1201 34.7345 14.1201 35.5756V44.629C14.1201 45.448 14.4964 45.8243 15.3154 45.8243ZM44.9548 49.4766C44.0472 48.8347 43.9365 47.7722 44.6006 46.8425C45.8623 45.0496 46.6149 42.6147 46.6149 40.047C46.6149 37.4792 45.8844 35.0222 44.6006 33.2514C43.9144 32.3438 44.0472 31.2371 44.9548 30.6173C45.6852 30.086 46.7256 30.2631 47.3232 31.1264C49.0277 33.3842 50.0459 36.6602 50.0459 40.047C50.0459 43.4337 49.0277 46.7318 47.3232 48.9675C46.7256 49.8308 45.6852 49.9858 44.9548 49.4766Z" fill="white"/>
</svg>
