<svg width="80" height="80" viewBox="0 0 80 80" fill="none" xmlns="http://www.w3.org/2000/svg">
<path d="M21.9347 55.0524C19.8319 55.0524 18.5923 53.9899 18.5923 52.374C18.5923 50.1604 20.828 48.1683 22.7537 46.1982C24.2147 44.6709 24.6131 41.5276 24.7902 38.9821C24.9451 30.4821 27.203 24.6383 33.091 22.5133C33.91 19.6136 36.2121 17.3336 39.466 17.3336C42.742 17.3336 45.022 19.6136 45.8631 22.5133C51.7511 24.6383 54.0089 30.4821 54.1639 38.9821C54.341 41.5276 54.7394 44.6709 56.2004 46.1982C58.104 48.1683 60.3618 50.1604 60.3618 52.374C60.3618 53.9899 59.1001 55.0524 57.0194 55.0524H21.9347ZM70.4113 55.7607C69.703 54.9638 69.9243 53.9235 70.7212 53.0159C73.6873 49.7177 75.3475 45.3792 75.3475 40.6201C75.3475 35.861 73.6873 31.5224 70.7212 28.2242C69.9243 27.3167 69.703 26.2763 70.4113 25.4795C71.1196 24.6383 72.3592 24.6604 73.2004 25.5901C76.8748 29.5745 78.9556 34.887 78.9556 40.6201C78.9556 46.3531 76.8748 51.6435 73.2004 55.65C72.3592 56.5797 71.1196 56.5797 70.4113 55.7607ZM8.54281 55.7607C7.83447 56.5797 6.59489 56.5797 5.75374 55.65C2.07926 51.6435 -0.00146484 46.3531 -0.00146484 40.6201C-0.00146484 34.887 2.07926 29.5745 5.75374 25.5901C6.59489 24.6604 7.83447 24.6383 8.54281 25.4795C9.25114 26.2763 9.02978 27.3167 8.23291 28.2242C5.26676 31.5224 3.60661 35.861 3.60661 40.6201C3.60661 45.3792 5.26676 49.7177 8.23291 53.0159C9.02978 53.9235 9.25114 54.9638 8.54281 55.7607ZM14.7407 49.4521C14.0103 50.2711 12.6821 50.2933 11.9074 49.2972C9.98161 46.9065 8.87484 43.874 8.87484 40.6201C8.87484 37.3662 9.98161 34.3336 11.9074 31.943C12.6821 30.9469 14.0103 30.9469 14.7407 31.788C15.4491 32.5849 15.1613 33.581 14.453 34.5328C13.1248 36.1709 12.4829 38.318 12.4829 40.6201C12.4829 42.9222 13.1248 45.0472 14.453 46.7073C15.1613 47.6591 15.4491 48.6552 14.7407 49.4521ZM64.1912 49.4521C63.505 48.6552 63.7928 47.6591 64.5011 46.7073C65.8071 45.0472 66.4712 42.9222 66.4712 40.6201C66.4712 38.318 65.8071 36.1709 64.5011 34.5328C63.7928 33.581 63.505 32.5849 64.1912 31.788C64.9438 30.9469 66.2498 30.9469 67.0467 31.943C68.9725 34.3336 70.0793 37.3662 70.0793 40.6201C70.0793 43.874 68.9725 46.9065 67.0467 49.2972C66.2498 50.2933 64.9438 50.2711 64.1912 49.4521ZM39.466 63.9287C35.7251 63.9287 32.9803 61.1839 32.6925 58.0849H46.2616C45.9738 61.1839 43.229 63.9287 39.466 63.9287Z" fill="white"/>
</svg>
