<svg width="80" height="80" viewBox="0 0 80 80" fill="none" xmlns="http://www.w3.org/2000/svg">
<path d="M19.1605 48.5105C16.1722 48.5105 14.667 47.0053 14.667 43.7957V35.3178C14.667 32.1082 16.1501 30.5809 19.1605 30.5809H25.5133C25.7126 30.5809 25.8896 30.5144 26.0446 30.3816L36.0277 21.5275C37.1787 20.4871 37.8649 20.0001 38.9274 20.0001C40.3883 20.0001 41.473 21.1733 41.473 22.6121V56.5678C41.473 58.0066 40.3883 59.047 38.9717 59.047C37.9092 59.047 37.0902 58.6043 36.0277 57.6525L26.0446 48.7098C25.8896 48.5769 25.7126 48.5105 25.5133 48.5105H19.1605ZM57.1449 54.7085C56.3258 54.1551 56.2152 53.1147 56.835 52.2072C59.2034 48.754 60.6422 44.2163 60.6422 39.5014C60.6422 34.7866 59.2477 30.2045 56.835 26.7957C56.193 25.8881 56.3258 24.8478 57.1449 24.2944C57.9639 23.741 58.9821 23.9402 59.5797 24.7814C62.4352 28.6329 64.0732 34.034 64.0732 39.5014C64.0732 44.9689 62.4131 50.3256 59.5797 54.2215C58.9821 55.0626 57.9639 55.2618 57.1449 54.7085ZM19.3154 45.2788H26.3988C26.9743 45.2788 27.417 45.4116 27.9261 45.8543L37.3558 54.3764C37.4886 54.4871 37.6214 54.5535 37.7321 54.5535C37.887 54.5535 38.0199 54.4207 38.0199 54.2215V24.8035C38.0199 24.6043 37.887 24.4936 37.7321 24.4936C37.5771 24.4936 37.4665 24.56 37.3558 24.6707L27.9261 33.2371C27.417 33.7019 26.9743 33.8126 26.3988 33.8126H19.3154C18.4964 33.8126 18.1201 34.1889 18.1201 35.0301V44.0835C18.1201 44.9025 18.4964 45.2788 19.3154 45.2788ZM48.9548 48.9311C48.0472 48.2892 47.9365 47.2267 48.6006 46.297C49.8623 44.504 50.6149 42.0691 50.6149 39.5014C50.6149 36.9337 49.8844 34.4767 48.6006 32.7059C47.9144 31.7983 48.0472 30.6915 48.9548 30.0717C49.6852 29.5405 50.7256 29.7176 51.3232 30.5809C53.0277 32.8387 54.0459 36.1147 54.0459 39.5014C54.0459 42.8881 53.0277 46.1863 51.3232 48.422C50.7256 49.2853 49.6852 49.4402 48.9548 48.9311Z" fill="white"/>
</svg>
