<svg width="80" height="80" viewBox="0 0 80 80" fill="none" xmlns="http://www.w3.org/2000/svg">
<path d="M23.3515 46.9677L39.1797 30.7713C39.5478 30.3828 40.0386 30.1578 40.5703 30.1578C41.0815 30.1578 41.5928 30.3828 41.9404 30.7713L57.7686 46.9677C58.1163 47.2949 58.3208 47.7652 58.3208 48.2969C58.3208 49.3603 57.5232 50.1578 56.4599 50.1578C55.9486 50.1578 55.4578 49.9738 55.1306 49.6261L40.5703 34.7386L25.9895 49.6261C25.6828 49.9738 25.192 50.1578 24.6603 50.1578C23.5969 50.1578 22.7993 49.3603 22.7993 48.2969C22.7993 47.7652 23.0038 47.2949 23.3515 46.9677Z" fill="white"/>
</svg>
