<svg width="80" height="80" viewBox="0 0 80 80" fill="none" xmlns="http://www.w3.org/2000/svg">
<path d="M35.8612 59.047C34.8209 59.047 33.9576 58.6264 32.9615 57.6525L23.5097 48.7098C23.3769 48.5769 23.1777 48.5105 22.9563 48.5105H16.6256C13.6152 48.5105 11.9993 46.8725 11.9993 43.6629V35.4285C11.9993 32.241 13.6152 30.5809 16.6256 30.5809H22.9563C23.1777 30.5809 23.3769 30.5144 23.5097 30.3816L32.9615 21.5275C34.0683 20.4428 34.7766 20.0001 35.817 20.0001C37.3222 20.0001 38.3625 21.1733 38.3625 22.6121V56.5678C38.3625 58.0066 37.3222 59.047 35.8612 59.047ZM47.3053 41.3608C46.0657 41.3608 45.1803 40.6967 45.1803 39.5236C45.1803 38.3282 46.0214 37.642 47.3053 37.642H64.6594C65.9654 37.642 66.7623 38.3282 66.7623 39.5236C66.7623 40.6967 65.899 41.3608 64.6594 41.3608H47.3053Z" fill="white"/>
</svg>
