<svg width="80" height="80" viewBox="0 0 80 80" fill="none" xmlns="http://www.w3.org/2000/svg">
<path d="M22.3086 27.6057C23.293 27.6058 24.2156 28.0653 25.0225 28.8596L25.0264 28.8626L32.4854 36.3001L32.4863 36.3011C33.4688 37.2836 33.5694 38.787 32.5361 39.804L32.5371 39.805C32.5349 39.8073 32.5315 39.8085 32.5293 39.8108C32.527 39.8131 32.5257 39.8164 32.5234 39.8186L32.5225 39.8177C32.0225 40.3251 31.3951 40.5726 30.751 40.5491C30.1106 40.5257 29.5052 40.2383 29.0273 39.7747L29.0225 39.7698L26.8975 37.6673L26.8887 37.6585L26.8799 37.6487L24.7354 35.3596V53.7122C24.7354 54.7477 25.0117 55.4222 25.4336 55.8401C25.8566 56.2591 26.5272 56.5208 27.5215 56.5208H45.4736C46.2109 56.5209 46.8801 56.7096 47.373 57.1614C47.8731 57.6198 48.0958 58.2613 48.1094 58.968C48.1234 59.6855 47.8943 60.3302 47.3838 60.7864C46.8863 61.2309 46.2091 61.4182 45.4736 61.4182H27.4551C25.0519 61.4182 23.1171 60.8227 21.7861 59.5139C20.4532 58.2032 19.8379 56.2876 19.8379 53.8899V35.3968L17.7139 37.6507L17.7051 37.6585L17.6973 37.6673L15.5723 39.7698L15.5674 39.7747C15.0918 40.2362 14.4926 40.5255 13.8525 40.5491C13.2032 40.573 12.5732 40.3204 12.0645 39.8118C11.058 38.8053 11.111 37.2968 12.1309 36.3001L19.5908 28.8626L19.5938 28.8596C20.4008 28.065 21.324 27.6057 22.3086 27.6057ZM51.3613 19.3333C53.7748 19.3333 55.7103 19.9288 57.0391 21.2386C58.3696 22.5501 58.9785 24.4664 58.9785 26.8626V45.347L61.1016 43.0813L61.1113 43.0706L61.1211 43.0608L63.2461 40.9798C63.7257 40.5023 64.3327 40.2151 64.9727 40.1917C65.54 40.171 66.0938 40.3598 66.5586 40.7425L66.752 40.9182L66.7588 40.9251C67.7518 41.9482 67.7079 43.4496 66.6836 44.4505L66.6846 44.4514L59.2471 51.8665L59.2441 51.8694C58.4295 52.6717 57.507 53.1409 56.5186 53.1409C55.5302 53.1408 54.6075 52.6716 53.793 51.8694L53.791 51.8675L46.3311 44.4524L46.3301 44.4505C45.3389 43.4593 45.2513 41.9523 46.2852 40.9182L46.292 40.9114L46.4893 40.7376C46.9606 40.3592 47.5132 40.1762 48.0781 40.2005C48.6355 40.2245 49.1626 40.448 49.6045 40.8128L49.7891 40.9778L49.791 40.9798L51.916 43.0608L51.9375 43.0823L54.0811 45.3841V27.0393C54.0811 26.0006 53.8074 25.3263 53.3906 24.9095C52.9737 24.4928 52.311 24.2308 51.3174 24.2307H33.3428C32.5998 24.2307 31.9311 24.0342 31.4404 23.5804C30.9443 23.1215 30.7198 22.4829 30.7061 21.7845C30.692 21.0668 30.922 20.4214 31.4326 19.9651C31.9301 19.5207 32.6072 19.3333 33.3428 19.3333H51.3613Z" fill="white" stroke="white" stroke-width="1.33333"/>
</svg>
