<svg width="80" height="80" viewBox="0 0 80 80" fill="none" xmlns="http://www.w3.org/2000/svg">
<path d="M59.8071 61.6182L17.0858 18.919C16.4438 18.2771 16.4438 17.1482 17.0858 16.5063C17.772 15.8201 18.8787 15.8422 19.5207 16.5063L62.2199 59.2055C62.8839 59.8695 62.8618 60.9542 62.2199 61.6182C61.5558 62.2823 60.4712 62.2823 59.8071 61.6182ZM61.6444 20.0258C65.186 20.0258 67.3332 22.1508 67.3332 25.6925V51.0818C67.3332 53.8044 66.0936 55.6195 63.88 56.3279H63.7251L60.604 53.2068H61.578C62.9725 53.2068 63.7694 52.4099 63.7694 51.0375V25.7589C63.7694 24.3643 62.9725 23.5896 61.578 23.5896H30.9868L27.423 20.0258H61.6444ZM17.6834 56.7706C14.1418 56.7706 11.9946 54.6456 11.9946 51.0818V25.6925C11.9946 23.3682 12.9243 21.7302 14.6287 20.9333H14.7616L17.4842 23.7003H17.13C16.1118 23.8995 15.5584 24.5857 15.5584 25.7589V51.0375C15.5584 52.4099 16.3553 53.2068 17.7498 53.2068H47.0129L50.5767 56.7706H17.6834ZM28.5298 64.2745C27.5558 64.2745 26.7368 63.4776 26.7368 62.4815C26.7368 61.4854 27.5558 60.6886 28.5298 60.6886H50.798C51.772 60.6886 52.591 61.4854 52.591 62.4815C52.591 63.4776 51.772 64.2745 50.798 64.2745H28.5298Z" fill="white"/>
</svg>
