<svg width="80" height="80" viewBox="0 0 80 80" fill="none" xmlns="http://www.w3.org/2000/svg">
<path fill-rule="evenodd" clip-rule="evenodd" d="M21.0276 18.4819H22.1604C22.8644 18.4819 23.2812 18.0427 23.2812 17.349C23.2812 16.6668 22.8377 16.2048 22.1551 16.2048H21.0276V18.4819ZM21.0276 22.6793H19.112V14.6668H22.3475C24.227 14.6668 25.2383 15.6561 25.2383 17.3106C25.2383 18.2928 24.7801 19.1926 23.9545 19.5764L25.4573 22.6793H23.3079L22.0188 19.8749H21.0276V22.6793Z" fill="white"/>
<path fill-rule="evenodd" clip-rule="evenodd" d="M17.335 29.2562V39.7903H27.2364L27.2351 29.2562H17.335ZM27.2351 42.6331H17.335C15.8616 42.6331 14.6633 41.3581 14.6633 39.7903V29.2562C14.6633 27.6884 15.8616 26.4134 17.335 26.4134H27.2351C28.7086 26.4134 29.9068 27.6884 29.9068 29.2562V39.7903C29.9068 41.3581 28.7086 42.6331 27.2351 42.6331Z" fill="white"/>
<path fill-rule="evenodd" clip-rule="evenodd" d="M17.335 47.9566V58.4906H27.2364L27.2351 47.9566H17.335ZM27.2351 61.3334H17.335C15.8616 61.3334 14.6633 60.0584 14.6633 58.4906V47.9566C14.6633 46.3888 15.8616 45.1138 17.335 45.1138H27.2351C28.7086 45.1138 29.9068 46.3888 29.9068 47.9566V58.4906C29.9068 60.0584 28.7086 61.3334 27.2351 61.3334Z" fill="white"/>
<path fill-rule="evenodd" clip-rule="evenodd" d="M41.5003 22.6796V19.453H38.5V22.6796H36.5844V14.6671H38.5V17.8098H41.5003V14.6671H43.4106V22.6796H41.5003Z" fill="white"/>
<path fill-rule="evenodd" clip-rule="evenodd" d="M35.0476 29.2562V39.7903H44.949L44.9477 29.2562H35.0476ZM44.9477 42.6331H35.0476C33.5742 42.6331 32.3759 41.3581 32.3759 39.7903V29.2562C32.3759 27.6884 33.5742 26.4134 35.0476 26.4134H44.9477C46.4211 26.4134 47.6194 27.6884 47.6194 29.2562V39.7903C47.6194 41.3581 46.4211 42.6331 44.9477 42.6331Z" fill="white"/>
<path fill-rule="evenodd" clip-rule="evenodd" d="M35.0476 47.9566V58.4906H44.949L44.9477 47.9566H35.0476ZM44.9477 61.3334H35.0476C33.5742 61.3334 32.3759 60.0584 32.3759 58.4906V47.9566C32.3759 46.3888 33.5742 45.1138 35.0476 45.1138H44.9477C46.4211 45.1138 47.6194 46.3888 47.6194 47.9566V58.4906C47.6194 60.0584 46.4211 61.3334 44.9477 61.3334Z" fill="white"/>
<path fill-rule="evenodd" clip-rule="evenodd" d="M60.2889 22.6796H55.1285V14.6671H60.2889V16.3117H57.0428V17.9051H60.0952V19.4032H57.0428V21.0364H60.2889V22.6796Z" fill="white"/>
<path fill-rule="evenodd" clip-rule="evenodd" d="M52.7582 29.2562V39.7903H62.6609L62.6582 29.2562H52.7582ZM62.6582 42.6331H52.7582C51.2847 42.6331 50.0865 41.3581 50.0865 39.7903V29.2562C50.0865 27.6884 51.2847 26.4134 52.7582 26.4134H62.6582C64.1317 26.4134 65.3299 27.6884 65.3299 29.2562V39.7903C65.3299 41.3581 64.1317 42.6331 62.6582 42.6331Z" fill="white"/>
<path fill-rule="evenodd" clip-rule="evenodd" d="M52.7582 47.9567V58.4907H62.6609L62.6583 47.9567H52.7582ZM62.6583 61.3335H52.7582C51.2848 61.3335 50.0865 60.0585 50.0865 58.4907V47.9567C50.0865 46.3889 51.2848 45.1139 52.7582 45.1139H62.6583C64.1317 45.1139 65.33 46.3889 65.33 47.9567V58.4907C65.33 60.0585 64.1317 61.3335 62.6583 61.3335Z" fill="white"/>
</svg>
