<svg width="80" height="80" viewBox="0 0 80 80" fill="none" xmlns="http://www.w3.org/2000/svg">
<path fill-rule="evenodd" clip-rule="evenodd" d="M19.9469 23.7466C24.2779 18.63 30.9579 13.3332 40.049 13.3332C49.1419 13.3332 55.7988 18.6312 60.107 23.7496C62.269 26.3183 63.8746 28.8807 64.9399 30.7992C65.4734 31.7599 65.8736 32.5633 66.1423 33.1309C66.2767 33.4147 66.3784 33.6399 66.4474 33.7966C66.482 33.875 66.5084 33.9363 66.5267 33.9793L66.5481 34.0299L66.5542 34.0446L66.5561 34.0492C66.5561 34.0492 66.5573 34.0521 65.2775 34.6151L66.5573 34.0521C66.7805 34.5938 66.6614 35.2214 66.2567 35.6359L56.5615 45.5646C56.0159 46.1234 55.1352 46.1193 54.5944 45.5556C54.0536 44.9918 54.0575 44.0818 54.6032 43.5231L63.6022 34.3073C63.3573 33.7944 62.9992 33.0802 62.5268 32.2296C61.526 30.4272 60.0215 28.0284 58.0078 25.6359C53.9644 20.832 48.0071 16.2076 40.049 16.2076C32.0902 16.2076 26.1088 20.8332 22.0409 25.6389C20.0152 28.0321 18.4989 30.4314 17.4892 32.2342C17.0147 33.0813 16.6542 33.7931 16.4069 34.3057L25.4919 43.5181C26.0401 44.0741 26.0484 44.984 25.5103 45.5505C24.9722 46.117 24.0915 46.1255 23.5433 45.5696L13.7519 35.6408C13.3419 35.2251 13.2215 34.5917 13.4487 34.0466L14.7262 34.6151C13.4487 34.0466 13.4487 34.0466 13.4487 34.0466L13.4499 34.0437L13.4519 34.0391L13.4581 34.0244L13.4797 33.9738C13.4982 33.9309 13.5249 33.8696 13.5598 33.7913C13.6296 33.6346 13.7322 33.4095 13.868 33.1257C14.1393 32.5583 14.5433 31.7551 15.0813 30.7945C16.1556 28.8764 17.7731 26.3146 19.9469 23.7466Z" fill="white"/>
<path fill-rule="evenodd" clip-rule="evenodd" d="M39.071 27.6114C39.6132 27.056 40.4874 27.056 41.0297 27.6115L56.5617 43.5233C56.8251 43.7931 56.9733 44.1605 56.9733 44.5438C56.9733 44.9271 56.825 45.2947 56.5615 45.5646L44.1346 58.2955C43.5891 58.8544 42.7084 58.8505 42.1675 58.2869C41.6266 57.7232 41.6303 56.8133 42.1759 56.2544L53.6068 44.5439L40.0503 30.6559L26.4932 44.5438L38.0234 56.3554C38.5689 56.9143 38.5727 57.8243 38.0318 58.3879C37.491 58.9516 36.6103 58.9555 36.0647 58.3966L23.5382 45.5645C23.2748 45.2946 23.1266 44.9272 23.1266 44.5438C23.1266 44.1605 23.2748 43.7931 23.5382 43.5232L39.071 27.6114Z" fill="white"/>
<path fill-rule="evenodd" clip-rule="evenodd" d="M35.1756 44.3156C35.1756 41.6283 37.2996 39.4707 39.894 39.4707C42.4889 39.4707 44.6115 41.6289 44.6115 44.3156C44.6115 47.0024 42.4889 49.1605 39.894 49.1605C37.2996 49.1605 35.1756 47.0029 35.1756 44.3156ZM39.894 42.3451C38.813 42.3451 37.9576 43.2396 37.9576 44.3156C37.9576 45.3917 38.813 46.2861 39.894 46.2861C40.9746 46.2861 41.8295 45.3922 41.8295 44.3156C41.8295 43.239 40.9746 42.3451 39.894 42.3451Z" fill="white"/>
<path fill-rule="evenodd" clip-rule="evenodd" d="M34.1861 60.8074C34.1861 57.5595 36.7536 54.9483 39.8936 54.9483C43.0348 54.9483 45.6012 57.5597 45.6012 60.8074C45.6012 64.0551 43.0348 66.6666 39.8936 66.6666C36.7536 66.6666 34.1861 64.0553 34.1861 60.8074ZM39.8936 57.8227C38.2671 57.8227 36.968 59.1706 36.968 60.8074C36.968 62.4442 38.2671 63.7922 39.8936 63.7922C41.5209 63.7922 42.8193 62.4444 42.8193 60.8074C42.8193 59.1704 41.5209 57.8227 39.8936 57.8227Z" fill="white"/>
</svg>
