<svg width="80" height="80" viewBox="0 0 80 80" fill="none" xmlns="http://www.w3.org/2000/svg">
<path d="M50.1514 40.5471C50.1514 41.0584 49.9469 41.5083 49.5583 41.8968L33.362 57.7455C32.9939 58.1136 32.544 58.2977 32.0123 58.2977C30.9694 58.2977 30.1514 57.5001 30.1514 56.4367C30.1514 55.905 30.3559 55.4551 30.6831 55.1075L45.5706 40.5471L30.6831 25.9868C30.3559 25.6392 30.1514 25.1688 30.1514 24.6576C30.1514 23.5942 30.9694 22.7966 32.0123 22.7966C32.544 22.7966 32.9939 22.9807 33.362 23.3283L49.5583 39.1974C49.9469 39.5655 50.1514 40.0359 50.1514 40.5471Z" fill="white"/>
</svg>
