<svg width="80" height="80" viewBox="0 0 80 80" fill="none" xmlns="http://www.w3.org/2000/svg">
<path d="M39.9546 18.7653C39.9546 18.7653 40.8426 18.9727 40.9536 19.2262C41.3754 19.2493 41.8417 19.2953 42.3079 19.3414C45.3493 19.6871 48.8792 20.6088 49.7228 23.0054C51.2546 27.4067 51.077 31.6468 51.077 31.6468C51.077 31.6468 54.185 33.5363 51.3212 34.5042L51.077 35.9559C51.077 35.9559 51.2102 35.9329 51.4322 35.9329C51.965 35.9329 52.8974 36.1172 52.8974 37.3616C52.8974 39.1129 52.853 42.5695 51.41 43.2608C50.7662 43.5603 50.4998 43.6756 50.3888 43.6986C50.3444 44.0673 50.078 46.4408 49.301 48.0308C49.301 48.0308 49.1678 53.7226 49.5896 54.4139C50.0114 55.0822 51.743 55.9118 51.743 55.9118C51.743 55.9118 52.0316 55.7735 52.4312 55.7735C52.6088 55.7735 52.7864 55.7965 52.9862 55.8657C53.4746 56.05 60.2901 59.8522 61.3335 61.2349H18.5979C19.6413 59.8753 26.4568 56.05 26.9452 55.8657C27.145 55.7965 27.3226 55.7735 27.5002 55.7735C27.8998 55.7735 28.1884 55.9118 28.1884 55.9118C28.1884 55.9118 29.9201 55.0822 30.3419 54.4139C30.7637 53.7457 30.6305 48.0308 30.6305 48.0308C29.8313 46.4408 29.5649 44.0673 29.5427 43.6986C29.4317 43.6756 29.1653 43.5603 28.5215 43.2608C27.0784 42.5925 27.034 39.1129 27.034 37.3616C27.034 36.1172 27.9886 35.9329 28.4992 35.9329C28.6991 35.9329 28.8545 35.9559 28.8545 35.9559L28.6103 34.5042C25.7464 33.5363 28.8545 31.6468 28.8545 31.6468C28.8545 31.6468 28.6769 27.4067 30.2087 23.0054C31.0523 20.6088 34.5821 19.6871 37.6236 19.3414C38.0898 19.2953 38.556 19.2493 38.9778 19.2262C39.0888 18.9497 39.9768 18.7653 39.9768 18.7653M39.9768 16.0001C39.7992 16.0001 39.5994 16.0001 39.4218 16.0692C38.9112 16.1844 38.4672 16.3457 38.0898 16.5301C37.8456 16.5301 37.6014 16.5762 37.3572 16.5992C32.0291 17.1984 28.7879 19.0419 27.7222 22.0606C26.59 25.3097 26.3014 28.4898 26.2348 30.2872C25.4356 31.0707 24.6364 32.2689 24.7918 33.7898C24.814 34.0894 24.9028 34.5042 25.1026 34.919C24.6586 35.5872 24.4144 36.4168 24.4144 37.3616C24.4144 39.5507 24.4144 44.0212 27.1672 45.6112C27.3448 46.5099 27.6112 47.6391 28.033 48.676C28.0552 50.243 28.033 51.9943 27.9664 52.9391C27.922 52.9622 27.8776 52.9852 27.8332 53.0083C27.7444 53.0083 27.6334 53.0083 27.5446 53.0083C27.0562 53.0083 26.5678 53.1004 26.1238 53.2617C25.6576 53.423 18.1539 57.4557 16.5777 59.5066C15.9339 60.3361 15.8229 61.4653 16.2669 62.4331C16.7109 63.401 17.6433 64.0001 18.6645 64.0001H61.3335C62.3548 64.0001 63.2872 63.401 63.7312 62.4331C64.1752 61.4883 64.0642 60.3361 63.4204 59.5066C61.8442 57.4557 54.3404 53.423 53.852 53.2617C53.408 53.1004 52.9196 53.0083 52.4312 53.0083C52.3424 53.0083 52.2314 53.0083 52.1426 53.0083C52.0982 52.9852 52.0538 52.9622 52.0094 52.9391C51.9428 51.9943 51.9206 50.243 51.9428 48.676C52.3646 47.6391 52.631 46.533 52.8086 45.6112C55.5615 44.0212 55.5615 39.5507 55.5615 37.3616C55.5615 36.4168 55.3173 35.5872 54.8732 34.919C55.0731 34.5042 55.1397 34.0894 55.1841 33.7898C55.3395 32.2689 54.5402 31.0937 53.741 30.2872C53.6744 28.4898 53.3858 25.3328 52.2536 22.0606C51.188 19.0419 47.9467 17.1984 42.6187 16.5992C42.3745 16.5762 42.1303 16.5531 41.8861 16.5301C41.5086 16.3227 41.0646 16.1844 40.554 16.0692C40.3764 16.0231 40.1766 16.0001 39.999 16.0001H39.9768Z" fill="white"/>
<path fill-rule="evenodd" clip-rule="evenodd" d="M47.6924 33.2495C40.9081 29.4166 34.5945 31.6723 32.3572 33.2172C31.9884 33.4718 31.5385 33.2695 31.3522 32.7653C31.166 32.2612 31.314 31.646 31.6827 31.3914C34.2329 29.6305 41.0048 27.258 48.2637 31.3591C48.6456 31.5748 48.8272 32.1728 48.6694 32.6949C48.5116 33.2169 48.0742 33.4652 47.6924 33.2495Z" fill="white"/>
<path fill-rule="evenodd" clip-rule="evenodd" d="M31.3403 53.7111C31.524 53.192 32.0205 52.9515 32.4492 53.174L39.999 57.0922L47.5488 53.174C47.9776 52.9515 48.4741 53.192 48.6578 53.7111C48.8415 54.2303 48.6429 54.8315 48.2142 55.054L40.3317 59.1449C40.1193 59.2552 39.8788 59.2552 39.6663 59.1449L31.7838 55.054C31.3551 54.8315 31.1565 54.2303 31.3403 53.7111Z" fill="white"/>
<path d="M42.1808 24.7274C42.1808 25.9323 41.204 26.9092 39.999 26.9092C38.794 26.9092 37.8172 25.9323 37.8172 24.7274C37.8172 23.5224 38.794 22.5455 39.999 22.5455C41.204 22.5455 42.1808 23.5224 42.1808 24.7274Z" fill="white"/>
</svg>
