<svg width="80" height="80" viewBox="0 0 80 80" fill="none" xmlns="http://www.w3.org/2000/svg">
<path d="M45.357 40.4899C45.357 41.7333 44.8654 42.8547 43.9396 43.7341C43.0114 44.6136 41.8279 45.077 40.5155 45.077C39.2031 45.077 38.0195 44.6113 37.0913 43.7341C36.1631 42.8547 35.6739 41.7333 35.6739 40.4899C35.6739 39.2465 36.1655 38.1251 37.0913 37.2457C38.0195 36.3662 39.2031 35.9027 40.5155 35.9027C41.8279 35.9027 43.0114 36.3685 43.9396 37.2457C44.8678 38.1251 45.357 39.2465 45.357 40.4899Z" fill="white"/>
<path d="M26.0577 28.2078L26.6518 27.6448C27.3605 27.1 27.3104 25.8633 26.5445 24.9002C25.7761 23.9371 24.4208 23.711 23.5331 24.3983L22.7863 25.1059C18.4506 29.2138 16 34.6736 16 40.4816C16 46.2896 18.4506 51.7494 22.7839 55.8572L23.5522 56.5852C24.4685 57.2883 25.8453 57.0758 26.6137 56.1127C27.382 55.1496 27.4083 53.9016 26.6733 53.3387L26.0577 52.7554C22.5977 49.4773 20.7556 45.1185 20.7556 40.4816C20.7556 35.8447 22.5977 31.4859 26.0577 28.2078Z" fill="white"/>
<path d="M33.1614 34.8832C33.1614 34.8832 33.171 34.8742 33.1757 34.8697C33.1948 34.8493 33.3786 34.6481 33.3977 34.63C34.0371 33.7958 33.8892 32.9864 33.1519 32.0595C32.3859 31.0964 30.9089 30.9133 29.8948 31.7656C27.4346 34.1914 26.17 37.2231 26.17 40.5985C26.17 43.7885 27.4418 46.8021 29.6514 49.1714C29.9162 49.4133 29.9926 49.454 29.9926 49.454C30.9089 50.1571 32.2857 50.0192 33.054 49.0561C33.8224 48.093 33.8868 47.0531 33.0803 46.2256C31.6462 44.6634 30.9256 42.6875 30.9256 40.5985C30.9256 38.5095 31.6748 36.4567 33.1614 34.8832Z" fill="white"/>
<path d="M54.9447 28.2072L54.3505 27.6443C53.6419 27.0995 53.692 25.8628 54.4579 24.8997C55.2263 23.9366 56.5816 23.7105 57.4693 24.3978L58.2161 25.1054C62.5518 29.2133 65 34.6731 65 40.4811C65 46.2891 62.5494 51.7489 58.2161 55.8567L57.4478 56.5847C56.5315 57.2878 55.1547 57.0753 54.3863 56.1122C53.618 55.1491 53.5917 53.9011 54.3267 53.3382L54.9423 52.7549C58.4023 49.4768 60.2444 45.118 60.2444 40.4811C60.2444 35.8442 58.4046 31.4854 54.9447 28.2072Z" fill="white"/>
<path d="M47.8409 34.8832C47.8409 34.8832 47.8314 34.8742 47.8266 34.8697C47.8075 34.8493 47.6238 34.6481 47.6047 34.63C46.9652 33.7958 47.1132 32.9864 47.8505 32.0595C48.6164 31.0964 50.0935 30.9133 51.1076 31.7656C53.5677 34.1914 54.8324 37.2231 54.8324 40.5985C54.8324 43.7885 53.5606 46.8021 51.351 49.1714C51.0861 49.4133 51.0098 49.454 51.0098 49.454C50.0935 50.1571 48.7167 50.0192 47.9483 49.0561C47.18 48.093 47.1155 47.0531 47.9221 46.2256C49.3562 44.6634 50.0768 42.6875 50.0768 40.5985C50.0768 38.5095 49.3275 36.4567 47.8409 34.8832Z" fill="white"/>
</svg>
