<svg width="80" height="80" viewBox="0 0 80 80" fill="none" xmlns="http://www.w3.org/2000/svg">
<path d="M17.332 41.5297C17.332 30.639 25.2786 21.4086 35.638 19.3721V16.251C35.638 14.6573 36.7227 14.2367 37.9622 15.1221L45.0013 20.0805C46.0195 20.8109 45.9974 21.8734 45.0013 22.5596L37.9401 27.518C36.7227 28.3812 35.638 27.9607 35.638 26.389V23.2237C27.2708 25.1273 21.1172 32.5648 21.1172 41.5297C21.1172 51.9776 29.4622 60.3448 39.9102 60.3448C50.3581 60.3448 58.7474 51.9776 58.7253 41.5297C58.7031 35.2432 55.6484 29.6872 50.9336 26.3226C50.026 25.6364 49.7383 24.5961 50.2917 23.6664C50.8451 22.7588 52.0625 22.5153 53.0365 23.268C58.7253 27.4073 62.4883 34.0922 62.4883 41.5297C62.4883 53.8812 52.2617 64.1078 39.9102 64.1078C27.5807 64.1078 17.332 53.8812 17.332 41.5297ZM34.819 50.6273C34.0664 50.6273 33.3802 50.1625 33.3802 49.1221V47.0857H27.9792C26.9388 47.0857 26.2305 46.4216 26.2305 45.4476C26.2305 44.695 26.4961 43.9867 26.7839 43.3005C27.8021 41.1976 29.7279 37.656 31.0339 35.376C31.6979 34.0922 32.4284 33.3174 33.8672 33.3174C35.306 33.3174 36.2799 34.0922 36.2799 35.5531V44.6286H37.1654C37.9844 44.6286 38.4049 45.1377 38.4049 45.8682C38.4049 46.5323 38.0286 47.0857 37.1654 47.0857H36.2799V49.1221C36.2799 50.1846 35.5937 50.6273 34.819 50.6273ZM46.3958 50.8044C44.2487 50.8044 41.8138 49.5427 41.2604 47.4398C41.1719 47.1742 41.1497 46.9086 41.1497 46.6651C41.1497 45.8682 41.6367 45.3812 42.4115 45.3812C42.987 45.3812 43.4297 45.6911 43.7396 46.3109C44.1823 47.462 45.0677 48.3031 46.3737 48.3031C48.0781 48.3031 49.0299 46.7536 49.0299 44.85C49.0299 43.1013 48.1445 41.5297 46.418 41.5297C45.5326 41.5297 44.7799 41.9724 44.2487 42.6807C43.806 43.212 43.4961 43.4776 42.7656 43.4776C41.7917 43.4776 41.2826 42.7471 41.349 41.7732L41.8359 35.3318C41.9023 34.1586 42.4336 33.5609 43.5846 33.5609H50.026C50.7565 33.5609 51.2435 34.0479 51.2435 34.8005C51.2435 35.5531 50.7565 36.0401 50.026 36.0401H44.3815L43.9831 41.087H44.0716C44.6914 39.9359 45.9089 39.2719 47.3919 39.2719C50.3138 39.2719 51.9961 41.8174 51.9961 44.7836C51.9961 48.2367 49.849 50.8044 46.3958 50.8044ZM33.4245 44.7172V35.9073H33.3359C31.8971 38.475 30.0599 41.8838 28.8646 44.5622V44.7172H33.4245Z" fill="white"/>
</svg>
