<svg width="80" height="80" viewBox="0 0 80 80" fill="none" xmlns="http://www.w3.org/2000/svg">
<path d="M51.2215 43.9229L47.7684 40.4698V23.4698C47.7684 23.2705 47.6356 23.1599 47.4806 23.1599C47.3478 23.1599 47.215 23.2263 47.1043 23.337L38.4715 31.1729L36.103 28.7823L45.7762 20.1937C46.9494 19.1534 47.6134 18.6664 48.6759 18.6664C50.159 18.6664 51.2215 19.8396 51.2215 21.2784V43.9229ZM58.4155 60.0375L20.4976 22.1416C19.8335 21.4997 19.8335 20.3708 20.4976 19.7289C21.1616 19.0648 22.2684 19.0648 22.9325 19.7289L60.8283 57.6247C61.4924 58.2888 61.4924 59.3513 60.8283 60.0375C60.1864 60.7015 59.0796 60.7015 58.4155 60.0375ZM28.9312 47.1768C25.9207 47.1768 24.4155 45.6716 24.4155 42.462V33.9841C24.4155 32.6781 24.7033 31.682 25.2124 30.9737L27.8687 33.6299V42.7497C27.8687 43.5687 28.245 43.945 29.0861 43.945H36.258C36.8335 43.945 37.0991 44.0336 37.5418 44.432L48.2332 54.0166L50.8009 56.5622C50.2918 57.3148 49.5835 57.7133 48.7202 57.7133C47.6577 57.7133 46.8608 57.2705 45.7762 56.3187L35.7931 47.376C35.6382 47.2432 35.4611 47.1768 35.2619 47.1768H28.9312Z" fill="white"/>
</svg>
