<svg width="80" height="80" viewBox="0 0 80 80" fill="none" xmlns="http://www.w3.org/2000/svg">
<path d="M21.6582 59.1336C17.2265 59.1336 15 56.9496 15 52.5815V26.6697C15 22.3016 17.2265 20.0963 21.6582 20.0963H58.3418C62.7947 20.0963 65 22.3016 65 26.6697V52.5815C65 56.9496 62.7947 59.1336 58.3418 59.1336H21.6582ZM18.4139 26.8605V34.7486L29.631 23.5102H21.7006C19.5802 23.5102 18.4139 24.6553 18.4139 26.8605ZM39.9152 27.8359C40.3817 27.8359 40.8694 27.8571 41.3359 27.9207L45.7252 23.5102H34.1688L18.4139 39.2651V50.8427L28.1891 41.0463C28.1467 40.5798 28.1043 40.1133 28.1043 39.6256C28.1043 33.1158 33.3842 27.8359 39.9152 27.8359ZM58.2994 23.5102H50.2417L44.8558 28.9173C47.4427 30.1048 49.5208 32.204 50.687 34.8334L60.9288 24.5916C60.3774 23.8707 59.4869 23.5102 58.2994 23.5102ZM39.9152 51.4364C39.4699 51.4364 39.0458 51.4152 38.6217 51.3516L34.2536 55.7197H45.81L61.5861 39.9436V28.3872L51.6412 38.3321C51.6836 38.7562 51.7048 39.2015 51.7048 39.6256C51.7048 46.1565 46.4249 51.4364 39.9152 51.4364ZM39.9152 48.7011C44.9618 48.7011 48.9695 44.6722 48.9695 39.6256C48.9695 34.5789 44.9618 30.5713 39.9152 30.5713C34.8685 30.5713 30.8397 34.5789 30.8397 39.6256C30.8397 44.6722 34.8685 48.7011 39.9152 48.7011ZM61.5861 52.3906V44.4814L50.3478 55.7197H58.2994C60.3986 55.7197 61.5861 54.5959 61.5861 52.3906ZM21.7006 55.7197H29.7371L35.0806 50.3974C32.4724 49.2312 30.3732 47.1531 29.1858 44.5662L19.0712 54.6595C19.6226 55.3805 20.5131 55.7197 21.7006 55.7197Z" fill="white"/>
</svg>
