<svg width="80" height="80" viewBox="0 0 80 80" fill="none" xmlns="http://www.w3.org/2000/svg">
<path fill-rule="evenodd" clip-rule="evenodd" d="M35.7669 17C35.9579 17 36.1127 17.145 36.1127 17.3239V20.8096H44.7533V17.3239C44.7533 17.145 44.9081 17 45.0991 17C45.29 17 45.4449 17.145 45.4449 17.3239V20.8096H54.7175V33.4401H58.6542C58.8452 33.4401 59 33.5852 59 33.7641C59 33.943 58.8452 34.088 58.6542 34.088H54.7175V46.0344H58.6542C58.8452 46.0344 59 46.1795 59 46.3584C59 46.5373 58.8452 46.6823 58.6542 46.6823H54.7175V59.1904H45.4449V62.6761C45.4449 62.855 45.29 63 45.0991 63C44.9081 63 44.7533 62.855 44.7533 62.6761V59.1904H36.1127V62.6761C36.1127 62.855 35.9579 63 35.7669 63C35.5759 63 35.4211 62.855 35.4211 62.6761V59.1904H26.0405V46.6823H22.3458C22.1548 46.6823 22 46.5373 22 46.3584C22 46.1795 22.1548 46.0344 22.3458 46.0344H26.0405V34.088H22.3458C22.1548 34.088 22 33.943 22 33.7641C22 33.5852 22.1548 33.4401 22.3458 33.4401H26.0405V20.8096H35.4211V17.3239C35.4211 17.145 35.5759 17 35.7669 17ZM35.4211 21.4575H26.7321V33.4401H35.4211V21.4575ZM35.4211 34.088H26.7321V46.0344H35.4211V34.088ZM36.1127 46.0344V34.088H44.7533V46.0344H36.1127ZM35.4211 46.6823H26.7321V58.5425H35.4211V46.6823ZM36.1127 58.5425V46.6823H44.7533V58.5425H36.1127ZM45.4449 58.5425H54.0259V46.6823H45.4449V58.5425ZM45.4449 46.0344H54.0259V34.088H45.4449V46.0344ZM45.4449 33.4401H54.0259V21.4575H45.4449V33.4401ZM44.7533 21.4575H36.1127V33.4401H44.7533V21.4575Z" fill="white" stroke="white" stroke-width="1.6" stroke-linecap="round"/>
</svg>
