<svg width="80" height="80" viewBox="0 0 80 80" fill="none" xmlns="http://www.w3.org/2000/svg">
<path d="M39.6075 63.6188C38.7442 63.6188 37.9916 62.9326 37.9916 62.0693V18.861C37.9916 17.9977 38.7442 17.3336 39.6075 17.3336C40.4708 17.3336 41.2455 17.9977 41.2455 18.861V62.0693C41.2455 62.9326 40.4708 63.6188 39.6075 63.6188ZM7.62184 42.3245C6.33799 41.5498 6.36013 39.5133 7.62184 38.7828L26.3484 27.8037C27.7429 26.9847 29.5138 27.8701 29.5138 29.4196V51.6435C29.5138 53.1709 27.7651 53.9899 26.3484 53.1709L7.62184 42.3245ZM71.6153 42.3245L52.8888 53.1709C51.4721 53.9899 49.7234 53.1709 49.7234 51.6435V29.4196C49.7234 27.8701 51.4942 26.9847 52.8888 27.8037L71.6153 38.7828C72.8771 39.5133 72.8992 41.5498 71.6153 42.3245Z" fill="white"/>
</svg>
