<svg width="80" height="80" viewBox="0 0 80 80" fill="none" xmlns="http://www.w3.org/2000/svg">
<path d="M20.4381 32.7452C19.3092 32.7452 18.6672 32.0812 18.6672 30.9301V25.507C18.6672 20.9471 20.9915 18.6671 25.6178 18.6671H31.0188C32.192 18.6671 32.8339 19.2869 32.8339 20.4379C32.8339 21.589 32.192 22.2309 31.0188 22.2309H25.662C23.4485 22.2309 22.231 23.4041 22.231 25.7062V30.9301C22.231 32.0812 21.6112 32.7452 20.4381 32.7452ZM60.2154 32.7452C59.0865 32.7452 58.4446 32.0812 58.4446 30.9301V25.7062C58.4446 23.4041 57.1829 22.2309 54.9915 22.2309H49.6347C48.4836 22.2309 47.8417 21.589 47.8417 20.4379C47.8417 19.2869 48.4836 18.6671 49.6347 18.6671H55.0579C59.6842 18.6671 62.0084 20.9471 62.0084 25.507V30.9301C62.0084 32.0812 61.3886 32.7452 60.2154 32.7452ZM25.6178 61.9861C20.9915 61.9861 18.6672 59.7062 18.6672 55.1241V49.7231C18.6672 48.5499 19.287 47.908 20.4381 47.908C21.5891 47.908 22.231 48.5499 22.231 49.7231V54.9471C22.231 57.2491 23.4485 58.4223 25.662 58.4223H31.0188C32.192 58.4223 32.8339 59.0642 32.8339 60.2153C32.8339 61.3442 32.192 61.9861 31.0188 61.9861H25.6178ZM49.6347 61.9861C48.4836 61.9861 47.8417 61.3442 47.8417 60.2153C47.8417 59.0642 48.4836 58.4223 49.6347 58.4223H54.9915C57.1829 58.4223 58.4446 57.2491 58.4446 54.9471V49.7231C58.4446 48.5499 59.0644 47.908 60.2154 47.908C61.3665 47.908 62.0084 48.5499 62.0084 49.7231V55.1241C62.0084 59.684 59.6842 61.9861 55.0579 61.9861H49.6347Z" fill="white"/>
</svg>
