<svg width="80" height="80" viewBox="0 0 80 80" fill="none" xmlns="http://www.w3.org/2000/svg">
<path d="M15.5195 57.4413C13.793 57.4413 12.332 56.1132 12.332 53.6562V26.4518C12.332 23.9947 13.793 22.6666 15.5195 22.6666C16.4271 22.6666 17.1576 22.9544 18.0651 23.4856L40.6211 36.7669C41.8385 37.4752 42.5026 38.2721 42.7461 39.2018V26.4518C42.7461 23.9947 44.207 22.6666 45.9336 22.6666C46.8411 22.6666 47.5938 22.9544 48.4792 23.4856L71.0573 36.7669C72.6068 37.6965 73.293 38.7812 73.293 40.0429C73.293 41.3268 72.6068 42.4114 71.0573 43.3411L48.4792 56.6223C47.5938 57.1536 46.8411 57.4413 45.9336 57.4413C44.207 57.4413 42.7461 56.1132 42.7461 53.6562V40.9062C42.5026 41.8359 41.8385 42.6327 40.6211 43.3411L18.0651 56.6223C17.1797 57.1536 16.4271 57.4413 15.5195 57.4413ZM16.4935 53.3463C16.6484 53.3463 16.8255 53.302 17.0247 53.1692L38.0755 40.6848C38.3854 40.5077 38.5625 40.3528 38.5625 40.0429C38.5625 39.7551 38.3854 39.6002 38.0755 39.4231L17.0247 26.9387C16.8034 26.8281 16.6484 26.7616 16.4935 26.7616C16.1615 26.7616 15.8958 26.9609 15.8958 27.4257V52.6822C15.8958 53.1471 16.1615 53.3463 16.4935 53.3463ZM46.9076 53.3463C47.0625 53.3463 47.2396 53.302 47.4388 53.1692L68.4896 40.6848C68.7995 40.5077 68.9766 40.3528 68.9766 40.0429C68.9766 39.7551 68.7995 39.6002 68.4896 39.4231L47.4388 26.9387C47.2174 26.8281 47.0625 26.7616 46.9076 26.7616C46.5755 26.7616 46.3099 26.9609 46.3099 27.4257V52.6822C46.3099 53.1471 46.5755 53.3463 46.9076 53.3463Z" fill="white"/>
</svg>
