<svg width="80" height="80" viewBox="0 0 80 80" fill="none" xmlns="http://www.w3.org/2000/svg">
<path d="M39.4412 61.3388C39.0871 61.3388 38.5558 61.2281 37.9803 60.9183C25.6066 53.9456 21.3345 51.0237 21.3345 43.0771V26.387C21.3345 24.1071 22.3306 23.3545 24.1678 22.6018C26.7576 21.5615 35.0363 18.4847 37.6261 17.6435C38.2017 17.4664 38.8215 17.3336 39.4412 17.3336C40.061 17.3336 40.6808 17.4443 41.2785 17.6435C43.8462 18.5289 52.1248 21.5393 54.7147 22.6018C56.5741 23.3766 57.548 24.1071 57.548 26.387V43.0771C57.548 51.0237 53.4972 54.3219 40.9022 60.9183C40.3488 61.206 39.7954 61.3388 39.4412 61.3388ZM39.4412 42.6344C40.548 42.6344 41.1899 42.0146 41.2121 40.8193L41.522 28.7776C41.5441 27.6045 40.6366 26.7412 39.4191 26.7412C38.1795 26.7412 37.3162 27.5823 37.3384 28.7555L37.6483 40.8193C37.6704 41.9925 38.2902 42.6344 39.4412 42.6344ZM39.4412 50.0498C40.7694 50.0498 41.9204 49.0094 41.9204 47.6813C41.9204 46.3531 40.7915 45.2906 39.4412 45.2906C38.091 45.2906 36.9621 46.3753 36.9621 47.6813C36.9621 48.9873 38.1131 50.0498 39.4412 50.0498Z" fill="white"/>
</svg>
