<svg width="80" height="80" viewBox="0 0 80 80" fill="none" xmlns="http://www.w3.org/2000/svg">
<path d="M39.7212 62.0472C39.367 62.0472 38.8136 61.9143 38.2381 61.6044C25.6652 54.5211 21.3267 51.555 21.3267 43.4755V26.542C21.3267 24.2177 22.3449 23.4651 24.2043 22.6904C26.8162 21.6279 35.272 18.4183 37.884 17.6656C38.4595 17.5107 39.1014 17.3336 39.7212 17.3336C40.341 17.3336 40.9829 17.4664 41.5806 17.6656C44.1925 18.5732 52.6261 21.6058 55.2381 22.6904C57.1196 23.4873 58.1157 24.2177 58.1157 26.542V43.4755C58.1157 51.555 53.7993 54.5433 41.2043 61.6044C40.6509 61.9143 40.0754 62.0472 39.7212 62.0472ZM39.7212 58.0406C40.0754 58.0406 40.4517 57.9078 41.0936 57.5094C51.3202 51.2893 54.5962 49.4964 54.5962 42.6565V27.2281C54.5962 26.4755 54.4634 26.1656 53.8657 25.9443C50.4347 24.7711 43.9491 22.4248 40.6066 21.0966C40.2524 20.9638 39.9647 20.8974 39.7212 20.8974C39.4777 20.8974 39.1899 20.9417 38.8358 21.0966C35.4933 22.4248 28.9634 24.6162 25.5988 25.9443C24.979 26.1878 24.8462 26.4755 24.8462 27.2281V42.6565C24.8462 49.4964 28.1222 51.3115 38.3488 57.5094C39.0129 57.9078 39.367 58.0406 39.7212 58.0406ZM37.3084 49.1201C36.578 49.1201 35.9803 48.8323 35.4269 48.1018L30.0259 41.4612C29.716 41.0406 29.5168 40.5537 29.5168 40.0888C29.5168 39.0927 30.2694 38.318 31.2433 38.318C31.841 38.318 32.328 38.5172 32.8592 39.2255L37.2199 44.8701L46.4061 30.1279C46.8267 29.4638 47.38 29.1318 47.9556 29.1318C48.8631 29.1318 49.7485 29.7737 49.7485 30.7477C49.7485 31.2568 49.4829 31.7438 49.2173 32.1643L39.1014 48.1018C38.6587 48.7659 38.0389 49.1201 37.3084 49.1201Z" fill="white"/>
</svg>
