<svg width="80" height="80" viewBox="0 0 80 80" fill="none" xmlns="http://www.w3.org/2000/svg">
<path d="M17.332 41.5297C17.332 30.639 25.2786 21.4086 35.638 19.3721V16.251C35.638 14.6573 36.7227 14.2367 37.9622 15.1221L45.0013 20.0805C46.0195 20.8109 45.9974 21.8734 45.0013 22.5596L37.9401 27.518C36.7227 28.3812 35.638 27.9607 35.638 26.389V23.2237C27.2708 25.1273 21.1172 32.5648 21.1172 41.5297C21.1172 51.9776 29.4622 60.3448 39.9102 60.3448C50.3581 60.3448 58.7474 51.9776 58.7253 41.5297C58.7031 35.2432 55.6484 29.6872 50.9336 26.3226C50.026 25.6364 49.7383 24.5961 50.2917 23.6664C50.8451 22.7588 52.0625 22.5153 53.0365 23.268C58.7253 27.4073 62.4883 34.0922 62.4883 41.5297C62.4883 53.8812 52.2617 64.1078 39.9102 64.1078C27.5807 64.1078 17.332 53.8812 17.332 41.5297ZM39.9766 50.8044C37.8294 50.8044 35.3945 49.5427 34.8411 47.4177C34.7747 47.1742 34.7305 46.9086 34.7305 46.643C34.7305 45.8682 35.2174 45.3812 35.9922 45.3812C36.5898 45.3812 37.0326 45.6911 37.3203 46.3109C37.7409 47.462 38.6484 48.3252 39.9544 48.3252C41.6589 48.3252 42.6107 46.7536 42.6107 44.8721C42.6107 43.1013 41.7474 41.5297 39.9987 41.5297C39.1133 41.5297 38.3607 41.9724 37.8294 42.7028C37.3867 43.212 37.0768 43.4997 36.3685 43.4997C35.3945 43.4997 34.8854 42.7693 34.9518 41.7953L35.4167 35.3318C35.5052 34.1807 36.0365 33.5609 37.1875 33.5609H43.6068C44.3594 33.5609 44.8242 34.0479 44.8242 34.8005C44.8242 35.5531 44.3372 36.0401 43.6068 36.0401H37.9622L37.5859 41.087H37.6745C38.2721 39.9581 39.5117 39.2719 40.9727 39.2719C43.8945 39.2719 45.5768 41.8174 45.5768 44.7836C45.5768 48.2367 43.4297 50.8044 39.9766 50.8044Z" fill="white"/>
</svg>
