<svg width="80" height="80" viewBox="0 0 80 80" fill="none" xmlns="http://www.w3.org/2000/svg">
<path d="M39.649 63.6188C38.7858 63.6188 38.0332 62.9326 38.0332 62.0693V18.861C38.0332 17.9977 38.7858 17.3336 39.649 17.3336C40.5123 17.3336 41.2871 17.9977 41.2871 18.861V62.0693C41.2871 62.9326 40.5123 63.6188 39.649 63.6188ZM8.32743 43.0771C6.13603 41.7268 6.09176 39.2255 8.32743 37.8753L25.0839 27.6045C27.2311 26.2985 29.5553 27.2724 29.5553 29.9065V51.0237C29.5553 53.7242 27.1868 54.6318 25.0839 53.3479L8.32743 43.0771ZM54.2141 53.3479C52.1113 54.6318 49.7428 53.7242 49.7428 51.0237V29.9065C49.7428 27.2724 52.067 26.2985 54.2141 27.6045L70.9928 37.8753C73.2063 39.2255 73.1621 41.7268 70.9928 43.0771L54.2141 53.3479ZM53.7493 50.1383L68.6022 40.93C68.9563 40.7308 69.1334 40.3545 68.6022 40.0003L53.7493 30.8141C53.528 30.6591 52.9746 30.5927 52.9746 31.1904V49.762C52.9746 50.3154 53.4837 50.2933 53.7493 50.1383ZM10.6959 40.93L25.5488 50.1383C25.8144 50.3154 26.3235 50.3154 26.3235 49.762V31.1904C26.3235 30.5927 25.7701 30.6591 25.5488 30.8141L10.6959 40.0003C10.1647 40.3545 10.3639 40.7086 10.6959 40.93Z" fill="white"/>
</svg>
