<svg width="80" height="80" viewBox="0 0 80 80" fill="none" xmlns="http://www.w3.org/2000/svg">
<path d="M13.2969 43.8418H35.5674C35.8845 43.8418 36.1416 44.0989 36.1416 44.416V60.4951C36.1416 60.8122 35.8845 61.0693 35.5674 61.0693H13.2969C12.9798 61.0693 12.7227 60.8122 12.7227 60.4951V44.416C12.7227 44.0989 12.9798 43.8419 13.2969 43.8418ZM44.4326 43.8418H66.7031C67.0202 43.8419 67.2773 44.0989 67.2773 44.416V60.4951C67.2773 60.8122 67.0202 61.0693 66.7031 61.0693H44.4326C44.1155 61.0693 43.8584 60.8122 43.8584 60.4951V44.416C43.8584 44.0989 44.1155 43.8418 44.4326 43.8418ZM13.2969 19.7227H35.5674C35.8845 19.7227 36.1415 19.9798 36.1416 20.2969V36.376C36.1416 36.6931 35.8845 36.9502 35.5674 36.9502H13.2969C12.9798 36.9501 12.7227 36.6931 12.7227 36.376V20.2969C12.7227 19.9798 12.9798 19.7227 13.2969 19.7227ZM44.4326 19.7227H66.7031C67.0202 19.7227 67.2773 19.9798 67.2773 20.2969V36.376C67.2773 36.6931 67.0202 36.9501 66.7031 36.9502H44.4326C44.1155 36.9502 43.8584 36.6931 43.8584 36.376V20.2969C43.8585 19.9798 44.1155 19.7227 44.4326 19.7227Z" stroke="white" stroke-width="3.44554"/>
</svg>
