<svg width="80" height="80" viewBox="0 0 80 80" fill="none" xmlns="http://www.w3.org/2000/svg">
<path d="M40.583 23.2712C39.2992 23.2712 38.2809 22.2529 38.2809 20.9691C38.2809 19.6852 39.2992 18.667 40.583 18.667C41.8447 18.667 42.8851 19.6852 42.8851 20.9691C42.8851 22.2529 41.8447 23.2712 40.583 23.2712ZM54.4619 29.0043C53.1781 29.0043 52.1598 27.986 52.1598 26.7022C52.1598 25.4183 53.1781 24.4001 54.4619 24.4001C55.7236 24.4001 56.7419 25.4183 56.7419 26.7022C56.7419 27.986 55.7236 29.0043 54.4619 29.0043ZM26.7041 29.0043C25.4202 29.0043 24.402 27.986 24.402 26.7022C24.402 25.4183 25.4202 24.4001 26.7041 24.4001C27.988 24.4001 29.0062 25.4183 29.0062 26.7022C29.0062 27.986 27.988 29.0043 26.7041 29.0043ZM40.583 51.848C34.4072 51.848 29.2939 46.7347 29.2939 40.5811C29.2939 34.4053 34.4072 29.292 40.583 29.292C46.7367 29.292 51.8499 34.4053 51.8499 40.5811C51.8499 46.7347 46.7367 51.848 40.583 51.848ZM40.583 48.4834C44.8994 48.4834 48.4853 44.8975 48.4853 40.5811C48.4853 36.2425 44.8994 32.6566 40.583 32.6566C36.2445 32.6566 32.6585 36.2647 32.6585 40.5811C32.6585 44.8975 36.2445 48.4834 40.583 48.4834ZM60.195 42.8832C58.9111 42.8832 57.8929 41.8649 57.8929 40.5811C57.8929 39.2972 58.9111 38.279 60.195 38.279C61.4567 38.279 62.4749 39.2972 62.4749 40.5811C62.4749 41.8649 61.4567 42.8832 60.195 42.8832ZM20.971 42.8832C19.6872 42.8832 18.6689 41.8649 18.6689 40.5811C18.6689 39.2972 19.6872 38.279 20.971 38.279C22.2549 38.279 23.2731 39.2972 23.2731 40.5811C23.2731 41.8649 22.2549 42.8832 20.971 42.8832ZM54.4619 56.7621C53.1781 56.7621 52.1598 55.7438 52.1598 54.46C52.1598 53.1761 53.1781 52.1579 54.4619 52.1579C55.7236 52.1579 56.7419 53.1761 56.7419 54.46C56.7419 55.7438 55.7236 56.7621 54.4619 56.7621ZM26.7041 56.7621C25.4202 56.7621 24.402 55.7438 24.402 54.46C24.402 53.1761 25.4202 52.1579 26.7041 52.1579C27.988 52.1579 29.0062 53.1761 29.0062 54.46C29.0062 55.7438 27.988 56.7621 26.7041 56.7621ZM40.583 62.4951C39.2992 62.4951 38.2809 61.4769 38.2809 60.1931C38.2809 58.9092 39.2992 57.891 40.583 57.891C41.8447 57.891 42.8851 58.9092 42.8851 60.1931C42.8851 61.4769 41.8447 62.4951 40.583 62.4951Z" fill="white"/>
</svg>
