<svg width="80" height="80" viewBox="0 0 80 80" fill="none" xmlns="http://www.w3.org/2000/svg">
<path d="M17.6873 54.0782C13.9243 54.0782 11.9985 52.2409 11.9985 48.3894V23.0222C11.9985 19.1706 13.9243 17.3334 17.6873 17.3334H61.6483C65.4334 17.3334 67.3371 19.1706 67.3371 23.0222V48.3894C67.3371 52.2409 65.4334 54.0782 61.6483 54.0782H17.6873ZM33.5584 45.2461C34.3996 45.2461 35.1079 44.6927 35.1079 43.586V41.3282H35.9269C36.8123 41.3282 37.2329 40.7526 37.2329 40C37.2329 39.2474 36.8566 38.6719 35.9269 38.6719H35.1079V28.6667C35.1079 27.073 34.0897 26.2097 32.5845 26.2097C30.9686 26.2097 30.216 27.0287 29.5741 28.4454L25.5011 37.2995C25.1248 38.1628 24.992 38.7605 24.992 39.4688C24.992 40.5756 25.7446 41.3282 26.8735 41.3282H31.9647V43.586C31.9647 44.8034 32.828 45.2461 33.5584 45.2461ZM41.6821 45.2683C42.8553 45.2683 43.3866 44.4714 43.3866 43.5196V39.4467L44.8696 37.1446L48.8983 44.0065C49.3631 44.8034 49.7837 45.224 50.6912 45.224C51.5988 45.224 52.1743 44.5599 52.1743 43.6745C52.1743 43.1654 52.0858 42.8555 51.798 42.3243L47.3267 34.8868L51.2446 29.043C51.5103 28.6888 51.6873 28.3347 51.6873 27.7813C51.6873 27.0287 51.1339 26.2761 50.16 26.2761C49.2967 26.2761 48.9647 26.7409 48.6769 27.2058L43.5194 35.1302H43.3644V27.9805C43.3644 26.9844 42.7889 26.2318 41.6821 26.2318C40.6196 26.2318 40.022 26.918 40.022 27.9805V43.5196C40.022 44.5599 40.6418 45.2683 41.6821 45.2683ZM32.0311 38.7383H27.8032V38.6055L31.9425 29.0873H32.0311V38.7383ZM28.5337 61.5821C27.5597 61.5821 26.7407 60.7852 26.7407 59.7891C26.7407 58.793 27.5597 57.9961 28.5337 57.9961H50.8019C51.7759 57.9961 52.5949 58.793 52.5949 59.7891C52.5949 60.7852 51.7759 61.5821 50.8019 61.5821H28.5337Z" fill="white"/>
</svg>
