<svg width="80" height="80" viewBox="0 0 80 80" fill="none" xmlns="http://www.w3.org/2000/svg">
<path d="M39.9515 24.6108C38.889 24.6108 38.0257 23.7475 38.0257 22.685V17.9259C38.0257 16.8634 38.889 16.0001 39.9515 16.0001C40.9919 16.0001 41.8551 16.8634 41.8551 17.9259V22.685C41.8551 23.7475 40.9919 24.6108 39.9515 24.6108ZM50.7978 29.1485C50.0674 28.4181 50.0674 27.2006 50.7978 26.448L54.2067 23.0392C54.9593 22.3087 56.1768 22.3087 56.9072 23.0392C57.6377 23.7918 57.6377 25.0313 56.9072 25.7618L53.5205 29.1485C52.7679 29.9011 51.5505 29.879 50.7978 29.1485ZM29.0609 29.1485C28.3083 29.879 27.0908 29.879 26.3604 29.1485L22.9736 25.7397C22.2653 25.0313 22.2653 23.7918 22.9958 23.0392C23.7262 22.3087 24.9658 22.3308 25.6963 23.0392L29.083 26.448C29.7913 27.1785 29.7913 28.4402 29.0609 29.1485ZM39.9294 51.3061C33.7757 51.3061 28.6624 46.1928 28.6624 40.017C28.6624 33.8191 33.7757 28.7058 39.9294 28.7058C46.083 28.7058 51.1963 33.8191 51.1963 40.017C51.1963 46.1928 46.083 51.3061 39.9294 51.3061ZM39.9294 47.9194C44.2458 47.9194 47.8317 44.3334 47.8317 40.017C47.8317 35.6785 44.2458 32.0925 39.9294 32.0925C35.613 32.0925 32.027 35.6785 32.027 40.017C32.027 44.3334 35.613 47.9194 39.9294 47.9194ZM55.2913 40.017C55.2913 38.9767 56.1768 38.0912 57.2171 38.0912H61.9762C63.0166 38.0912 63.8799 38.9767 63.8799 40.017C63.8799 41.0574 63.0166 41.9207 61.9762 41.9207H57.2171C56.1768 41.9207 55.2913 41.0574 55.2913 40.017ZM24.5895 40.017C24.5895 41.0574 23.7041 41.9207 22.6637 41.9207H17.9046C16.8643 41.9207 16.001 41.0574 16.001 40.017C16.001 38.9767 16.8643 38.0912 17.9046 38.0912H22.6637C23.7041 38.0912 24.5895 38.9767 24.5895 40.017ZM29.083 50.8855C29.7913 51.6381 29.7913 52.8556 29.0609 53.586L25.6742 56.9949C24.9215 57.7032 23.682 57.6811 22.9515 56.9728C22.2432 56.2201 22.2432 55.0027 22.9736 54.2722L26.3604 50.8855C27.0908 50.1772 28.3304 50.1772 29.083 50.8855ZM50.7978 50.8855C51.5505 50.1772 52.7679 50.1772 53.4984 50.8855L56.9072 54.2944C57.6377 55.0248 57.6377 56.2423 56.9072 56.9949C56.1768 57.7032 54.9593 57.7254 54.2067 57.017L50.7978 53.586C50.0674 52.8556 50.0674 51.6381 50.7978 50.8855ZM39.9515 55.4233C40.9919 55.4233 41.8551 56.2866 41.8551 57.3269V62.1082C41.8551 63.1485 40.9919 64.0118 39.9515 64.0118C38.889 64.0118 38.0257 63.1485 38.0257 62.1082V57.3269C38.0257 56.2866 38.889 55.4233 39.9515 55.4233Z" fill="white"/>
</svg>
