<svg width="80" height="80" viewBox="0 0 80 80" fill="none" xmlns="http://www.w3.org/2000/svg">
<path d="M33.6737 57.4416C32.7661 57.4416 32.0135 57.1539 31.1281 56.6226L8.5721 43.3414C7.00049 42.4117 6.33643 41.327 6.33643 40.0432C6.33643 38.7815 7.00049 37.6968 8.5721 36.7671L31.1281 23.4859C32.0356 22.9546 32.7661 22.6669 33.6737 22.6669C35.4002 22.6669 36.8612 23.995 36.8612 26.452V39.202C37.1047 38.2724 37.7687 37.4755 38.9862 36.7671L61.5422 23.4859C62.4497 22.9546 63.1802 22.6669 64.0877 22.6669C65.8143 22.6669 67.2752 23.995 67.2752 26.452V53.6565C67.2752 56.1135 65.8143 57.4416 64.0877 57.4416C63.1802 57.4416 62.4276 57.1539 61.5422 56.6226L38.9862 43.3414C37.7909 42.633 37.1047 41.8362 36.8612 40.9065V53.6565C36.8612 56.1135 35.4002 57.4416 33.6737 57.4416Z" fill="white"/>
</svg>
