<svg width="80" height="80" viewBox="0 0 80 80" fill="none" xmlns="http://www.w3.org/2000/svg">
<path d="M44.0129 33.8712C47.5717 30.4863 53.3418 30.4863 56.9006 33.8712C57.4938 34.4354 57.4938 35.35 56.9006 35.9142C56.3075 36.4783 55.3458 36.4783 54.7527 35.9142C52.3801 33.6576 48.5334 33.6576 46.1608 35.9142C43.7883 38.1708 43.7883 41.8295 46.1608 44.0861C48.5334 46.3427 52.3801 46.3427 54.7527 44.0861C55.3458 43.5219 56.3075 43.5219 56.9006 44.0861C57.4938 44.6502 57.4938 45.5649 56.9006 46.129C53.3418 49.514 47.5717 49.514 44.0129 46.129C40.454 42.7441 40.454 37.2561 44.0129 33.8712Z" fill="white"/>
<path d="M25.341 33.8711C28.8999 30.4862 34.6699 30.4862 38.2287 33.8711C38.8219 34.4352 38.8219 35.3499 38.2287 35.9141C37.6356 36.4782 36.6739 36.4782 36.0808 35.9141C33.7082 33.6574 29.8615 33.6574 27.489 35.9141C25.1164 38.1707 25.1164 41.8293 27.489 44.0859C29.8615 46.3426 33.7082 46.3426 36.0808 44.0859C36.6739 43.5218 37.6356 43.5218 38.2287 44.0859C38.8219 44.6501 38.8219 45.5648 38.2287 46.1289C34.6699 49.5138 28.8999 49.5138 25.341 46.1289C21.7822 42.744 21.7822 37.256 25.341 33.8711Z" fill="white"/>
<path fill-rule="evenodd" clip-rule="evenodd" d="M60.268 17.2002H19.7346C18.3355 17.2002 17.2013 18.3344 17.2013 19.7335V60.2669C17.2013 61.666 18.3355 62.8002 19.7346 62.8002H60.268C61.6671 62.8002 62.8013 61.666 62.8013 60.2669V19.7335C62.8013 18.3344 61.6671 17.2002 60.268 17.2002ZM19.7346 14.6669C16.9364 14.6669 14.668 16.9353 14.668 19.7335V60.2669C14.668 63.0651 16.9364 65.3335 19.7346 65.3335H60.268C63.0662 65.3335 65.3346 63.0651 65.3346 60.2669V19.7335C65.3346 16.9353 63.0662 14.6669 60.268 14.6669H19.7346Z" fill="white"/>
</svg>
