<svg width="80" height="80" viewBox="0 0 80 80" fill="none" xmlns="http://www.w3.org/2000/svg">
<path d="M25.7968 39.1635C25.1575 38.9111 24.7368 38.339 24.7368 37.7165C24.7368 36.7238 25.4603 35.9835 26.4362 35.9835C26.9578 35.9835 27.614 36.2695 28.0346 36.4209L39.7452 41.0143L51.439 36.4209C51.8596 36.2695 52.5327 35.9835 53.0374 35.9835C54.0133 35.9835 54.7368 36.7238 54.7368 37.7165C54.7368 38.339 54.3162 38.9111 53.6768 39.1635L42.2018 43.6559C41.4278 43.9588 40.4856 44.3289 39.7452 44.3289C38.9881 44.3289 38.0627 43.9588 37.2887 43.6559L25.7968 39.1635Z" fill="white"/>
</svg>
