<svg width="80" height="80" viewBox="0 0 80 80" fill="none" xmlns="http://www.w3.org/2000/svg">
<path d="M17.6912 54.1003C14.1717 54.1003 12.0024 51.931 12.0024 48.4115V23.0222C12.0024 19.5026 14.1717 17.3334 17.6912 17.3334H61.6522C65.1938 17.3334 67.341 19.5026 67.341 23.0222V48.4115C67.341 51.931 65.1938 54.1003 61.6522 54.1003H17.6912ZM17.7576 50.5365H61.5858C62.9582 50.5365 63.7772 49.7175 63.7772 48.3672V23.0664C63.7772 21.7162 62.9582 20.8972 61.5858 20.8972H17.7576C16.3853 20.8972 15.5662 21.7162 15.5662 23.0664V48.3672C15.5662 49.7175 16.3853 50.5365 17.7576 50.5365ZM33.7173 44.9805C33.009 44.9805 32.1899 44.5599 32.1899 43.3868V41.1732H27.2316C26.147 41.1732 25.4165 40.4427 25.4165 39.3802C25.4165 38.694 25.5493 38.1185 25.9035 37.2774L29.8657 28.6888C30.4855 27.3164 31.216 26.5196 32.7876 26.5196C34.2264 26.5196 35.2225 27.3607 35.2225 28.8881V38.6055H36.0194C36.9048 38.6055 37.2811 39.1589 37.2811 39.8894C37.2811 40.6198 36.8605 41.1732 36.0194 41.1732H35.2225V43.3868C35.2225 44.4493 34.5363 44.9805 33.7173 44.9805ZM41.5975 45.0026C40.5793 45.0026 39.9816 44.3164 39.9816 43.3204V28.224C39.9816 27.2058 40.5571 26.5417 41.5975 26.5417C42.66 26.5417 43.2134 27.2722 43.2134 28.224V35.1745H43.3683L48.3709 27.4935C48.6587 27.0287 48.9686 26.586 49.8097 26.586C50.7394 26.586 51.2707 27.3164 51.2707 28.0469C51.2707 28.5782 51.1157 28.9102 50.8501 29.2644L47.0428 34.931L51.3813 42.1693C51.6691 42.6784 51.7576 42.9662 51.7576 43.4532C51.7576 44.3164 51.2043 44.9584 50.3188 44.9584C49.4556 44.9584 49.035 44.5599 48.5923 43.7852L44.6743 37.1224L43.2355 39.3581V43.3204C43.2355 44.2279 42.7264 45.0026 41.5975 45.0026ZM32.2563 38.6719V29.3086H32.1678L28.1392 38.5391V38.6719H32.2563ZM28.5376 61.6042C27.5636 61.6042 26.7446 60.8073 26.7446 59.8112C26.7446 58.8151 27.5636 58.0183 28.5376 58.0183H50.8058C51.7798 58.0183 52.5988 58.8151 52.5988 59.8112C52.5988 60.8073 51.7798 61.6042 50.8058 61.6042H28.5376Z" fill="white"/>
</svg>
