<svg width="80" height="80" viewBox="0 0 80 80" fill="none" xmlns="http://www.w3.org/2000/svg">
<path d="M40.5664 50.1578C40.0347 50.1578 39.5643 49.9533 39.1758 49.5648L23.3476 33.3685C22.9999 33.0004 22.7954 32.5505 22.7954 32.0392C22.7954 30.9758 23.593 30.1578 24.6564 30.1578C25.188 30.1578 25.6584 30.3623 25.9856 30.6895L40.5664 45.5771L55.1267 30.6895C55.4743 30.3623 55.9447 30.1578 56.4559 30.1578C57.5193 30.1578 58.3169 30.9758 58.3169 32.0392C58.3169 32.5505 58.1124 33.0004 57.7647 33.348L41.9365 49.5648C41.5889 49.9533 41.0776 50.1578 40.5664 50.1578Z" fill="white"/>
</svg>
