<svg width="80" height="80" viewBox="0 0 80 80" fill="none" xmlns="http://www.w3.org/2000/svg">
<path fill-rule="evenodd" clip-rule="evenodd" d="M24.8876 21.3334C25.9308 21.3334 26.7765 22.1691 26.7765 23.2V36.2667C26.7765 37.2976 25.9308 38.1334 24.8876 38.1334C23.8444 38.1334 22.9987 37.2976 22.9987 36.2667V23.2C22.9987 22.1691 23.8444 21.3334 24.8876 21.3334ZM39.9987 21.3334C41.0419 21.3334 41.8876 22.1691 41.8876 23.2V30.6667H45.6654C46.7086 30.6667 47.5543 31.5024 47.5543 32.5334C47.5543 33.5643 46.7086 34.4 45.6654 34.4H34.332C33.2888 34.4 32.4431 33.5643 32.4431 32.5334C32.4431 31.5024 33.2888 30.6667 34.332 30.6667H38.1098V23.2C38.1098 22.1691 38.9555 21.3334 39.9987 21.3334ZM55.1098 21.3334C56.153 21.3334 56.9987 22.1691 56.9987 23.2V40C56.9987 41.031 56.153 41.8667 55.1098 41.8667C54.0666 41.8667 53.2209 41.031 53.2209 40V23.2C53.2209 22.1691 54.0666 21.3334 55.1098 21.3334ZM39.9987 38.1334C41.0419 38.1334 41.8876 38.9691 41.8876 40V56.8C41.8876 57.831 41.0419 58.6667 39.9987 58.6667C38.9555 58.6667 38.1098 57.831 38.1098 56.8V40C38.1098 38.9691 38.9555 38.1334 39.9987 38.1334ZM17.332 43.7334C17.332 42.7024 18.1777 41.8667 19.2209 41.8667H30.5543C31.5975 41.8667 32.4431 42.7024 32.4431 43.7334C32.4431 44.7643 31.5975 45.6 30.5543 45.6H26.7765V56.8C26.7765 57.831 25.9308 58.6667 24.8876 58.6667C23.8444 58.6667 22.9987 57.831 22.9987 56.8V45.6H19.2209C18.1777 45.6 17.332 44.7643 17.332 43.7334ZM47.5543 47.4667C47.5543 46.4358 48.3999 45.6 49.4431 45.6H60.7765C61.8197 45.6 62.6654 46.4358 62.6654 47.4667C62.6654 48.4976 61.8197 49.3334 60.7765 49.3334H56.9987V56.8C56.9987 57.831 56.153 58.6667 55.1098 58.6667C54.0666 58.6667 53.2209 57.831 53.2209 56.8V49.3334H49.4431C48.3999 49.3334 47.5543 48.4976 47.5543 47.4667Z" fill="white"/>
</svg>
