<svg width="80" height="80" viewBox="0 0 80 80" fill="none" xmlns="http://www.w3.org/2000/svg">
<path d="M25.0726 46.8692C18.4762 46.8692 14.6689 42.6414 14.6689 37.3953C14.6689 32.7247 17.7236 29.2494 21.7301 28.0763C22.4606 19.864 29.3226 13.3341 37.6455 13.3341C44.0426 13.3341 49.1781 16.8536 51.945 22.3211C59.4489 22.3211 65.2041 27.4786 65.2041 34.5398C65.2041 41.3575 59.8031 46.8692 52.5426 46.8692H25.0726ZM25.0283 43.3276H52.764C57.8109 43.3276 61.6624 39.4539 61.6624 34.6284C61.6624 29.9135 57.9658 25.9734 51.4137 25.9734C50.1077 25.9734 49.4437 25.5971 48.9346 24.5125C46.5439 19.6205 42.626 16.8758 37.6455 16.8758C31.2262 16.8758 25.8031 22.0776 25.2939 29.3159C25.1833 30.5554 24.7406 31.131 23.5231 31.463C19.7601 32.4591 18.2106 34.8497 18.2106 37.506C18.2106 40.782 20.4906 43.3276 25.0283 43.3276ZM45.2601 55.0815C45.902 55.0815 46.0791 55.7013 45.6143 56.1882L35.8304 66.2156C35.5869 66.4591 35.3434 66.5255 35.1442 66.4369C34.945 66.3484 34.8786 66.1049 34.9893 65.8172L38.0218 58.4682H34.1702C33.5947 58.4682 33.3512 58.1362 33.5947 57.5828L36.6051 50.7208C36.8044 50.256 37.0257 50.0346 37.6676 50.0346H42.471C42.958 50.0346 43.1572 50.4109 42.8916 50.8979L40.7223 55.0815H45.2601ZM20.4463 57.7377C19.7601 57.3614 19.583 56.5867 19.9593 55.9448L22.859 50.8979C23.2575 50.2338 24.0101 50.0125 24.6742 50.3888C25.3382 50.7872 25.5596 51.5619 25.1611 52.2481L22.2835 57.2286C21.9072 57.8927 21.1104 58.114 20.4463 57.7377ZM51.2145 57.7377C50.5283 57.3614 50.3512 56.5867 50.7275 55.9448L53.6273 50.8979C54.0257 50.2338 54.7783 50.0125 55.4645 50.3888C56.1064 50.7872 56.3278 51.5619 55.9294 52.2481L53.0518 57.2286C52.6755 57.8927 51.8786 58.114 51.2145 57.7377ZM24.7406 63.9356C24.0544 63.5372 23.8773 62.7625 24.2314 62.1205L27.1533 57.0958C27.5518 56.4096 28.3044 56.1882 28.9684 56.5867C29.6325 56.9851 29.8538 57.7599 29.4554 58.4239L26.5778 63.4265C26.2015 64.0685 25.4046 64.2898 24.7406 63.9356ZM55.5088 63.9356C54.8226 63.5372 54.6455 62.7625 55.0218 62.1205L57.9215 57.0958C58.32 56.4096 59.0726 56.1882 59.7588 56.5867C60.4007 56.9851 60.6221 57.7599 60.2236 58.4239L57.346 63.4265C56.9697 64.0685 56.1728 64.2898 55.5088 63.9356Z" fill="white"/>
</svg>
