<svg width="80" height="80" viewBox="0 0 80 80" fill="none" xmlns="http://www.w3.org/2000/svg">
<path d="M17.332 41.5368C17.332 34.0993 21.0951 27.4144 26.7839 23.2751C27.7578 22.5225 28.9753 22.766 29.5286 23.6735C30.082 24.6032 29.7943 25.6436 28.8867 26.3298C24.1719 29.6944 21.1172 35.2504 21.0951 41.5368C21.0729 51.9847 29.4622 60.3519 39.9102 60.3519C50.3581 60.3519 58.7031 51.9847 58.7031 41.5368C58.7031 32.572 52.5495 25.1345 44.1823 23.2308V26.3741C44.1823 27.9678 43.0977 28.3884 41.8802 27.503L34.8411 22.5446C33.8008 21.8142 33.8229 20.7517 34.8411 20.0433L41.9023 15.1071C43.0977 14.2439 44.1823 14.6644 44.1823 16.236V19.3793C54.5417 21.4157 62.4883 30.6462 62.4883 41.5368C62.4883 53.8884 52.2617 64.115 39.9102 64.115C27.5807 64.115 17.332 53.8884 17.332 41.5368ZM45.2891 50.7673C40.9505 50.7673 39.401 46.3181 39.401 41.9353C39.401 37.5967 40.9062 33.1254 45.2891 33.1254C49.6497 33.1254 51.1771 37.5746 51.1771 41.9353C51.1771 46.2959 49.6497 50.7673 45.2891 50.7673ZM34.1107 50.6345C33.1589 50.6345 32.5833 49.9483 32.5833 48.9965V36.49H32.5391L30.3477 38.128C30.082 38.3272 29.8828 38.4157 29.5508 38.4157C28.931 38.4157 28.4661 37.9288 28.4661 37.2868C28.4661 36.7556 28.7318 36.3793 29.1745 36.0694L31.6758 34.21C32.362 33.6788 33.0039 33.2803 33.8893 33.2803C34.974 33.2803 35.6602 33.9222 35.6602 35.0069V48.9965C35.6602 49.9483 35.0846 50.6345 34.1107 50.6345ZM45.2891 48.266C47.1484 48.266 48.056 45.5433 48.056 41.9353C48.056 38.3715 47.1484 35.6488 45.2891 35.6488C43.4518 35.6488 42.5221 38.3493 42.5221 41.9353C42.5221 45.5433 43.4518 48.266 45.2891 48.266Z" fill="white"/>
</svg>
