<svg width="80" height="80" viewBox="0 0 80 80" fill="none" xmlns="http://www.w3.org/2000/svg">
<path d="M39.55 63.6188C38.6868 63.6188 37.9342 62.9326 37.9342 62.0693V18.861C37.9342 17.9977 38.6868 17.3336 39.55 17.3336C40.4133 17.3336 41.1881 17.9977 41.1881 18.861V62.0693C41.1881 62.9326 40.4133 63.6188 39.55 63.6188ZM65.3157 53.3479L48.537 43.0771C46.3678 41.7268 46.3235 39.2255 48.537 37.8753L65.3157 27.6045C67.4628 26.2985 69.787 27.2724 69.787 29.9065V51.0237C69.787 53.7242 67.4185 54.6318 65.3157 53.3479ZM30.5631 43.0771L13.7844 53.3479C11.7037 54.6318 9.33521 53.7242 9.33521 51.0237V29.9065C9.33521 27.2724 11.6594 26.2985 13.7844 27.6045L30.5631 37.8753C32.7987 39.2255 32.7323 41.7268 30.5631 43.0771ZM28.1946 40.93C28.5266 40.7308 28.7258 40.3545 28.1724 40.0003L13.3417 30.8141C13.1204 30.6591 12.5448 30.5927 12.5448 31.1904V49.762C12.5448 50.3154 13.0761 50.2933 13.3417 50.1383L28.1946 40.93ZM65.7584 50.1383C66.0461 50.2933 66.5553 50.3154 66.5553 49.762V31.1904C66.5553 30.5927 66.0019 30.6591 65.7584 30.8141L50.9277 40.0003C50.3964 40.3545 50.5735 40.7308 50.9277 40.93L65.7584 50.1383Z" fill="white"/>
</svg>
