<svg width="80" height="80" viewBox="0 0 80 80" fill="none" xmlns="http://www.w3.org/2000/svg">
<path d="M24.4889 48.5105C21.5006 48.5105 19.9954 47.0053 19.9954 43.7957V35.3178C19.9954 32.1082 21.4784 30.5809 24.4889 30.5809H30.8417C31.0409 30.5809 31.218 30.5144 31.373 30.3816L41.356 21.5275C42.5071 20.4871 43.1933 20.0001 44.2336 20.0001C45.7167 20.0001 46.7792 21.1733 46.7792 22.6121V56.5678C46.7792 58.0066 45.7167 59.047 44.2779 59.047C43.2375 59.047 42.3964 58.6043 41.356 57.6525L31.373 48.7098C31.218 48.5769 31.0409 48.5105 30.8417 48.5105H24.4889ZM24.6438 45.2788H31.7271C32.3027 45.2788 32.7454 45.4116 33.2545 45.8543L42.6842 54.3764C42.817 54.4871 42.9498 54.5535 43.0605 54.5535C43.2154 54.5535 43.3482 54.4207 43.3482 54.2215V24.8035C43.3482 24.6043 43.2154 24.4936 43.0605 24.4936C42.9055 24.4936 42.7948 24.56 42.6842 24.6707L33.2545 33.2371C32.7454 33.7019 32.3027 33.8126 31.7271 33.8126H24.6438C23.8248 33.8126 23.4485 34.1889 23.4485 35.0301V44.0835C23.4485 44.9025 23.8248 45.2788 24.6438 45.2788ZM54.261 48.9532C53.3534 48.3113 53.2428 47.2488 53.9068 46.3191C55.1685 44.5262 55.9211 42.0913 55.9211 39.5236C55.9211 36.9559 55.1907 34.4988 53.9068 32.728C53.2206 31.8204 53.3534 30.7137 54.261 30.0939C54.9914 29.5626 56.0318 29.7397 56.6295 30.603C58.3339 32.8608 59.3521 36.1368 59.3521 39.5236C59.3521 42.9103 58.3339 46.2085 56.6295 48.4441C56.0318 49.3074 54.9914 49.4624 54.261 48.9532Z" fill="white"/>
</svg>
