<svg width="80" height="80" viewBox="0 0 80 80" fill="none" xmlns="http://www.w3.org/2000/svg">
<path d="M39.1669 53.657C38.9145 54.3132 38.3424 54.7338 37.7199 54.7338C36.7271 54.7338 35.9868 54.0103 35.9868 53.0176C35.9868 52.5128 36.2729 51.8567 36.4243 51.4192L41.0177 39.7254L36.4243 28.0316C36.2729 27.5942 35.9868 26.9212 35.9868 26.4332C35.9868 25.4573 36.7271 24.7338 37.7199 24.7338C38.3424 24.7338 38.9145 25.1376 39.1669 25.7938L43.6761 37.2689C43.979 38.0429 44.3491 38.9851 44.3491 39.7254C44.3491 40.4657 43.979 41.408 43.6761 42.1819L39.1669 53.657Z" fill="white"/>
</svg>
