<svg width="80" height="80" viewBox="0 0 80 80" fill="none" xmlns="http://www.w3.org/2000/svg">
<path d="M17.3359 41.5298C17.3359 30.6391 25.2826 21.4087 35.6419 19.3722V16.2511C35.6419 14.6574 36.7266 14.2368 37.9661 15.1222L45.0052 20.0805C46.0234 20.811 46.0013 21.8735 45.0052 22.5597L37.944 27.518C36.7266 28.3813 35.6419 27.9608 35.6419 26.3891V23.2238C27.2747 25.1274 21.1211 32.5649 21.1211 41.5298C21.1211 51.9777 29.4661 60.3449 39.9141 60.3449C50.362 60.3449 58.7513 51.9777 58.7292 41.5298C58.707 35.2433 55.6523 29.6873 50.9375 26.3227C50.0299 25.6365 49.7422 24.5962 50.2956 23.6665C50.849 22.7589 52.0664 22.5154 53.0404 23.268C58.7292 27.4074 62.4922 34.0923 62.4922 41.5298C62.4922 53.8813 52.2656 64.1079 39.9141 64.1079C27.5846 64.1079 17.3359 53.8813 17.3359 41.5298ZM45.1823 50.7602C40.8437 50.7602 39.2943 46.311 39.2943 41.9282C39.2943 37.5897 40.7995 33.1183 45.1823 33.1183C49.543 33.1183 51.0703 37.5675 51.0703 41.9282C51.0703 46.2889 49.543 50.7602 45.1823 50.7602ZM34.0039 50.6274C33.0521 50.6274 32.4766 49.9412 32.4766 48.9894V36.4829H32.4323L30.2409 38.1209C29.9974 38.3201 29.776 38.4087 29.444 38.4087C28.8242 38.4087 28.3594 37.9217 28.3594 37.2798C28.3594 36.7485 28.625 36.3722 29.0677 36.0623L31.569 34.2029C32.2552 33.6717 32.8971 33.2733 33.7826 33.2733C34.8672 33.2733 35.5534 33.9152 35.5534 34.9998V48.9894C35.5534 49.9412 34.9779 50.6274 34.0039 50.6274ZM45.1823 48.2589C47.0417 48.2589 47.9492 45.5363 47.9492 41.9282C47.9492 38.3644 47.0417 35.6417 45.1823 35.6417C43.3451 35.6417 42.4154 38.3423 42.4154 41.9282C42.4154 45.5363 43.3451 48.2589 45.1823 48.2589Z" fill="white"/>
</svg>
