<svg width="161" height="80" viewBox="0 0 161 80" fill="none" xmlns="http://www.w3.org/2000/svg">
<path d="M39.1609 62C51.4114 62 54.7874 57.0312 55.5694 53.5207C55.816 52.4148 55.8673 51.4024 55.6922 50.4994C55.1746 48.0073 52.8416 46.7623 49.2568 46.1431C46.7408 45.7135 40.1329 44.746 37.976 44.3872C36.7397 44.1824 36.2076 43.7153 36.3278 42.9261C36.2902 42.7248 36.3018 42.4988 36.359 42.242C36.8661 39.9624 39.5278 39.4396 41.8754 39.4396C46.7292 39.4396 47.6209 40.709 47.406 42.7269H55.971C56.4096 37.0877 51.8701 35 42.5115 35C30.843 35 27.6271 39.7665 26.8824 43.1338C26.042 46.932 27.5813 49.5826 32.8872 50.3715L41.4743 51.6611C42.6047 51.8369 43.4732 51.9829 44.2887 52.2173C45.1042 52.4517 45.8247 52.9907 45.6308 53.857C45.3974 54.9076 44.6174 55.6371 43.3581 56.0537C42.3591 56.5027 41.1013 56.6413 39.926 56.6413C35.3028 56.6413 34.4533 55.4236 34.6579 53.4878H25.0759C24.3301 59.711 29.0851 62 39.1612 62H39.1609Z" fill="white"/>
<path d="M54.2511 55.1107L53 61H61.3719L64.8625 44.578H64.9349L73.8962 61H83.4707L87.9337 39.9981L87.9359 40.0031L89 35H88.996H85.7565H80.6223L77.1624 51.2777H77.0902L68.4979 35H58.5238L57.7234 38.7672L57.0256 42.0519L55.1857 50.7123L54.2511 55.1107Z" fill="white"/>
<path d="M108.555 35L100.064 46.0335L96.4461 35H89.3716H89.3674H86L88.2655 40.0031L94.0638 52.8083L92.253 61H101.26L103.071 52.8083L119 35H108.555Z" fill="white"/>
<path d="M96.5968 24.0003C90.63 24.0003 85.5785 24.7152 80 25.7954C82.7694 25.422 85.5705 25.2565 88.7535 25.2565C111.098 25.2565 126.543 34.7811 124.15 46.7497C123.059 52.2052 118.295 57.1905 111.321 61H125.064C130.853 57.1795 134.74 52.5189 135.745 47.4887C138.342 34.518 120.815 24 96.5968 24V24.0003Z" fill="white"/>
<path d="M99.7344 20.5903C116.447 20.5903 127.761 26.2624 135 33.4909C127.917 24.9143 114.563 19 96.1908 19C75.3512 19 58.3163 25.7926 50 33.9449L56.0589 34C65.8117 25.6089 81.4537 20.5903 99.7344 20.5903Z" fill="white"/>
</svg>
