<svg width="161" height="80" viewBox="0 0 161 80" fill="none" xmlns="http://www.w3.org/2000/svg">
<path d="M103.841 13.395C103.841 15.7347 103.849 18.0332 103.824 20.3316C103.824 20.5338 103.631 20.7731 103.462 20.934C102.274 22.0729 101.095 23.216 99.8571 24.3012C99.5694 24.5529 99.0802 24.6809 98.6855 24.6809C92.6919 24.7056 86.6941 24.6974 80.7004 24.6974C79.4589 24.6974 78.3284 25.8033 78.3202 27.0536C78.3037 28.7826 78.3037 30.5115 78.3079 32.2405C78.3079 33.3505 79.0971 34.1304 80.1906 34.1304C85.6663 34.1304 91.1421 34.118 96.6178 34.1552C97.0494 34.1552 97.5797 34.378 97.888 34.6751C99.8037 36.5196 101.682 38.3972 103.532 40.3077C103.816 40.6007 104.009 41.1165 104.009 41.5292C104.042 47.1535 104.042 52.782 104.009 58.4063C104.009 58.7901 103.812 59.2646 103.545 59.537C101.337 61.79 99.1049 64.0142 96.848 66.2136C96.589 66.4653 96.145 66.6551 95.7874 66.6551C83.689 66.6716 71.5865 66.6675 59.4882 66.6592C59.2498 66.6592 59.0072 66.6303 58.7112 66.6097C58.7112 65.9247 58.6784 65.2975 58.7277 64.6744C58.7482 64.4392 58.9209 64.1751 59.1018 63.9935C61.9054 61.1752 64.7131 58.3609 67.5455 55.5797C67.7963 55.3321 68.2608 55.1918 68.6267 55.1918C73.6913 55.1629 78.7559 55.1712 83.8206 55.1671C85.1607 55.1671 86.3282 53.991 86.3282 52.6499C86.3282 51.086 86.3282 49.5221 86.3282 47.9582C86.3282 46.4355 85.6664 45.7629 84.1741 45.7629C78.8094 45.7629 73.4447 45.7464 68.08 45.7629C67.451 45.7629 67.0152 45.5689 66.5836 45.1233C64.7789 43.2458 62.9249 41.4177 61.1202 39.5402C60.8695 39.2761 60.668 38.8387 60.6639 38.4797C60.6269 34.2831 60.6187 30.0865 60.6475 25.8858C60.6475 25.502 60.8489 25.0234 61.1202 24.751C64.783 21.0496 68.4746 17.377 72.1703 13.7086C72.3594 13.5188 72.6801 13.362 72.9431 13.362C83.1258 13.3331 93.3085 13.3331 103.491 13.3331C103.569 13.3331 103.652 13.362 103.841 13.395Z" fill="white"/>
<path d="M35.398 34.2486H53.7419V45.7262H32.5209C33.4437 46.6654 34.1995 47.3978 34.9052 48.1756C35.1224 48.4156 35.3186 48.7797 35.3186 49.0859C35.3437 54.8371 35.3395 60.5883 35.3437 66.3396C35.3437 66.4223 35.3228 66.5009 35.3019 66.6664H17.3672V13.3331H65.3672C65.2544 13.4945 65.1709 13.6517 65.054 13.7717C61.5171 17.2804 57.9845 20.789 54.4268 24.2729C54.1887 24.5046 53.7419 24.6246 53.3912 24.6246C47.7456 24.6535 42.1 24.6535 36.4544 24.6618C36.1246 24.6618 35.7988 24.6618 35.398 24.6618V34.2527V34.2486Z" fill="white"/>
<path d="M142.7 66.6664H122.965C122.949 66.3362 122.924 66.0472 122.924 65.754C122.916 55.7051 122.916 45.6521 122.884 35.6032C122.884 34.7114 123.079 34.0426 123.779 33.4604C124.565 32.8081 125.261 32.0485 125.997 31.3384C125.961 31.2723 125.924 31.2021 125.887 31.1361H112.09C112.09 29.658 112.2 28.2543 112.062 26.8795C111.895 25.224 112.481 24.0845 113.665 22.9574C116.807 19.9724 119.823 16.8471 122.908 13.7961C123.152 13.5566 123.547 13.3461 123.873 13.3461C129.998 13.3254 136.123 13.3337 142.253 13.342C142.383 13.342 142.517 13.3626 142.7 13.3791V66.6664Z" fill="white"/>
</svg>
