<svg width="161" height="80" viewBox="0 0 161 80" fill="none" xmlns="http://www.w3.org/2000/svg">
<path d="M142.527 13.3331C141.662 14.8224 140.818 16.3117 139.953 17.8011C135.917 24.7243 131.88 31.6677 127.844 38.591C127.7 38.8526 127.7 39.0337 127.844 39.2954C133.136 48.2312 138.429 57.1469 143.721 66.0828C143.824 66.2438 143.907 66.4048 144.03 66.6262C143.845 66.6262 143.721 66.6463 143.598 66.6463C138.12 66.6463 132.642 66.6463 127.164 66.6463C126.855 66.6463 126.711 66.5457 126.567 66.2841C124.158 62.0576 121.728 57.8514 119.318 53.6451C119.236 53.5042 119.153 53.3633 119.03 53.1822C118.927 53.3633 118.845 53.4841 118.762 53.6249C116.415 57.8312 114.067 62.0375 111.74 66.2639C111.575 66.5457 111.41 66.6664 111.081 66.6664C105.768 66.6664 100.434 66.6664 95.1209 66.6664H94.6678C94.7502 66.5054 94.812 66.3847 94.8943 66.2639C100.084 57.3683 105.294 48.4727 110.504 39.5771C110.71 39.235 110.71 38.9935 110.504 38.6514C105.562 30.3193 100.619 21.9671 95.6975 13.6149C95.6357 13.5344 95.5945 13.4338 95.5533 13.3331C101.34 13.3331 107.127 13.3331 112.893 13.3331C115.014 17.157 117.115 20.9809 119.256 24.8652C119.359 24.7042 119.421 24.5834 119.483 24.4828C120.677 22.3696 121.851 20.2564 123.025 18.1432C123.952 16.5533 124.837 14.9432 125.723 13.3331C131.324 13.3331 136.926 13.3331 142.506 13.3331H142.527Z" fill="white"/>
<path d="M50.0868 13.3331C50.1692 14.6011 50.2516 15.8489 50.3339 17.1168C50.4575 18.747 50.5811 20.3772 50.7046 22.0073C50.8282 23.7583 50.9517 25.5092 51.0753 27.2602C51.0753 27.4413 51.0753 27.6426 51.0753 27.8841C50.89 27.8841 50.7252 27.8841 50.5605 27.8841C44.8149 27.8841 39.0487 27.8841 33.3031 27.8841C32.9187 27.8841 32.7265 28.0719 32.7265 28.4476C32.7265 30.3998 32.7265 32.3721 32.7265 34.3243V34.8275H47.698V49.2979C47.5126 49.2979 47.3479 49.2979 47.1831 49.2979C42.5496 49.2979 37.9161 49.2979 33.2825 49.2979C32.9118 49.2979 32.7265 49.479 32.7265 49.8413C32.7265 55.1947 32.7265 60.5482 32.7265 65.9017V66.4853H17.3638V13.3331C28.2783 13.3331 39.1723 13.3331 50.0868 13.3331Z" fill="white"/>
<path d="M102.744 39.718C102.744 50.4249 96.7517 59.6627 87.2169 63.9495C84.7869 65.0363 82.2333 65.6803 79.5768 65.9419C75.3963 66.3646 71.2982 65.9621 67.3648 64.513C63.3285 63.0237 59.9718 60.5885 57.1093 57.4488C53.9173 53.9671 51.8168 49.9218 50.9312 45.313C50.3958 42.596 50.2722 39.8589 50.5606 37.1218C51.549 28.1256 56.2855 21.5042 64.1317 16.9357C67.0971 15.2048 70.3921 14.3193 73.8312 13.9973C78.2588 13.5948 82.5628 14.0979 86.7021 15.7885C93.1273 18.425 100.438 25.2073 102.209 34.4853C102.559 36.2967 102.724 38.108 102.744 39.6778V39.718ZM72.1631 39.8187C72.1631 43.4212 72.1631 47.0036 72.1631 50.6061C72.1631 53.6652 75.3551 55.8187 78.3 54.7922C80.071 54.1683 81.286 52.4778 81.286 50.5457C81.286 43.4011 81.286 36.2564 81.286 29.1118C81.286 29.0312 81.286 28.9306 81.286 28.8501C81.1625 26.0526 78.5471 24.0803 75.7464 24.6841C73.687 25.1268 72.1837 26.918 72.1631 28.991C72.1631 32.5935 72.1631 36.2162 72.1631 39.8187Z" fill="white"/>
</svg>
