<svg width="81" height="80" viewBox="0 0 81 80" fill="none" xmlns="http://www.w3.org/2000/svg">
<path d="M41.6749 66.6638H38.3438C37.3195 66.5204 36.2925 66.4083 35.276 66.2284C20.0933 63.5637 10.2929 48.2766 14.1896 33.3467C17.8074 19.4781 31.434 11.0171 45.5273 13.8931C55.9871 16.0285 64.4399 24.7267 66.2253 35.2084C66.4026 36.2435 66.5199 37.2891 66.6658 38.3268V41.6617C66.5199 42.6994 66.4026 43.7423 66.2253 44.7775C64.4243 55.3191 55.8906 64.0643 45.3917 66.1085C44.1615 66.3483 42.913 66.4839 41.6723 66.6664L41.6749 66.6638ZM32.6852 29.1045C32.6773 29.2948 32.6643 29.4383 32.6643 29.5817C32.6643 33.0599 32.6643 36.5408 32.6643 40.019C32.6643 40.2954 32.6643 40.577 32.7008 40.8508C33.2508 45.0956 37.0953 47.935 41.297 47.2076C45.3292 46.5062 47.9956 42.5091 47.1094 38.4233C46.0486 33.5397 40.5046 31.326 36.9963 33.5266C36.9441 33.5605 36.8686 33.5579 36.7382 33.584V29.1045H32.6799H32.6852ZM31.6504 47.1867C31.6504 46.9207 31.6504 46.72 31.6504 46.5192C31.6504 44.4828 31.6582 42.4439 31.6452 40.4075C31.6426 39.873 31.6243 39.3307 31.5383 38.8014C31.0483 35.8133 28.7885 33.4797 25.778 32.8305C22.8952 32.2073 19.8613 33.4745 18.2062 35.988C16.5615 38.4859 16.5745 41.7581 18.3365 44.1856C20.0255 46.5088 22.3244 47.6404 25.2124 47.1945C26.0308 47.0694 26.7919 46.5609 27.5869 46.2272C27.6051 46.4905 27.626 46.8295 27.652 47.1893H31.653L31.6504 47.1867ZM62.8682 39.0152C62.5398 35.4065 58.9924 32.4602 55.3198 32.6792C51.2511 32.9217 48.1963 36.2722 48.3449 40.3293C48.4882 44.2351 51.7933 47.3536 55.7525 47.3249C59.3286 47.2988 62.7796 44.2351 62.8473 40.9811C61.6666 40.9811 60.4833 40.9968 59.3051 40.9707C58.9063 40.9629 58.7004 41.0672 58.5154 41.4505C57.8064 42.921 56.0966 43.5755 54.5666 43.0175C53.0313 42.4595 52.166 40.8612 52.5413 39.2759C52.8619 37.9227 53.9514 36.9579 55.3433 36.7963C56.6491 36.6424 57.9341 37.3777 58.5701 38.6136C58.6561 38.7779 58.8516 38.9943 59.0028 38.9995C60.2774 39.0308 61.5493 39.0178 62.8708 39.0178L62.8682 39.0152Z" fill="white"/>
<path d="M37.3325 39.9901C37.3369 38.5135 38.53 37.3267 40.0046 37.3331C41.4683 37.3396 42.6766 38.5589 42.6658 40.016C42.6528 41.4861 41.451 42.6708 39.9786 42.6664C38.4975 42.66 37.3282 41.4774 37.3325 39.9901Z" fill="white"/>
<path d="M21.3352 40.003C21.3352 38.5243 22.82 37.3331 24.6591 37.3331C26.49 37.3331 28.0019 38.5416 27.9992 40.003C27.9992 41.4688 26.4928 42.6665 24.6564 42.6665C22.8065 42.6665 21.3325 41.4861 21.3325 40.003H21.3352Z" fill="white"/>
</svg>
