<svg width="161" height="80" viewBox="0 0 161 80" fill="none" xmlns="http://www.w3.org/2000/svg">
<path d="M47.0948 40.7498C47.1673 48.5594 53.9399 51.1583 54.0149 51.1914C53.9576 51.3747 52.9328 54.895 50.4468 58.5313C48.2977 61.675 46.0673 64.8072 42.5538 64.8721C39.1014 64.9357 37.9912 62.823 34.0442 62.823C30.0983 62.823 28.8648 64.8072 25.5968 64.9357C22.2053 65.0642 19.6227 61.5362 17.4558 58.404C13.0281 51.997 9.64434 40.2993 14.1878 32.4031C16.4449 28.4819 20.4786 25.9988 24.8567 25.9351C28.187 25.8715 31.3305 28.1776 33.3664 28.1776C35.4009 28.1776 39.2209 25.4043 43.2367 25.8116C44.9178 25.8816 49.6368 26.4913 52.667 30.9306C52.4228 31.0821 47.0363 34.2206 47.0948 40.7498ZM40.6064 21.5728C42.4069 19.3914 43.6188 16.3547 43.2882 13.3331C40.6929 13.4375 37.5545 15.0641 35.6929 17.2443C34.0245 19.175 32.5634 22.2652 32.9577 25.2269C35.8505 25.4509 38.8058 23.7556 40.6064 21.5728Z" fill="white"/>
<path d="M73.3212 65.3336C74.0786 65.3336 74.7901 65.2992 75.4556 65.2304C76.1212 65.1615 76.672 65.0926 77.1081 65.0238V59.2745C76.8327 59.2975 76.5229 59.3319 76.1786 59.3778C75.8573 59.4007 75.5015 59.4122 75.1114 59.4122C73.5277 59.4122 72.3343 59.0794 71.531 58.4139C70.7277 57.7253 70.326 56.463 70.326 54.6269V34.3151H77.1081V28.3937H70.326V18.9607H62.6833V28.3937H57.4848V34.3151H62.6833V55.04C62.6833 58.6663 63.5554 61.2942 65.2997 62.9238C67.067 64.5303 69.7408 65.3336 73.3212 65.3336Z" fill="white"/>
<path d="M93.1854 64.6107H101.207L114.186 28.3937H106.371L97.3167 57.3122H97.1445L88.0558 28.3937H80.1377L93.1854 64.6107Z" fill="white"/>
<path d="M134.35 28.3956H127.513V43.0841H112.823V49.9211H127.513V64.6101H134.35V49.9211H149.038V43.0841H134.35V28.3956Z" fill="white"/>
</svg>
