<svg width="161" height="80" viewBox="0 0 161 80" fill="none" xmlns="http://www.w3.org/2000/svg">
<path d="M61.4 26.9412L80.0335 45.879L84.3591 41.4831V32.0126L80.0303 36.4117L70.7072 26.9379L80.0303 17.4609L89.3535 26.9379H89.3503V36.4084L98.6671 26.9412L80.0335 8.00012L61.4 26.9412Z" fill="white"/>
<path d="M44.8557 50.1597H33.8953V72.0001H38.6222V66.321H44.8525C46.3877 66.321 47.6459 65.041 47.6459 63.4831V53.0009C47.6459 51.4397 46.3877 50.163 44.8525 50.163L44.8557 50.1597ZM42.9222 61.9542H38.6254V54.5297H42.9222V61.9542Z" fill="white"/>
<path d="M54.3235 50.1597H49.5966V72.0001H61.9138L62.8344 67.6333H54.3235V50.1597Z" fill="white"/>
<path d="M69.2751 67.6328H74.1549L74.9225 71.9995H79.6812L75.3525 50.1592L68.2909 50.1495L63.6882 71.9995H68.4756L69.2751 67.6328ZM71.9125 54.5292L73.4159 63.266H70.0682L71.6959 54.5292H71.9125Z" fill="white"/>
<path d="M87.9445 72.0001V64.7922L93.595 50.1597H88.5274L85.6129 59.3329L82.6666 50.1597H77.5989L83.2495 64.7922V72.0001H87.9445Z" fill="white"/>
<path d="M95.156 72.0001H106.852V67.6333H99.8829V63.2633H104.119L105.1 58.8965H99.8829V54.5265H106.852V50.1597H95.156V72.0001Z" fill="white"/>
<path d="M122.606 63.0758V52.9976C122.606 51.4365 121.348 50.1597 119.813 50.1597H108.977V72.0001H113.704V65.8847H116.191L117.758 72.0001H122.638L121.011 65.6035C121.992 65.1671 122.606 64.1683 122.606 63.0758ZM117.879 61.5146H113.704V54.5265H117.879V61.5146Z" fill="white"/>
<path d="M137.366 56.0554V52.9976C137.366 51.4365 136.108 50.1597 134.573 50.1597H127.266C125.73 50.1597 124.472 51.4397 124.472 52.9976V58.5507C124.472 59.6755 125.148 60.7033 126.192 61.1397L132.639 63.9162V67.6301H129.202V65.0087L124.475 66.1012V69.1589C124.475 70.7201 125.734 71.9969 127.269 71.9969H134.576C136.111 71.9969 137.369 70.7169 137.369 69.1589V62.9498C137.369 61.8249 136.694 60.7971 135.649 60.3607L129.202 57.5842V54.5265H132.639V57.1479L137.366 56.0554Z" fill="white"/>
<path d="M26.8593 69.9335L30.0955 68.5243V67.5837L26.8593 66.1776H31.943V64.109H22.7026V66.2972L27.1365 68.0556L22.7026 69.8107V71.9989H31.943V69.9335H26.8593Z" fill="white"/>
<path d="M30.0955 57.5104V60.3871H22.7026V62.4525H31.943V57.5104H30.0955Z" fill="white"/>
<path d="M30.7421 50.1597H28.4328C27.9328 50.1597 27.5091 50.4668 27.3244 50.9096C27.1396 50.4668 26.716 50.1597 26.2159 50.1597H23.9035C23.2441 50.1597 22.7026 50.7092 22.7026 51.3815V56.1717H31.943V51.3815C31.943 50.7092 31.4015 50.1597 30.7421 50.1597ZM30.0955 52.2251V54.1031H28.2481V52.2251H30.0955ZM26.4007 52.2251V54.1031H24.5532V52.2251H26.4007Z" fill="white"/>
</svg>
