<svg width="161" height="80" viewBox="0 0 161 80" fill="none" xmlns="http://www.w3.org/2000/svg">
<path d="M113.062 33.3476H47.2125C47.2125 33.3476 47.1803 33.2995 47.1803 33.2834C47.3578 31.9206 47.3739 30.5417 47.8096 29.211C48.5679 26.8541 50.2622 25.4111 52.5534 24.5934C53.8281 24.1605 55.1351 24.0001 56.4905 24.0001C72.8843 24.0001 89.2941 24.0001 105.688 24.0001C107.076 24.0001 108.447 24.1284 109.754 24.6575C111.932 25.5393 113.062 27.1747 113.32 29.4675C113.465 30.7662 113.223 32.0489 113.062 33.3476Z" fill="white"/>
<path d="M67.042 48.467C67.2034 47.2004 67.3486 45.9498 67.5099 44.6511C67.3486 44.6511 67.2195 44.6511 67.0904 44.6511C62.2336 44.6511 57.3768 44.6511 52.5039 44.6511C51.5357 44.6511 50.5837 44.5388 49.6801 44.154C47.9052 43.4005 46.9855 42.0056 46.6628 40.1617C46.4853 39.1516 46.5337 38.1415 46.6628 37.1314C46.6789 36.9871 46.7273 36.9069 46.8887 36.923C46.9532 36.923 47.0178 36.923 47.0823 36.923C55.1017 36.923 63.1049 36.923 71.1243 36.923C72.4636 36.923 73.7867 37.0993 75.0291 37.6284C77.0138 38.4942 78.0949 40.0174 78.3853 42.1338C78.5467 43.3203 78.4176 44.4907 78.2562 45.6612C78.0303 47.3447 77.7722 49.0282 77.5301 50.7117C77.0622 54.0947 74.9484 55.9546 71.7859 56.8685C70.4466 57.2533 69.0912 57.3334 67.7036 57.3334C59.9746 57.3334 52.2618 57.3334 44.5329 57.3334C44.4361 57.3334 44.3231 57.3334 44.194 57.3334C44.2586 56.7402 44.3231 56.163 44.4038 55.6018C44.6781 53.3411 44.9685 51.0804 45.2428 48.8197C45.2751 48.5311 45.3881 48.483 45.6462 48.483C52.6329 48.483 59.6196 48.483 66.6225 48.483C66.7516 48.483 66.8807 48.483 67.0581 48.483L67.042 48.467Z" fill="white"/>
<path d="M43.4834 44.6511H24.7823C24.6209 45.9177 24.4757 47.1844 24.3143 48.467H43.0316C42.9509 49.0763 42.8864 49.6535 42.8219 50.2307C42.5475 52.4914 42.2571 54.7521 41.9828 57.0128C41.9505 57.2373 41.886 57.3175 41.644 57.3175C31.8658 57.3175 22.1038 57.3175 12.3256 57.3175C12.2449 57.3175 12.1642 57.3175 12.0352 57.3014C12.8742 50.5033 13.7133 43.7372 14.5523 36.9391H44.4354C44.1127 39.5044 43.8061 42.0537 43.4834 44.6511Z" fill="white"/>
<path d="M91.7296 44.6511C91.1971 48.8999 90.6808 53.0846 90.1644 57.2854H78.9986C79.8377 50.4872 80.6767 43.7211 81.5158 36.923H112.641C112.577 37.4361 112.528 37.9491 112.448 38.4622C112.335 39.2158 112.27 39.9854 112.044 40.6908C111.367 42.8714 109.753 44.0418 107.559 44.4587C106.929 44.5709 106.284 44.619 105.655 44.619C101.153 44.619 96.6509 44.619 92.1652 44.619H91.7457L91.7296 44.6511Z" fill="white"/>
<path d="M115.355 33.3315C115.468 32.4016 115.581 31.5037 115.694 30.5898C115.952 28.4895 116.227 26.3731 116.469 24.2727C116.501 24.0643 116.549 24.0001 116.759 24.0001C124.859 24.0001 132.975 24.0001 141.075 24.0001C142.382 24.0001 143.641 24.2246 144.835 24.8018C146.626 25.6676 147.61 27.1266 147.933 29.0506C148.127 30.2531 148.014 31.4396 147.852 32.6421C147.82 32.8666 147.788 33.091 147.756 33.3315H115.355Z" fill="white"/>
<path d="M44.887 33.3315H15.0039C15.3912 30.2211 15.7784 27.1266 16.1496 24.0162H46.0327C45.6454 27.1266 45.2743 30.205 44.887 33.3315Z" fill="white"/>
<path d="M123.549 57.3014H112.367C113.206 50.5033 114.045 43.7212 114.884 36.9391H126.066C125.227 43.7372 124.388 50.5033 123.549 57.3014Z" fill="white"/>
<path d="M133.618 57.2854C134.458 50.4872 135.297 43.7051 136.136 36.923H147.318C147.221 37.6926 147.14 38.4462 147.043 39.1997C146.785 41.2841 146.527 43.3684 146.269 45.4527C145.994 47.6974 145.72 49.9581 145.43 52.2028C145.236 53.8061 145.026 55.3934 144.833 56.9968C144.817 57.1892 144.784 57.3014 144.526 57.3014C140.96 57.3014 137.394 57.3014 133.828 57.3014C133.764 57.3014 133.699 57.3014 133.602 57.2854H133.618Z" fill="white"/>
</svg>
