<svg width="161" height="80" viewBox="0 0 161 80" fill="none" xmlns="http://www.w3.org/2000/svg">
<path d="M135.294 42.7547H137.305C137.26 42.5578 136.418 38.9145 136.297 38.4156C136.186 38.9155 135.342 42.5578 135.294 42.7547Z" fill="white"/>
<path d="M135.378 28.0193C132.03 28.019 128.819 29.3347 126.451 31.6769C124.084 34.0191 122.753 37.196 122.753 40.5086C122.753 43.8213 124.083 46.9983 126.45 49.3409C128.817 51.6835 132.028 52.9997 135.376 53C138.724 53.0001 141.935 51.6843 144.302 49.342C146.67 46.9997 148 43.8228 148 40.5102C148 37.1975 146.67 34.0205 144.303 31.678C141.936 29.3355 138.726 28.0195 135.378 28.0193ZM135.378 52.0595C133.652 52.0598 131.947 51.6814 130.386 50.9513C128.826 50.2212 127.448 49.1577 126.353 47.8374C125.258 46.5171 124.472 44.9729 124.053 43.316C123.633 41.6592 123.591 39.9309 123.928 38.2557C124.36 36.11 125.399 34.1297 126.924 32.5454C128.449 30.9611 130.397 29.8379 132.542 29.3066C134.687 28.7753 136.941 28.8578 139.041 29.5443C141.14 30.2309 143 31.4933 144.402 33.1847C145.805 34.8761 146.693 36.9269 146.964 39.0984C147.234 41.2699 146.876 43.4727 145.931 45.4506C144.985 47.4284 143.491 49.0999 141.623 50.2704C139.755 51.441 137.589 52.0625 135.378 52.0626V52.0595Z" fill="white"/>
<path d="M135.378 29.9987C132.561 29.9983 129.858 31.1053 127.866 33.0763C125.873 35.0472 124.753 37.7207 124.753 40.5085C124.752 43.2963 125.871 45.9701 127.863 47.9416C129.855 49.9132 132.557 51.021 135.375 51.0214C138.193 51.0218 140.895 49.9148 142.887 47.9438C144.88 45.9729 146 43.2994 146 40.5116C146.001 37.7238 144.882 35.05 142.89 33.0785C140.898 31.1069 138.196 29.9991 135.378 29.9987ZM141.268 44.3367H139.341C139.389 44.5336 139.831 46.3626 139.859 46.4855H141.023V48.0738L137.047 48.0665V46.4855H138.166C138.122 46.2917 137.699 44.4638 137.67 44.3367H134.924C134.898 44.4638 134.473 46.2917 134.431 46.4855H135.55V48.0665L131.576 48.0738V46.4855H132.738L133.258 44.3367H130.396V42.8306H131.565V34.1482H130.457V32.663L134.284 32.6526V34.1461H133.109V42.7525H133.644C133.678 42.6192 135.176 36.4074 135.176 36.4074H137.431L138.965 42.7525H139.672V41.1766H141.273L141.268 44.3357V44.3367ZM100.933 51.3474C100.169 51.3474 99.4997 51.0558 99.0491 50.5309C98.5986 50.0049 98.4207 49.2914 98.5544 48.5477L100.654 36.7761H109.929L109.406 39.7008H103.463L102.989 42.3463H108.47L107.947 45.2752H102.47L102.128 47.1812C102.055 47.5937 102.103 47.8978 102.283 48.1082C102.462 48.3196 102.755 48.4228 103.181 48.4228H107.85L107.334 51.3474H100.933ZM13 51.3474L13.5221 48.43H18.6371C20.2372 48.43 20.573 47.7749 20.6898 47.1385C20.7814 46.625 20.8404 46.1699 20.5403 45.823C20.333 45.5824 19.8456 45.3877 18.9982 45.3877H18.7803C16.8423 45.3877 15.5906 45.0231 14.9506 44.268C14.4411 43.6649 14.299 42.7786 14.5159 41.5516L14.638 40.8694C15.1433 38.0416 16.8981 36.7782 20.3266 36.7782H25.27L24.7458 39.7008H19.8171C18.3055 39.7008 17.9265 40.1549 17.7571 40.9871C17.6581 41.4558 17.597 41.9109 17.9076 42.2765C18.1729 42.589 18.6066 42.7119 19.4519 42.7119H19.6677C21.6046 42.7119 22.851 43.1223 23.492 43.8732C24.0026 44.4773 24.151 45.3262 23.9342 46.55L23.8057 47.2614C23.3015 50.0861 21.5478 51.3464 18.116 51.3464L13 51.3474ZM73.2932 51.3474L73.8143 48.43H78.9293C80.5315 48.43 80.8662 47.7749 80.9841 47.1385C81.0757 46.625 81.1336 46.1699 80.8336 45.823C80.6283 45.5824 80.1367 45.3877 79.2914 45.3877H79.0745C77.1376 45.3877 75.8849 45.0252 75.246 44.268C74.7354 43.6649 74.5933 42.7786 74.8112 41.5516L74.9312 40.8694C75.4396 38.0416 77.1924 36.7782 80.6209 36.7782H85.5633L85.0369 39.7028H80.1104C78.5998 39.7028 78.2219 40.157 78.0503 40.9892C77.9577 41.4579 77.8913 41.912 78.2008 42.2786C78.4661 42.5911 78.8998 42.7129 79.744 42.7129H79.9588C81.8989 42.7129 83.1452 43.1233 83.7853 43.8753C84.2958 44.4784 84.4453 45.3283 84.2274 46.5521L84.1 47.2635C83.5947 50.0872 81.842 51.3485 78.4103 51.3485H73.2943L73.2932 51.3474ZM42.0087 51.5672C40.0349 51.5672 38.6138 51.0714 37.7801 50.0903C37.1306 49.3247 36.8874 48.2613 37.0937 47.1L38.178 41.0235C38.5622 38.8665 40.4718 36.5584 44.6814 36.5584C46.6562 36.5584 48.0774 37.0542 48.909 38.0353C49.5616 38.804 49.8059 39.8643 49.5964 41.0319L48.5121 47.101C48.1279 49.2602 46.2173 51.5672 42.0087 51.5672ZM44.1625 39.481C42.5866 39.481 41.6771 40.0986 41.4592 41.312L40.477 46.8198C40.3854 47.3406 40.4654 47.7634 40.7212 48.0655C41.0476 48.4509 41.656 48.6477 42.5276 48.6477C44.1067 48.6477 45.0151 48.0322 45.232 46.8177L46.2183 41.3079C46.3099 40.7829 46.2289 40.3632 45.972 40.0601C45.6446 39.6778 45.0351 39.481 44.1625 39.481ZM64.8971 51.3474L66.9708 39.7008H63.0191L63.5381 36.7761H74.7807L74.2585 39.7008H70.3057L68.232 51.3474H64.8971ZM112.252 51.3474L114.326 39.7008H110.37L110.891 36.7761H122.134L121.612 39.7008H117.658L115.585 51.3474H112.252ZM92.4983 51.3485L89.4034 41.8266L87.7055 51.3485H84.519L87.1181 36.7761H91.2003L94.3131 46.3251L96.0121 36.7761H99.1965L96.5995 51.3474H92.4994L92.4983 51.3485ZM49.2216 51.3474L51.8207 36.7761H57.8378C59.68 36.7761 60.8906 37.1479 61.5348 37.9135C62.1011 38.5769 62.258 39.5591 62.0159 40.9183L61.6769 42.8202C61.3611 44.5898 60.4695 45.7793 58.9715 46.4063L61.6201 51.3474H57.9557L55.5693 46.9354H54.4008L54.7156 45.1554C54.905 44.0899 56.2967 44.0763 56.3104 44.0763C57.8378 44.0763 58.2199 43.5191 58.4052 42.4869L58.6389 41.1329C58.7305 40.609 58.6894 40.3267 58.4873 40.0841C58.2652 39.8226 57.8378 39.7008 57.143 39.7008H54.6313L52.5502 51.3474H49.2216ZM24.2595 51.3474L26.8554 36.7761H32.8735C34.7157 36.7761 35.9231 37.1479 36.5705 37.9135C37.1348 38.5769 37.2916 39.5591 37.0506 40.9183L36.7116 42.8202C36.2168 45.5908 34.3115 46.9354 30.8882 46.9354H29.4355L29.7513 45.1554C29.9408 44.0899 31.3335 44.0763 31.3461 44.0763C32.8735 44.0763 33.2556 43.5191 33.4409 42.4869L33.6767 41.1329C33.7683 40.609 33.7283 40.3267 33.523 40.0841C33.302 39.8226 32.8735 39.7008 32.1798 39.7008H29.6681L27.5891 51.3474H24.2595ZM15.6485 35.5293L15.9243 33.9233H18.5371C18.6876 33.9274 18.8382 33.9097 18.9845 33.8733C19.0854 33.8473 19.1807 33.8031 19.2655 33.7431C19.3331 33.6919 19.3872 33.6255 19.4234 33.5493C19.4577 33.4733 19.4818 33.3931 19.495 33.3108C19.515 33.2025 19.5266 33.0921 19.5287 32.9817C19.5321 32.8898 19.5063 32.7991 19.455 32.7223C19.3927 32.6425 19.3065 32.5842 19.2087 32.5557C19.0509 32.5098 18.8867 32.4894 18.7224 32.4953H18.5508C18.1804 32.5017 17.8107 32.4636 17.4497 32.3817C17.1834 32.3251 16.9369 32.2001 16.7349 32.0193C16.5565 31.842 16.4374 31.6148 16.3938 31.3683C16.3691 31.2361 16.3571 31.1018 16.358 30.9673C16.3591 30.7892 16.377 30.6111 16.4096 30.4361L16.4665 30.0997C16.5191 29.7706 16.6286 29.4529 16.7875 29.1592C16.9307 28.8998 17.1318 28.6769 17.3749 28.5051C17.636 28.3259 17.9297 28.1968 18.2392 28.126C18.6165 28.0379 19.0032 27.9959 19.3908 28.001H21.9236L21.6488 29.607H19.1329C18.974 29.6033 18.8152 29.6191 18.6603 29.6539C18.557 29.6758 18.4606 29.7219 18.3792 29.7883C18.3129 29.8471 18.2635 29.9222 18.236 30.006C18.2044 30.1028 18.1781 30.2018 18.1602 30.3028C18.1404 30.3995 18.1365 30.4986 18.1487 30.5965C18.1571 30.6768 18.1932 30.7518 18.2508 30.809C18.3229 30.8724 18.4108 30.9156 18.5055 30.934C18.6497 30.9669 18.7975 30.9819 18.9455 30.9788H19.1213C19.4887 30.9704 19.8561 31.0069 20.214 31.0881C20.4814 31.1454 20.7298 31.2704 20.933 31.4516C21.113 31.6256 21.2351 31.8516 21.2804 32.0974C21.3088 32.2328 21.3225 32.3713 21.3204 32.5099C21.3204 32.6869 21.3025 32.865 21.2698 33.0411L21.213 33.3921C21.1616 33.7293 21.0526 34.0554 20.8909 34.3565C20.7477 34.619 20.5456 34.8461 20.3014 35.02C20.0401 35.202 19.746 35.3328 19.435 35.4054C19.0576 35.4946 18.6704 35.5373 18.2823 35.5325L15.6485 35.5293ZM21.6435 35.5293L22.9457 28.001H25.9627C26.3071 27.9959 26.6507 28.0351 26.9848 28.1176C27.2522 28.1812 27.4975 28.3124 27.6986 28.4978C27.888 28.6832 28.0207 28.9175 28.0786 29.1748C28.1144 29.3237 28.1302 29.4768 28.1249 29.6289C28.1238 29.8164 28.1059 30.0039 28.0733 30.1903L27.9038 31.1621C27.7775 31.8995 27.4733 32.4432 26.9922 32.79C26.5111 33.139 25.8385 33.315 24.9732 33.3202H23.7647L23.3836 35.5293H21.6435ZM24.0437 31.7172H25.2521C25.3974 31.7204 25.5427 31.7037 25.6837 31.6693C25.785 31.6442 25.8793 31.5969 25.9595 31.5308C26.0332 31.4667 26.0891 31.3849 26.1216 31.2933C26.1606 31.186 26.189 31.0746 26.2069 30.9621L26.3301 30.258C26.3427 30.1851 26.3501 30.1122 26.3511 30.0393C26.3517 30.0038 26.3499 29.9683 26.3459 29.933C26.3367 29.8572 26.3 29.7873 26.2427 29.7362C26.1763 29.6836 26.0972 29.6492 26.0132 29.6362C25.8937 29.6151 25.7725 29.6053 25.6511 29.607H24.4079L24.0437 31.7162V31.7172ZM27.8396 35.5304L29.1365 28.001H34.0136L33.7378 29.607H30.6039L30.3966 30.8257H33.2809L33.0051 32.4317H30.1208L29.8671 33.9233H32.9956L32.7198 35.5314L27.8396 35.5304ZM33.8304 33.5295L34.4431 29.9987C34.4883 29.7466 34.5747 29.5039 34.6978 29.28C34.8347 29.0321 35.0178 28.8144 35.2389 28.6363C35.4964 28.4315 35.7897 28.2751 36.1042 28.1749C36.4988 28.051 36.9114 27.9923 37.3253 28.001H39.5086L39.2328 29.607H37.239C37.0509 29.6015 36.8633 29.6261 36.6832 29.68C36.5588 29.7171 36.445 29.7823 36.3505 29.8706C36.2716 29.9485 36.2124 30.0438 36.1779 30.1487C36.1436 30.2554 36.1165 30.3643 36.0968 30.4747L35.6421 33.0858C35.6221 33.19 35.6115 33.2962 35.6105 33.4025C35.6088 33.4971 35.6368 33.5898 35.6905 33.6681C35.7576 33.7546 35.8503 33.8183 35.9558 33.8503C36.1274 33.9024 36.3074 33.9253 36.4863 33.918H38.478L38.2022 35.5241H36.0179C35.6247 35.5389 35.2321 35.4817 34.8599 35.3554C34.5908 35.2613 34.3497 35.1019 34.1588 34.8919C33.998 34.7092 33.8884 34.488 33.8409 34.2503C33.8165 34.126 33.8024 33.9999 33.7988 33.8733C33.7988 33.7576 33.8094 33.6431 33.8304 33.5295ZM39.8044 29.607L40.0781 28.001H45.6688L45.3941 29.607H43.4645L42.4445 35.5293H40.7012L41.7255 29.607H39.8033H39.8044ZM44.9856 35.5293L46.2889 28.001H49.3016C49.6701 27.9926 50.0385 28.0385 50.3943 28.1343C50.6585 28.2051 50.8996 28.3447 51.0933 28.5363C51.268 28.7248 51.3817 28.9613 51.4196 29.2133C51.4407 29.3404 51.4512 29.4685 51.4512 29.5977C51.4493 29.7932 51.4317 29.9882 51.3986 30.1809L51.2301 31.1548C51.0764 32.062 50.6396 32.6859 49.9206 33.0233L50.9164 35.5293H49.0416L48.1889 33.3202H47.0868L46.7057 35.5293H44.9856ZM47.3647 31.7172H48.5637C48.7079 31.7193 48.8521 31.7037 48.9932 31.6693C49.0963 31.6433 49.1928 31.5961 49.2764 31.5308C49.3514 31.4678 49.4093 31.3872 49.4448 31.2964C49.488 31.1902 49.5185 31.0788 49.5374 30.9652L49.6595 30.2622C49.6732 30.1924 49.6806 30.1226 49.6806 30.0518C49.6809 30.0133 49.6774 29.975 49.6701 29.9372C49.661 29.8606 49.6235 29.7901 49.5648 29.7393C49.4958 29.6867 49.4142 29.6526 49.3279 29.6404C49.2067 29.6194 49.0837 29.6097 48.9606 29.6112H47.731L47.3647 31.7162V31.7172ZM51.7628 33.365L52.6891 28.001H54.4324L53.5144 33.3056C53.5048 33.3617 53.4999 33.4185 53.4997 33.4754C53.5023 33.5468 53.5143 33.6175 53.5355 33.6858C53.5755 33.7899 53.645 33.8816 53.7355 33.9482C53.8408 34.0232 53.9618 34.0743 54.0892 34.1003C54.42 34.1666 54.761 34.1655 55.0914 34.0972C55.2408 34.0659 55.383 34.0097 55.5124 33.9326C55.629 33.8611 55.7294 33.7664 55.8072 33.6545C55.8877 33.5364 55.9415 33.4024 55.9651 33.2619L56.8735 28.002H58.6168L57.6694 33.4493C57.6168 33.7428 57.5117 34.0247 57.3588 34.2815C57.1904 34.5669 56.9693 34.8179 56.7062 35.021C56.4027 35.2548 56.0609 35.4352 55.6956 35.5543C55.2473 35.699 54.7776 35.7684 54.3061 35.7595C53.9022 35.766 53.4998 35.7102 53.1134 35.5939C52.7987 35.5009 52.5084 35.3409 52.2628 35.1252C52.047 34.9254 51.8889 34.6723 51.8049 34.392C51.7518 34.2152 51.7256 34.0316 51.727 33.8472C51.727 33.6858 51.7386 33.5243 51.7617 33.3639L51.7628 33.365ZM58.3315 35.5304L59.6284 28.001H61.6727L62.7843 32.2276L65.3645 28.001H67.4067L66.1045 35.5314H64.3634L65.1718 30.8527L63.2812 34.0139H61.6706L60.8769 30.8527L60.0684 35.5314L58.3315 35.5304Z" fill="white"/>
</svg>
