<svg width="161" height="80" viewBox="0 0 161 80" fill="none" xmlns="http://www.w3.org/2000/svg">
<path d="M134.689 69.3338H41.5946C41.5587 69.2908 41.5263 69.2443 41.4832 69.2049C38.1242 65.8626 34.7687 62.5166 31.406 59.1743C29.3942 57.1739 27.3787 55.177 25.3633 53.1802C25.3669 39.0128 25.3669 24.8417 25.3669 10.6743C56.723 10.6743 88.0755 10.6743 119.432 10.6671C119.751 10.6671 119.981 10.753 120.215 10.982C124.939 15.6985 129.667 20.4043 134.406 25.1101C134.614 25.3177 134.697 25.5216 134.697 25.8115C134.689 40.3189 134.689 54.8263 134.689 69.3338ZM67.8959 58.6446C71.4957 61.1317 75.3865 62.1946 79.6401 61.7472C83.8973 61.2999 87.4935 59.4677 90.4035 56.3401C95.6523 50.6931 96.3457 42.1726 92.0669 35.631C89.994 32.4676 87.1486 30.2203 83.5668 28.9785C78.6306 27.268 73.8596 27.769 69.218 30.3133V19.1017H58.1421V60.7846H67.8959V58.6446ZM95.4583 52.3214C95.5876 52.4609 95.6451 52.5325 95.7134 52.5969C98.3791 55.2558 101.041 57.9146 103.714 60.5592C103.854 60.6987 104.106 60.7918 104.307 60.7918C106.868 60.8061 109.43 60.8097 111.991 60.7989C114.337 60.7882 116.644 60.5055 118.871 59.7182C123.488 58.09 126.046 54.7619 126.2 50.1206C126.293 47.3114 125.309 44.9675 123.021 43.2319C121.634 42.1798 120.064 41.4963 118.429 40.938C116.123 40.1507 113.719 39.7607 111.352 39.2275C110.486 39.0342 109.642 38.7193 108.816 38.3937C108.349 38.2112 108.108 37.7925 108.147 37.2628C108.19 36.7368 108.496 36.3754 108.981 36.243C109.495 36.1034 110.037 36.0032 110.569 35.9996C114.894 35.9817 119.223 35.9889 123.549 35.9889C123.7 35.9889 123.851 35.9889 124.077 35.9889C123.98 35.8672 123.937 35.7992 123.879 35.7455C121.206 33.0581 118.53 30.3706 115.846 27.6938C115.728 27.5757 115.501 27.5042 115.325 27.5042C113.206 27.4934 111.082 27.4791 108.963 27.5077C106.976 27.5328 105.018 27.8119 103.146 28.5097C98.8641 30.1058 96.2271 33.0115 95.8894 37.6923C95.6523 40.9988 96.8989 43.604 99.7155 45.4219C101.896 46.8283 104.35 47.5512 106.84 48.1559C108.55 48.571 110.278 48.9253 111.984 49.3547C112.498 49.4836 112.997 49.7305 113.45 50.0096C113.96 50.3245 114.115 51.0188 113.752 51.4625C113.504 51.7667 113.098 52.0279 112.717 52.1245C112.132 52.2713 111.506 52.307 110.899 52.3106C105.931 52.3249 100.966 52.3178 95.9972 52.3178H95.4547L95.4583 52.3214ZM35.1962 19.1089C35.1962 19.2664 35.1962 19.3773 35.1962 19.4882C35.1962 29.3042 35.1962 39.1201 35.207 48.9396C35.207 49.1365 35.304 49.387 35.4405 49.5265C39.1049 53.1909 42.7802 56.8446 46.4518 60.5019C46.5236 60.5735 46.6134 60.6307 46.7715 60.7596V41.1098H55.2069V29.6191H46.7572V19.1125H35.1962V19.1089Z" fill="white"/>
<path d="M71.9594 44.9317C71.9486 41.6895 74.5676 39.0629 77.8261 39.0486C81.1061 39.0343 83.7646 41.6537 83.7718 44.9031C83.779 48.1273 81.1348 50.7826 77.8979 50.7969C74.6287 50.8112 71.9737 48.1882 71.9594 44.9317Z" fill="white"/>
</svg>
