<svg width="161" height="80" viewBox="0 0 161 80" fill="none" xmlns="http://www.w3.org/2000/svg">
<g clip-path="url(#clip0_10148_390)">
<path d="M19.8678 31.282C14.9762 31.282 11 35.3041 11 40.252V61H15.2049V49.4837L16.7496 51.1323L22.9287 48.6735C26.4477 47.2844 28.7363 44.0717 28.7363 40.2528C28.7363 35.3048 24.7601 31.282 19.8678 31.282ZM21.4419 44.9116L15.2056 47.3711V40.2528C15.2056 37.3878 17.3228 35.3337 19.8685 35.3337C22.4143 35.3337 24.5314 37.4167 24.5314 40.2528C24.5314 42.0466 23.6733 44.0147 21.4419 44.9116ZM94.0748 31.282C89.1833 31.282 85.2071 35.3041 85.2071 40.252C85.2071 45.1999 89.1833 49.222 94.0748 49.222C98.9663 49.222 102.943 45.1999 102.943 40.252C102.943 35.3041 98.9663 31.282 94.0748 31.282ZM94.0748 45.1718C91.3861 45.1718 89.4119 43.0021 89.4119 40.2528C89.4119 37.5034 91.4433 35.3337 94.0748 35.3337C96.7635 35.3337 98.7377 37.5034 98.7377 40.2528C98.7377 43.0021 96.7635 45.1718 94.0748 45.1718ZM113.27 35.3337C115.1 35.3337 116.588 36.3463 117.361 37.8511L120.65 35.3048C119.048 32.9031 116.36 31.3117 113.27 31.3117C108.378 31.3117 104.402 35.3337 104.402 40.2817C104.402 45.2296 108.378 49.2517 113.27 49.2517C116.331 49.2517 119.048 47.6602 120.65 45.2585L117.361 42.7115C116.588 44.217 115.1 45.2296 113.27 45.2296C110.581 45.2296 108.607 43.0599 108.607 40.3106C108.607 37.5612 110.638 35.3337 113.27 35.3337ZM77.3967 35.3337C79.228 35.3337 80.7156 36.3463 81.488 37.8511L84.7776 35.3048C83.1757 32.9031 80.4862 31.3117 77.3967 31.3117C72.5052 31.3117 68.5289 35.3337 68.5289 40.2817C68.5289 45.2296 72.5052 49.2517 77.3967 49.2517C80.4576 49.2517 83.1757 47.6602 84.7776 45.2585L81.488 42.7115C80.7156 44.217 79.228 45.2296 77.3967 45.2296C74.708 45.2296 72.7338 43.0599 72.7338 40.3106C72.7338 37.5612 74.7366 35.3337 77.3967 35.3337ZM62.6927 33.4235C61.2623 31.9187 59.3746 31.2827 57.4004 31.2827C53.2804 31.2827 49.1049 35.0736 49.1049 40.2528C49.1049 45.432 53.2804 49.2228 57.4004 49.2228C59.3746 49.2228 61.2623 48.5868 62.6927 47.082V48.7024H66.8984V31.8312H62.6927V33.4235ZM58.0299 45.1718C55.3419 45.1718 53.3098 43.0021 53.3098 40.2528C53.3098 37.5034 55.3983 35.3337 58.0299 35.3337C60.7193 35.3337 62.6927 37.5034 62.6927 40.2528C62.6927 43.0021 60.7193 45.1718 58.0299 45.1718ZM132.35 39.6449H130.463L137.757 31.8031H132.35L126.457 38.2277V22.6018H122.252V48.7032H126.457V43.8998L128.774 41.4106L133.723 48.7032H138.815L132.35 39.6449ZM38.9774 31.282C34.0859 31.282 30.1096 35.3041 30.1096 40.252C30.1096 45.1999 34.0859 49.222 38.9774 49.222C41.8955 49.222 44.6413 47.8047 46.2154 45.6054L42.8393 43.2326C42.4385 43.8983 41.1517 45.1702 38.9774 45.1702C36.9754 45.1702 35.3441 43.9553 34.6582 42.1904H47.4458C47.5895 41.5544 47.6467 40.9176 47.6467 40.252C47.6737 35.3048 43.8697 31.282 38.9774 31.282ZM34.6868 38.3136C35.3734 36.5479 37.0039 35.3337 38.9774 35.3337C40.9802 35.3337 42.4964 36.5487 43.1259 38.3136H34.6868Z" fill="white"/>
<path d="M146.454 46.1562C145.052 46.1562 143.908 47.3133 143.908 48.7322C143.908 50.1494 145.052 51.3065 146.454 51.3065C147.855 51.3065 149 50.1502 149 48.7322C149 47.3133 147.856 46.1562 146.454 46.1562Z" fill="white"/>
<path d="M146.454 39.1246C145.052 39.1246 143.908 40.2817 143.908 41.7006C143.908 43.1178 145.052 44.2749 146.454 44.2749C147.855 44.2749 149 43.1186 149 41.7006C148.971 40.2528 147.856 39.1246 146.454 39.1246Z" fill="white"/>
<path d="M146.454 53.1879C145.052 53.1879 143.908 54.345 143.908 55.7638C143.908 57.181 145.052 58.3381 146.454 58.3381C147.855 58.3381 149 57.1818 149 55.7638C149 54.345 147.856 53.1879 146.454 53.1879Z" fill="white"/>
<path d="M146.454 32.0632C145.052 32.0632 143.908 33.2203 143.908 34.6392C143.908 36.0564 145.052 37.2143 146.454 37.2143C147.855 37.2143 149 36.0572 149 34.6392C148.971 33.2211 147.856 32.0632 146.454 32.0632Z" fill="white"/>
<path d="M146.454 25.0316C145.052 25.0316 143.908 26.1887 143.908 27.6075C143.908 29.0248 145.052 30.1827 146.454 30.1827C147.855 30.1827 149 29.0256 149 27.6075C148.971 26.1895 147.856 25.0316 146.454 25.0316Z" fill="white"/>
<path d="M146.454 18C145.052 18 143.908 19.1571 143.908 20.5759C143.908 21.9932 145.052 23.1511 146.454 23.1511C147.855 23.1511 149 21.994 149 20.5759C148.971 19.1579 147.856 18 146.454 18Z" fill="white"/>
</g>
<defs>
<clipPath id="clip0_10148_390">
<rect width="138" height="43" fill="white" transform="translate(11 18)"/>
</clipPath>
</defs>
</svg>
