<svg width="161" height="80" viewBox="0 0 161 80" fill="none" xmlns="http://www.w3.org/2000/svg">
<path d="M86.473 28.0026C89.5219 29.2563 90.4148 30.8839 89.7995 34.2561C89.742 34.5776 89.2542 34.8543 88.9166 35.0786C88.764 35.1783 88.4914 35.0986 88.2738 35.0986C72.4316 35.0986 56.587 35.0986 40.7448 35.0986C40.3171 35.0986 39.8894 35.0986 39.4742 35.0986C39.1791 32.165 40.3396 28.7952 44.0213 28.0026H86.473Z" fill="white"/>
<path d="M37.4669 53.3333C37.6445 51.0428 37.8246 48.7522 38.0171 46.2698H54.3971C54.5671 45.3276 54.7047 44.5699 54.8773 43.6103C54.292 43.6103 53.8368 43.6103 53.3791 43.6103C49.7575 43.6303 46.1383 43.6776 42.5167 43.6677C39.9555 43.6627 37.9271 40.6319 38.9151 38.2541C39.0301 37.9774 39.6754 37.783 40.0756 37.7805C43.6097 37.7431 47.1413 37.7581 50.6754 37.7581C53.7293 37.7581 56.7831 37.7581 59.837 37.7581C62.2006 37.7581 63.7763 39.2934 63.6187 41.6737C63.4612 44.054 63.2711 46.4542 62.7884 48.7822C62.3081 51.0852 60.7824 52.6704 58.4289 53.3309H37.4644L37.4669 53.3333Z" fill="white"/>
<path d="M13.3594 53.3334C13.9096 48.1965 14.4574 43.0596 15.0176 37.8454H37.7304C37.4828 39.8593 37.2402 41.8483 36.9801 43.9569C34.1763 43.9569 31.4776 43.9569 28.7788 43.9569C27.6433 43.9569 26.5078 43.9569 25.3723 43.9569C24.0117 43.9569 23.3189 44.703 23.2939 46.1951H36.6824C36.4073 48.705 36.1522 51.018 35.8971 53.3334H13.3594Z" fill="white"/>
<path d="M63.413 53.3332C63.7656 50.3174 64.1283 47.3015 64.4659 44.2832C64.6735 42.4263 64.8061 40.562 65.0587 38.7126C65.1062 38.3686 65.5639 37.8053 65.834 37.8053C73.5976 37.7555 81.3611 37.7654 89.1171 37.7654C89.3872 41.1327 87.2763 43.4681 84.0523 43.4706C80.4807 43.4706 76.9091 43.4706 73.2049 43.4706C72.9873 45.5493 72.7947 47.5208 72.5696 49.4874C72.4245 50.771 72.2319 52.0521 72.0619 53.3332H63.413Z" fill="white"/>
<path d="M112.939 28.0026C115.986 29.0694 116.283 29.5006 116.268 32.8355C116.266 33.5234 116.268 34.2113 116.268 34.9964H90.7318C90.9744 32.6385 91.212 30.3206 91.4496 28.0001C98.6128 28.0001 105.776 28.0001 112.939 28.0001V28.0026Z" fill="white"/>
<path d="M39.0404 28.0026C38.7728 30.0215 38.4777 32.0379 38.2526 34.0592C38.18 34.7122 38.06 35.1085 37.2771 35.106C30.1164 35.0786 22.9582 35.0736 15.7974 35.0587C15.7199 35.0587 15.6423 34.9989 15.4147 34.9042C15.5998 32.6335 15.7899 30.3181 15.98 28.0026C23.666 28.0026 31.3544 28.0026 39.0404 28.0026Z" fill="white"/>
<path d="M105.342 53.3333C105.742 49.2332 106.137 45.1357 106.542 41.0356C106.647 39.9688 106.788 38.9071 106.913 37.8104H115.764C115.294 41.6886 114.824 45.5045 114.376 49.3255C114.218 50.6564 114.116 51.9949 113.988 53.3308H105.339L105.342 53.3333Z" fill="white"/>
<path d="M88.8319 53.3332C89.1371 49.9684 89.4322 46.6036 89.7524 43.2413C89.9249 41.4417 90.145 39.6447 90.3451 37.8277H99.1591C98.9365 39.7469 98.7439 41.5813 98.5113 43.4108C98.0911 46.7182 97.6509 50.0257 97.2182 53.3307H88.8319V53.3332Z" fill="white"/>
<path d="M133.101 46.3221H146.445C146.265 48.2538 146.082 50.0633 145.929 51.8753C145.854 52.7676 145.194 52.5781 144.664 52.5806C139.206 52.5906 133.749 52.5856 128.294 52.5856C126.731 52.5856 125.165 52.5856 123.492 52.5856C123.992 48.5354 124.425 44.6198 124.975 40.7191C125.26 38.6903 126.298 37.9126 128.369 37.9076C131.768 37.8977 135.167 37.9052 138.701 37.9052C138.786 36.8658 138.861 35.9311 138.951 34.8245H125.598C125.87 32.5988 126.123 30.54 126.388 28.3666C127.766 28.3666 129.069 28.3666 130.372 28.3666C134.824 28.3666 139.279 28.3566 143.731 28.3741C144.469 28.3766 145.222 28.4189 145.939 28.5735C147.338 28.8726 148.15 29.9667 148.01 31.3201C147.705 34.3011 147.378 37.2796 147.032 40.2555C146.787 42.3666 145.829 43.234 143.676 43.2539C140.795 43.2838 137.913 43.2614 135.032 43.2639C133.79 43.2639 133.147 43.8721 133.104 45.0884C133.091 45.4348 133.104 45.7813 133.104 46.3221H133.101Z" fill="white"/>
</svg>
