<svg width="161" height="80" viewBox="0 0 161 80" fill="none" xmlns="http://www.w3.org/2000/svg">
<path d="M141.272 51.4094H141.267L141.071 50.8551H140.779V51.706H140.949V51.0253H140.954L141.189 51.706H141.35L141.594 51.0253H141.599V51.706H141.77V50.8551H141.477L141.272 51.4094Z" fill="white"/>
<path d="M139.955 51.0058H140.209V51.706H140.38V51.0058H140.633V50.8551H139.955V51.0058Z" fill="white"/>
<path d="M25.7197 41.0337L23.484 40.5135C21.5753 40.1196 20.6771 39.4048 20.6575 38.4615C20.6282 37.528 21.7705 36.7305 23.7866 36.7305C23.7866 36.7305 26.7888 36.6333 28.0287 39.0791L31.0065 37.3481C29.1173 33.4144 24.8996 33.1421 23.811 33.1421C20.3842 33.1421 16.7815 34.7515 16.8548 38.656C16.9329 42.2445 19.6861 43.4066 22.1903 43.9512L24.7483 44.5201C26.1151 44.8118 27.233 45.4293 27.2525 46.6936C27.277 48.2982 25.3927 48.5218 24.1723 48.5218C20.7698 48.444 18.988 45.8281 18.988 45.8281L16.0347 47.9335C16.0347 47.9335 18.2948 52.1151 23.977 52.1151C27.5015 52.1151 31.231 50.6807 31.1529 46.6012C31.1041 43.7032 29.5371 41.9527 25.7148 41.0337" fill="white"/>
<path d="M32.6423 33.531V37.2702L38.0365 37.2702L38.0365 51.7066H41.7807L41.7807 37.2702L47.1943 37.2702L47.1943 33.531L32.6423 33.531Z" fill="white"/>
<path d="M61.7607 33.5506V37.2898H67.15L67.15 51.7311L70.899 51.7311L70.899 37.2898H76.3127L76.3127 33.5506L61.7607 33.5506Z" fill="white"/>
<path d="M90.3197 46.6347C89.3043 47.792 87.8398 48.5164 86.2191 48.5164C83.1437 48.5165 80.6102 45.8713 80.6102 42.6087C80.6102 39.346 83.1437 36.7203 86.2191 36.7203C87.8203 36.7203 89.2799 37.4302 90.2904 38.5631L93.5073 36.8613C91.8183 34.5954 89.1871 33.161 86.2191 33.161C81.152 33.161 77.0613 37.3913 77.0613 42.6087C77.0613 47.826 81.1569 52.1 86.2191 52.1C89.2115 52.1 91.872 50.6121 93.5415 48.3171L90.3148 46.6347H90.3197Z" fill="white"/>
<path d="M112.217 51.726H108.292L107.193 48.755H101.687L103.064 45.0159H105.812L103.205 37.9557L98.1429 51.726H94.2182L100.847 33.526L105.587 33.526L112.217 51.726Z" fill="white"/>
<path d="M122.565 41.0335L120.329 40.5133C118.416 40.1194 117.522 39.4046 117.503 38.4613C117.473 37.5278 118.616 36.7303 120.632 36.7303C120.632 36.7303 123.634 36.6331 124.874 39.0789L127.852 37.3479C125.962 33.4142 121.745 33.1419 120.651 33.1419C117.229 33.1419 113.627 34.7513 113.7 38.6558C113.778 42.2443 116.531 43.4064 119.036 43.951L121.593 44.5199C122.96 44.8116 124.078 45.4291 124.098 46.6934C124.122 48.298 122.238 48.5216 121.017 48.5216C117.62 48.4438 115.833 45.8279 115.833 45.8279L112.88 47.9333C112.88 47.9333 115.14 52.1149 120.822 52.1149C124.347 52.1149 128.071 50.6805 127.998 46.601C127.949 43.703 126.382 41.9525 122.56 41.0335" fill="white"/>
<path d="M129.487 33.5315V37.2707H134.877V51.7071H138.621V37.2707H144.035V33.5315L129.487 33.5315Z" fill="white"/>
<path d="M63.4651 51.726H59.5403L58.4419 48.755H53.0234L54.3951 45.0159H57.0604L54.4537 37.9557L49.3915 51.726H45.4716L52.0959 33.526H56.8359L63.4651 51.726Z" fill="white"/>
<path d="M116.972 29.0968C116.972 28.9801 116.899 28.9655 116.801 28.9655H116.581V29.408H116.674V29.2329H116.747L116.85 29.408H116.952L116.85 29.2329C116.923 29.2329 116.967 29.1843 116.967 29.1016M116.796 29.1551H116.669V29.0482H116.772C116.816 29.0482 116.869 29.0482 116.869 29.0968C116.869 29.1405 116.845 29.1551 116.791 29.1551" fill="white"/>
<path d="M116.764 28.7604C116.53 28.7604 116.34 28.9501 116.34 29.1835C116.34 29.4169 116.53 29.6065 116.764 29.6065C116.999 29.6065 117.189 29.4169 117.189 29.1835C117.189 28.9501 116.999 28.7604 116.764 28.7604ZM116.764 29.5141C116.584 29.5141 116.437 29.378 116.437 29.1835C116.437 28.989 116.584 28.848 116.764 28.848C116.945 28.848 117.101 28.989 117.101 29.1835C117.101 29.378 116.95 29.5141 116.764 29.5141Z" fill="white"/>
<path d="M116.333 26.1059C116.113 26.9131 115.283 28.2648 114.517 28.328H111.471V29.6311L97.0458 29.6311C96.7432 29.106 96.3917 28.5128 96.2843 28.3426H94.8052C94.7954 24.6715 96.05 22.639 97.5437 22.2355C97.7488 22.2014 97.6511 21.1949 97.3924 20.8934C97.3924 20.8934 96.6699 20.9032 96.5137 20.8837C96.3233 20.8351 96.46 20.626 96.46 20.626L97.1581 19.1381L97.0605 18.7297L94.4927 18.7297L96.6114 17.2564C96.709 13.3567 100.727 13.0553 103.143 14.6647C104.578 15.6129 104.69 17.4898 104.578 18.7929C104.563 18.8755 104.207 18.8221 104.207 18.8221C104.207 18.8221 103.963 20.2419 104.603 20.2419L107.424 20.2419C108.576 20.1981 109.684 20.9712 109.684 20.9712L109.958 19.989L103.773 12.0001L106.706 12.0001L111.627 20.1932L112.081 20.2516L112.354 20.626V20.9761L112.667 21.0393L112.95 21.4283V21.7638L113.277 21.8221L113.599 22.1771V22.9502C113.599 22.9502 114.292 23.5823 114.912 23.8255C115.347 23.9908 115.391 24.6812 115.654 25.0508C115.981 25.5905 116.431 25.8044 116.338 26.1059" fill="white"/>
<path d="M88.0829 25.4506C88.0829 26.1994 87.4679 26.8072 86.7063 26.8072C85.9497 26.8121 85.3541 26.1994 85.3541 25.4506C85.3541 24.7018 85.9497 24.0989 86.7063 24.0891C87.4679 24.0891 88.0829 24.7018 88.0829 25.4506Z" fill="white"/>
<path d="M124.795 58.1292H123.853V65.418H124.795V58.1292Z" fill="white"/>
<path d="M135.958 65.4181H135.06V64.7276H135.021C134.879 64.9659 134.66 65.1652 134.367 65.3354C134.074 65.5056 133.766 65.5834 133.439 65.5834C132.809 65.5834 132.336 65.3938 132.014 65.0145C131.692 64.6352 131.53 64.1247 131.53 63.4877V60.4341H132.473V63.337C132.473 64.2657 132.888 64.7325 133.708 64.7325C134.098 64.7325 134.411 64.5769 134.66 64.2657C134.904 63.9545 135.026 63.5947 135.026 63.1862V60.439H135.968V65.4278L135.958 65.4181Z" fill="white"/>
<path d="M70.993 58.7559L71.4714 58.7656L72.7651 57.4771L72.8285 56.9325C71.7985 56.0233 70.4463 55.4689 68.9672 55.4689C66.2872 55.4689 64.0221 57.2875 63.3534 59.7478C63.4949 59.6506 63.7976 59.7235 63.7976 59.7235L66.3848 59.3005C66.3848 59.3005 66.5166 59.0817 66.585 59.0963C67.1756 58.4496 68.025 58.046 68.9721 58.046C69.7385 58.046 70.4463 58.3134 71.0028 58.7608" fill="white"/>
<path d="M74.5775 59.7484C74.2749 58.6446 73.6549 57.6722 72.8201 56.9331L70.9847 58.7613C71.7169 59.3497 72.1904 60.2541 72.1904 61.2655V61.5864C73.0789 61.5864 73.8062 62.3109 73.8062 63.1958C73.8062 64.0808 73.0789 64.8053 72.1904 64.8053H68.9588L68.6366 65.1262V67.0566L68.9588 67.3775H72.1904C74.5092 67.3775 76.3935 65.5006 76.3935 63.191C76.3935 61.7663 75.671 60.5021 74.5775 59.7484Z" fill="white"/>
<path d="M65.7331 67.3767H68.9647V64.7997H65.7331C65.4939 64.7997 65.2693 64.7462 65.0692 64.6538L64.6054 64.7948L63.3118 66.0833L63.1995 66.5161C63.9073 67.051 64.786 67.3719 65.7379 67.3719" fill="white"/>
<path d="M65.7331 59.0086C63.4143 59.0086 61.53 60.8855 61.53 63.1952C61.53 64.5518 62.1842 65.7625 63.1946 66.5259L65.0692 64.6587C64.5078 64.4059 64.1173 63.8467 64.1173 63.1952C64.1173 62.3053 64.8446 61.5857 65.7331 61.5857C66.3872 61.5857 66.9535 61.9747 67.2024 62.5339L69.077 60.6667C68.3105 59.6602 67.095 59.0086 65.7331 59.0086Z" fill="white"/>
<path d="M85.0254 65.5832C83.8684 65.5832 82.8677 65.1747 82.0281 64.3578C81.1884 63.541 80.7735 62.5588 80.7735 61.4112C80.7735 60.2637 81.1933 59.2815 82.0281 58.4646C82.8677 57.6477 83.8635 57.2393 85.0254 57.2393C86.1872 57.2393 87.0951 57.6234 87.8957 58.3917L87.0903 59.194C86.5094 58.6494 85.8211 58.3771 85.0254 58.3771C84.1857 58.3771 83.4779 58.6737 82.8921 59.2621C82.3112 59.8504 82.0183 60.57 82.0183 61.4112C82.0183 62.2524 82.3112 62.9672 82.8921 63.5604C83.473 64.1488 84.1857 64.4454 85.0254 64.4454C85.865 64.4454 86.5826 64.1682 87.1391 63.609C87.471 63.2784 87.6809 62.797 87.7639 62.1746H85.0254V61.032H88.8769C88.916 61.2362 88.9355 61.4744 88.9355 61.7467C88.9355 62.8651 88.6036 63.7549 87.9445 64.4113C87.1928 65.1942 86.2213 65.5832 85.0205 65.5832" fill="white"/>
<path d="M93.9736 64.8154C93.4512 65.3259 92.8069 65.5836 92.0502 65.5836C91.2936 65.5836 90.6541 65.3259 90.1269 64.8154C89.6046 64.3048 89.3409 63.663 89.3409 62.8947C89.3409 62.1265 89.6046 61.4895 90.1269 60.9741C90.6492 60.4636 91.2936 60.2058 92.0502 60.2058C92.8069 60.2058 93.4464 60.4636 93.9736 60.9741C94.4959 61.4847 94.7595 62.1265 94.7595 62.8947C94.7595 63.663 94.4959 64.3 93.9736 64.8154ZM90.9812 64.0617C91.2789 64.3729 91.6402 64.5236 92.0551 64.5236C92.47 64.5236 92.8264 64.368 93.129 64.0617C93.4268 63.7554 93.5782 63.3664 93.5782 62.8947C93.5782 62.4231 93.4317 62.0292 93.1339 61.7229C92.8362 61.4166 92.4798 61.2658 92.0551 61.2658C91.6304 61.2658 91.2741 61.4166 90.9763 61.7229C90.6785 62.0292 90.5321 62.4182 90.5321 62.8947C90.5321 63.3713 90.6834 63.7505 90.9812 64.0617ZM99.8852 64.8154C99.3628 65.3259 98.7185 65.5836 97.9618 65.5836C97.2052 65.5836 96.5657 65.3259 96.0385 64.8154C95.5113 64.3048 95.2525 63.663 95.2525 62.8947C95.2525 62.1265 95.5161 61.4895 96.0385 60.9741C96.5608 60.4636 97.2052 60.2058 97.9618 60.2058C98.7185 60.2058 99.358 60.4635 99.8852 60.9741C100.407 61.4846 100.671 62.1265 100.671 62.8947C100.671 63.663 100.407 64.3 99.8852 64.8154ZM96.8928 64.0617C97.1905 64.3729 97.5518 64.5236 97.9667 64.5236C98.3816 64.5236 98.738 64.368 99.0407 64.0617C99.3384 63.7554 99.4898 63.3664 99.4898 62.8947C99.4898 62.4231 99.3433 62.0292 99.0455 61.7229C98.7478 61.4166 98.3914 61.2658 97.9667 61.2658C97.542 61.2658 97.1857 61.4166 96.8879 61.7229C96.5901 62.0292 96.4437 62.4182 96.4437 62.8947C96.4437 63.3713 96.595 63.7505 96.8928 64.0617Z" fill="white"/>
<path d="M103.766 67.9952C103.166 67.9952 102.663 67.8348 102.253 67.5187C101.843 67.1978 101.55 66.8283 101.374 66.4101L102.404 65.9822C102.512 66.2399 102.683 66.4636 102.917 66.6532C103.146 66.8429 103.43 66.9401 103.766 66.9401C104.216 66.9401 104.567 66.804 104.826 66.5317C105.08 66.2594 105.206 65.8704 105.206 65.3598V64.9757H105.167C104.835 65.3841 104.362 65.5884 103.747 65.5884C103.059 65.5884 102.458 65.3258 101.936 64.8055C101.418 64.2852 101.16 63.6531 101.16 62.914C101.16 62.175 101.418 61.5331 101.936 61.0031C102.453 60.478 103.059 60.2154 103.747 60.2154C104.054 60.2154 104.333 60.2738 104.582 60.3905C104.831 60.5072 105.026 60.6482 105.167 60.8184H105.206V60.3807H106.329V65.2042C106.329 66.1427 106.09 66.8429 105.607 67.3048C105.128 67.7716 104.513 68.0001 103.762 68.0001M103.845 64.5284C104.255 64.5284 104.596 64.3728 104.87 64.0664C105.148 63.7552 105.285 63.3711 105.285 62.9092C105.285 62.4473 105.148 62.0485 104.87 61.7373C104.591 61.4262 104.25 61.2706 103.845 61.2706C103.439 61.2706 103.073 61.4262 102.78 61.7373C102.487 62.0485 102.341 62.4424 102.341 62.9092C102.341 63.376 102.487 63.7552 102.78 64.0664C103.073 64.3776 103.425 64.5284 103.845 64.5284Z" fill="white"/>
<path d="M108.332 57.5168H107.146V65.4182L108.332 65.4182V57.5168Z" fill="white"/>
<path d="M111.589 65.5835C110.828 65.5835 110.188 65.3258 109.681 64.8104C109.168 64.295 108.914 63.658 108.914 62.8946C108.914 62.1313 109.163 61.4602 109.656 60.9594C110.149 60.4586 110.75 60.2057 111.462 60.2057C111.789 60.2057 112.092 60.2641 112.37 60.3857C112.649 60.5024 112.883 60.6579 113.064 60.8427C113.249 61.0275 113.396 61.2123 113.503 61.3873C113.61 61.5624 113.698 61.7423 113.771 61.9173L113.893 62.2236L110.286 63.7115C110.564 64.2561 110.999 64.5284 111.594 64.5284C112.141 64.5284 112.58 64.2804 112.922 63.7845L113.845 64.3971C113.64 64.7035 113.352 64.9758 112.976 65.2237C112.6 65.4669 112.141 65.5884 111.594 65.5884M110.091 62.8169L112.502 61.8201C112.434 61.6499 112.307 61.5137 112.126 61.4068C111.941 61.2998 111.736 61.2512 111.501 61.2512C111.155 61.2512 110.828 61.3922 110.525 61.6791C110.222 61.9659 110.076 62.3452 110.091 62.8169Z" fill="white"/>
<path d="M120.109 65.5838C119.03 65.5838 118.127 65.2191 117.4 64.4946C116.673 63.7701 116.306 62.8609 116.306 61.7766C116.306 60.6923 116.673 59.783 117.4 59.0585C118.127 58.334 119.03 57.9693 120.109 57.9693C121.188 57.9693 122.111 58.368 122.799 59.1606L122.145 59.7927C121.647 59.1752 120.968 58.8689 120.109 58.8689C119.314 58.8689 118.64 59.1363 118.088 59.6712C117.541 60.206 117.263 60.9111 117.263 61.7766C117.263 62.6421 117.537 63.3471 118.088 63.8868C118.635 64.4217 119.309 64.6891 120.109 64.6891C120.988 64.6891 121.74 64.3342 122.36 63.6291L123.014 64.2807C122.682 64.6794 122.262 65.0003 121.754 65.2337C121.251 65.4671 120.7 65.5838 120.109 65.5838Z" fill="white"/>
<path d="M126.326 61.0281C126.81 60.5224 127.425 60.2696 128.176 60.2696C128.928 60.2696 129.543 60.5224 130.026 61.0281C130.51 61.5338 130.754 62.1659 130.754 62.9244C130.754 63.683 130.51 64.3151 130.026 64.8208C129.543 65.3265 128.923 65.5793 128.176 65.5793C127.429 65.5793 126.81 65.3265 126.326 64.8208C125.843 64.3151 125.599 63.683 125.599 62.9244C125.599 62.1659 125.838 61.5289 126.326 61.0281ZM127.024 64.2324C127.346 64.5631 127.732 64.7284 128.171 64.7284C128.611 64.7284 128.996 64.5631 129.324 64.2324C129.646 63.9018 129.807 63.469 129.807 62.9244C129.807 62.3799 129.646 61.9471 129.324 61.6165C129.001 61.2858 128.616 61.1205 128.171 61.1205C127.727 61.1205 127.346 61.2858 127.024 61.6165C126.702 61.9471 126.541 62.3799 126.541 62.9244C126.541 63.469 126.702 63.9018 127.024 64.2324Z" fill="white"/>
<path d="M139.147 65.5832C138.498 65.5832 137.941 65.3303 137.472 64.8198C137.004 64.3092 136.769 63.682 136.769 62.9283C136.769 62.1746 137.004 61.5425 137.472 61.0368C137.941 60.5311 138.502 60.2734 139.147 60.2734C139.528 60.2734 139.869 60.3561 140.172 60.5165C140.475 60.6819 140.704 60.8812 140.85 61.1292H140.89L140.85 60.4387V58.1388H141.793V65.4276H140.894V64.7371H140.855C140.704 64.9802 140.479 65.1844 140.177 65.3498C139.874 65.5102 139.532 65.5929 139.152 65.5929M139.303 64.7371C139.747 64.7371 140.123 64.5766 140.431 64.2509C140.743 63.9251 140.894 63.4875 140.894 62.938C140.894 62.3886 140.738 61.9509 140.431 61.6252C140.118 61.2994 139.742 61.1341 139.303 61.1341C138.864 61.1341 138.493 61.2994 138.18 61.63C137.868 61.9607 137.712 62.3934 137.712 62.938C137.712 63.4826 137.868 63.9154 138.18 64.246C138.493 64.5766 138.869 64.7371 139.303 64.7371Z" fill="white"/>
<path d="M19.7053 60.7507H18.275L18.275 63.7994H18.9292L18.9292 62.7054H19.7102C20.3692 62.7054 20.7354 62.2629 20.7354 61.7329C20.7354 61.2029 20.3741 60.7556 19.7102 60.7556M19.6224 62.1511H18.9292L18.9292 61.3099H19.6224C19.8762 61.3099 20.0715 61.4801 20.0715 61.7281C20.0715 61.976 19.8762 62.1462 19.6224 62.1462M23.6936 60.7021C22.771 60.7021 22.0973 61.3585 22.0973 62.2775C22.0973 63.1965 22.771 63.8578 23.6936 63.8578C24.6162 63.8578 25.2948 63.1965 25.2948 62.2775C25.2948 61.3585 24.6211 60.7021 23.6936 60.7021ZM23.6936 63.2792C23.1273 63.2792 22.7661 62.8464 22.7661 62.2775C22.7661 61.7086 23.1273 61.2807 23.6936 61.2807C24.2599 61.2807 24.626 61.7086 24.626 62.2775C24.626 62.8464 24.2599 63.2792 23.6936 63.2792ZM29.9323 60.7507L29.4002 62.9534L28.8241 60.7507H28.3165L27.7307 62.9534L27.1986 60.7507H26.4663L27.3401 63.7994H28.0382L28.5654 61.7086L29.1024 63.7994H29.7956L30.6694 60.7507H29.9323ZM34.2427 61.305V60.7507H32.0753L32.0753 63.7994H34.2427V63.2354H32.7245V62.5303H34.2085V61.9712H32.7245V61.305H34.2427ZM37.6452 62.6325C37.9722 62.5595 38.314 62.2678 38.314 61.7281C38.314 61.1883 37.9234 60.7507 37.2839 60.7507H35.8585V63.7994H36.5078V62.7054H36.9862L37.5915 63.7994H38.3384L37.6501 62.6373L37.6452 62.6325ZM37.1912 62.1414H36.5029V61.3002H37.1912C37.4499 61.3002 37.6501 61.4655 37.6501 61.7183C37.6501 61.9712 37.4499 62.1365 37.1912 62.1365M42.0728 61.2953V60.741H39.9053L39.9053 63.7897H42.0728V63.2257H40.5546V62.5206H42.0386V61.9615H40.5546V61.2953H42.0728ZM44.8894 60.741H43.6837V63.7897H44.8894C45.8511 63.7897 46.5101 63.1868 46.5101 62.2629C46.5101 61.3391 45.8462 60.741 44.8894 60.741ZM44.8894 63.2159H44.3329L44.3329 61.3099H44.8894C45.5143 61.3099 45.8511 61.7232 45.8511 62.2678C45.8511 62.8124 45.4948 63.2208 44.8894 63.2208M52.3192 62.2192C52.6072 62.1608 52.8415 61.9031 52.8415 61.5238C52.8415 61.1154 52.5438 60.7459 51.9629 60.7459H50.3519V63.7946H52.0117C52.5975 63.7946 52.9001 63.425 52.9001 62.9728C52.9001 62.5838 52.6414 62.2726 52.3143 62.2192M51.0012 61.2953H51.8164C52.0361 61.2953 52.1728 61.4412 52.1728 61.6308C52.1728 61.8204 52.0361 61.9663 51.8164 61.9663H51.0012V61.2904V61.2953ZM51.8408 63.2403H51.0012V62.5255H51.8408C52.0947 62.5255 52.2362 62.6859 52.2362 62.8804C52.2362 63.0992 52.0898 63.2403 51.8408 63.2403ZM56.2879 60.7459L55.5362 61.9712L54.7698 60.7459H54.0278L55.2042 62.5449V63.7946H55.8584V62.5449L57.0251 60.7458L56.2831 60.7459H56.2879Z" fill="white"/>
<path d="M55.7899 24.8028L52.7975 24.8028V26.0962L55.7899 26.0962V24.8028Z" fill="white"/>
<path d="M64.7782 24.8028L55.7961 24.8028V26.0962L64.7782 26.0962V24.8028Z" fill="white"/>
<path d="M52.7975 24.8028L37.8264 24.8028V26.0962L52.7975 26.0962V24.8028Z" fill="white"/>
<path d="M73.763 24.8028L64.7809 24.8028V26.0962L73.763 26.0962V24.8028Z" fill="white"/>
<path d="M79.8519 24.8028L73.7548 24.8028V26.0962L79.8519 26.0962V24.8028Z" fill="white"/>
</svg>
