<svg width="80" height="80" viewBox="0 0 80 80" fill="none" xmlns="http://www.w3.org/2000/svg">
<path fill-rule="evenodd" clip-rule="evenodd" d="M11.6934 23.9995C10.706 23.9995 9.778 24.3747 9.07979 25.0556C8.38211 25.7369 7.99762 26.6422 7.99762 27.6054V52.3942C7.99762 53.3574 8.38211 54.2627 9.07979 54.9439C9.778 55.6252 10.706 55.9995 11.6934 55.9995H34.7644C34.4069 55.4196 34.023 54.7902 33.7342 54.3167L33.7341 54.3166L33.7332 54.3151C33.5543 54.0218 33.412 53.7885 33.3353 53.6642L30.5864 53.6652C30.5824 47.0092 32.9122 43.307 35.6614 42.5915C36.0441 42.5235 35.8695 40.6898 35.3817 40.1471C35.3817 40.1471 34.0595 40.1816 33.781 40.1136C33.4326 40.0124 33.6763 39.6726 33.6763 39.6726L34.9625 36.9554L34.7878 36.208L30.0201 36.2107C29.95 36.2106 33.9509 33.5258 33.9509 33.5258C34.1564 26.462 41.5692 25.9147 46.0601 28.8328C48.7061 30.5636 48.917 33.9596 48.7093 36.3365C48.6749 36.4727 48.0137 36.3708 48.0137 36.3708C48.0137 36.3708 47.5626 38.9522 48.7452 38.9513L53.9661 38.9488C56.0889 38.8802 58.1432 40.2711 58.1432 40.2711L58.6643 38.5052L47.2088 23.9995H11.6934ZM15.6339 50.8976C14.2327 50.8987 13.096 49.7912 13.0953 48.4236C13.0947 47.0561 14.2297 45.9476 15.6313 45.9466C17.0328 45.9455 18.1685 47.053 18.169 48.4205C18.1704 49.7881 17.0354 50.8976 15.6339 50.8976ZM68.2276 23.9997C69.2355 23.9997 70.1835 24.3749 70.8964 25.0558C71.6097 25.7371 72.0023 26.6424 72.0023 27.6055V52.3944C72.0023 54.3827 70.3087 55.9997 68.2276 55.9997H61.0263L61.025 53.6501C63.1586 53.6482 66.7844 53.6461 66.7844 53.6461C68.2413 53.5099 69.8047 51.0644 70.2307 49.6034C70.3385 49.2718 70.0639 48.9916 69.688 48.608C69.447 48.3622 69.1645 48.0739 68.9144 47.7023C68.7525 47.4652 68.6342 47.1575 68.5139 46.8444C68.2898 46.2616 68.0587 45.6603 67.5261 45.462C66.353 45.021 65.0372 43.867 65.0372 43.867L65.0368 43.158C65.0365 42.8057 65.0363 42.4577 65.0363 42.4749C65.0363 42.4405 64.4314 41.8298 64.4314 41.8298L63.8272 41.7283L63.8265 41.1166L63.2928 40.4044L62.6884 40.3027L62.6882 39.6575L62.1901 38.9788L61.3368 38.8773L52.0023 23.9997H68.2276Z" fill="white"/>
</svg>
